<?xml version="1.0" encoding="UTF-8"?>
<svg width="103px" height="105px" viewBox="0 0 103 105" version="1.1" xmlns="http://www.w3.org/2000/svg" xmlns:xlink="http://www.w3.org/1999/xlink">
    <title>Group 8</title>
    <g id="Page-1" stroke="none" stroke-width="1" fill="none" fill-rule="evenodd">
        <g id="Desktop-HD-Copy-29" transform="translate(-222.000000, -868.000000)">
            <g id="Group-8" transform="translate(222.000000, 868.000000)">
                <ellipse id="Oval" fill-opacity="0.146170236" fill="#111820" cx="52" cy="102.5" rx="43" ry="2.5"></ellipse>
                <g id="Group-4">
                    <circle id="Oval" fill="#F4F4F4" cx="50.5" cy="50.5" r="50.5"></circle>
                    <path d="M19.8853839,87.4630554 C28.5552495,95.1323658 39.9071175,99.838597 52.355166,99.9959271 L53,100 L57.886,100 L53,100 C54.6408312,100 56.2632021,99.9209624 57.8635134,99.7664868 L56.6143271,86.8266439 C55.4250679,86.9414374 54.2245199,86.9995241 53.0148949,86.9999971 C43.8367303,86.9999989 35.2220822,83.6734263 28.4987483,77.7260151 L19.8853839,87.4630554 Z M103,47.561 L103,50 L102.993301,49.1731586 C102.984572,48.6347407 102.967332,48.0983917 102.94171,47.5642401 L89.9566445,48.1872002 C89.9853705,48.7860971 89.9998585,49.3874981 89.999999,49.9911376 C89.9999996,59.7918621 86.196848,68.9522128 79.496247,75.8253903 L88.805027,84.899894 C97.4099694,76.0731909 102.77848,64.0764213 102.993301,50.8268414 L103,50 L103,47.561 Z M3.00000735,57.358 L3.00000735,50 C3.00000735,52.4731699 3.17956169,54.9044009 3.52635936,57.2813673 L16.390233,55.4049998 C16.1321154,53.6360041 16.0009804,51.8385572 16.0000073,50.020427 C16.0000073,41.4627619 18.8843609,33.3983033 24.1116578,26.878616 L13.9686005,18.7472945 C7.23014073,27.1520539 3.15019732,37.7800292 3.00406333,49.3559274 L3.00000735,50 L3.00000735,57.358 Z M53,13 C63.4225601,13 73.1227286,17.314183 80.0883566,24.7961149 L89.6030313,15.9377311 C80.6048756,6.27269768 67.8246453,0.175967336 53.6185477,0.00374749578 L53,5.68434189e-14 L53,13 Z M52.975,5.68434189e-14 L52.1731586,0.00669857147 C49.1497368,0.0557187482 46.1915496,0.373095002 43.3213781,0.936046475 L45.8239257,13.6928978 C48.1597467,13.2347814 50.5519036,13.0012009 52.9812426,13 L52.975,5.68434189e-14 Z M43.138,7.77017618e-06 L52.974,7.77017618e-06 L43.138,7.77017618e-06 Z" id="Oval" fill="#D82D27" fill-rule="nonzero"></path>
                    <circle id="Oval" stroke="#D82D27" stroke-width="5" cx="53" cy="50" r="34.5"></circle>
                    <g id="Group-11" transform="translate(34.000000, 32.000000)" fill="#111820" fill-rule="nonzero">
                        <path d="M34.6885789,18.9528622 C34.9012093,19.2050112 35.0147122,19.5466407 35.2476915,19.8248362 C38.9033203,24.1899414 36.0338852,28.2660503 33.5824864,30.0159572 C32.316192,30.919889 30.7206812,31.3413667 29.1260622,31.1931875 L21.1000016,30.4470646 L23.7084076,34.2880998 C24.2773063,35.1186484 24.0066982,36.183835 23.1039874,36.7072562 C22.7987344,36.884252 22.4457104,36.9979631 22.0849016,37.0000568 L14.8672339,37.0000568 C13.8002308,37.0054403 12.9303306,36.2330376 12.9242574,35.2513301 C12.922228,34.9232919 13.0189005,34.5687119 13.203573,34.2880998 L15.7431783,30.4612852 L7.87393786,31.1931875 C6.34865003,31.3349241 4.82254638,30.9554623 3.58452235,30.1311182 L3.41751364,30.0159572 C0.692057814,28.0704174 -0.989257812,24.9404297 2.31142112,18.9528622 L18.3450928,0.865112305 C18.3612068,0.853362459 18.434769,0.853282334 18.5048619,0.856179334 C18.5757598,0.859109605 18.6431083,0.865085776 18.6438668,0.865112305 L34.6885789,18.9528622 Z" id="Combined-Shape"></path>
                    </g>
                </g>
                <path d="M53,99 C80.6142375,99 103,76.8380951 103,49.5 C103,22.1619049 80.6142375,0 53,0 C53.1630765,21.9603686 53.2996056,46.147186 53,99 Z" id="Oval" fill-opacity="0.171274038" fill="#111820"></path>
            </g>
        </g>
    </g>
</svg>