<?xml version="1.0" encoding="UTF-8"?>
<svg width="101px" height="104px" viewBox="0 0 101 104" version="1.1" xmlns="http://www.w3.org/2000/svg" xmlns:xlink="http://www.w3.org/1999/xlink">
    <title>Group 15</title>
    <g id="Page-1" stroke="none" stroke-width="1" fill="none" fill-rule="evenodd">
        <g id="Desktop-HD-Copy-29" transform="translate(-671.000000, -869.000000)">
            <g id="Group-15" transform="translate(671.000000, 869.000000)">
                <circle id="Oval" fill="#1E76BC" cx="50" cy="50" r="50"></circle>
                <g id="Group-13" transform="translate(8.000000, 15.000000)" stroke="#FFFFFF" stroke-width="3">
                    <rect id="Rectangle" fill="#1D8FCE" x="20.5" y="14" width="42" height="42" rx="8"></rect>
                    <g id="Group-7" transform="translate(0.000000, 4.500000)">
                        <polyline id="Path-27" points="19 19.7636719 9.59343426 19.7636719 9.59343426 8"></polyline>
                        <polyline id="Path-27-Copy" transform="translate(14.703283, 45.881836) scale(-1, 1) rotate(-180.000000) translate(-14.703283, -45.881836) " points="19.4065657 51.7636719 10 51.7636719 10 40"></polyline>
                        <circle id="Oval" cx="10" cy="5" r="3.5"></circle>
                        <circle id="Oval-Copy-4" cx="5" cy="29" r="3.5"></circle>
                        <circle id="Oval-Copy-3" transform="translate(10.000000, 54.763672) scale(-1, 1) rotate(-180.000000) translate(-10.000000, -54.763672) " cx="10" cy="54.7636719" r="3.5"></circle>
                        <line x1="19" y1="29.7636719" x2="9.59343426" y2="29.7636719" id="Path-27-Copy-2"></line>
                    </g>
                    <g id="Group-7-Copy" transform="translate(71.000000, 34.500000) scale(-1, 1) translate(-71.000000, -34.500000) translate(61.000000, 4.500000)">
                        <polyline id="Path-27" points="19 19.7636719 9.59343426 19.7636719 9.59343426 8"></polyline>
                        <polyline id="Path-27-Copy" transform="translate(14.703283, 45.881836) scale(-1, 1) rotate(-180.000000) translate(-14.703283, -45.881836) " points="19.4065657 51.7636719 10 51.7636719 10 40"></polyline>
                        <circle id="Oval" cx="10" cy="5" r="3.5"></circle>
                        <circle id="Oval-Copy-4" cx="5" cy="29" r="3.5"></circle>
                        <circle id="Oval-Copy-3" transform="translate(10.000000, 54.763672) scale(-1, 1) rotate(-180.000000) translate(-10.000000, -54.763672) " cx="10" cy="54.7636719" r="3.5"></circle>
                        <line x1="19" y1="29.7636719" x2="9.59343426" y2="29.7636719" id="Path-27-Copy-2"></line>
                    </g>
                    <g id="Group-10" transform="translate(29.500000, 0.000000)" stroke-linecap="square">
                        <line x1="6.75" y1="1" x2="6.25" y2="12.6666667" id="Line-Copy"></line>
                        <line x1="18.75" y1="0" x2="18.25" y2="11.6666667" id="Line-Copy-3"></line>
                        <line x1="0.5" y1="5.36363636" x2="0.5" y2="12.6363636" id="Line"></line>
                        <line x1="12.5" y1="5.36363636" x2="12.5" y2="12.6363636" id="Line-Copy-2"></line>
                        <line x1="24.5" y1="5.36363636" x2="24.5" y2="12.6363636" id="Line-Copy-4"></line>
                    </g>
                    <g id="Group-10-Copy" transform="translate(41.500000, 63.000000) rotate(-180.000000) translate(-41.500000, -63.000000) translate(29.000000, 56.500000)" stroke-linecap="square">
                        <line x1="6.75" y1="1" x2="6.25" y2="12.6666667" id="Line-Copy"></line>
                        <line x1="18.75" y1="0" x2="18.25" y2="11.6666667" id="Line-Copy-3"></line>
                        <line x1="0.5" y1="5.36363636" x2="0.5" y2="12.6363636" id="Line"></line>
                        <line x1="12.5" y1="5.36363636" x2="12.5" y2="12.6363636" id="Line-Copy-2"></line>
                        <line x1="24.5" y1="5.36363636" x2="24.5" y2="12.6363636" id="Line-Copy-4"></line>
                    </g>
                    <g id="Group-12" transform="translate(27.000000, 23.250000)">
                        <polyline id="Path-28" points="6.5 4.25 0 10.75 6.5 17.25"></polyline>
                        <polyline id="Path-28-Copy" transform="translate(25.250000, 11.750000) scale(-1, 1) translate(-25.250000, -11.750000) " points="28.5 5.25 22 11.75 28.5 18.25"></polyline>
                        <line x1="17.75" y1="0" x2="11.25" y2="21.5" id="Line-2" stroke-linecap="square"></line>
                    </g>
                </g>
                <ellipse id="Oval-Copy-6" fill-opacity="0.146170236" fill="#111820" cx="48" cy="101.5" rx="43" ry="2.5"></ellipse>
                <path d="M50,100 C78.1665222,100 101,77.6142375 101,50 C101,22.3857625 78.1665222,0 50,0 C50.166338,22.1821905 50.3055977,46.6133192 50,100 Z" id="Oval" fill-opacity="0.171274038" fill="#111820"></path>
            </g>
        </g>
    </g>
</svg>