<?xml version="1.0" encoding="UTF-8"?>
<svg width="8px" height="18px" viewBox="0 0 8 18" version="1.1" xmlns="http://www.w3.org/2000/svg" xmlns:xlink="http://www.w3.org/1999/xlink">
    <!-- Generator: Sketch 51.3 (57544) - http://www.bohemiancoding.com/sketch -->
    <title>Shape</title>
    <desc>Created with Sketch.</desc>
    <defs></defs>
    <g id="Page-1" stroke="none" stroke-width="1" fill="none" fill-rule="evenodd">
        <g id="Desktop-HD-Copy" transform="translate(-1353.000000, -1803.000000)" fill="#FFFFFF">
            <g id="Group-6" transform="translate(0.000000, 1750.000000)">
                <g id="Group-5" transform="translate(1255.000000, 53.000000)">
                    <path d="M103.32302,5.89798016 L103.32302,4.34703727 C103.32302,4.11417464 103.333248,3.93386362 103.354088,3.80650639 C103.3748,3.67888104 103.42185,3.55340066 103.494854,3.429529 C103.56773,3.3057914 103.685866,3.22026097 103.849006,3.17293771 C104.012274,3.12548038 104.229368,3.10188578 104.500288,3.10188578 L105.979288,3.10188578 L105.979288,-1.42108547e-14 L103.61478,-1.42108547e-14 C102.2465,-1.42108547e-14 101.263952,0.340378944 100.666752,1.02113683 C100.069552,1.70202878 99.7710158,2.70493342 99.7710158,4.03025293 L99.7710158,5.89798016 L98,5.89798016 L98,9 L99.7708879,9 L99.7708879,18 L103.32302,18 L103.32302,9 L105.687528,9 L106,5.89798016 L103.32302,5.89798016 L103.32302,5.89798016 Z" id="Shape"></path>
                </g>
            </g>
        </g>
    </g>
</svg>