<?xml version="1.0" encoding="UTF-8"?>
<svg width="502px" height="513px" viewBox="0 0 502 513" version="1.1" xmlns="http://www.w3.org/2000/svg" xmlns:xlink="http://www.w3.org/1999/xlink">
    <title>Group 51</title>
    <defs>
        <polygon id="path-1" points="1.71895722e-05 0.778 501.978 0.778 501.978 511.99974 1.71895722e-05 511.99974"></polygon>
    </defs>
    <g id="Page-1" stroke="none" stroke-width="1" fill="none" fill-rule="evenodd">
        <g id="about-dark-v3" transform="translate(-453.000000, -136.000000)">
            <g id="Group-51" transform="translate(453.000000, 136.000000)">
                <g id="Group-6" transform="translate(0.000000, 0.222000)">
                    <g id="Group-3">
                        <mask id="mask-2" fill="white">
                            <use xlink:href="#path-1"></use>
                        </mask>
                        <g id="Clip-2"></g>
                        <path d="M107.0882,250.4083 L123.5662,251.7723 L123.9882,243.7503 C124.6172,231.8283 126.7402,219.9323 130.4712,208.4803 C134.2562,197.0623 139.2182,185.9053 145.8142,175.6283 C152.4032,165.3783 160.1082,155.6693 169.1912,147.2183 C178.1552,138.6443 188.2982,131.1483 199.3052,124.8533 L199.3902,124.8053 L199.3162,124.6443 L199.2252,124.6773 C175.1932,133.0383 153.4702,148.9993 137.3892,169.6863 C129.4172,180.0663 122.5612,191.5023 117.7122,203.8423 C112.7962,216.1413 109.4752,229.1553 107.9842,242.4273 L107.0882,250.4083 Z M217.6152,401.4043 L223.1632,385.2523 L214.9602,382.2113 C192.7532,373.9783 172.5202,360.3593 157.3052,342.2423 C141.7022,324.4713 131.2052,302.4833 126.4602,279.2733 L124.6992,270.6553 L107.7602,273.7373 L109.1582,282.4213 C113.4302,308.9503 125.5442,334.1063 142.9622,354.5933 C160.6572,374.8273 183.6612,390.6123 209.2782,398.7553 L217.6152,401.4043 Z M320.3802,378.5333 C298.0492,388.3403 273.5342,392.3433 249.7242,389.9413 L241.7762,389.1403 L240.7042,405.6063 L248.6872,405.8733 C262.0182,406.3213 275.3562,405.0223 288.2492,401.9933 C301.1562,399.0013 313.4902,393.9643 324.9302,387.6163 C347.7482,374.7603 366.7182,355.6813 378.6052,333.2153 C362.7902,353.0493 342.7652,368.7613 320.3802,378.5333 L320.3802,378.5333 Z M144.3662,109.8793 L149.2642,116.3733 L152.3202,113.8933 C171.5412,98.2943 194.1052,86.5853 218.3552,79.6973 L219.0872,79.4893 L218.7662,78.0853 L218.0172,78.2163 C192.9652,82.5783 168.7102,92.7373 147.5842,107.6143 L144.3662,109.8793 Z M76.9012,207.0383 L90.6052,211.2093 L92.5342,204.4343 C99.1832,181.0923 110.5792,158.9383 126.1792,139.9463 L129.4552,135.9583 L121.8882,129.3763 L118.3942,133.1763 C100.8022,152.3043 87.1032,175.3033 79.0562,200.3313 L76.9012,207.0383 Z M82.3812,325.4733 L99.2012,319.6433 L96.2242,311.3673 C92.1562,300.0603 89.2652,288.3153 87.6402,276.3713 C86.8402,270.3983 86.3222,264.3813 86.1372,258.3453 C85.9872,252.3053 86.4042,246.2743 86.4252,240.2183 L86.4522,232.3883 L71.2942,231.1003 L70.8762,238.8963 C70.5252,245.4663 69.8832,252.0503 69.9252,258.6463 C69.9682,265.2423 70.3732,271.8433 71.0932,278.4113 C72.5562,291.5503 75.4192,304.5513 79.6042,317.1283 L82.3812,325.4733 Z M157.7862,416.5193 L168.6172,400.9813 L160.8542,395.6243 C141.1422,382.0223 124.3032,364.2283 111.8032,343.7553 L107.0462,335.9643 L91.4912,345.3803 L96.1862,353.2083 C109.8342,375.9723 128.3112,395.8273 150.0662,411.0993 L157.7862,416.5193 Z M271.8012,444.4793 L271.4182,426.4763 L262.3712,426.6243 C238.3282,427.0173 214.2792,422.4023 192.2272,412.9983 L183.6142,409.3253 L176.3172,426.6543 L184.9602,430.2573 C209.5192,440.4923 236.2432,445.4173 262.7542,444.7193 L271.8012,444.4793 Z M378.4892,400.0573 L369.6292,388.4433 L363.5742,392.8383 C343.9792,407.0583 321.6502,417.3863 298.1472,422.5663 L289.7532,424.4153 L293.7322,441.3583 L302.0762,439.2983 C327.7662,432.9533 352.0912,421.1733 372.6472,404.7313 L378.4892,400.0573 Z M437.5372,303.6213 L428.7132,300.9873 L427.2402,305.4813 C419.5712,328.8923 406.7892,350.3553 390.5322,368.4523 L386.0372,373.4563 L396.4362,382.4073 L400.7282,377.2263 C417.4612,357.0333 429.5312,333.2213 436.3012,308.1873 L437.5372,303.6213 Z M435.9642,232.0333 C436.4822,238.2703 436.6842,244.5193 436.5722,250.7493 C436.4902,256.9823 435.6932,263.1763 435.3362,269.3553 L435.1412,272.7463 L442.1372,273.3043 L442.1062,269.8963 C442.0462,263.4483 442.4132,257.0253 441.9152,250.6223 C441.4852,244.2213 440.7342,237.8553 439.6652,231.5573 C437.5442,218.9533 433.8402,206.6943 429.0702,194.9853 C432.6872,207.1163 434.8482,219.5753 435.9642,232.0333 L435.9642,232.0333 Z M246.6492,38.0923 L246.8032,41.3603 L248.3712,41.2573 L257.2192,40.6703 C260.1732,40.4753 263.1272,40.6843 266.0882,40.6713 L283.9212,40.9103 L266.1432,39.0843 C263.1682,38.8313 260.1922,38.3583 257.2042,38.2873 L248.2222,38.1203 L246.6492,38.0923 Z M191.7582,46.1293 L193.8172,52.9353 L197.1222,51.9503 L211.4322,47.6843 L214.2932,46.8313 L213.0162,41.2003 L210.1142,41.8723 L195.1252,45.3483 L191.7582,46.1293 Z M161.8932,57.0603 L165.7012,65.2483 L169.6812,63.4173 L183.1822,57.2043 L186.7472,55.5643 L184.0412,48.4743 L180.3912,49.8893 L165.9862,55.4733 L161.8932,57.0603 Z M71.9342,133.3523 L83.6262,141.5233 L87.5202,135.7083 C94.3232,125.5483 102.1012,116.0403 110.5352,107.1353 L114.8592,102.5703 L106.1932,93.9153 L101.6402,98.2523 C92.2232,107.2183 83.7142,117.1463 76.0482,127.6913 L71.9342,133.3523 Z M59.0542,154.2833 L55.9642,161.2893 L49.6332,175.6403 L46.5442,182.6473 L46.5322,182.6443 L46.5122,182.7183 L46.4342,182.8963 L46.4612,182.9063 L44.3922,190.4683 L40.2372,205.6473 L38.0532,213.6303 L54.3532,217.3033 L56.3672,209.2823 L59.9192,195.1423 L61.6582,188.2213 L64.4392,181.2693 L69.8582,167.7273 L72.7052,160.6083 L59.0542,154.2833 Z M46.8802,331.3543 L64.4892,325.8173 L61.6972,317.0543 C58.0282,305.5333 55.3862,293.6843 53.7942,281.6873 L52.6022,272.7033 L34.6932,275.0083 L35.8162,284.0003 C37.4482,297.0633 40.2402,309.9893 44.1502,322.5713 L46.8802,331.3543 Z M99.8242,386.5083 L90.9592,375.0523 L86.4432,369.2173 L82.8922,363.0163 L75.6892,350.4453 L71.0462,342.3453 L54.5672,350.9543 L59.1502,359.0853 L66.9122,372.8543 L70.0552,378.4283 L69.8682,378.5613 L70.8482,379.8363 L71.5232,381.0333 L71.6902,380.9303 L75.6222,386.0453 L85.2582,398.5773 L91.0272,406.0813 L105.6162,393.9923 L99.8242,386.5083 Z M189.6352,469.0963 L195.8652,452.1493 L187.3722,448.9883 C176.0322,444.7673 165.0672,439.5503 154.6482,433.4073 L146.7252,428.7373 L137.4122,444.6733 L145.3672,449.2863 C156.7632,455.8953 168.7402,461.5013 181.1172,466.0003 L189.6352,469.0963 Z M274.0032,462.2173 L265.8102,462.3613 C260.9452,462.4473 256.0842,462.3843 251.2252,462.1943 L242.8802,461.8693 L242.8772,461.9573 L236.6982,461.0173 L222.3072,458.8293 L213.7352,457.5263 L210.6812,474.7743 L219.2842,475.8993 L234.9162,477.9423 L243.3572,479.0473 L243.3872,478.7523 L250.6382,478.8873 C255.8842,478.9833 261.1272,478.9423 266.3662,478.7383 L274.5522,478.4183 L274.0032,462.2173 Z M382.1452,439.4103 L375.5712,428.9873 L370.1442,432.2223 C359.6142,438.5003 348.6242,443.9743 337.2172,448.3593 L330.6692,450.8763 L336.0552,464.1163 L342.5052,461.3543 C354.4932,456.2213 366.0512,450.1023 376.8832,442.9063 L382.1452,439.4103 Z M421.6472,403.9673 L414.5322,397.1603 L410.8292,400.5973 L399.9902,410.6583 L396.0252,414.3363 L403.4752,422.5313 L407.2632,418.6593 L418.1182,407.5703 L421.6472,403.9673 Z M439.7112,379.8463 L433.0962,375.0903 L430.4172,378.3393 L420.9702,389.7953 L418.0032,393.3943 L425.3982,399.5403 L428.1462,395.7593 L437.2402,383.2443 L439.7112,379.8463 Z M456.0792,334.1693 L460.0542,335.6843 C472.7882,302.7103 473.3012,275.5573 473.3012,275.5573 C473.3012,275.5573 467.1962,310.5853 456.0792,334.1693 L456.0792,334.1693 Z M367.4482,28.2583 L365.9652,31.3883 C385.0802,40.1223 414.6282,60.4153 414.6282,60.4153 C414.6282,60.4153 392.1662,40.4523 367.4482,28.2583 L367.4482,28.2583 Z M283.3792,2.6013 L282.4372,10.9353 L286.5092,11.2853 C299.6952,12.4173 312.8172,14.6203 325.7012,17.8853 L328.6262,18.6263 L330.2212,12.9733 L327.3392,12.0783 C314.3342,8.0383 300.9692,5.0553 287.4262,3.1663 L283.3792,2.6013 Z M159.8952,18.9143 L164.5442,30.8393 L170.3732,28.4523 C194.6372,18.5183 220.5942,12.5773 246.9092,10.9043 L251.8922,10.5873 L251.4282,0.7773 L246.4382,0.9313 C219.0202,1.7833 191.6532,7.0963 165.7982,16.7183 L159.8952,18.9143 Z M88.1862,62.3773 L98.0852,74.2443 L103.8422,69.2753 C113.7092,60.7613 124.2762,53.0303 135.4102,46.1933 L141.3342,42.5563 L134.3732,30.7843 L128.3352,34.2283 C116.3332,41.0713 104.8732,48.8953 94.1012,57.5983 L88.1862,62.3773 Z M16.4382,164.7083 L32.8412,171.4783 L36.1282,163.3153 C40.9732,151.2853 46.8032,139.6413 53.5382,128.5333 L57.9272,121.2963 L43.6482,112.4693 L39.1392,119.6323 C31.7342,131.3983 25.2762,143.7733 19.8602,156.6003 L16.4382,164.7083 Z M1.4522,288.7233 L20.0422,286.9873 L19.5852,277.6793 L18.6332,258.2633 C18.2762,251.7883 18.6072,245.2973 18.9682,238.8303 C19.7952,225.8953 21.6572,213.0283 24.5532,200.3953 L26.5852,191.5353 L8.9282,187.4293 L6.8492,196.2773 C3.6552,209.8553 1.5732,223.6943 0.6082,237.6063 C0.1762,244.5613 -0.2028,251.5393 0.1222,258.5063 L1.0422,279.4083 L1.4522,288.7233 Z M25.8512,368.6483 L42.9862,361.0333 L39.1992,352.4173 C33.9952,340.5773 29.7342,328.3343 26.4062,315.8413 L23.9822,306.7343 L5.8342,311.4713 L8.1712,320.5983 C11.6322,334.1183 16.2842,347.3313 21.9972,360.0613 L25.8512,368.6483 Z M105.6272,463.5973 L116.8572,449.3883 L109.7482,443.7383 C99.6082,435.6783 90.1192,426.8013 81.4032,417.2243 L75.2162,410.4283 L61.6202,422.8733 L67.8442,429.6373 C77.2792,439.8893 87.5382,449.3803 98.4872,457.9863 L105.6272,463.5973 Z M219.7582,509.7363 L222.6682,493.9203 L214.7062,492.3873 C189.1552,487.4683 164.4672,478.3523 141.8992,465.5443 L134.2662,461.2143 L125.6692,476.6793 L133.3722,480.8853 C157.8132,494.2253 184.4132,503.5373 211.7722,508.3353 L219.7582,509.7363 Z M301.3732,507.8453 L299.4832,494.3613 L292.6142,495.2053 C279.6382,496.8033 266.5472,497.3493 253.5082,496.8633 L245.9432,496.5803 L245.6232,511.9573 L253.1922,511.9963 C267.0392,512.0673 280.8792,511.0393 294.5352,508.9113 L301.3732,507.8453 Z M411.6082,458.3153 L405.8722,450.3883 L401.7952,453.2373 C390.9932,460.7863 379.5962,467.4533 367.7522,473.1483 L362.6852,475.5843 L367.8052,485.7993 L372.7912,483.1993 C384.9852,476.8463 396.6442,469.5093 407.6262,461.2943 L411.6082,458.3153 Z M484.7322,364.9473 L481.3522,363.2693 L480.4442,364.9823 C467.9472,388.5693 451.6462,409.9963 432.4682,428.2343 L429.5232,431.0333 L435.4302,436.9183 L438.2222,433.9683 C457.0122,414.1133 472.5022,391.2983 483.9162,366.7053 L484.7322,364.9473 Z M501.9782,310.1023 C501.9782,310.1023 501.1392,319.1283 493.1802,343.4453 L490.3412,342.4713 C497.1252,327.7303 501.9782,310.1023 501.9782,310.1023 L501.9782,310.1023 Z" id="Fill-1" fill="#58585B" opacity="0.1984375" mask="url(#mask-2)"></path>
                    </g>
                    <path d="M305.552,255.0607 C305.552,280.9647 284.552,301.9647 258.648,301.9647 C232.742,301.9647 211.742,280.9647 211.742,255.0607 C211.742,229.1557 232.742,208.1557 258.648,208.1557 C284.552,208.1557 305.552,229.1557 305.552,255.0607" id="Fill-4" fill="#58585B" opacity="0.201395089"></path>
                </g>
                <path d="M152.8806,286.7133 C152.0526,286.7133 151.4026,286.2903 151.0956,285.5513 L128.2866,233.4193 L105.4846,285.5383 C105.1796,286.2353 104.4746,286.6873 103.6876,286.6873 C103.4076,286.6873 103.1376,286.6303 102.8816,286.5183 C102.4026,286.3093 102.0126,285.9053 101.8106,285.4143 C101.6076,284.9183 101.6086,284.3863 101.8146,283.9163 L126.4086,227.7273 C126.7856,226.9763 127.4676,226.5513 128.2866,226.5513 C129.0666,226.5513 129.7836,227.0183 130.0726,227.7133 L154.6726,283.9163 C154.8846,284.4003 154.8986,284.9403 154.7116,285.4353 C154.5266,285.9273 154.1636,286.3123 153.6926,286.5183 C153.3526,286.6533 153.1046,286.7133 152.8806,286.7133" id="Fill-7" fill="#D82D27"></path>
                <path d="M152.8806,286.4799 C152.1516,286.4799 151.5796,286.1089 151.3096,285.4619 L128.2866,232.8369 L105.2716,285.4449 C105.0036,286.0579 104.3816,286.4549 103.6876,286.4549 C103.4416,286.4549 103.2016,286.4039 102.9756,286.3049 C102.5516,286.1199 102.2056,285.7619 102.0266,285.3269 C101.8466,284.8879 101.8476,284.4199 102.0276,284.0089 L126.6216,227.8199 C126.9486,227.1699 127.5476,226.7849 128.2866,226.7849 C128.9726,226.7849 129.6046,227.1929 129.8586,227.8019 L154.4586,284.0089 C154.6466,284.4369 154.6586,284.9159 154.4936,285.3529 C154.3306,285.7869 154.0116,286.1249 153.5986,286.3049 C153.2996,286.4239 153.0766,286.4799 152.8806,286.4799" id="Fill-9" fill="#D82D27"></path>
                <path d="M186.4934,286.7133 C185.4174,286.7133 184.5074,285.8033 184.5074,284.7273 L184.5074,228.5363 C184.5074,227.4613 185.4174,226.5513 186.4934,226.5513 C187.6254,226.5513 188.4794,227.4043 188.4794,228.5363 L188.4794,282.7403 L217.2144,282.7403 C218.2894,282.7403 219.1984,283.6503 219.1984,284.7273 C219.1984,285.8593 218.3464,286.7133 217.2144,286.7133 L186.4934,286.7133 Z" id="Fill-11" fill="#D82D27"></path>
                <path d="M186.4929,286.4799 C185.5429,286.4799 184.7399,285.6769 184.7399,284.7269 L184.7399,228.5379 C184.7399,227.5869 185.5429,226.7849 186.4929,226.7849 C187.4929,226.7849 188.2459,227.5389 188.2459,228.5379 L188.2459,282.9739 L217.2139,282.9739 C218.1629,282.9739 218.9659,283.7769 218.9659,284.7269 C218.9659,285.7269 218.2119,286.4799 217.2139,286.4799 L186.4929,286.4799 Z" id="Fill-13" fill="#D82D27"></path>
                <path d="M128.2752,270.1587 C126.9122,270.1587 125.8032,269.0517 125.8032,267.6877 C125.8032,266.3257 126.9122,265.2177 128.2752,265.2177 C129.6372,265.2177 130.7462,266.3257 130.7462,267.6877 C130.7462,269.0517 129.6372,270.1587 128.2752,270.1587" id="Fill-15" fill="#FFFFFF"></path>
                <path d="M128.2752,269.9262 C127.0412,269.9262 126.0362,268.9212 126.0362,267.6882 C126.0362,266.4532 127.0412,265.4492 128.2752,265.4492 C129.5092,265.4492 130.5122,266.4532 130.5122,267.6882 C130.5122,268.9212 129.5092,269.9262 128.2752,269.9262" id="Fill-17" fill="#FFFFFF"></path>
                <path d="M310.7795,286.7133 C309.6475,286.7133 308.7955,285.8593 308.7955,284.7273 L308.7955,228.5363 C308.7955,227.4043 309.6475,226.5513 310.7795,226.5513 L312.7515,226.5513 L312.7515,232.1833 L312.7645,232.4163 L312.7645,251.6163 L312.7515,251.6163 L312.7515,258.9553 L312.7645,259.1883 L312.7645,282.7403 L336.9495,282.7403 C343.9625,282.7403 349.6685,277.0353 349.6685,270.0233 C349.6685,262.9633 343.9625,257.2183 336.9495,257.2183 L322.5105,257.2183 L322.5105,253.3333 L334.2345,253.3333 C340.5245,253.3333 345.6415,248.1783 345.6415,241.8413 C345.6415,235.5523 340.5245,230.4363 334.2345,230.4363 L318.3085,230.4363 L318.3085,226.5513 L334.2345,226.5513 C342.7155,226.5513 349.6115,233.4103 349.6115,241.8413 C349.6115,246.3803 347.6115,250.6833 344.1235,253.6493 L343.1825,254.4453 L344.2865,254.9983 C350.0535,257.8813 353.6375,263.6383 353.6375,270.0233 C353.6375,279.2263 346.1515,286.7133 336.9495,286.7133 L310.7795,286.7133 Z" id="Fill-19" fill="#D82D27"></path>
                <path d="M344.1819,255.2065 L342.7639,254.4975 L343.9719,253.4715 C347.4099,250.5505 349.3789,246.3105 349.3789,241.8415 C349.3789,233.5395 342.5859,226.7845 334.2349,226.7845 L318.5419,226.7845 L318.5419,230.2035 L334.2349,230.2035 C340.6529,230.2035 345.8749,235.4235 345.8749,241.8415 C345.8749,248.3075 340.6529,253.5655 334.2349,253.5655 L322.7449,253.5655 L322.7449,256.9845 L336.9499,256.9845 C344.0909,256.9845 349.9009,262.8335 349.9009,270.0225 C349.9009,277.1645 344.0909,282.9745 336.9499,282.9745 L312.5319,282.9745 L312.5319,259.1865 L312.5169,259.1865 L312.5169,251.3845 L312.5319,251.3845 L312.5319,232.4165 L312.5169,232.4165 L312.5169,226.7845 L310.7789,226.7845 C309.7809,226.7845 309.0279,227.5385 309.0279,228.5375 L309.0279,284.7275 C309.0279,285.7275 309.7809,286.4795 310.7789,286.4795 L336.9499,286.4795 C346.0239,286.4795 353.4049,279.0975 353.4049,270.0225 C353.4049,263.7275 349.8719,258.0505 344.1819,255.2065" id="Fill-21" fill="#D82D27"></path>
                <path d="M492.22,286.7133 C491.624,286.7133 491.167,286.5203 490.825,286.1223 L473.4,268.0693 L457.533,268.0693 L457.533,284.7273 C457.533,285.8593 456.68,286.7133 455.548,286.7133 C454.416,286.7133 453.563,285.8593 453.563,284.7273 L453.563,228.5363 C453.563,227.4043 454.416,226.5513 455.548,226.5513 L457.512,226.5513 L457.512,231.0003 L457.533,231.2333 L457.533,264.1863 L474.277,264.1863 C483.559,264.1863 491.111,256.6363 491.111,247.3553 C491.111,238.0253 483.559,230.4363 474.277,230.4363 L463.117,230.4363 L463.117,226.5513 L474.277,226.5513 C485.699,226.5513 494.992,235.8843 494.992,247.3553 C494.992,256.6163 488.759,264.8233 479.835,267.3133 L478.519,267.6803 L493.646,283.3663 C494.005,283.7553 494.203,284.2723 494.195,284.7913 C494.188,285.3093 493.974,285.7893 493.593,286.1403 C493.221,286.5123 492.744,286.7133 492.22,286.7133" id="Fill-23" fill="#D82D27"></path>
                <path d="M478.0803,267.56 L479.7723,267.089 C488.5973,264.627 494.7593,256.513 494.7593,247.355 C494.7593,236.013 485.5713,226.784 474.2763,226.784 L463.3513,226.784 L463.3513,230.204 L474.2763,230.204 C483.6863,230.204 491.3443,237.897 491.3443,247.355 C491.3443,256.764 483.6863,264.419 474.2763,264.419 L457.3013,264.419 L457.3013,231.233 L457.2773,231.233 L457.2773,226.784 L455.5483,226.784 C454.5503,226.784 453.7963,227.539 453.7963,228.538 L453.7963,284.727 C453.7963,285.727 454.5503,286.48 455.5483,286.48 C456.5473,286.48 457.3013,285.727 457.3013,284.727 L457.3013,267.837 L473.4983,267.837 L491.0013,285.97 C491.3013,286.318 491.6873,286.48 492.2203,286.48 C492.6733,286.48 493.0953,286.31 493.4343,285.969 C493.7683,285.663 493.9553,285.242 493.9623,284.788 C493.9703,284.321 493.7933,283.869 493.4773,283.528 L478.0803,267.56 Z" id="Fill-25" fill="#D82D27"></path>
                <path d="M257.8269,286.7133 C256.7499,286.7133 255.8409,285.8033 255.8409,284.7273 L255.8409,257.1843 L257.6139,253.3903 L257.7809,253.0483 L257.8169,253.0963 L275.4779,227.4243 C275.8589,226.8523 276.4829,226.5083 277.1429,226.5083 C277.5219,226.5083 277.8809,226.6233 278.1819,226.8383 C279.1369,227.4753 279.3959,228.7163 278.7659,229.6603 L259.7699,257.3153 L259.8109,284.7273 C259.8109,285.8593 258.9579,286.7133 257.8269,286.7133" id="Fill-27" fill="#D82D27"></path>
                <path d="M278.0471,227.0278 C277.7841,226.8408 277.4721,226.7408 277.1441,226.7408 C276.5611,226.7408 276.0131,227.0408 275.6701,227.5558 L257.8241,253.4958 L257.8221,253.4928 L256.0391,257.1328 L256.0731,257.1838 L256.0731,284.7268 C256.0731,285.6768 256.8761,286.4798 257.8261,286.4798 C258.8241,286.4798 259.5771,285.7268 259.5771,284.7268 L259.5771,257.1828 L278.5721,229.5308 C279.1291,228.6948 278.9101,227.6038 278.0471,227.0278" id="Fill-29" fill="#D82D27"></path>
                <path d="M236.9695,229.6528 C236.3555,228.7338 236.5795,227.4708 237.4695,226.8388 C237.7915,226.6248 238.1825,226.5068 238.5765,226.5068 C239.2495,226.5068 239.8775,226.8458 240.2555,227.4138 L254.0985,247.6378 L252.1085,251.7988 L236.9695,229.6528 Z" id="Fill-31" fill="#D82D27"></path>
                <path d="M240.0623,227.5434 C239.7273,227.0414 239.1713,226.7414 238.5763,226.7414 C238.2223,226.7414 237.8763,226.8464 237.6043,227.0274 C236.8163,227.5884 236.6213,228.7124 237.1613,229.5224 L252.0733,251.3324 L253.8303,247.6594 L240.0623,227.5434 Z" id="Fill-33" fill="#D82D27"></path>
                <path d="M32.9719,286.7133 C31.8399,286.7133 30.9859,285.8593 30.9859,284.7273 L30.9859,228.5363 C30.9859,227.4043 31.8399,226.5513 32.9719,226.5513 C34.1039,226.5513 34.9579,227.4043 34.9579,228.5363 L34.9579,249.0053 L34.9359,249.0053 L34.9359,265.9093 L34.9579,266.1433 L34.9579,284.7273 C34.9579,285.8593 34.1039,286.7133 32.9719,286.7133" id="Fill-35" fill="#D82D27"></path>
                <path d="M34.7034,248.7719 L34.7244,248.7719 L34.7244,228.5379 C34.7244,227.5389 33.9714,226.7849 32.9714,226.7849 C31.9724,226.7849 31.2184,227.5389 31.2184,228.5379 L31.2184,284.7269 C31.2184,285.7269 31.9724,286.4799 32.9714,286.4799 C33.9714,286.4799 34.7244,285.7269 34.7244,284.7269 L34.7244,266.1429 L34.7034,266.1429 L34.7034,248.7719 Z" id="Fill-37" fill="#D82D27"></path>
                <path d="M69.9939,286.7133 C69.4059,286.7133 68.9219,286.5273 68.5569,286.1643 L48.5709,266.1133 L48.5879,266.0973 L40.5419,258.0533 L40.5419,252.4883 L65.9309,227.1003 C66.3129,226.7503 66.8339,226.5523 67.3679,226.5523 C67.9099,226.5523 68.4289,226.7553 68.8279,227.1233 C69.5479,227.8443 69.5339,229.1573 68.8059,229.8873 L43.3739,255.3183 L71.3429,283.3773 C71.7329,283.7373 71.9479,284.1973 71.9579,284.7003 C71.9679,285.2363 71.7499,285.7563 71.3439,286.1633 C70.9889,286.5183 70.5099,286.7133 69.9939,286.7133" id="Fill-39" fill="#D82D27"></path>
                <path d="M71.1775,283.5415 L43.0445,255.3185 L68.6405,229.7235 C69.2825,229.0795 69.2825,227.9095 68.6705,227.2945 C68.3145,226.9665 67.8515,226.7855 67.3675,226.7855 C66.8845,226.7855 66.4215,226.9665 66.0955,227.2655 L40.7755,252.5855 L40.7755,257.9565 L48.9135,266.0935 L48.8965,266.1095 L68.7215,285.9995 C69.0415,286.3175 69.4695,286.4795 69.9935,286.4795 C70.4475,286.4795 70.8685,286.3095 71.1785,285.9995 C71.5395,285.6375 71.7345,285.1785 71.7245,284.7065 C71.7155,284.2735 71.5325,283.8705 71.1775,283.5415" id="Fill-41" fill="#D82D27"></path>
                <path d="M392.8704,257.2182 L392.8704,253.3332 L412.4824,253.3332 C413.5394,253.3332 414.4674,254.2202 414.4674,255.2322 C414.4674,256.3082 413.5574,257.2182 412.4824,257.2182 L392.8704,257.2182 Z" id="Fill-43" fill="#D82D27"></path>
                <path d="M412.4827,256.9858 C413.4317,256.9858 414.2337,256.1818 414.2337,255.2328 C414.2337,254.3438 413.4157,253.5668 412.4827,253.5668 L393.1037,253.5668 L393.1037,256.9858 L412.4827,256.9858 Z" id="Fill-45" fill="#D82D27"></path>
                <path d="M385.2639,286.7133 C384.1319,286.7133 383.2779,285.8593 383.2779,284.7273 L383.2779,228.5363 C383.2779,227.4043 384.1319,226.5513 385.2639,226.5513 L421.9339,226.5513 C423.0109,226.5513 423.9199,227.4613 423.9199,228.5363 C423.9199,229.5493 422.9929,230.4363 421.9339,230.4363 L387.2479,230.4363 L387.2479,253.3333 L387.2639,253.5663 L387.2639,257.2183 L387.2479,257.2183 L387.2479,282.7403 L421.9339,282.7403 C422.9729,282.7403 423.9199,283.6883 423.9199,284.7273 C423.9199,285.8033 423.0109,286.7133 421.9339,286.7133 L385.2639,286.7133 Z" id="Fill-47" fill="#D82D27"></path>
                <path d="M421.9348,282.9741 L387.0148,282.9741 L387.0148,256.9851 L387.0318,256.9851 L387.0318,253.5661 L387.0148,253.5661 L387.0148,230.2031 L421.9348,230.2031 C422.8698,230.2031 423.6878,229.4241 423.6878,228.5371 C423.6878,227.5871 422.8848,226.7851 421.9348,226.7851 L385.2628,226.7851 C384.2638,226.7851 383.5098,227.5371 383.5098,228.5371 L383.5098,284.7271 C383.5098,285.7261 384.2638,286.4801 385.2628,286.4801 L421.9348,286.4801 C422.8848,286.4801 423.6878,285.6771 423.6878,284.7271 C423.6878,283.8091 422.8518,282.9741 421.9348,282.9741" id="Fill-49" fill="#D82D27"></path>
            </g>
        </g>
    </g>
</svg>