<?xml version="1.0" encoding="UTF-8"?>
<svg width="505px" height="493px" viewBox="0 0 505 493" version="1.1" xmlns="http://www.w3.org/2000/svg" xmlns:xlink="http://www.w3.org/1999/xlink">
    <!-- Generator: Sketch 51.3 (57544) - http://www.bohemiancoding.com/sketch -->
    <title>Group 21</title>
    <desc>Created with Sketch.</desc>
    <defs>
        <path d="M0,21.1118276 C9.89704849,15.0487549 20.2574166,8.24066753 31.0811043,0.687565488 C63.284378,-1.09224876 141.828032,0.739395662 157.613786,4.38548978 C168.137622,6.8162192 175.26636,8.64191065 179,9.86256415 C159.424297,18.0017252 131.450045,22.4358495 95.0772461,23.1649371 C58.7044468,23.8940247 27.0120315,23.2096549 0,21.1118276 Z" id="path-1"></path>
        <path d="M164.5,329 C255.350841,329 329,255.350841 329,164.5 C315.264702,170.854044 289.290656,173.248831 246.117343,174.285198 C217.335134,174.976109 185.93199,175.308337 151.907911,175.281881 C151.773559,140.308137 151.958752,114.582626 152.463489,98.1053481 C153.367067,68.6078069 157.826956,18.1753452 164.5,0 C73.6491587,0 0,73.6491587 0,164.5 C0,255.350841 73.6491587,329 164.5,329 Z" id="path-3"></path>
    </defs>
    <g id="Page-1" stroke="none" stroke-width="1" fill="none" fill-rule="evenodd">
        <g id="Desktop-HD-Copy-16" transform="translate(-213.000000, -1531.000000)">
            <g id="Group-21" transform="translate(213.000000, 1531.000000)">
                <path d="M73.4182139,38.2743565 C170.628993,-58.7056991 293.342701,47.8286757 390.55348,144.808731 C487.764259,241.788787 551.643286,346.888301 462.261329,426.194579 C372.879372,505.500857 171.986984,524.529403 73.4182139,426.194579 C-25.1505562,327.859755 -23.7925649,135.254412 73.4182139,38.2743565 Z" id="Rectangle-11" fill="#111820"></path>
                <g id="core-stages" transform="translate(275.000000, 44.000000)">
                    <ellipse id="stage-4" fill="#6CC24A" cx="13" cy="164" rx="13" ry="164"></ellipse>
                    <ellipse id="stage-4" fill="#1E76BC" cx="13.3823529" cy="164.390476" rx="11.0882353" ry="138.619048"></ellipse>
                    <ellipse id="stage-4" fill="#D4992B" cx="12.6176471" cy="162.047619" rx="8.79411765" ry="110.504762"></ellipse>
                    <ellipse id="stage-4-copy" fill="#EE443D" cx="13.7647059" cy="176.104762" rx="6.88235294" ry="86.2952381"></ellipse>
                </g>
                <g id="core-stages-2" transform="translate(272.000000, 199.000000)">
                    <mask id="mask-2" fill="white">
                        <use xlink:href="#path-1"></use>
                    </mask>
                    <g id="Mask"></g>
                    <g mask="url(#mask-2)">
                        <g transform="translate(-133.663755, 3.096774)">
                            <ellipse id="stage-4" fill="#6CC24A" cx="155.550218" cy="8.90322581" rx="155.550218" ry="8.90322581"></ellipse>
                            <ellipse id="stage-4" fill="#1E76BC" cx="155.550218" cy="8.51612903" rx="124.283843" ry="6.96774194"></ellipse>
                            <ellipse id="stage-4" fill="#D4992B" cx="156.641936" cy="8.12903226" rx="105.133188" ry="5.80645161"></ellipse>
                            <ellipse id="stage-4-copy" fill="#EE443D" cx="155.159389" cy="8.12903226" rx="74.6484716" ry="4.25806452"></ellipse>
                        </g>
                    </g>
                    <path d="M-2.21220532,-1.80799083 L-2.61878265,24.2741935 L208.984716,24.2741935 L208.984716,4.36277572 L-2.21220532,-1.80799083 Z" id="Rectangle-5" stroke="#979797" fill="#111820" opacity="0.248270089" mask="url(#mask-2)"></path>
                </g>
                <path d="M329,208.997881 C329,185.803092 310.195959,167 287,167 C287.2538,176.741526 287.33903,193.059509 287.318482,208.997881 C302.572391,209.021962 307.750143,208.829312 329,208.997881 Z" id="Oval" fill="#D82D27"></path>
                <g id="earth" transform="translate(123.000000, 44.000000)">
                    <mask id="mask-4" fill="white">
                        <use xlink:href="#path-3"></use>
                    </mask>
                    <use id="Mask" fill="#1D8FCE" xlink:href="#path-3"></use>
                    <circle id="Oval-10" fill="#23ADF9" mask="url(#mask-4)" cx="191.475884" cy="147.045016" r="173.491961"></circle>
                    <g id="Group-5" mask="url(#mask-4)" fill="#191919">
                        <g transform="translate(-1.057878, -1.057878)">
                            <path d="M310.041164,175.004734 C310.134586,174.94 310.229755,174.876141 310.32405,174.810532 C309.416021,171.892252 307.156427,169.791896 305.447761,167.264644 C305.308938,167.888365 305.210277,168.596066 305.510625,169.017712 C306.961725,171.055084 308.520216,173.017225 310.041164,175.004734 Z M310.37469,235.946572 C310.254202,235.857344 310.134586,235.769866 310.014971,235.680638 C307.267311,238.402091 305.576981,241.735894 304.360746,245.347003 C304.497824,245.428358 304.636647,245.508838 304.774598,245.589318 C306.640422,242.375361 308.50712,239.160529 310.37469,235.946572 Z M25.5060026,177.908143 C25.4876674,174.606708 24.1055429,169.61344 22.6317425,167.024079 C21.8494408,165.648043 20.0063172,164.833619 18.8433419,165.489707 C17.5066189,166.244646 18.0331009,167.541951 18.2670929,168.62056 C18.6241927,170.264279 19.127974,171.878256 19.6160394,173.490483 C19.8552701,174.276914 20.0997394,175.093088 20.5188295,175.787666 C21.6259261,177.618589 23.4428566,178.007868 25.5060026,177.908143 Z M289.377399,125.505948 C290.214707,126.79538 291.308707,127.008827 292.51621,127.116426 C293.422493,127.197781 294.331395,127.438346 295.196641,127.733148 C296.243493,128.090935 296.907053,127.742771 297.101755,126.635294 C297.172477,126.234643 297.258041,125.769258 297.507749,125.480579 C298.960595,123.792246 299.927995,123.682898 301.843586,124.889225 C303.299924,125.805999 304.692526,126.858364 306.233555,127.600181 C308.458226,128.671792 310.435808,127.104179 312.906693,126.867112 C311.462578,125.86111 310.313573,125.139413 309.257116,124.299621 C308.514104,123.708267 307.650604,123.070549 307.278662,122.253501 C306.584543,120.731376 306.262368,119.043043 305.675642,117.465807 C305.426807,116.794847 305.011209,116.053905 304.44893,115.691745 C304.190491,115.525536 303.271112,116.0749 302.866864,116.503544 C300.942542,118.539167 300.470192,118.554038 297.948667,117.416819 C296.308103,116.677626 294.717307,115.433683 292.593917,116.092396 C292.629714,116.452807 292.556373,116.898072 292.726628,117.20862 C293.34566,118.337092 293.121272,119.39733 292.529307,120.399833 C291.510394,122.127532 290.425125,123.815865 289.377399,125.505948 Z M45.8746581,50.5002054 L54.1630394,43.6593934 C57.5035374,40.5906506 61.033499,37.7239829 64.5390136,34.8406943 C66.2031509,33.4742815 68.0139697,32.2880742 69.7383511,30.996018 C70.0867198,30.7362071 70.3512705,30.3644238 70.8332242,29.8535499 C71.0261803,29.7826924 71.5177381,29.6899653 71.9123814,29.4432761 C75.292169,27.3271733 78.6221897,25.1297155 82.0334091,23.0678493 C84.1297331,21.8011618 86.3290834,20.7050573 88.5048599,19.5739614 C91.4926235,18.0194699 94.4376051,16.3600044 97.5170448,15.0110872 C101.342989,13.3350008 105.299025,11.9572158 109.17561,10.3939765 C110.578689,9.82799114 111.884853,9.01794102 113.294044,8.47032614 C114.236997,8.10379158 115.293453,8.03905755 116.281807,7.77399795 C119.284414,6.97007132 122.268685,6.09878631 125.278276,5.32547712 C126.989561,4.88546069 128.73577,4.57753667 130.469756,4.22587344 C134.747095,3.36071192 139.001733,2.34421273 143.310504,1.69074897 C147.329404,1.08102442 151.40331,0.814215255 155.459754,0.484421631 C158.457122,0.240356853 161.471078,-0.0693167364 164.467573,0.0137877578 C171.826098,0.218487249 179.19772,0.420562388 186.528305,1.03903478 C191.365304,1.4466842 196.231989,2.152635 200.94588,3.38258152 C202.74011,3.85059104 194.242184,8.65315602 194.242184,8.65315602 C193.992476,10.4630844 194.108599,10.6257943 195.589384,10.7465145 C195.990139,10.7788815 196.400498,10.8033755 196.796015,10.752638 C197.625464,10.6467891 198.089955,11.0596872 198.285531,11.790132 C198.446182,12.38586 198.613818,13.013955 198.586752,13.6184309 C198.449675,16.6635545 198.463644,19.7384208 197.997406,22.7371808 C197.682216,24.7649305 196.757598,26.7261966 195.919418,28.6349756 C195.418256,29.7774437 194.451729,30.3924169 193.008487,30.2629489 C191.182826,30.0993642 189.332717,30.17722 187.494832,30.2069627 C186.668875,30.2192097 185.560032,29.7188331 185.339137,31.1648513 C185.258811,31.6897218 184.908696,32.3274395 185.097287,32.7053462 C185.395889,33.3010742 185.982615,34.0490147 186.557118,34.1583627 C188.83854,34.5931304 191.161871,34.8030786 193.468613,35.1022548 C195.196487,35.3261995 196.011967,36.3575701 195.830361,38.0791453 C195.611212,40.1427611 194.050974,42.5956558 191.374035,41.9098251 C190.901686,41.7882301 190.391793,41.723496 189.906347,41.7541135 C188.756468,41.8267206 187.505309,41.7164978 186.482904,42.1381437 C183.615629,43.3199771 180.840029,44.7283796 178.033871,46.0571767 C177.113619,46.493694 176.002157,46.7622527 175.340344,47.454207 C174.161653,48.6867779 173.124405,50.1056778 172.27662,51.5893117 C171.400023,53.1263074 170.553985,54.3501305 168.505682,54.0876952 C167.641308,53.9765976 166.61541,53.999342 165.872398,54.3754992 C164.870947,54.8819992 163.378812,54.7883973 163.09418,56.4408646 C162.846218,57.8851332 162.305766,59.27604 161.947793,60.702813 C160.981267,64.5597363 159.717885,68.260948 157.06452,71.35331 C155.730416,72.909551 153.395735,73.7047298 151.386721,73.2664629 C149.642258,72.8859318 148.384988,71.815196 147.096285,70.7094689 C143.59339,67.7045853 140.538397,64.3882786 138.497952,60.1464502 C136.109138,55.1811754 136.880962,50.1485422 140.763658,46.1586517 C141.471746,45.4308313 142.182453,44.7073848 143.031984,43.8404737 C142.691473,43.555294 142.38676,43.0890341 142.023548,43.036547 C140.583799,42.8274736 140.018027,41.6806316 139.309939,40.686002 C138.827986,40.0089191 138.660349,39.3274622 139.418204,38.6547532 C139.623384,38.4727981 139.605049,38.0371556 139.691486,37.707362 C141.50667,37.650501 144.325925,36.3908119 144.831452,35.166114 C144.181863,35.166114 143.645776,35.1354966 143.114056,35.1731123 C142.442638,35.2212254 141.77646,35.3576918 141.105915,35.3944327 C139.506388,35.4810363 138.800046,34.9316719 139.00348,33.3946761 C139.247076,31.5480068 139.687994,29.7083357 140.242415,27.9290248 C140.697302,26.4716344 140.226699,25.5732311 139.149288,24.6634555 C138.35389,23.9933709 137.624848,23.1614512 137.112335,22.2612983 C136.525609,21.2325521 136.247089,20.0323482 135.749419,18.9449916 C135.623692,18.6694345 135.178409,18.3781314 134.874568,18.3728827 C132.275336,18.3282687 129.676104,18.3466392 127.13275,18.3466392 C126.557375,19.3368949 126.028273,20.3044061 125.432816,21.229053 C125.283515,21.459996 124.931654,21.5824658 124.650514,21.6996868 C124.124905,21.9183829 123.556514,22.0426022 123.055352,22.3015383 C121.715137,22.9952422 120.445643,22.7669235 119.659849,21.4993613 C119.129001,20.6429476 118.710784,19.7008051 118.347573,18.7560382 C117.810613,17.3590079 117.366203,15.9252367 116.884249,14.5098359 C112.718668,15.5665752 113.359526,15.2070389 111.638637,18.3755071 C111.51291,18.6064501 111.359244,18.8496401 111.157557,19.0062264 C109.552791,20.2501695 107.868572,21.4013854 106.343258,22.7345565 C105.477139,23.4912448 104.661659,24.4421352 104.176213,25.4726309 C103.109279,27.7365723 102.02401,29.9646475 99.1488772,30.0118858 C97.6157056,30.0372546 96.0790416,29.496638 94.5327735,29.3103089 C93.6474455,29.2044601 92.3220729,28.5151302 92.4338302,30.42041 C92.4381958,30.5061389 92.2845294,30.5944921 92.223412,30.6933427 C91.8994903,31.2208375 91.5258015,31.7273376 91.2743474,32.288949 C90.9993195,32.9065466 91.0272588,33.7673342 90.5968183,34.1898549 C87.8133611,36.9235554 81.7513963,34.3709353 80.9193277,31.2820724 C80.3797491,31.6722262 79.8995416,32.0326372 79.4071107,32.373803 C75.5776742,35.0226494 71.733395,37.650501 67.9257861,40.3317145 C67.2508763,40.807597 66.2599027,41.4715582 66.2258516,42.0935297 C66.1498915,43.4678156 66.4423815,44.917333 66.8588524,46.250504 C67.3739841,47.8985974 68.275901,49.4250957 68.810241,51.0688151 C69.3585506,52.755399 67.7668811,54.453355 66.0398803,54.1935441 C64.6900607,53.9897194 64.6830759,53.9827211 63.698214,55.0062186 C63.1507774,55.5757031 62.5823864,56.1364397 62.1100368,56.7662843 C61.2526482,57.9122515 60.4039906,59.1570694 58.9031239,59.3556454 C55.6289819,59.7895383 52.4683435,59.6338267 50.1799366,56.4557359 C49.6831401,56.9972273 47.5483995,57.2325442 45.6607475,57.5107256 L42.0967348,55.0963213 L45.8746581,50.5002054 Z M109.623512,318.421222 C108.249246,317.810623 106.789415,317.395975 105.38197,316.857108 C103.625284,316.186148 101.866852,315.515189 100.141597,314.770748 C100.141597,314.770748 94.8619339,312.235623 95.8694966,305.874193 C96.2754902,304.308329 96.7740328,303.154489 96.8465005,301.976155 C97.2079658,296.050367 97.577289,290.12108 97.7143664,284.188294 C97.8584287,278.022815 98.0103489,271.824969 95.8258413,265.88431 C95.2688006,264.368309 94.3572795,263.225841 92.8459356,262.545259 C91.9623538,262.148107 91.1189348,261.626736 90.3287752,261.06075 C89.8337249,260.705588 89.491468,260.143977 89.0453116,259.710958 C87.6378671,258.344546 86.0819948,257.105851 84.8378208,255.605596 C83.6556373,254.180573 82.0194394,253.214811 81.155939,251.4355 C80.470552,250.027973 79.2106621,248.910873 78.3043796,247.596073 C76.828833,245.456351 75.409165,243.275514 74.0087054,241.08243 C72.8902585,239.329362 71.742126,237.583293 70.7782186,235.745372 C69.4965012,233.3021 69.5916696,230.826461 71.1946895,228.524903 C72.4013199,226.791956 73.6612098,225.094875 74.9542776,223.427536 C76.8803462,220.944899 77.5037428,218.069483 77.6163733,215.021735 C77.6530437,214.013109 77.4085744,213.158445 76.377438,212.71318 C75.7688841,212.450745 75.1926351,212.103455 74.5727309,211.874262 C73.4385681,211.457865 72.3009129,211.018723 71.1265873,210.759787 C70.7022585,210.66706 70.0483032,210.934744 69.7077925,211.258414 C68.1274733,212.763917 67.231668,212.690436 66.1271908,210.771159 C64.7930871,208.452981 63.3865157,206.165421 62.2296522,203.758889 C60.4109754,199.976323 57.2127935,198.164645 53.4139157,197.079912 C52.1400562,196.716002 50.709911,196.607529 49.6281345,195.93482 C48.2756956,195.091528 46.9660388,194.591151 45.3883389,194.606023 C41.7466199,194.640139 38.0996623,194.716246 34.4640551,194.564033 C33.1910687,194.511546 31.8499801,194.019917 30.7035939,193.416316 C28.2746171,192.135632 27.8031406,189.545397 27.0487783,187.213222 C26.7248565,186.211594 27.0103617,184.619487 26.3956961,184.189968 C25.3156658,183.434154 25.334001,182.719456 25.2973306,181.651344 C25.2737568,180.928773 24.8214886,179.962136 24.2452397,179.571982 C22.9373291,178.684077 21.4539245,177.553855 20.0071903,177.501368 C18.1562087,177.43401 16.2467291,177.972877 14.3180412,178.054232 C13.5907451,178.084849 13.0537858,178.159206 12.5587355,177.669327 C10.4763812,175.602212 9.68185612,172.893005 9.34483777,170.144434 C9.22784176,169.190919 9.19466379,168.226032 9.19902931,167.257646 C9.20426794,165.748643 9.30030944,164.229143 9.30554807,162.721015 C9.30729427,161.977449 9.30554807,161.233007 9.30554807,160.477194 C2.6987661,165.137169 0,156.485554 0,156.485554 C0.484573013,152.160621 1.28084434,146.794695 1.86145885,142.485508 C2.44731199,138.14133 3.33438619,133.831269 4.23804938,129.537828 C4.99677722,125.928469 5.90655214,122.346228 6.86871333,118.784981 C7.64664946,115.903442 8.46824082,113.020154 9.51509315,110.229592 C10.774983,106.869546 12.2400524,103.582108 13.715599,100.307791 C15.3212383,96.7465443 17.1390419,93.2780251 18.6818176,89.6905353 C20.1355366,86.3086198 22.1410577,83.252124 23.9833083,80.1029011 C25.4151997,77.6543802 27.0933066,75.3510736 28.6526713,72.9769094 C29.8732714,71.1179931 30.9934646,69.1847201 32.3144717,67.4010352 C33.8231963,65.3654125 35.4786025,63.4356386 37.1165466,61.5006161 L39.3979687,59.1518207 L44.6837436,62.4410091 C45.1342655,62.6378355 45.5716909,62.9685039 45.7157531,62.8696533 C46.5809997,62.279174 47.1214514,62.8250393 47.7273859,63.2947984 C47.8915296,63.4216421 48.1386182,63.4793779 48.3534019,63.4977483 C51.8833635,63.8021732 55.4220562,64.2806801 58.937175,63.4785031 C59.5623178,63.3359133 60.1857145,62.8574063 60.6449675,62.376275 C62.2156825,60.7325556 63.6667822,59.3591445 66.3734063,59.8603958 C69.4912625,60.4377534 72.1786783,59.2349252 74.5465378,56.9158724 C77.1230692,54.3921201 80.2697379,53.0178342 84.0738544,54.0824465 C85.106737,54.3702505 86.2897937,54.4253619 87.3445039,54.242532 C88.5886779,54.0255855 89.8014201,53.5068385 90.9696339,52.9889663 C92.7961686,52.1780414 95.1229922,52.9592237 95.2338765,54.6178144 C95.3246793,55.9921003 95.3168214,57.4512403 94.9509906,58.7599174 C94.3057663,61.0728467 93.0711965,63.0419858 90.3977505,63.4540091 C89.2566029,63.6298407 88.0770386,63.5878511 86.9516069,63.8214185 C85.9728567,64.0243684 84.7662263,64.2150713 84.1524338,64.872909 C82.7947562,66.3268003 81.7662391,68.0859912 80.5631011,69.6903453 C79.552046,71.0401373 78.5357523,72.3855553 76.8576454,73.0241477 C76.3783111,73.2061028 75.9112001,73.5665139 75.5811666,73.9645407 C74.6460717,75.0930122 73.629778,76.196115 72.927802,77.4663016 C71.550043,79.9559373 70.4630279,82.6144064 70.7153551,85.5300619 C70.7808379,86.2850006 71.5011492,87.2560111 72.1900286,87.6269195 C73.6577173,88.419474 75.2991539,88.8901078 76.8724882,89.4788376 C78.7653788,90.1874127 80.679224,90.8426261 82.5511601,91.5984396 C83.5927738,92.018336 84.1768807,92.8415079 84.0424226,94.036463 C83.7490595,96.6564415 83.7979533,99.2615487 84.9635479,101.673329 C85.5485279,102.883155 86.4146476,103.965263 87.236239,105.042122 C87.3995095,105.256445 88.1521256,105.35442 88.2708678,105.209206 C88.7729029,104.592483 89.3701064,103.909277 89.5106763,103.170084 C89.968183,100.774925 90.2292413,98.3421506 90.5880873,95.9277463 C90.7417537,94.8937515 91.1835445,94.1239414 92.2906411,93.7451599 C93.2982037,93.4013697 94.2909236,92.9211132 95.1745053,92.3280096 C96.7155348,91.2948895 96.942542,89.7246519 96.9582579,87.9418418 C96.9975476,83.4489504 97.1162898,78.9490608 98.2443409,74.5497713 C98.6913704,72.8063265 100.276928,71.3524352 102.089493,71.251835 C104.477434,71.1206174 106.867121,71.0322642 109.100523,70.931664 C108.890104,70.5205155 108.63865,70.0787495 108.435217,69.6159887 C108.004776,68.6414791 107.676489,67.612733 107.16485,66.6837122 C106.245471,65.014624 104.429413,64.2728071 103.023715,64.7933036 C102.199504,65.0977285 101.334258,65.359289 100.468138,65.4581396 C98.9978301,65.6252234 98.3683217,64.649839 99.0912523,63.3332889 C100.089211,61.5146126 101.018194,59.6259537 102.257129,57.9796099 C103.600837,56.1933007 105.139247,54.4691011 107.854602,55.0053438 C108.226545,55.0788257 109.061233,54.4664768 109.13632,54.0675752 C109.325784,53.0703212 109.31356,51.9943367 109.14767,50.9892098 C109.086553,50.6148021 108.392435,50.1056778 107.958502,50.0759351 C106.608682,49.9823332 106.102282,49.6315448 106.035053,48.2738798 C105.988778,47.3308624 106.143318,46.364226 105.99489,45.4422035 C105.884005,44.7519988 105.529525,44.0442984 105.108689,43.4730643 C104.583953,42.76099 103.841814,42.4049529 102.992283,43.0942828 C101.488797,41.8485902 100.867147,43.316478 100.332807,44.1510221 C99.1497503,46.0003157 98.253945,46.5802976 96.1026155,46.3651007 C94.0080377,46.1560273 91.9518765,46.0020653 89.9201623,46.9310861 C88.547642,47.5591811 87.4431647,46.6686508 87.4833276,45.1587734 C87.5060283,44.3102328 87.4335606,43.5885358 86.5831568,43.085535 C85.3005662,42.3270971 85.1792047,41.4951774 86.1824018,40.3737041 C87.1559134,39.2872222 88.2254664,38.2882187 89.224298,37.2236064 C89.8101511,36.5981357 90.2248758,35.5448956 90.9137552,35.3375717 C92.5578111,34.8433187 93.3977376,33.5355164 94.5109459,32.4849006 C95.530732,31.5217633 97.8331086,31.0616268 98.9236162,31.6398591 C100.346777,32.3947979 101.666911,32.1699783 103.09269,31.5401337 C105.264974,30.5796207 107.490518,29.7249566 109.740508,28.9638944 C111.014368,28.5335006 112.448005,29.1957122 112.771054,30.4798954 C113.30976,32.6266157 113.642412,34.8371952 113.903471,37.0390269 C114.099919,38.6897446 114.384551,38.8953189 115.984079,38.6127636 C117.373188,38.3686988 118.826034,38.3065891 120.233478,38.4019406 C121.60076,38.4946677 122.839695,40.1899994 122.79866,41.6342681 C122.710476,44.7178822 123.579215,47.5241897 125.665935,49.7618876 C127.22268,51.4309758 127.481992,53.1446779 126.798351,55.1768015 C126.115584,57.2071755 123.587946,58.5324735 121.742203,57.7512912 C121.19302,57.5194734 120.741625,57.0558378 119.963689,56.495976 C119.819627,57.2710347 119.725332,57.841394 119.604843,58.4065046 C119.226789,60.159572 119.291399,62.0307353 117.791405,63.4321395 C116.596998,64.5457397 115.604278,65.8736621 114.49107,67.0782398 C113.30714,68.3606734 112.060347,69.5888704 110.910468,70.9010466 C110.748944,71.085626 110.878163,71.6769801 111.052784,71.9744067 C111.585378,72.885057 112.2664,73.7108533 112.778912,74.6311262 C113.531528,75.9800434 114.113016,77.4286859 114.919764,78.7408621 C115.275118,79.3182197 115.821681,79.6681333 116.814401,79.5412896 C118.57458,79.3155953 119.0836,78.0025443 119.832723,76.8688241 C120.339997,76.1025131 120.870845,75.5776426 121.718629,76.1829933 C122.546332,76.7743474 123.426422,77.4181885 123.981716,78.24311 C125.487821,80.4738095 126.89352,82.7797406 128.227623,85.1206629 C129.775638,87.8359929 131.223245,90.6108083 132.68133,93.3777505 C133.812,95.5253456 132.641167,97.2486704 131.572487,98.9781187 C131.196179,99.5869684 130.837333,100.205441 130.480233,100.802918 C131.532324,101.814169 132.780864,102.826294 133.794538,104.036121 C135.134753,105.636101 136.375435,107.356801 136.611173,109.541137 C136.780555,111.096503 136.085564,112.187359 134.53755,112.229349 C132.793087,112.275713 131.02505,111.976536 129.290192,111.692232 C127.952596,111.472661 127.703761,110.416796 127.592876,109.195598 C127.45056,107.631483 126.585314,106.075242 124.949116,106.034128 C121.905474,105.958896 118.865324,105.728828 115.822554,105.697336 C114.377566,105.682464 112.929959,105.975517 111.161049,106.163596 C111.651734,107.001639 111.929381,107.578122 112.298704,108.088121 C113.631935,109.933041 115.021044,111.715851 115.02541,114.195864 C115.026283,114.622758 115.819935,115.335707 116.328955,115.417937 C117.734653,115.646256 119.183134,115.638383 120.616771,115.663752 C121.141507,115.672499 121.669735,115.511539 122.142958,115.437182 C122.257335,115.710115 122.488707,116.048657 122.527124,116.407318 C122.583876,116.94531 122.70611,117.632016 122.448545,118.02217 C121.151111,119.98431 119.108047,121.062919 117.092921,122.076794 C115.420053,122.918337 113.645905,123.588421 111.861279,124.16053 C110.781249,124.506945 109.55541,124.786001 108.47276,124.611919 C107.442497,124.446584 106.513514,123.653155 105.581911,123.158027 C102.512076,131.959231 96.5985388,137.673321 86.6372893,138.637333 C86.6372893,139.627589 86.5211664,140.678204 86.6835638,141.684206 C86.7700012,142.227447 87.3183108,142.704204 87.6815223,143.193209 C87.8893212,143.47139 88.3677824,143.739949 88.3415893,143.966518 C88.188796,145.23583 87.9661544,146.502517 87.6649333,147.744711 C87.561907,148.171605 87.2458431,148.667608 86.8800123,148.888928 C84.2502215,150.489783 81.8509302,152.334703 80.2575145,155.035162 C78.7880796,157.526547 78.1742871,160.124656 78.7714906,163.092799 C79.1539104,164.985831 79.4743397,167.295262 78.7208505,168.899616 C77.9935544,170.447109 75.9889064,171.661309 74.2767485,172.361137 C73.421106,172.710176 71.9473056,171.973607 70.7171013,172.299902 C70.6463798,172.320022 70.5241452,172.148564 70.4368347,172.074207 C70.9973678,170.170677 70.7633758,168.943355 69.7043,168.156924 C66.8588524,166.04432 63.8728349,164.163534 60.2346083,163.921219 C57.3699524,163.730516 54.527124,162.448957 51.6127011,163.662283 C51.1447171,163.856485 50.417421,163.770756 50.1685862,164.092677 C49.4194625,165.062813 48.4319813,165.810753 47.6793652,166.694285 C45.7288497,168.980096 45.0434626,171.797776 45.6677324,174.832402 C46.0580101,176.729809 46.4543995,178.625466 46.8464235,180.512375 C46.4116174,180.224571 45.9479989,179.918397 45.5472439,179.652463 C45.2957898,181.434398 45.0286199,183.136728 44.8382831,184.84868 C44.7981203,185.206467 44.929959,185.712092 45.1761745,185.953533 C46.3775663,187.129243 47.7815184,187.821197 49.5364585,187.48528 C49.8394258,187.425795 50.1642207,187.476532 50.4968735,187.476532 C51.8938408,185.536261 53.1100754,183.442902 55.3068064,182.096609 C56.3231,181.474638 57.8885765,180.994381 57.7741998,179.217695 C57.7637225,179.052361 58.2334527,178.704197 58.48578,178.698073 C60.4851893,178.655209 62.4854718,178.673579 64.4866274,178.673579 C64.3050216,181.411653 66.5157223,182.111481 68.8442921,183.141977 C67.9484868,183.484892 67.390573,183.69659 66.8344055,183.912661 C65.9726513,184.248578 64.7380815,184.34568 64.3259761,184.978148 C63.4275516,186.359433 62.9473441,188.015399 62.2052052,189.775465 C63.8248141,190.150747 65.2750408,190.486664 66.7243943,190.825206 C67.0587933,190.903062 67.5250311,190.876818 67.7022714,191.089391 C68.8573886,192.474174 70.0247294,193.772354 69.695569,195.906827 C69.3821245,197.932827 69.453719,200.034058 69.520075,202.097674 C69.5672226,203.551566 70.1976041,203.950467 71.5875865,203.856865 C72.5287932,203.793881 73.4804771,203.866488 74.4155721,203.767637 C75.9155657,203.610176 77.0261546,204.219901 77.8433805,205.399984 C78.9705584,207.027958 80.0436039,208.694422 81.1358576,210.346889 C81.64837,211.121948 82.1844562,211.323148 82.7755479,210.433492 C83.3561624,209.561333 83.9219342,208.677801 84.5069142,207.80739 C86.518547,204.813879 88.9667321,202.292751 92.2059499,200.610541 C94.0027991,199.677147 94.9693258,199.797867 96.424791,201.203645 C97.3188501,202.067932 98.1002786,203.167535 99.1619737,203.711651 C101.350847,204.836623 103.719579,205.133175 106.214912,204.619677 C107.737606,204.304755 109.351104,204.236522 110.906976,204.328374 C112.625246,204.428974 112.970122,205.494461 112.101383,206.922109 C111.813258,207.397117 111.828974,208.2754 112.064712,208.811643 C112.744861,210.365259 113.98205,211.498105 115.460216,212.280162 C117.190709,213.196936 118.915091,214.263297 120.776549,214.770672 C125.465121,216.048732 129.690074,217.852537 132.145244,222.407538 C133.083831,224.150983 133.317823,225.84544 132.127781,227.595008 C131.63535,228.320204 131.311429,229.160872 130.860034,230.049652 C132.36352,230.314712 133.734294,230.48267 135.068397,230.806341 C136.954303,231.264727 138.806158,231.857831 140.683333,232.353834 C142.778784,232.905822 144.958052,233.22162 146.970558,233.986181 C149.670198,235.011428 152.25546,236.346349 154.871281,237.585918 C158.912009,239.501695 161.63173,242.468088 162.1521,247.084324 C162.432366,249.567836 162.45856,252.12483 161.029288,254.250556 C159.707407,256.214446 158.031047,257.953517 156.401834,259.688214 C155.626517,260.51401 155.078207,261.233958 155.578496,262.396546 C155.712954,262.709718 155.691126,263.097248 155.710335,263.451535 C155.868367,266.273589 154.935891,268.872573 153.866338,271.383203 C152.96704,273.494932 151.574439,275.397588 150.70308,277.518065 C149.956576,279.335866 148.581436,280.505452 147.016833,281.14492 C144.184482,282.303134 141.194099,283.109685 138.220305,283.867248 C136.969146,284.186544 136.634747,284.827761 136.640859,285.928239 C136.647844,286.91937 136.732535,287.919248 136.622524,288.896382 C136.47235,290.230428 136.532594,291.639705 134.764557,292.230184 C133.437438,292.6737 132.429876,293.652583 132.358281,295.279682 C132.283194,296.980262 132.122543,298.675594 131.983719,300.3718 C131.889424,301.535263 131.156889,301.99365 130.12226,301.720718 C128.469473,301.283326 126.850738,300.714716 125.226763,300.17235 C124.478513,299.922161 123.772171,299.512762 123.009951,299.351802 C122.699999,299.287068 122.064379,299.62211 121.984053,299.895043 C121.887138,300.226586 122.108034,300.796071 122.383062,301.071628 C124.321354,303.014523 124.661865,304.059016 123.790506,305.752598 C122.693887,307.882697 120.280626,309.10827 117.886573,308.675252 C116.967194,308.508168 116.329828,308.791598 116.137745,309.662883 C115.851367,310.967186 115.706431,312.302982 115.480297,313.760372 L109.623512,318.421222 Z M325.922936,215.28767 C325.121426,217.725693 324.247448,220.143597 323.309734,222.532632 C322.159855,225.463159 320.977672,228.384938 319.688096,231.25598 C318.255332,234.442818 316.750973,237.602539 315.151445,240.708897 C314.040856,242.864365 312.758266,244.935854 311.477421,246.99772 C309.743436,249.787407 307.996353,252.57272 306.146245,255.284551 C304.427975,257.80043 302.50278,260.174594 300.783637,262.690473 C297.876199,266.945423 294.416959,270.741987 290.960338,274.51843 C287.687069,278.092798 284.157107,281.438847 280.621034,284.759528 C275.522104,289.548096 270.083536,293.932514 264.324538,297.911033 C261.816109,299.643105 259.426422,301.558008 256.849017,303.177233 C251.132802,308.733862 248.01058,300.661354 248.01058,300.661354 C248.306562,300.488147 248.560636,299.902916 248.516981,299.546879 C248.172977,296.703831 247.708486,293.874779 247.367975,291.030855 C247.13311,289.071339 247.150572,287.076831 246.855463,285.129561 C246.275721,281.306755 246.373509,277.480449 246.971586,273.709254 C247.231771,272.063785 248.204409,270.48655 249.05394,268.993293 C249.769012,267.737103 250.998344,266.752971 251.604278,265.461789 C252.879011,262.748209 253.563525,259.815058 253.525981,256.804051 C253.485818,253.522735 253.345249,250.233547 253.031804,246.968852 C252.84496,245.029456 252.551597,243.104931 250.808007,241.62742 C248.67152,239.816617 248.235841,237.201013 248.571113,234.519799 C248.787643,232.7956 249.121169,231.063527 249.615346,229.399688 C251.07605,224.480776 247.623795,221.137351 244.025731,219.566239 C241.557464,218.48938 238.812424,218.014372 236.696891,216.159829 C236.507428,215.993621 236.086591,215.93501 235.83863,216.019864 C234.225133,216.566604 232.645686,217.216569 231.026078,217.738815 C228.532491,218.543616 226.026681,219.320425 223.501663,220.017628 C221.573848,220.548622 219.618094,220.993012 217.654482,221.373543 C215.573001,221.775944 213.335234,222.216835 211.639665,220.566117 C209.806145,218.780683 208.142881,216.820292 206.740675,214.624583 C204.661813,211.369511 202.516595,208.176549 201.41823,204.415852 C200.772133,202.202648 199.68861,200.02881 199.517481,197.783239 C199.251184,194.302473 199.517481,190.76922 199.706945,187.267459 C199.849261,184.626485 200.447338,181.997759 200.446465,179.363784 C200.446465,175.539227 201.794538,172.217672 203.772993,169.132308 C204.616412,167.818383 205.899875,166.726652 207.151034,165.752142 C208.551494,164.663911 209.692642,163.541563 209.696134,161.638907 C209.69788,160.668772 210.302942,160.338103 211.164696,160.22963 C212.593968,160.049425 214.181272,158.845722 214.194368,157.437319 C214.218815,154.838335 214.81078,152.430055 215.774688,150.067263 C215.823582,149.946542 215.775561,149.786457 215.826201,149.668361 C216.246164,148.686853 216.678351,147.711469 217.236265,146.440408 C217.523516,147.224214 217.667578,147.616992 217.754889,147.854933 C218.861985,147.041384 219.918442,146.245331 220.997599,145.478145 C222.83723,144.168593 225.02523,144.214957 227.126793,143.9359 C229.079054,143.676964 231.063621,143.562368 232.972228,143.119727 C233.886368,142.908904 234.913139,142.259814 235.430017,141.497002 C236.014124,140.634465 236.661094,140.393025 237.51761,140.425392 C242.951812,140.632716 248.385142,140.870657 253.817598,141.100725 C254.597281,141.133967 255.1063,141.358786 255.330688,142.281684 C255.750652,144.011132 256.328647,145.706464 256.940693,147.379926 C257.083882,147.771829 257.572821,148.178604 257.985799,148.302823 C259.260532,148.685104 260.581539,148.910798 261.871987,149.244965 C262.447363,149.393679 263.00877,149.622872 263.550967,149.871311 C264.171745,150.154741 264.737517,150.694483 265.375756,150.786335 C268.471785,151.230726 271.584402,151.563143 274.691781,151.931428 C274.912677,151.957671 275.137065,151.977791 275.35796,151.962045 C276.902482,151.850073 278.468831,151.508032 279.983668,151.665493 C281.805837,151.855321 283.587843,152.405561 284.060193,154.673001 C284.232194,155.499672 284.791854,156.15751 286.261289,156.09715 C285.008384,154.442058 283.943197,153.03453 282.768871,151.480914 C283.202804,151.406557 283.44902,151.326952 283.694362,151.327827 C285.937368,151.334825 288.184739,151.278839 290.419013,151.417929 C291.130593,151.461669 291.979251,151.872817 292.467316,152.395063 C293.439082,153.433432 294.175109,154.690497 295.07266,155.804972 C295.386105,156.192501 295.875043,156.66226 296.308103,156.687629 C298.040343,156.788229 299.782186,156.728744 301.607848,156.728744 C301.532761,156.364834 301.508314,156.146138 301.441085,155.940563 C300.608143,153.349453 300.918968,152.379317 303.085141,150.648119 C303.294686,150.480161 303.475418,150.148618 303.488515,149.883558 C303.590668,147.816443 303.68671,145.748453 303.683217,143.679589 C303.682344,143.362042 303.168959,142.772438 302.886073,142.768064 C298.839233,142.710328 294.790648,142.687584 290.746427,142.791683 C290.253123,142.804805 289.587818,143.518628 289.33549,144.061869 C288.795912,145.228831 288.478975,146.498143 288.061631,147.721966 C287.625079,149.0044 286.555526,149.316698 285.460653,149.040266 C284.004314,148.671107 282.462412,148.258209 281.239192,147.441161 C279.358525,146.184971 279.163823,145.395915 281.014804,144.095986 C282.367243,143.14597 284.054081,142.675337 285.637893,141.970261 C285.95483,139.320539 286.29534,136.468743 286.637597,133.617821 C286.801741,132.250534 286.315422,131.546333 284.94814,131.220038 C284.036619,131.003092 283.125098,130.722286 282.199607,130.649679 C281.618119,130.603315 281.011312,130.888495 280.454271,131.016213 C281.527317,133.367633 282.461538,135.477613 283.449893,137.562223 C284.035746,138.796544 283.849775,139.381774 282.585519,139.808669 C281.531682,140.163831 280.472606,140.501498 279.413531,140.837415 C277.8498,141.332543 277.02297,140.995751 276.167328,139.588223 C275.8923,139.13596 275.481941,138.765926 275.199055,138.316287 C274.417626,137.078468 273.059949,136.220304 273.346327,134.335144 C273.644929,132.367755 273.534918,130.329508 273.489516,128.325377 C273.479039,127.894984 272.955176,127.487334 272.701976,127.049067 C271.883877,125.633667 270.070439,125.295125 269.283772,123.773001 C268.931911,123.091544 268.04309,122.698766 267.431044,122.138904 C266.846937,121.605285 266.259338,121.062919 265.752064,120.458443 C264.257309,118.674759 262.869073,116.793973 261.280023,115.100391 C260.87141,114.664748 259.87869,114.723359 259.147901,114.688367 C258.982885,114.680494 258.634516,115.236857 258.645866,115.522037 C258.66944,116.134385 258.730557,116.821091 259.025667,117.33284 C260.755287,120.339473 262.671751,123.212264 265.11819,125.707148 C266.532619,127.149667 268.389713,128.069066 269.517764,129.881618 C270.609144,131.635561 270.518342,134.007975 268.827138,134.431371 C267.167366,134.846018 265.359167,134.664063 264.73577,136.851024 C264.8257,136.938502 265.12954,137.206186 265.39933,137.503613 C266.767485,139.010866 266.93774,140.022991 266.034077,141.177706 C264.810857,142.739196 262.312032,143.521253 260.952608,142.764565 C259.532067,141.97376 258.894701,140.497124 258.328056,139.167452 C257.972703,138.334658 258.515774,137.117833 258.65809,136.061094 C259.525956,135.998109 260.193007,135.948246 260.860059,135.900133 C261.64498,135.843272 261.961917,135.538847 262.009938,134.639569 C262.060578,133.720171 262.604522,132.836639 262.811448,131.911118 C262.924078,131.409866 262.981703,130.698667 262.714533,130.353127 C262.188051,129.670795 261.410115,129.187915 260.752667,128.603559 C259.313791,127.323749 257.815544,126.102551 256.478821,124.722141 C255.534122,123.745882 254.826907,122.54043 253.993965,121.452198 C253.428194,120.71388 253.100779,119.689508 251.745721,120.073538 C250.283271,120.487311 248.734384,120.603658 247.275426,121.028803 C245.909017,121.428579 244.530385,121.921957 243.297562,122.622659 C240.458226,124.236636 238.150611,126.472585 236.479488,129.298137 C235.664009,130.676797 234.791777,132.082575 235.03712,133.816397 C235.18904,134.895006 234.890438,135.720803 233.937008,136.359395 C233.283926,136.796787 232.73387,137.401263 232.180322,137.970747 C230.761527,139.429887 229.442266,140.598599 227.009797,139.965255 C225.018245,139.446508 222.810164,139.720316 220.697251,139.726439 C219.565708,139.729938 218.80436,139.313541 218.360823,138.280421 C218.134689,137.754676 217.845692,137.253424 217.657101,136.715432 C217.251107,135.554594 216.444359,134.315024 216.597152,133.218045 C217.036324,130.046953 217.821245,126.919599 218.570368,123.799244 C218.850635,122.634906 219.577058,122.021683 221.000218,122.073295 C224.682973,122.207137 228.374459,122.09429 232.06158,122.1529 C233.213204,122.170396 233.615706,121.557172 233.347663,120.663143 C232.865709,119.050916 233.803423,116.814967 231.339522,116.001418 C230.677709,115.782722 230.114556,115.211488 229.550531,114.747853 C228.314215,113.733103 227.005431,112.774339 225.943736,111.59688 C225.576159,111.188356 225.710617,110.162234 225.879126,109.484276 C226.026681,108.887674 226.54094,108.382048 226.806363,107.971775 C227.362531,107.879047 227.985055,107.920162 228.457404,107.672598 C231.133469,106.26857 233.77723,104.800682 236.427102,103.344166 C238.791469,102.045112 240.426794,100.205441 241.373239,97.5863371 C242.069977,95.6548137 243.153499,93.813393 244.336556,92.1233101 C245.29959,90.7490242 246.939281,90.0736908 248.82344,90.7603964 C250.533852,91.3832427 252.516672,91.6360553 254.337968,91.499589 C259.013443,91.1488005 263.664471,90.4900881 268.325976,89.9564697 C270.598667,89.6966588 271.282308,88.9845845 271.02125,87.3881035 C270.798608,86.0269393 270.615256,84.622036 270.721775,83.2599971 C270.772415,82.6056585 271.404543,81.7991075 272.000873,81.4238251 C273.535791,80.459813 275.252314,80.3006023 277.029082,80.8175997 C278.068076,81.120275 278.605909,80.6067767 278.516852,79.564034 C278.469705,79.0155444 278.154514,78.4932982 278.068076,77.9421842 C277.978147,77.3613275 277.765982,76.4454285 278.044503,76.2223586 C279.308758,75.2067342 280.653339,74.2234768 282.115789,73.5481434 C283.124225,73.0827583 284.395465,73.2209741 285.502562,72.9182988 C285.884981,72.8133247 286.456865,72.0968765 286.377412,71.8204447 C285.945226,70.2991951 286.257797,68.3781691 284.549131,67.6485991 C282.863167,69.1663496 281.282847,70.6893488 279.59339,72.078506 C278.058472,73.3408196 276.695556,72.9147997 275.748238,71.11012 C275.263665,70.1880975 274.797427,69.1777218 274.063146,68.484018 C272.952557,67.434277 272.283759,66.3066802 272.661813,64.8107993 C273.182184,62.7559314 273.788991,60.7185591 274.444693,58.7013068 C275.16675,56.4828542 276.027631,54.3098904 276.729607,52.0853143 C276.898116,51.551696 276.677221,50.8938583 276.639677,50.3444938 C275.699344,50.6104282 275.006099,50.6830353 274.439454,50.9892098 C272.433933,52.0748169 270.529692,53.3546261 269.195588,55.2336625 C268.31026,56.4802299 267.520101,57.7600391 267.885931,59.5594701 C268.295417,61.5767223 267.332383,63.2869253 265.745079,64.5903537 C265.621971,64.6909539 265.423777,64.7040757 265.260506,64.7530636 C264.775933,64.8965282 264.292233,65.0382432 263.80766,65.180833 C264.107135,65.6435938 264.343746,66.1675895 264.719181,66.5577433 C265.683089,67.5619955 267.23023,68.3528004 267.574233,69.5171381 C267.984592,70.9019214 267.59868,72.6532392 267.152524,74.1228766 C266.804155,75.2740925 266.426101,76.7227351 264.946189,77.1225115 C262.999165,77.6482567 262.084152,79.8850798 263.151959,81.6433959 C263.94823,82.9581965 263.815518,83.4454513 262.330367,83.8006137 C260.548361,84.2266335 258.729684,84.4978166 257.093486,84.8048659 C256.573989,83.8137354 256.006471,83.1077846 255.830977,82.3152302 C255.494832,80.7974797 255.492213,79.2036229 255.130747,77.6937455 C254.944776,76.9143128 254.363289,76.1698715 253.782674,75.5863905 C253.640358,75.4429259 252.78035,75.9555494 252.289665,76.2372299 C251.746594,76.5477783 251.234955,76.9204363 250.733793,77.2983431 C248.962264,78.6350133 248.227983,78.6288898 246.441611,77.3018422 C246.094989,77.0446557 245.668914,76.8661997 245.254189,76.7314829 C243.781262,76.2547256 243.058331,74.8909371 243.115956,73.3128265 C243.157865,72.179981 242.923,70.9893998 242.572012,69.9029179 C242.086566,68.4000387 241.663983,66.9907614 242.84704,65.6278477 C243.606641,64.7539384 244.314728,63.8327906 245.104015,62.9868744 C248.414827,59.4387499 251.81295,55.9702307 255.046056,52.353873 C256.761707,50.4363462 258.043424,48.3106207 258.03382,45.4658226 C258.020723,42.100528 259.847258,39.4035685 262.099868,37.0407765 L266.017488,31.8130664 C267.811718,33.0989991 269.433946,34.627247 271.242145,35.8921849 C275.230487,38.6827463 278.806723,41.966686 282.235404,45.3722207 C286.817457,49.9219731 291.224889,54.659804 295.512705,59.4903621 C298.476022,62.8285384 301.214078,66.3836612 303.859584,69.983398 C306.08862,73.0153999 308.125573,76.1996142 310.091804,79.4126964 C312.525147,83.3912147 314.96722,87.38198 317.089737,91.5293316 C319.05073,95.3591366 320.723598,99.3516515 322.289075,103.364286 C324.015202,107.790694 325.535277,112.301956 327.027413,116.814967 C327.922345,119.523299 328.662738,122.289367 329.348125,125.060683 C330.139157,128.25277 330.87955,131.461479 331.477627,134.693806 C332.011967,137.591091 332.344619,140.526867 332.725293,143.45127 C332.963651,145.273445 333.119936,147.106118 333.325989,148.932668 C334.105671,155.830341 334.54135,162.74376 334.133611,169.683422 C333.893507,173.766915 333.648165,177.854781 333.208993,181.919028 C332.86499,185.118989 332.206669,188.283958 331.715111,191.467297 C331.517789,192.752355 331.486358,194.068905 331.212203,195.333843 C330.756442,197.443823 330.152254,199.521435 329.635376,201.619167 L325.441855,204.341496 C325.209609,204.276762 322.929933,201.559682 322.853973,201.573679 C322.589423,201.621792 322.329237,201.694399 322.067306,201.755634 C320.173542,202.204398 319.505617,201.999698 318.485831,200.334984 C317.847592,199.293116 317.253008,198.171643 316.919482,197.005556 C316.165119,194.366332 315.505926,191.691242 314.972459,188.998656 C314.769025,187.972535 314.342077,187.329568 313.515247,186.771456 C312.763504,186.265831 311.921831,185.725214 311.469563,184.984272 C310.786796,183.873296 310.010606,183.936281 309.047571,184.197841 C310.618286,188.525398 312.204717,192.739233 313.672406,196.995933 C314.62409,199.755877 315.43695,202.566559 316.248064,205.372866 C316.681124,206.871371 317.102834,208.262278 319.111847,208.031335 C319.404337,207.997219 319.72302,208.250906 320.013764,208.246532 C329.69824,208.096069 325.922936,215.28767 325.922936,215.28767 Z" id="Fill-27"></path>
                            <path d="M224.708009,89.6360511 C224.473323,87.2648095 225.141906,84.6729665 223.218933,82.6848746 C222.411175,81.8489115 221.160425,81.4059225 220.075228,80.8530793 C218.896338,80.2520075 218.345098,79.1891911 219.000037,78.1094054 C220.49548,75.6408134 222.835976,74.0742756 225.480291,73.0302148 C225.971495,72.8364071 227.120366,73.4481964 227.51242,73.9992533 C228.145527,74.8879107 228.560322,76.0043144 228.783183,77.0814208 C229.16523,78.9230405 230.350488,80.3341748 231.140052,81.9543 C232.252539,84.2335499 233.20129,86.5896085 234.260108,88.894759 C234.513896,89.4484952 234.637607,90.412175 235.339847,89.8879118 C235.903822,90.586334 236.303152,91.3276261 236.919886,91.7893707 C237.872276,92.5002966 238.257962,93.3335804 237.877734,94.3990761 C237.222795,96.2353371 236.636079,98.1278647 235.679141,99.8087223 C235.310738,100.45445 234.030879,100.811699 233.123061,100.909943 C230.240421,101.223429 227.545167,101.999553 225.0564,103.460702 C224.1786,103.976034 223.167993,103.519648 223.214385,102.409496 C223.30262,100.367817 223.65374,98.3359624 223.924811,96.3041075 C223.993944,95.7816306 224.174962,95.2734436 224.343245,94.6098532 C221.729857,95.4618925 220.089782,97.2606423 218.320538,98.8852331 C217.102534,100.004316 216.901504,99.9480494 216.189258,98.4297403 C216.044626,98.1216129 215.793566,97.8036611 215.505211,97.6268227 C213.82784,96.6059831 213.242944,95.066239 214.049792,93.3192904 C214.484598,92.3779387 214.570104,91.5562656 214.174412,90.5604334 C213.451251,88.7420349 214.075262,87.4773727 216.05827,86.5306623 C216.958811,86.1010702 217.709262,85.3749612 218.592519,84.9024991 C219.735023,84.2916029 220.913003,83.7012486 222.146471,83.3288163 C222.426639,83.2439696 223.246222,84.0174142 223.383577,84.5122043 C223.649191,85.4642735 223.568234,86.5038686 223.700131,87.4979146 C223.798372,88.2436723 224.005769,88.97514 224.163136,89.7128597 C224.345064,89.6878522 224.526082,89.6619516 224.708009,89.6360511" id="Fill-29"></path>
                            <path d="M193.771779,49.216017 C196.396024,49.6604933 199.011255,50.1662163 201.64812,50.5223222 C202.875953,50.6885634 204.1723,50.7156869 205.382103,50.5056981 C205.961763,50.4050785 206.618049,49.6946165 206.884891,49.1083978 C207.637638,47.4521113 208.120838,47.1625017 209.575847,48.2465688 C211.634856,49.7803619 213.061919,51.7358824 212.516516,54.4351132 C212.383996,55.0922031 211.853017,55.7746666 211.313023,56.2340171 C208.967339,58.2324103 206.54593,60.1459331 204.162383,62.1023286 C202.944467,63.1032751 201.840138,64.2687129 200.514043,65.1034183 C199.460198,65.7666329 198.332431,65.8480035 197.171308,64.7219387 C196.022806,63.6081232 194.413642,62.956283 193.069517,62.0174581 C191.353976,60.8196471 189.64114,59.6034621 188.044597,58.2630337 C187.138597,57.5018244 186.937564,56.4991279 187.775952,55.3975618 C188.152776,54.9023382 188.210471,54.1647527 188.361922,53.5251618 C188.575576,52.6195852 188.644991,51.669386 188.953301,50.7979325 C189.353564,49.6727426 190.487642,49.6202454 191.491003,49.5187508 C192.224818,49.4443798 192.973057,49.5047516 193.715887,49.5047516 C193.734818,49.4085067 193.752848,49.3122619 193.771779,49.216017" id="Fill-31"></path>
                            <path d="M68.7620579,41.958493 C70.4970282,40.32612 72.0582447,38.8735275 73.5937833,37.3956138 C73.7957828,37.2014846 73.9507062,36.8883459 73.9875112,36.6123448 C74.1681124,35.2905785 75.1250423,34.8803751 76.2377514,34.9116046 C78.4297884,34.9723755 80.6449355,36.5777392 80.9359518,39.1461524 C81.0729006,40.3505972 81.5248317,41.1288019 82.7171423,41.5778311 C83.3359798,41.8116301 83.9505376,42.2859805 84.349401,42.8126613 C85.0658145,43.7579859 84.3536807,45.1751288 82.8694979,46.0301411 C81.6532212,46.7306941 80.3958599,47.3772286 79.2497695,48.1790665 C78.1661619,48.9378582 77.2828421,48.7698943 76.4474543,47.9081297 C76.0280485,47.4742932 75.6137784,46.9948786 75.3510078,46.4614454 C74.7184755,45.1742847 73.6656815,44.4289976 72.3894897,43.8542064 C71.2853398,43.356223 70.2385373,42.7366977 68.7620579,41.958493" id="Fill-33"></path>
                        </g>
                    </g>
                </g>
                <g id="stars" transform="translate(40.000000, 18.000000)" fill="#595E64">
                    <ellipse id="Oval-6" cx="97.2421652" cy="13.7665094" rx="3.17094017" ry="3.17688679"></ellipse>
                    <ellipse id="Oval-6-Copy" cx="26.4245014" cy="198.025943" rx="3.17094017" ry="3.17688679"></ellipse>
                    <ellipse id="Oval-6-Copy-2" cx="3.17094017" cy="144.018868" rx="3.17094017" ry="3.17688679"></ellipse>
                    <ellipse id="Oval-6-Copy-3" cx="174.401709" cy="374.872642" rx="3.17094017" ry="3.17688679"></ellipse>
                    <ellipse id="Oval-6-Copy-4" cx="35.9373219" cy="362.165094" rx="3.17094017" ry="3.17688679"></ellipse>
                    <ellipse id="Oval-6-Copy-5" cx="123.666667" cy="422.525943" rx="3.17094017" ry="3.17688679"></ellipse>
                    <ellipse id="Oval-6-Copy-6" cx="367.82906" cy="367.459906" rx="3.17094017" ry="3.17688679"></ellipse>
                    <ellipse id="Oval-6-Copy-7" cx="299.125356" cy="348.398585" rx="3.17094017" ry="3.17688679"></ellipse>
                    <ellipse id="Oval-6-Copy-8" cx="266.358974" cy="445.823113" rx="3.17094017" ry="3.17688679"></ellipse>
                    <ellipse id="Oval-9" cx="10.0413105" cy="251.503538" rx="1.58547009" ry="1.5884434"></ellipse>
                    <ellipse id="Oval-9-Copy-3" cx="70.2891738" cy="106.425708" rx="1.58547009" ry="1.5884434"></ellipse>
                    <ellipse id="Oval-9-Copy-4" cx="133.707977" cy="1.5884434" rx="1.58547009" ry="1.5884434"></ellipse>
                    <ellipse id="Oval-9" cx="239.405983" cy="402.935142" rx="1.58547009" ry="1.5884434"></ellipse>
                    <ellipse id="Oval-9-Copy-2" cx="71.3461538" cy="369.048349" rx="1.58547009" ry="1.5884434"></ellipse>
                    <ellipse id="Oval-9-Copy" cx="107.283476" cy="302.333726" rx="1.58547009" ry="1.5884434"></ellipse>
                </g>
                <g id="graph-display" transform="translate(128.000000, 122.000000)">
                    <ellipse id="Oval-8-Copy-4" fill="#6CC24A" style="mix-blend-mode: multiply;" cx="48.5090909" cy="57.8173913" rx="48.5090909" ry="57.8173913"></ellipse>
                    <ellipse id="Oval-8-Copy-5" fill="#6CC24A" style="mix-blend-mode: multiply;" cx="113.890909" cy="186.182609" rx="48.5090909" ry="57.8173913"></ellipse>
                    <ellipse id="Oval-8-Copy-6" fill="#6CC24A" style="mix-blend-mode: multiply;" cx="262.581818" cy="179.286957" rx="27.4181818" ry="32.8869565"></ellipse>
                    <ellipse id="Oval-4" fill="#EE443D" cx="77.5090909" cy="49.3304348" rx="5.8" ry="5.83478261"></ellipse>
                    <ellipse id="Oval-8" fill="#1E76BC" cx="11.6" cy="79.0347826" rx="8.43636364" ry="10.0782609"></ellipse>
                    <ellipse id="Oval-8-Copy" fill="#1E76BC" cx="47.9818182" cy="28.6434783" rx="19.5090909" ry="23.3391304"></ellipse>
                    <ellipse id="Oval-8-Copy-2" fill="#1E76BC" cx="99.6545455" cy="167.617391" rx="19.5090909" ry="23.3391304"></ellipse>
                    <ellipse id="Oval-8-Copy-3" fill="#1E76BC" cx="268.381818" cy="189.365217" rx="12.1272727" ry="14.3217391"></ellipse>
                    <g id="Group-18" transform="translate(4.218182, 22.001957)">
                        <ellipse id="Oval-7" fill="#D4992B" cx="43.7636364" cy="16.7197819" rx="1.58181818" ry="1.59130435"></ellipse>
                        <ellipse id="Oval-7-Copy" fill="#D4992B" cx="45.8727273" cy="44.3023906" rx="1.58181818" ry="1.59130435"></ellipse>
                        <ellipse id="Oval-7-Copy-5" fill="#D4992B" cx="1.58181818" cy="22.0241297" rx="1.58181818" ry="1.59130435"></ellipse>
                        <ellipse id="Oval-7-Copy-6" fill="#D4992B" cx="3.69090909" cy="59.1545645" rx="1.58181818" ry="1.59130435"></ellipse>
                        <ellipse id="Oval-7-Copy-2" fill="#D4992B" cx="263.109091" cy="160.998043" rx="1.58181818" ry="1.59130435"></ellipse>
                        <ellipse id="Oval-7-Copy-7" fill="#D4992B" cx="92.2727273" cy="129.171956" rx="1.58181818" ry="1.59130435"></ellipse>
                        <ellipse id="Oval-7-Copy-9" fill="#D4992B" cx="61.6909091" cy="67.641521" rx="1.58181818" ry="1.59130435"></ellipse>
                        <ellipse id="Oval-7-Copy-8" fill="#D4992B" cx="93.3272727" cy="157.815434" rx="1.58181818" ry="1.59130435"></ellipse>
                        <ellipse id="Oval-7-Copy-3" fill="#D4992B" cx="93.3272727" cy="20.9632602" rx="1.58181818" ry="1.59130435"></ellipse>
                        <ellipse id="Oval-7-Copy-4" fill="#D4992B" cx="63.8" cy="1.867608" rx="1.58181818" ry="1.59130435"></ellipse>
                        <path d="M74.2126065,27.6744095 C67.2708023,14.3969682 56.945388,10.836567 43.2363636,16.9932058" id="Path-16" stroke="#D4992B"></path>
                        <path d="M73.8882102,26.4043607 C100.205094,108.037387 106.509024,151.932219 92.8,158.088858" id="Path-16-Copy-7" stroke="#D4992B"></path>
                        <path d="M74.3104403,27.6620713 C177.352157,90.7245955 236.781862,129.143993 252.599554,142.920263 C263.595887,152.497416 266.923308,158.260861 262.581818,160.210597" id="Path-16-Copy-8" stroke="#D4992B"></path>
                        <path d="M74.1848011,28.0806175 C99.6009278,88.7932405 105.454479,122.227871 91.7454545,128.38451" id="Path-16-Copy-6" stroke="#D4992B"></path>
                        <path d="M74.3691406,27.0953763 C41.3108591,41.7865659 17.9272062,52.2104801 4.21818182,58.3671188" id="Path-16-Copy-5" stroke="#D4992B"></path>
                        <path d="M73.5226207,27.6154511 C38.9195949,17.9135473 14.7635698,16.1409148 1.05454545,22.2975536" id="Path-16-Copy-4" stroke="#D4992B"></path>
                        <path d="M74.4463778,27.4621223 C100.39115,17.1551913 106.509024,15.0800453 92.8,21.236684" id="Path-16" stroke="#D4992B"></path>
                        <path d="M73.9633878,27.6952235 C80.5453051,4.50245697 76.9817516,-4.0156069 63.2727273,2.14103187" id="Path-16-Copy-3" stroke="#D4992B"></path>
                        <path d="M73.689968,27.3883069 C69.2056804,32.0477375 60.1090243,37.4557722 46.4,43.612411" id="Path-16-Copy" stroke="#D4992B"></path>
                        <path d="M74.1484996,27.6550783 C79.9039788,47.6960816 75.9272062,60.7949027 62.2181818,66.9515414" id="Path-16-Copy-2" stroke="#D4992B"></path>
                    </g>
                </g>
            </g>
        </g>
    </g>
</svg>