<?xml version="1.0" encoding="UTF-8"?>
<svg width="416px" height="527px" viewBox="0 0 416 527" version="1.1" xmlns="http://www.w3.org/2000/svg" xmlns:xlink="http://www.w3.org/1999/xlink">
    <!-- Generator: Sketch 51.3 (57544) - http://www.bohemiancoding.com/sketch -->
    <title>Group 19</title>
    <desc>Created with Sketch.</desc>
    <defs>
        <path d="M125.921875,41.453125 C200.264407,-24.7268402 274.128873,-20.3751845 349.109375,121.828125 C381.999366,184.205216 406.221929,215.146857 413.390625,278.3125 C422.564664,359.147857 354.8483,411.888347 269.015625,488.296875 C183.18295,564.705403 98.3346027,520.035679 25.5,409.90625 C-47.3346027,299.776821 51.5793431,107.63309 125.921875,41.453125 Z" id="path-1"></path>
        <path d="M48.9411058,10.3860995 C43.6038161,2.97146532 35.2253379,-1.45491107 24.9878655,0.447623233 C14.750393,2.35015753 10.9124496,3.9920211 6.06335391,7.6088275 C5.29854386,8.17927818 1.58249685,11.4867289 0.864088792,14.4400724 C-1.45409974,23.9700422 3.77874981,16.2452598 48.9411058,10.3860995 Z" id="path-3"></path>
    </defs>
    <g id="Page-1" stroke="none" stroke-width="1" fill="none" fill-rule="evenodd">
        <g id="Desktop-HD-Copy-7" transform="translate(-753.000000, -999.000000)">
            <g id="Group-19" transform="translate(753.000000, 999.000000)">
                <g id="Group-8">
                    <g id="Group-10-+-Path-12-+-Path-12-Copy-+-Path-12-Copy-2-+-Path-12-Copy-3-+-Path-12-Copy-4-+-Path-12-Copy-5-+-Path-12-Copy-6-+-Path-12-Copy-9-+-Path-12-Copy-7-+-Path-12-Copy-8-+-Oval-5-Mask" transform="translate(1.000000, 0.000000)">
                        <mask id="mask-2" fill="white">
                            <use xlink:href="#path-1"></use>
                        </mask>
                        <use id="Mask" fill="#1E76BC" xlink:href="#path-1"></use>
                        <g id="Group-10" mask="url(#mask-2)">
                            <g transform="translate(26.000000, -328.000000)"></g>
                        </g>
                        <polygon id="Path-12" fill-opacity="0.146257926" fill="#111820" mask="url(#mask-2)" points="69 23 69 550.90625 80.6835938 550.90625 80.6835938 23"></polygon>
                        <polygon id="Path-12-Copy" fill-opacity="0.146257926" fill="#111820" mask="url(#mask-2)" points="96 23 96 550.90625 107.683594 550.90625 107.683594 23"></polygon>
                        <polygon id="Path-12-Copy-2" fill-opacity="0.146257926" fill="#111820" mask="url(#mask-2)" points="123 23 123 550.90625 134.683594 550.90625 134.683594 23"></polygon>
                        <polygon id="Path-12-Copy-3" fill-opacity="0.146257926" fill="#111820" mask="url(#mask-2)" points="150 23 150 550.90625 161.683594 550.90625 161.683594 23"></polygon>
                        <polygon id="Path-12-Copy-4" fill-opacity="0.146257926" fill="#111820" mask="url(#mask-2)" points="177 23 177 550.90625 188.683594 550.90625 188.683594 23"></polygon>
                        <polygon id="Path-12-Copy-5" fill-opacity="0.146257926" fill="#111820" mask="url(#mask-2)" points="203 23 203 550.90625 214.683594 550.90625 214.683594 23"></polygon>
                        <polygon id="Path-12-Copy-6" fill-opacity="0.146257926" fill="#111820" mask="url(#mask-2)" points="230 23 230 550.90625 241.683594 550.90625 241.683594 23"></polygon>
                        <polygon id="Path-12-Copy-9" fill-opacity="0.146257926" fill="#111820" mask="url(#mask-2)" points="311 23 311 550.90625 322.683594 550.90625 322.683594 23"></polygon>
                        <polygon id="Path-12-Copy-7" fill-opacity="0.146257926" fill="#111820" mask="url(#mask-2)" points="257 23 257 550.90625 268.683594 550.90625 268.683594 23"></polygon>
                        <polygon id="Path-12-Copy-8" fill-opacity="0.146257926" fill="#111820" mask="url(#mask-2)" points="284 23 284 550.90625 295.683594 550.90625 295.683594 23"></polygon>
                        <circle id="Oval-5" fill="#1E76BC" mask="url(#mask-2)" cx="324.5" cy="-113.5" r="298.5"></circle>
                        <polygon id="Path-13" stroke="#111820" stroke-width="5" fill="#111820" opacity="0.178683036" mask="url(#mask-2)" points="-24 335.762921 18.5281613 266.971602 52.7416672 301.367262 111.33337 209.77947 143.719435 251.930563 233 136.272817 253.339214 160.228441 334.798503 77.9970008 397.244234 118.475308 481.776579 358.318736 404.198771 551.066164 34.0847394 529.021007"></polygon>
                    </g>
                    <path d="M323.19852,381.186487 L375.739346,399.351938 C377.496798,399.959559 378.424228,401.863387 377.81082,403.604257 C377.518945,404.432605 376.90963,405.113854 376.11465,405.50067 L297.694192,443.657997 C296.8122,444.087151 295.785054,444.113648 294.881707,443.73055 L244.044769,422.171229 C242.333573,421.445532 241.540272,419.483128 242.272881,417.788077 C242.602608,417.025181 243.20735,416.411273 243.969196,416.066048 L320.685767,381.302592 C321.476839,380.944125 322.377195,380.902522 323.19852,381.186487 Z" id="Path-10" fill="#EAF2F9"></path>
                    <path d="M323.19852,372.186487 L375.739346,390.351938 C377.496798,390.959559 378.424228,392.863387 377.81082,394.604257 C377.518945,395.432605 376.90963,396.113854 376.11465,396.50067 L297.694192,434.657997 C296.8122,435.087151 295.785054,435.113648 294.881707,434.73055 L244.044769,413.171229 C242.333573,412.445532 241.540272,410.483128 242.272881,408.788077 C242.602608,408.025181 243.20735,407.411273 243.969196,407.066048 L320.685767,372.302592 C321.476839,371.944125 322.377195,371.902522 323.19852,372.186487 Z" id="Path-10-Copy-4" fill="#D4992B"></path>
                    <path d="M242.19852,318.186487 L294.739346,336.351938 C296.496798,336.959559 297.424228,338.863387 296.81082,340.604257 C296.518945,341.432605 295.90963,342.113854 295.11465,342.50067 L216.694192,380.657997 C215.8122,381.087151 214.785054,381.113648 213.881707,380.73055 L163.044769,359.171229 C161.333573,358.445532 160.540272,356.483128 161.272881,354.788077 C161.602608,354.025181 162.20735,353.411273 162.969196,353.066048 L239.685767,318.302592 C240.476839,317.944125 241.377195,317.902522 242.19852,318.186487 Z" id="Path-10-Copy" fill="#EAF2F9"></path>
                    <path d="M242.19852,309.186487 L294.739346,327.351938 C296.496798,327.959559 297.424228,329.863387 296.81082,331.604257 C296.518945,332.432605 295.90963,333.113854 295.11465,333.50067 L216.694192,371.657997 C215.8122,372.087151 214.785054,372.113648 213.881707,371.73055 L163.044769,350.171229 C161.333573,349.445532 160.540272,347.483128 161.272881,345.788077 C161.602608,345.025181 162.20735,344.411273 162.969196,344.066048 L239.685767,309.302592 C240.476839,308.944125 241.377195,308.902522 242.19852,309.186487 Z" id="Path-10-Copy-5" fill="#D4992B"></path>
                    <path d="M162.19852,256.186487 L214.739346,274.351938 C216.496798,274.959559 217.424228,276.863387 216.81082,278.604257 C216.518945,279.432605 215.90963,280.113854 215.11465,280.50067 L136.694192,318.657997 C135.8122,319.087151 134.785054,319.113648 133.881707,318.73055 L83.0447686,297.171229 C81.3335729,296.445532 80.5402717,294.483128 81.272881,292.788077 C81.6026084,292.025181 82.2073502,291.411273 82.9691964,291.066048 L159.685767,256.302592 C160.476839,255.944125 161.377195,255.902522 162.19852,256.186487 Z" id="Path-10-Copy-2" fill="#EAF2F9"></path>
                    <path d="M162.19852,247.186487 L214.739346,265.351938 C216.496798,265.959559 217.424228,267.863387 216.81082,269.604257 C216.518945,270.432605 215.90963,271.113854 215.11465,271.50067 L136.694192,309.657997 C135.8122,310.087151 134.785054,310.113648 133.881707,309.73055 L83.0447686,288.171229 C81.3335729,287.445532 80.5402717,285.483128 81.272881,283.788077 C81.6026084,283.025181 82.2073502,282.411273 82.9691964,282.066048 L159.685767,247.302592 C160.476839,246.944125 161.377195,246.902522 162.19852,247.186487 Z" id="Path-10-Copy-6" fill="#D4992B"></path>
                    <path d="M81.1985198,193.186487 L133.739346,211.351938 C135.496798,211.959559 136.424228,213.863387 135.81082,215.604257 C135.518945,216.432605 134.90963,217.113854 134.11465,217.50067 L55.694192,255.657997 C54.8122,256.087151 53.7850536,256.113648 52.8817071,255.73055 L2.04476863,234.171229 C0.333572856,233.445532 -0.459728262,231.483128 0.272880995,229.788077 C0.602608414,229.025181 1.20735021,228.411273 1.9691964,228.066048 L78.6857669,193.302592 C79.4768386,192.944125 80.3771955,192.902522 81.1985198,193.186487 Z" id="Path-10-Copy-3" fill="#EAF2F9"></path>
                    <path d="M81.1985198,184.186487 L133.739346,202.351938 C135.496798,202.959559 136.424228,204.863387 135.81082,206.604257 C135.518945,207.432605 134.90963,208.113854 134.11465,208.50067 L55.694192,246.657997 C54.8122,247.087151 53.7850536,247.113648 52.8817071,246.73055 L2.04476863,225.171229 C0.333572856,224.445532 -0.459728262,222.483128 0.272880995,220.788077 C0.602608414,220.025181 1.20735021,219.411273 1.9691964,219.066048 L78.6857669,184.302592 C79.4768386,183.944125 80.3771955,183.902522 81.1985198,184.186487 Z" id="Path-10-Copy-7" fill="#D4992B"></path>
                </g>
                <g id="human" transform="translate(211.000000, 171.000000)">
                    <g id="Group-12" transform="translate(58.000000, 124.000000) scale(-1, 1) translate(-58.000000, -124.000000) ">
                        <g id="legs" transform="translate(16.000000, 103.000000)">
                            <path d="M95.0138886,67.5748664 C89.5292377,67.0459011 89.7431238,65.5596794 89.7431238,65.5596794 L82.8020103,65 C82.8020103,65 79.7380069,71.7673427 80.0180959,74.1425674 C80.325345,76.7464415 80.9347507,79.4936482 86.6248001,77.0518763 C87.561825,76.6491802 87.6263303,75.4103776 87.6263303,75.4103776 C87.6263303,75.4103776 92.0738034,75.3830762 93.2892197,75.1134746 C98.077892,74.0538377 99.7261731,72.1069043 99.9875894,69.5900534 C100.233728,67.19094 96.7572302,67.743794 95.0138886,67.5748664" id="Fill-151" fill="#D82D27"></path>
                            <path d="M21.4242376,134.611658 C16.1403117,134.291475 16.6442417,132.567677 16.6442417,132.567677 L9.69196501,132 C9.69196501,132 6.74829639,138.865771 7.01738521,141.273204 C7.31256749,143.916015 9.94148374,146.268065 13.3646197,144.225814 C14.3268161,143.649484 14.7198489,142.787585 14.7198489,142.787585 C14.7198489,142.787585 18.5621111,142.541822 19.5340925,142.313367 C24.2358081,141.210898 26.7717664,139.229222 26.9870375,137.109089 C27.2332945,134.677426 23.9194249,134.763962 21.4242376,134.611658" id="Fill-149" fill="#D82D27"></path>
                            <path d="M46.5215367,0 C46.5215367,0 48.6818357,4.38776134 65.7898343,9.36547852 C82.897833,14.3431957 100.966075,16.0885264 94.7462711,29.2601624 C93.496584,31.9066184 92.2070144,66.4942017 88.652402,66.4942017 L81.2573736,66.6809082 C78.9759573,52.0408732 78.2940395,42.4492594 79.2116201,37.9060669 C67.8380949,38.5817668 51.0427198,38.6098691 28.825495,37.9903739 C28.825495,37.9903739 30.0263399,71.9091473 25.2246444,89.5482572 C20.4229489,107.183998 19.2827357,133 19.2827357,133 L7.94291944,132.636133 C7.94291944,132.636133 9.61871287,54.2717221 0.771534113,19.1872277 C-2.56826324,5.94652447 6.01617806,1.35776168 6.01617806,1.35776168 L46.5215367,0 Z" id="Fill-129" fill="#111820"></path>
                        </g>
                        <g id="head" transform="translate(62.425115, 25.519901) rotate(35.000000) translate(-62.425115, -25.519901) translate(42.925115, 8.019901)">
                            <path d="M18.9220305,8.73528032 C18.9220305,8.73528032 29.1671878,0.696311436 34.8572144,12.1815712 C40.5500677,23.6639792 39.4109317,29.407322 37.1354864,31.7029481 C34.8572144,34 28.0280518,34 28.0280518,34 C28.0280518,34 22.3366118,32.852187 17.7828945,29.407322 C15.7477136,27.865973 9.81600921,16.7742492 18.9220305,8.73528032" id="Fill-135" fill="#D4992B"></path>
                            <path d="M30.3962811,8 L33.3305853,14.3021467 L35.901075,19.9191223 C35.901075,19.9191223 38.2854596,26.3939892 36.0298094,30.9932002 C35.3525546,32.3763894 33.450924,32.1993869 31.1225109,31.2758333 C25.7100698,29.1275364 18,22.9452947 18,22.9452947 L30.3962811,8 Z" id="Fill-137" fill="#C0872B"></path>
                            <path d="M2.48396518,23.1047987 C-1.67981744,17.9699386 0.248232454,11.5556188 2.09432945,7.85483151 C5.14240237,1.7426458 13.8969854,0.86177615 16.371388,0.37949647 C26.0231396,-1.49997581 35.4549124,3.96538774 35.9753853,8.77825525 C36.3290767,12.0308061 32.816604,12.6152156 28.9490021,13.1698373 C14.224797,15.2776832 25.2021728,23.1047987 25.2021728,23.1047987 C25.2021728,23.1047987 30.7404638,30.448216 17.0054447,34.8894445 C17.0054447,34.8894445 13.7258907,36.9675025 2.48396518,23.1047987" id="Fill-141" fill="#111820"></path>
                        </g>
                        <g id="torso" transform="translate(57.125958, 82.076382) rotate(14.000000) translate(-57.125958, -82.076382) translate(30.125958, 39.076382)">
                            <path d="M1.31065471,9.89808227 C5.95541878,1.96432075 11.2839825,2.29688011 11.2839825,2.29688011 C12.2110904,3.28914193 18.7135294,-0.320264594 23.3559873,2.29688011 C27.4391823,4.59879754 34.7441923,3.94776113 35.6736064,7.91464189 C36.6030205,11.8815226 33.8170845,22.7899031 34.7441923,25.7656053 C35.6736064,28.7402242 36.8753335,37.8041102 38.4595423,42.6243069 C40.0437511,47.4445036 45.5821988,61.6149089 42.2010429,72.2638521 C39.946939,79.3631475 30.6312279,82.7273321 14.2539096,82.3564058 C14.2539096,82.3564058 7.45677996,61.9268324 5.84356622,61.9268324 C5.84356622,61.9268324 9.51971018,42.285248 7.56863252,31.9607421 C5.71095752,25.0181592 -3.33295624,17.8318438 1.31065471,9.89808227 Z" id="Fill-131" fill="#F1F1F1"></path>
                            <g id="Group-11" transform="translate(39.000000, 8.000000)">
                                <g id="Group-9" transform="translate(0.487374, 0.000000)">
                                    <path d="M0.609676381,9.99555544 C0.609676381,9.99555544 0,2.67992745 0,1.8160491 C0,-1.30047403 5.73180672,-0.302639869 7.83950465,4.01811874 C9.94861714,8.33887735 5.53376799,12.1087768 5.53376799,12.1087768 L0.609676381,9.99555544 Z" id="Fill-119" fill="#D4992B"></path>
                                    <path d="M1.59461299,0 C1.59461299,0 4.78728025,1.0894162 5.77747391,2.19113447 C7.4169517,4.01320698 8.04218826,5.4129086 6.79171513,9.08575846 C6.53285022,9.8443858 5.53841287,12.0382541 5.53841287,12.0382541 L0.621394078,9.88539268 C0.621394078,9.88539268 0.266338923,6.59937443 0.141857435,4.14032832 C0.0258633204,1.85351113 -0.493281069,0.515319834 1.59461299,0" id="Fill-121" fill="#C0872B"></path>
                                </g>
                            </g>
                            <path d="M30.4548353,24.3570911 C39.431959,33.6467959 46.6646718,52.658575 49.215955,51.1556065 L51.1776835,46.8369176 C52.7437158,45.3836416 53.3433124,41.3208401 53.2268747,39.0462816 C53.1993489,38.5085784 52.1081813,35.1519283 50.753482,31.3782427 C48.9240836,26.282223 46.6141076,20.4256952 45.7939155,19.723637 C45.3915705,19.3792425 44.42237,19.1377912 42.8863142,18.9992831 L42.3264772,22.9925962 C42.8206127,20.6097659 42.9603132,19.015259 42.7455787,18.2090757 C40.6406835,10.3066151 38.4686502,6.29020432 36.2294788,6.15984346 C35.0828054,6.09308604 34.4611981,3.72186241 33.5620503,3.62367854 C28.9945357,3.12369606 30.5370506,0.622273116 26.3244971,3.50132633 C26.3244971,3.50132633 21.4777116,15.0658759 30.4548353,24.3570911 Z" id="Fill-133" fill="#F1F1F1"></path>
                            <path d="M35.8075493,35.2738281 L41.3179099,52.2844173 L43.5829207,55.1998122 C44.0079095,55.7463766 44.6603571,56.0837905 45.3678737,56.1057455 C47.0019856,56.1542776 52.9573971,49.0623134 53.5703734,44.0373592 C54.5965982,35.2818054 47.8680254,22.5263071 46.1511461,20.3793488 C45.7220346,19.8427446 50.0351498,32.2239512 50.2766758,33.3978818 C50.8919001,36.3881626 51.1525745,40.1984535 50.6857212,39.1962589 C49.3478086,43.3381385 46.3906362,46.287525 46.3714818,46.2609478 C45.2892409,43.9817626 46.3457488,40.3583519 46.2913616,35.5444305 C46.2435731,31.3145704 45.0834691,26.0471956 44.3564692,21.5897077 C43.208165,14.5490581 38.9715061,8.41530767 37.4689851,5.25208912 C37.4689851,5.25208912 33.4452028,1.92147797 31.0549246,1.3369072 C28.6646465,0.752336432 6.85233842,0.496170836 9.24224131,2.53024323 C11.6321442,4.56431563 4.94805857,4.3444208 1.09083616,10.8581271 C-2.76638624,17.372989 4.84510353,27.6964682 4.84510353,27.6964682 C4.84510353,27.6964682 9.76779085,34.1443095 7.35672756,44.3718799 C3.06374198,54.8721548 3.2732435,57.2583183 3.2732435,57.2583183 C3.2732435,57.2583183 -3.49108196,79.6998615 5.72339379,80.913165 C13.3883195,86.0407374 21.4831855,86.6066569 30.0079918,82.6109237 C42.7952012,76.6173239 42.8583542,74.8073397 43.2620578,65.6485575 C43.6657615,56.4897752 38.6933674,54.5994504 36.7659534,49.9461427 C34.836145,45.292835 28.0878016,35.9862197 28.0878016,35.9862197 C28.0878016,35.9862197 27.1228974,32.2642669 31.9438268,35.0560204 C36.7659534,37.8477739 33.8736352,31.332912 33.8736352,31.332912 L26.1591904,22.0262967 C26.1591904,22.0262967 25.4444909,18.4037192 28.2111082,19.2842308 C30.397107,19.9798581 32.6621178,23.6082133 33.516884,23.2707994 C33.7024425,23.1968456 34.6963779,29.2131599 34.6856035,28.3176263 L35.8075493,35.2738281 Z" id="Fill-139" fill="#C9C9CB"></path>
                        </g>
                        <g id="Group-15" transform="translate(36.500000, 66.000000) scale(-1, 1) translate(-36.500000, -66.000000) translate(0.000000, 14.000000)">
                            <path d="M11.8211787,79.4230507 C10.4888459,87.811682 13.2861579,94.0991974 20.2131147,98.285597 C27.1400715,102.471997 36.062006,103.584818 46.9789181,101.62406 C56.7290119,99.6572137 63.2386609,97.339014 66.5078652,94.6694612 C71.4116717,90.6651319 74.2676768,77.5496749 70.9133675,64.0021815 C67.5590582,50.4546881 71.9416702,28.9624739 65.6926184,15.7638979 C59.4435666,2.56532182 49.158779,-1.46823609 38.9972467,0.451722859 C28.8357145,2.37168181 25.0262404,4.02858264 20.2131147,7.67851412 C15.399989,11.3284456 7.33115844,19.4266169 9.30500658,34.0720126 C10.6209053,43.8356098 11.4596294,58.9526225 11.8211787,79.4230507 Z" id="Path-9" fill="#86601A"></path>
                            <path d="M13.5644531,24.2675781 C12.0413909,26.2368376 9.30896905,27.7452779 5.3671875,28.7928991 L0,30.7772741 C5.13151042,19.3580032 9.75065104,15.0373652 13.8574219,17.81536 C20.0175781,21.9823522 15.8490464,21.3136889 13.5644531,24.2675781 Z" id="Path-11" fill="#86601A"></path>
                            <path d="M15.5644531,88.2632226 C14.0413909,90.2324821 11.3089691,91.7409224 7.3671875,92.7885435 L4.01269531,95.549774 C3.60641536,93.8470904 3.65394141,92.4058469 4.15527344,91.2260435 C7.25489189,83.931596 12.552466,79.5753915 15.8574219,81.8110045 C22.0175781,85.9779966 17.8490464,85.3093333 15.5644531,88.2632226 Z" id="Path-11-Copy" fill="#86601A" transform="translate(11.408182, 88.386459) scale(1, -1) translate(-11.408182, -88.386459) "></path>
                            <path d="M11.8211787,80.0535491 C10.4888459,88.4421804 13.2861579,94.7296958 20.2131147,98.9160954 C27.1400715,103.102495 36.062006,104.215316 46.9789181,102.254559 C34.0321819,101.258748 26.3523789,98.821334 23.9395093,94.9423165 C10.7564936,73.7488177 14.798858,47.7503331 14.6511827,40.3531886 C13.971683,6.31664473 43.783107,0.177962414 38.9972467,1.08222125 C28.8357145,3.0021802 25.0262404,4.65908103 20.2131147,8.30901251 C15.399989,11.958944 7.33115844,20.0571153 9.30500658,34.702511 C10.6209053,44.4661082 11.4596294,59.5831209 11.8211787,80.0535491 Z" id="Path-9-Copy" fill="#D4992B"></path>
                            <g id="Group-14" transform="translate(14.000000, 1.000000)">
                                <mask id="mask-4" fill="white">
                                    <use xlink:href="#path-3"></use>
                                </mask>
                                <use id="Mask" fill="#111820" xlink:href="#path-3"></use>
                            </g>
                        </g>
                    </g>
                    <g id="cogs" transform="translate(56.000000, 8.000000)">
                        <g id="Group-3-Copy-5" transform="translate(24.671383, 12.076963) scale(-1, 1) rotate(80.000000) translate(-24.671383, -12.076963) translate(14.171383, 2.076963)">
                            <path d="M10.4781253,7.72733672 C7.74172591,7.73025058 5.50313163,9.42823016 5.50725231,11.4976773 C5.51137299,13.5658182 7.75780987,15.258171 10.4948739,15.2551567 C13.2310074,15.2522428 15.4698675,13.5539618 15.4657469,11.4845147 C15.4616262,9.41526848 13.2170503,7.72452333 10.4781253,7.72733672 Z M9.67366163,19.96547 C9.37963095,19.8800636 8.93911664,19.7212077 8.9014988,19.5509978 C8.63033127,18.3269735 7.75089775,17.5652489 6.17440418,17.2169918 C5.80965727,17.1364083 5.44863227,16.9369593 5.18703536,16.7218357 C4.63114193,16.2649617 4.02486982,16.2449666 3.2711836,16.3760905 C1.06754866,16.7597159 1.59100833,16.7367064 0.572402072,15.4713856 C0.0327255209,14.8010961 -0.311781313,12.4274353 0.410667469,11.8926908 C1.25580627,11.2668127 2.14450911,12.9781218 1.82229828,11.9953454 C1.6497613,11.4688401 1.90511072,10.8688853 1.88849506,10.303495 C1.88065247,10.0299936 1.74267605,9.73840608 1.56801226,9.49394284 C1.40398249,9.26445084 1.11619931,9.08479598 0.879060644,8.8859498 C0.0441570932,8.18591881 -0.277665257,6.05974939 0.382042803,5.22939829 C1.22492187,4.16865088 1.13427714,6.22991145 3.05518006,6.56882411 C3.91573818,6.72064654 4.56973046,6.69492414 5.29058414,6.22549041 C5.9255681,5.81192251 6.7975578,5.61257394 7.5301089,5.27536941 C7.83822965,5.13349432 8.13717856,4.91113626 8.29775227,4.6708931 C8.54432863,4.30223891 8.67526001,3.8882691 8.84088488,3.49017483 C8.97713327,3.16251572 9.23407779,2.97432022 9.71181117,3.00325791 C9.73387677,3.00456413 9.75607529,3.00295648 9.7782738,3.00325791 C12.2848454,3.03721951 11.7734819,2.71609147 12.5441826,4.47777417 C12.7414437,4.92841849 13.0632557,5.16906357 13.6554378,5.36218249 C14.5173251,5.64342072 15.3134145,6.0529695 16.0956797,6.4545805 C16.4688009,6.64609178 16.7803777,6.76817268 17.245749,6.66769457 C17.7963254,6.54872849 18.3689674,6.44704464 18.9365583,6.43137006 C19.2218159,6.42343229 20.1829244,4.82132852 20.3371177,4.995859 C21.54594,6.36406942 20.9986278,8.12432573 19.5255501,9.35518257 C19.111355,9.7011287 19.0250865,10.0333093 19.0870297,10.4865661 C19.1772859,11.1461044 19.1742287,11.8219202 19.0931442,12.4825637 C19.038379,12.9280837 19.0309352,13.3003551 19.5193026,13.6118372 C19.7370342,13.7505975 20.2122403,11.595915 20.4052477,11.7574838 C21.2416135,12.4575148 20.9388115,14.7999909 20.2800339,15.6321506 C19.4249257,16.7123907 19.8187832,16.7418308 17.9168886,16.412765 C17.055533,16.2636555 16.4024712,16.2878707 15.6822821,16.7574049 C15.0474311,17.1713747 14.1765048,17.3724314 13.4440866,17.7099374 C13.1362317,17.851913 12.8499107,18.0750748 12.6737847,18.3122032 C12.4613702,18.5982644 12.3441301,18.9326555 12.2433727,19.256396 C12.0752223,19.7963653 11.6962524,20.0759959 10.9284761,19.9820489 C10.77734,19.9636614 10.6190261,19.9794365 10.4640352,19.9792355 C10.1981847,19.9789341 9.9050845,20.0326899 9.67366163,19.96547 Z" id="Fill-1" fill="#77808B"></path>
                            <path d="M14.8615022,8.48451467 C14.8574956,6.41526848 12.6750734,4.72452333 10.011991,4.72733672 C7.35136419,4.73025058 5.17475796,6.42823016 5.17876454,8.49767731 C5.18277112,10.5658182 7.36700277,12.258171 10.0282758,12.2551567 C12.6886441,12.2522428 14.8655088,10.5539618 14.8615022,8.48451467 M9.99829106,16.9792355 C9.73980211,16.9789341 9.45481804,17.0326899 9.2298034,16.96547 C8.94391462,16.8800636 8.51559843,16.7212077 8.47902224,16.5509978 C8.21536351,15.3269735 7.36028206,14.5652489 5.82744257,14.2169918 C5.47279573,14.1364083 5.12176773,13.9369593 4.8674146,13.7218357 C4.3269142,13.2649617 3.73743014,13.2449666 3.00461396,13.3760905 C0.861999037,13.7597159 1.37096378,13.7367064 0.380563364,12.4713856 C-0.14416921,11.8010961 -0.159290814,11.762814 0.543152915,11.2280695 C1.36488929,10.6021913 1.90913778,9.97812177 1.59584917,8.99534538 C1.42808984,8.46884009 1.67636848,7.8688853 1.66021292,7.30349497 C1.6525875,7.02999356 1.51843173,6.73840608 1.34860449,6.49394284 C1.18911681,6.26445084 0.909302516,6.08479598 0.67873037,5.8859498 C-0.133054185,5.18591881 -0.143264498,5.18189969 0.498175837,4.35154859 C1.31771506,3.29080118 0.926879764,3.22991145 2.79459169,3.56882411 C3.63132043,3.72064654 4.26720325,3.69492414 4.96809605,3.22549041 C5.58549691,2.81192251 6.43334067,2.61257394 7.14560698,2.27536941 C7.44519568,2.13349432 7.7358665,1.91113626 7.89199383,1.6708931 C8.13174233,1.30223891 8.25904814,0.888269102 8.42008676,0.490174832 C8.55256235,0.162515716 8.80239192,-0.0256797836 9.26689657,0.003257912 C9.28835115,0.00456412742 9.30993498,0.00295647767 9.33151881,0.003257912 C11.7686819,0.0372195131 11.2714784,-0.283908526 12.0208379,1.47777417 C12.2126367,1.92841849 12.5255375,2.16906357 13.1013217,2.36218249 C13.9393429,2.64342072 14.713388,3.0529695 15.4739918,3.4545805 C15.836781,3.64609178 16.1397301,3.76817268 16.592215,3.66769457 C17.1275456,3.54872849 17.6843308,3.44704464 18.2362047,3.43137006 C18.5135634,3.42343229 18.9152552,3.56319734 19.0651788,3.73772782 C20.2405281,5.10593824 20.2411743,5.12432573 18.808887,6.35518257 C18.4061612,6.7011287 18.3222815,7.03330934 18.3825095,7.48656609 C18.4702665,8.1461044 18.4672939,8.82192017 18.3884547,9.48256374 C18.335206,9.92808368 18.3279683,10.3003551 18.8028125,10.6118372 C19.014515,10.7505975 19.1750366,10.9357786 19.3626996,11.0973474 C20.1759058,11.7973784 20.1830143,11.7999909 19.5424786,12.6321506 C18.7110489,13.7123907 19.0940003,13.7418308 17.2447704,13.412765 C16.4072661,13.2636555 15.772288,13.2878707 15.0720415,13.7574049 C14.4547698,14.1713747 13.60796,14.3724314 12.895823,14.7099374 C12.5964928,14.851913 12.3181002,15.0750748 12.1468512,15.3122032 C11.9403186,15.5982644 11.8263249,15.9326555 11.7283576,16.256396 C11.5648634,16.7963653 11.1963874,17.0759959 10.4498713,16.9820489 C10.3029203,16.9636614 10.1489901,16.9794365 9.99829106,16.9792355" id="Fill-1" fill="#BFCFE1"></path>
                        </g>
                        <g id="Group-3-Copy" transform="translate(0.000000, 12.000000)">
                            <path d="M8.50899323,5.6150222 C6.51352314,5.61725045 4.88106847,6.91570542 4.88407341,8.49822382 C4.88707834,10.0797434 6.52525208,11.3738955 8.52120683,11.3715904 C10.5164831,11.3693622 12.1491316,10.0706767 12.1461267,8.48815828 C12.1431217,6.90579355 10.5063051,5.61287078 8.50899323,5.6150222 Z M7.92235255,14.9735947 C7.70793597,14.9082839 7.38669882,14.7868059 7.35926668,14.6566454 C7.16152263,13.7206268 6.52021154,13.1381315 5.37058193,12.8718173 C5.10459679,12.8101946 4.8413258,12.6576748 4.65056095,12.4931684 C4.24518565,12.1437942 3.80307261,12.1285038 3.25346047,12.2287751 C1.64649928,12.5221357 2.02822284,12.5045402 1.28542252,11.5369419 C0.891873093,11.0243676 0.640647673,9.20921523 1.16748047,8.80029297 C1.78378275,8.32168027 2.43185334,9.63032842 2.19688688,8.87879353 C2.07106738,8.47617183 2.25727636,8.01738287 2.24515969,7.58502557 C2.23944062,7.37587743 2.1388238,7.15289877 2.01145337,6.96595629 C1.89183761,6.79046241 1.68197689,6.65307928 1.50904778,6.50102044 C0.900209361,5.96570262 0.665526194,4.33980835 1.14660645,3.70483398 C1.76126086,2.8936742 1.69515982,4.46993228 3.09594377,4.72910079 C3.72349032,4.84520029 4.20040244,4.82553023 4.72607203,4.46655149 C5.18912268,4.15029369 5.8250055,3.99785066 6.35920524,3.73998837 C6.58389676,3.63149565 6.80189988,3.46145714 6.91899537,3.27774178 C7.09880675,2.99582976 7.19428611,2.67926461 7.31506507,2.37483958 C7.41442176,2.12427672 7.60179394,1.98036252 7.95017243,2.00249134 C7.96626336,2.00349022 7.98245123,2.00226084 7.99863911,2.00249134 C9.82651142,2.02846198 9.4536088,1.78289348 10.0156284,3.1300626 C10.1594775,3.47467297 10.3941532,3.65869567 10.8259913,3.80637485 C11.4545072,4.02143938 12.035041,4.33462373 12.6054938,4.64173803 C12.8775858,4.78818783 13.1047976,4.88154382 13.4441612,4.80470761 C13.8456592,4.71373355 14.2632481,4.63597532 14.6771535,4.62398887 C14.8851725,4.61791881 15.5860436,3.39278064 15.6984863,3.52624512 C16.5799983,4.57252367 16.1808807,5.91860203 15.1066653,6.8598455 C14.8046209,7.12439254 14.7417112,7.37841302 14.7868821,7.72502113 C14.8526999,8.22937395 14.8504704,8.74617424 14.791341,9.25137227 C14.7514045,9.59206399 14.7459762,9.87674211 15.1021094,10.1149343 C15.2608862,10.2210451 15.6074217,8.5733468 15.7481689,8.69689941 C16.3580736,9.23221723 16.1372607,11.0235224 15.656859,11.6598798 C15.0332867,12.4859458 15.3205002,12.5084589 13.9335778,12.2568203 C13.3054496,12.1427954 12.829216,12.1613129 12.3040311,12.5203685 C11.8410774,12.8369336 11.20597,12.9906829 10.6718672,13.2487757 C10.4473696,13.3573452 10.2385751,13.5279984 10.1101384,13.7093318 C9.95523892,13.9280845 9.8697437,14.1837954 9.79626821,14.4313616 C9.67364752,14.8442794 9.39729052,15.0581145 8.83740344,14.9862727 C8.72719022,14.9722117 8.61174259,14.9842749 8.4987183,14.9841213 C8.30485158,14.9838908 8.09111353,15.0249981 7.92235255,14.9735947 Z" id="Fill-1" fill="#77808B"></path>
                            <path d="M12.1461267,6.48815828 C12.1431217,4.90579355 10.5063051,3.61287078 8.50899323,3.6150222 C6.51352314,3.61725045 4.88106847,4.91570542 4.88407341,6.49822382 C4.88707834,8.07974336 6.52525208,9.3738955 8.52120683,9.37159042 C10.5164831,9.36936217 12.1491316,8.07067669 12.1461267,6.48815828 M8.4987183,12.9841213 C8.30485158,12.9838908 8.09111353,13.0249981 7.92235255,12.9735947 C7.70793597,12.9082839 7.38669882,12.7868059 7.35926668,12.6566454 C7.16152263,11.7206268 6.52021154,11.1381315 5.37058193,10.8718173 C5.10459679,10.8101946 4.8413258,10.6576748 4.65056095,10.4931684 C4.24518565,10.1437942 3.80307261,10.1285038 3.25346047,10.2287751 C1.64649928,10.5221357 2.02822284,10.5045402 1.28542252,9.53694192 C0.891873093,9.02436762 0.88053189,8.99509303 1.40736469,8.58617076 C2.02366697,8.10755806 2.43185334,7.63032842 2.19688688,6.87879353 C2.07106738,6.47617183 2.25727636,6.01738287 2.24515969,5.58502557 C2.23944062,5.37587743 2.1388238,5.15289877 2.01145337,4.96595629 C1.89183761,4.79046241 1.68197689,4.65307928 1.50904778,4.50102044 C0.900209361,3.96570262 0.892551626,3.96262917 1.37363188,3.3276548 C1.9882863,2.51649502 1.69515982,2.46993228 3.09594377,2.72910079 C3.72349032,2.84520029 4.20040244,2.82553023 4.72607203,2.46655149 C5.18912268,2.15029369 5.8250055,1.99785066 6.35920524,1.73998837 C6.58389676,1.63149565 6.80189988,1.46145714 6.91899537,1.27774178 C7.09880675,0.995829758 7.19428611,0.679264608 7.31506507,0.374839577 C7.41442176,0.124276724 7.60179394,-0.0196374816 7.95017243,0.00249134447 C7.96626336,0.00349021509 7.98245123,0.00226083586 7.99863911,0.00249134447 C9.82651142,0.0284619806 9.4536088,-0.21710652 10.0156284,1.1300626 C10.1594775,1.47467297 10.3941532,1.65869567 10.8259913,1.80637485 C11.4545072,2.02143938 12.035041,2.33462373 12.6054938,2.64173803 C12.8775858,2.78818783 13.1047976,2.88154382 13.4441612,2.80470761 C13.8456592,2.71373355 14.2632481,2.63597532 14.6771535,2.62398887 C14.8851725,2.61791881 15.1864414,2.72479796 15.2988841,2.85826245 C16.180396,3.904541 16.1808807,3.91860203 15.1066653,4.8598455 C14.8046209,5.12439254 14.7417112,5.37841302 14.7868821,5.72502113 C14.8526999,6.22937395 14.8504704,6.74617424 14.791341,7.25137227 C14.7514045,7.59206399 14.7459762,7.87674211 15.1021094,8.11493434 C15.2608862,8.22104513 15.3812775,8.36265425 15.5220247,8.48620686 C16.1319294,9.02152468 16.1372607,9.02352242 15.656859,9.65987984 C15.0332867,10.4859458 15.3205002,10.5084589 13.9335778,10.2568203 C13.3054496,10.1427954 12.829216,10.1613129 12.3040311,10.5203685 C11.8410774,10.8369336 11.20597,10.9906829 10.6718672,11.2487757 C10.4473696,11.3573452 10.2385751,11.5279984 10.1101384,11.7093318 C9.95523892,11.9280845 9.8697437,12.1837954 9.79626821,12.4313616 C9.67364752,12.8442794 9.39729052,13.0581145 8.83740344,12.9862727 C8.72719022,12.9722117 8.61174259,12.9842749 8.4987183,12.9841213" id="Fill-1" fill="#BFCFE1"></path>
                        </g>
                        <g id="Group-3-Copy-4" transform="translate(30.671383, 20.076963) rotate(80.000000) translate(-30.671383, -20.076963) translate(20.171383, 10.076963)">
                            <path d="M10.4781253,7.72733672 C7.74172591,7.73025058 5.50313163,9.42823016 5.50725231,11.4976773 C5.51137299,13.5658182 7.75780987,15.258171 10.4948739,15.2551567 C13.2310074,15.2522428 15.4698675,13.5539618 15.4657469,11.4845147 C15.4616262,9.41526848 13.2170503,7.72452333 10.4781253,7.72733672 Z M9.67366163,19.96547 C9.37963095,19.8800636 8.93911664,19.7212077 8.9014988,19.5509978 C8.63033127,18.3269735 7.75089775,17.5652489 6.17440418,17.2169918 C5.80965727,17.1364083 5.44863227,16.9369593 5.18703536,16.7218357 C4.63114193,16.2649617 4.02486982,16.2449666 3.2711836,16.3760905 C1.06754866,16.7597159 1.59100833,16.7367064 0.572402072,15.4713856 C0.0327255209,14.8010961 -0.311781313,12.4274353 0.410667469,11.8926908 C1.25580627,11.2668127 2.14450911,12.9781218 1.82229828,11.9953454 C1.6497613,11.4688401 1.90511072,10.8688853 1.88849506,10.303495 C1.88065247,10.0299936 1.74267605,9.73840608 1.56801226,9.49394284 C1.40398249,9.26445084 1.11619931,9.08479598 0.879060644,8.8859498 C0.0441570932,8.18591881 -0.277665257,6.05974939 0.382042803,5.22939829 C1.22492187,4.16865088 1.13427714,6.22991145 3.05518006,6.56882411 C3.91573818,6.72064654 4.56973046,6.69492414 5.29058414,6.22549041 C5.9255681,5.81192251 6.7975578,5.61257394 7.5301089,5.27536941 C7.83822965,5.13349432 8.13717856,4.91113626 8.29775227,4.6708931 C8.54432863,4.30223891 8.67526001,3.8882691 8.84088488,3.49017483 C8.97713327,3.16251572 9.23407779,2.97432022 9.71181117,3.00325791 C9.73387677,3.00456413 9.75607529,3.00295648 9.7782738,3.00325791 C12.2848454,3.03721951 11.7734819,2.71609147 12.5441826,4.47777417 C12.7414437,4.92841849 13.0632557,5.16906357 13.6554378,5.36218249 C14.5173251,5.64342072 15.3134145,6.0529695 16.0956797,6.4545805 C16.4688009,6.64609178 16.7803777,6.76817268 17.245749,6.66769457 C17.7963254,6.54872849 18.3689674,6.44704464 18.9365583,6.43137006 C19.2218159,6.42343229 20.1829244,4.82132852 20.3371177,4.995859 C21.54594,6.36406942 20.9986278,8.12432573 19.5255501,9.35518257 C19.111355,9.7011287 19.0250865,10.0333093 19.0870297,10.4865661 C19.1772859,11.1461044 19.1742287,11.8219202 19.0931442,12.4825637 C19.038379,12.9280837 19.0309352,13.3003551 19.5193026,13.6118372 C19.7370342,13.7505975 20.2122403,11.595915 20.4052477,11.7574838 C21.2416135,12.4575148 20.9388115,14.7999909 20.2800339,15.6321506 C19.4249257,16.7123907 19.8187832,16.7418308 17.9168886,16.412765 C17.055533,16.2636555 16.4024712,16.2878707 15.6822821,16.7574049 C15.0474311,17.1713747 14.1765048,17.3724314 13.4440866,17.7099374 C13.1362317,17.851913 12.8499107,18.0750748 12.6737847,18.3122032 C12.4613702,18.5982644 12.3441301,18.9326555 12.2433727,19.256396 C12.0752223,19.7963653 11.6962524,20.0759959 10.9284761,19.9820489 C10.77734,19.9636614 10.6190261,19.9794365 10.4640352,19.9792355 C10.1981847,19.9789341 9.9050845,20.0326899 9.67366163,19.96547 Z" id="Fill-1" fill="#77808B"></path>
                            <path d="M14.8615022,8.48451467 C14.8574956,6.41526848 12.6750734,4.72452333 10.011991,4.72733672 C7.35136419,4.73025058 5.17475796,6.42823016 5.17876454,8.49767731 C5.18277112,10.5658182 7.36700277,12.258171 10.0282758,12.2551567 C12.6886441,12.2522428 14.8655088,10.5539618 14.8615022,8.48451467 M9.99829106,16.9792355 C9.73980211,16.9789341 9.45481804,17.0326899 9.2298034,16.96547 C8.94391462,16.8800636 8.51559843,16.7212077 8.47902224,16.5509978 C8.21536351,15.3269735 7.36028206,14.5652489 5.82744257,14.2169918 C5.47279573,14.1364083 5.12176773,13.9369593 4.8674146,13.7218357 C4.3269142,13.2649617 3.73743014,13.2449666 3.00461396,13.3760905 C0.861999037,13.7597159 1.37096378,13.7367064 0.380563364,12.4713856 C-0.14416921,11.8010961 -0.159290814,11.762814 0.543152915,11.2280695 C1.36488929,10.6021913 1.90913778,9.97812177 1.59584917,8.99534538 C1.42808984,8.46884009 1.67636848,7.8688853 1.66021292,7.30349497 C1.6525875,7.02999356 1.51843173,6.73840608 1.34860449,6.49394284 C1.18911681,6.26445084 0.909302516,6.08479598 0.67873037,5.8859498 C-0.133054185,5.18591881 -0.143264498,5.18189969 0.498175837,4.35154859 C1.31771506,3.29080118 0.926879764,3.22991145 2.79459169,3.56882411 C3.63132043,3.72064654 4.26720325,3.69492414 4.96809605,3.22549041 C5.58549691,2.81192251 6.43334067,2.61257394 7.14560698,2.27536941 C7.44519568,2.13349432 7.7358665,1.91113626 7.89199383,1.6708931 C8.13174233,1.30223891 8.25904814,0.888269102 8.42008676,0.490174832 C8.55256235,0.162515716 8.80239192,-0.0256797836 9.26689657,0.003257912 C9.28835115,0.00456412742 9.30993498,0.00295647767 9.33151881,0.003257912 C11.7686819,0.0372195131 11.2714784,-0.283908526 12.0208379,1.47777417 C12.2126367,1.92841849 12.5255375,2.16906357 13.1013217,2.36218249 C13.9393429,2.64342072 14.713388,3.0529695 15.4739918,3.4545805 C15.836781,3.64609178 16.1397301,3.76817268 16.592215,3.66769457 C17.1275456,3.54872849 17.6843308,3.44704464 18.2362047,3.43137006 C18.5135634,3.42343229 18.9152552,3.56319734 19.0651788,3.73772782 C20.2405281,5.10593824 20.2411743,5.12432573 18.808887,6.35518257 C18.4061612,6.7011287 18.3222815,7.03330934 18.3825095,7.48656609 C18.4702665,8.1461044 18.4672939,8.82192017 18.3884547,9.48256374 C18.335206,9.92808368 18.3279683,10.3003551 18.8028125,10.6118372 C19.014515,10.7505975 19.1750366,10.9357786 19.3626996,11.0973474 C20.1759058,11.7973784 20.1830143,11.7999909 19.5424786,12.6321506 C18.7110489,13.7123907 19.0940003,13.7418308 17.2447704,13.412765 C16.4072661,13.2636555 15.772288,13.2878707 15.0720415,13.7574049 C14.4547698,14.1713747 13.60796,14.3724314 12.895823,14.7099374 C12.5964928,14.851913 12.3181002,15.0750748 12.1468512,15.3122032 C11.9403186,15.5982644 11.8263249,15.9326555 11.7283576,16.256396 C11.5648634,16.7963653 11.1963874,17.0759959 10.4498713,16.9820489 C10.3029203,16.9636614 10.1489901,16.9794365 9.99829106,16.9792355" id="Fill-1" fill="#BFCFE1"></path>
                        </g>
                        <g id="Group-3-Copy-2" transform="translate(15.686948, 20.810205) rotate(40.000000) translate(-15.686948, -20.810205) translate(10.686948, 14.810205)">
                            <path d="M4.98958347,4.7807863 C3.68653615,4.78250034 2.62053887,5.78131186 2.6225011,6.99863371 C2.62446333,8.2151872 3.69419518,9.21068885 4.99755899,9.2089157 C6.30047972,9.20720167 7.36660359,8.20821284 7.36464136,6.99089098 C7.36267913,5.77368734 6.29383345,4.77913137 4.98958347,4.7807863 Z M4.60650554,11.9796882 C4.46649093,11.9294492 4.25672221,11.8360045 4.23880895,11.7358811 C4.10968156,11.0158667 3.69090369,10.5677935 2.94019247,10.3629363 C2.76650346,10.3155343 2.5945868,10.1982114 2.47001684,10.071668 C2.20530568,9.80291865 1.91660468,9.7911568 1.55770648,9.86828852 C0.508356506,10.0939505 0.757623015,10.0804155 0.272572415,9.33610917 C0.0155835814,8.94182125 -0.148467292,7.54555018 0.195555938,7.23099459 C0.598002983,6.86283098 1.02119481,7.8694834 0.867761087,7.29137964 C0.785600617,6.98167064 0.90719558,6.62875606 0.899283362,6.29617351 C0.895548795,6.13529033 0.829845739,5.96376828 0.746672505,5.81996638 C0.668563091,5.68497108 0.531523479,5.57929175 0.418600307,5.46232341 C0.0210271872,5.05054048 -0.132221551,3.79985258 0.181925144,3.31141076 C0.583296128,2.6874417 0.540131972,3.89994791 1.45484765,4.0993083 C1.86463723,4.18861561 2.17606212,4.17348479 2.51932578,3.8973473 C2.82169909,3.65407207 3.23693228,3.5368082 3.58576614,3.33845259 C3.73249031,3.25499666 3.87484693,3.1241978 3.9513106,2.98287829 C4.06872792,2.76602289 4.13107619,2.52251124 4.20994518,2.28833814 C4.27482537,2.09559748 4.3971799,1.98489424 4.62467199,2.00191642 C4.63517941,2.00268478 4.64575014,2.0017391 4.65632086,2.00191642 C5.84992639,2.02189383 5.60641997,1.83299498 5.97342028,2.86927892 C6.06735413,3.13436382 6.22059797,3.27591975 6.50258941,3.38951911 C6.91301197,3.55495337 7.29210215,3.79586441 7.66460936,4.03210618 C7.84228612,4.14475987 7.99065603,4.21657217 8.21226143,4.1574674 C8.47444068,4.08748735 8.74712735,4.02767332 9.01740871,4.01845298 C9.15324567,4.0137837 9.61091638,3.07136972 9.68434176,3.17403471 C10.2599714,3.97886436 9.99934659,5.01430925 9.29788101,5.73834269 C9.10064524,5.94184041 9.05956501,6.13724079 9.08906176,6.4038624 C9.13204092,6.79182612 9.13058507,7.1893648 9.09197345,7.57797867 C9.06589478,7.84004922 9.06235011,8.0590324 9.29490601,8.24225718 C9.39858772,8.32388087 9.62487632,7.05642062 9.71678464,7.15146109 C10.115054,7.56324402 9.9708626,8.94117109 9.65715899,9.4306768 C9.24996462,10.0661122 9.43751583,10.0834299 8.53185173,9.88986176 C8.12168236,9.80215028 7.81070055,9.81639453 7.46775338,10.0925911 C7.16544337,10.3361028 6.75071656,10.4543714 6.401946,10.6529043 C6.25534843,10.7364194 6.11900509,10.8676911 6.03513558,11.0071783 C5.93398579,11.1754496 5.87815718,11.3721503 5.83017749,11.5625859 C5.75010585,11.8802149 5.56964398,12.0447035 5.20403622,11.9894405 C5.13206669,11.9786244 5.05667908,11.9879038 4.98287391,11.9877856 C4.85627843,11.9876083 4.71670691,12.0192293 4.60650554,11.9796882 Z" id="Fill-1" fill="#77808B"></path>
                            <path d="M6.68767599,4.99089098 C6.68587303,3.77368734 5.70378303,2.77913137 4.50539594,2.7807863 C3.30811388,2.78250034 2.32864108,3.78131186 2.33044404,4.99863371 C2.332247,6.2151872 3.31515125,7.21068885 4.5127241,7.2089157 C5.70988983,7.20720167 6.68947896,6.20821284 6.68767599,4.99089098 M4.49923098,9.98778559 C4.38291095,9.98760828 4.25466812,10.0192293 4.15341153,9.97968824 C4.02476158,9.92944918 3.83201929,9.83600454 3.81556001,9.73588106 C3.69691358,9.01586674 3.31212693,8.56779348 2.62234916,8.36293635 C2.46275808,8.31553432 2.30479548,8.19821135 2.19033657,8.07166804 C1.94711139,7.80291865 1.68184356,7.7911568 1.35207628,7.86828852 C0.387899567,8.09395054 0.616933703,8.08041554 0.171253514,7.33610917 C-0.0648761444,6.94182125 -0.0716808661,6.91930233 0.244418812,6.60474674 C0.614200182,6.23658313 0.859112003,5.8694834 0.718132128,5.29137964 C0.642640429,4.98167064 0.754365817,4.62875606 0.747095815,4.29617351 C0.743664374,4.13529033 0.683294279,3.96376828 0.606872021,3.81996638 C0.535102563,3.68497108 0.409186132,3.57929175 0.305428667,3.46232341 C-0.0598743832,3.05054048 -0.0644690243,3.04817629 0.224179127,2.55973446 C0.592971777,1.9357654 0.417095894,1.89994791 1.25756626,2.0993083 C1.63409419,2.18861561 1.92024146,2.17348479 2.23564322,1.8973473 C2.51347361,1.65407207 2.8950033,1.5368082 3.21552314,1.33845259 C3.35033805,1.25499666 3.48113993,1.1241978 3.55139722,0.982878293 C3.65928405,0.766022891 3.71657166,0.522511237 3.78903904,0.288338136 C3.84865306,0.0955974799 3.96107636,-0.0151057551 4.17010346,0.00191641882 C4.17975802,0.00268478084 4.18947074,0.00173910451 4.19918346,0.00191641882 C5.29590685,0.0218938312 5.07216528,-0.167005015 5.40937704,0.869278925 C5.4956865,1.13436382 5.6364919,1.27591975 5.89559476,1.38951911 C6.27270429,1.55495337 6.62102462,1.79586441 6.9632963,2.03210618 C7.12655146,2.14475987 7.26287854,2.21657217 7.46649675,2.1574674 C7.70739553,2.08748735 7.95794887,2.02767332 8.20629213,2.01845298 C8.33110352,2.0137837 8.51186484,2.09599843 8.57933046,2.19866342 C9.10823763,3.00349308 9.10852843,3.01430925 8.46399915,3.73834269 C8.28277255,3.94184041 8.2450267,4.13724079 8.27212926,4.4038624 C8.31161991,4.79182612 8.31028223,5.1893648 8.27480462,5.57797867 C8.2508427,5.84004922 8.24758574,6.0590324 8.46126563,6.24225718 C8.55653173,6.32388087 8.62876647,6.43281096 8.71321481,6.52785143 C9.07915762,6.93963437 9.08235642,6.94117109 8.79411539,7.4306768 C8.41997202,8.06611219 8.59230014,8.08342989 7.76014666,7.88986176 C7.38326977,7.80215028 7.09752962,7.81639453 6.78241866,8.09259113 C6.50464643,8.33610278 6.12358202,8.45437143 5.80312034,8.65290435 C5.66842174,8.73641939 5.54314507,8.86769109 5.46608305,9.00717834 C5.37314335,9.17544963 5.32184622,9.3721503 5.27776093,9.56258587 C5.20418851,9.88021491 5.03837431,10.0447035 4.70244207,9.98944052 C4.63631413,9.97862435 4.56704555,9.9879038 4.49923098,9.98778559" id="Fill-1" fill="#BFCFE1"></path>
                        </g>
                        <g id="Group-3-Copy-3" transform="translate(42.751126, 16.381355) rotate(40.000000) translate(-42.751126, -16.381355) translate(33.751126, 10.381355)">
                            <path d="M8.76380033,4.7807863 C6.47510296,4.78250034 4.60276485,5.78131186 4.60621135,6.99863371 C4.60965784,8.2151872 6.48855542,9.21068885 8.77780868,9.2089157 C11.0662837,9.20720167 12.9388442,8.20821284 12.9353977,6.99089098 C12.9319512,5.77368734 11.0546101,4.77913137 8.76380033,4.7807863 Z M8.09095488,11.9796882 C7.84503053,11.9294492 7.47658872,11.8360045 7.44512553,11.7358811 C7.21832369,11.0158667 6.4827742,10.5677935 5.16421057,10.3629363 C4.85913987,10.3155343 4.55718213,10.1982114 4.33838506,10.071668 C3.87344129,9.80291865 3.3663613,9.7911568 2.7359856,9.86828852 C0.892887139,10.0939505 1.33070363,10.0804155 0.47875143,9.33610917 C0.0273713019,8.94182125 -0.260770806,7.54555018 0.343478208,7.23099459 C1.05034394,6.86283098 1.7936462,7.8694834 1.52415225,7.29137964 C1.37984403,6.98167064 1.59341576,6.62875606 1.57951859,6.29617351 C1.57295912,6.13529033 1.45755701,5.96376828 1.31146994,5.81996638 C1.17427707,5.68497108 0.933578057,5.57929175 0.735237626,5.46232341 C0.0369325559,5.05054048 -0.232236474,3.79985258 0.319536821,3.31141076 C1.02451253,2.6874417 0.948698179,3.89994791 2.55532237,4.0993083 C3.27508468,4.18861561 3.82207735,4.17348479 4.42499223,3.8973473 C4.95608653,3.65407207 5.68541009,3.5368082 6.29810859,3.33845259 C6.55581773,3.25499666 6.80585564,3.1241978 6.94015791,2.98287829 C7.14639193,2.76602289 7.25590164,2.52251124 7.39442865,2.28833814 C7.50838545,2.09559748 7.72329131,1.98489424 8.12286278,2.00191642 C8.14131823,2.00268478 8.15988485,2.0017391 8.17845147,2.00191642 C10.2749232,2.02189383 9.84722381,1.83299498 10.4918302,2.86927892 C10.6568174,3.13436382 10.9259779,3.27591975 11.421273,3.38951911 C12.1421471,3.55495337 12.8079884,3.79586441 13.4622672,4.03210618 C13.7743421,4.14475987 14.0349419,4.21657217 14.4241738,4.1574674 C14.8846705,4.08748735 15.3636226,4.02767332 15.83835,4.01845298 C16.0769366,4.0137837 16.8807983,3.07136972 17.009764,3.17403471 C18.020811,3.97886436 17.5630446,5.01430925 16.3309769,5.73834269 C15.9845483,5.94184041 15.9123941,6.13724079 15.9642028,6.4038624 C16.0396922,6.79182612 16.0371351,7.1893648 15.969317,7.57797867 C15.9235119,7.84004922 15.9172859,8.0590324 16.3257516,8.24225718 C16.5078601,8.32388087 16.9053178,7.05642062 17.0667473,7.15146109 C17.7662754,7.56324402 17.5130148,8.94117109 16.9620197,9.4306768 C16.2468157,10.0661122 16.5762342,10.0834299 14.9855084,9.88986176 C14.265079,9.80215028 13.7188646,9.81639453 13.1165056,10.0925911 C12.5855225,10.3361028 11.8570883,10.4543714 11.244501,10.6529043 C10.9870142,10.7364194 10.7475382,10.8676911 10.6002282,11.0071783 C10.4225667,11.1754496 10.3245083,11.3721503 10.2402358,11.5625859 C10.0995964,11.8802149 9.78262976,12.0447035 9.14046926,11.9894405 C9.01406059,11.9786244 8.88164834,11.9879038 8.75201553,11.9877856 C8.52966079,11.9876083 8.28451468,12.0192293 8.09095488,11.9796882 Z" id="Fill-1" fill="#77808B"></path>
                            <path d="M11.7463627,4.99089098 C11.7431959,3.77368734 10.0182342,2.77913137 7.91336404,2.7807863 C5.81043482,2.78250034 4.09006996,3.78131186 4.09323672,4.99863371 C4.09640347,6.2151872 5.82279538,7.21068885 7.92623536,7.2089157 C10.0289603,7.20720167 11.7495294,6.20821284 11.7463627,4.99089098 M7.90253578,9.98778559 C7.69822905,9.98760828 7.47298087,10.0192293 7.29513186,9.97968824 C7.06916861,9.92944918 6.73063235,9.83600454 6.70172295,9.73588106 C6.49333008,9.01586674 5.8174834,8.56779348 4.60594447,8.36293635 C4.32563563,8.31553432 4.04818708,8.19821135 3.84714926,8.07166804 C3.41994388,7.80291865 2.95402237,7.7911568 2.37481278,7.86828852 C0.681314256,8.09395054 1.08359422,8.08041554 0.300792963,7.33610917 C-0.113949707,6.94182125 -0.125901651,6.91930233 0.429301899,6.60474674 C1.07879301,6.23658313 1.50896084,5.8694834 1.26134107,5.29137964 C1.128746,4.98167064 1.32498262,4.62875606 1.31221345,4.29617351 C1.3061864,4.13529033 1.20015121,3.96376828 1.06592168,3.81996638 C0.939864428,3.68497108 0.718702388,3.57929175 0.536460781,3.46232341 C-0.105164518,3.05054048 -0.113234634,3.04817629 0.393752528,2.55973446 C1.04150703,1.9357654 0.732595246,1.89994791 2.20881356,2.0993083 C2.87015445,2.18861561 3.37274902,2.17348479 3.92672673,1.8973473 C4.41471337,1.65407207 5.08483945,1.5368082 5.64780666,1.33845259 C5.88459817,1.25499666 6.11434109,1.1241978 6.23774236,0.982878293 C6.42723685,0.766022891 6.52785792,0.522511237 6.65514101,0.288338136 C6.75984822,0.0955974799 6.95731067,-0.0151057551 7.32444988,0.00191641882 C7.34140733,0.00268478084 7.35846695,0.00173910451 7.37552656,0.00191641882 C9.3018326,0.0218938312 8.9088486,-0.167005015 9.50113382,0.869278925 C9.65272942,1.13436382 9.90004272,1.27591975 10.355136,1.38951911 C11.0174984,1.55495337 11.6292949,1.79586441 12.2304675,2.03210618 C12.517212,2.14475987 12.7566595,2.21657217 13.1142984,2.1574674 C13.5374177,2.08748735 13.9774944,2.02767332 14.4136892,2.01845298 C14.6329104,2.0137837 14.950403,2.09599843 15.0689009,2.19866342 C15.9978837,3.00349308 15.9983944,3.01430925 14.8663308,3.73834269 C14.5480209,3.94184041 14.4817234,4.13724079 14.5293269,4.4038624 C14.598689,4.79182612 14.5963395,5.1893648 14.5340259,5.57797867 C14.4919387,5.84004922 14.4862181,6.0590324 14.8615296,6.24225718 C15.0288568,6.32388087 15.1557313,6.43281096 15.304058,6.52785143 C15.946807,6.93963437 15.9524254,6.94117109 15.4461533,7.4306768 C14.7890007,8.06611219 15.0916811,8.08342989 13.6300708,7.88986176 C12.968117,7.80215028 12.4662375,7.81639453 11.9127705,8.09259113 C11.424886,8.33610278 10.7555772,8.45437143 10.1927121,8.65290435 C9.95612492,8.73641939 9.73608657,8.86769109 9.60073336,9.00717834 C9.43749228,9.17544963 9.34739301,9.3721503 9.26996075,9.56258587 C9.14073674,9.88021491 8.84949749,10.0447035 8.25945965,9.98944052 C8.14331127,9.97862435 8.02164661,9.9879038 7.90253578,9.98778559" id="Fill-1" fill="#BFCFE1"></path>
                        </g>
                        <path d="M2.73535156,35.3710938 C3.1813151,33.9791667 4.0999349,30.6315104 5.49121094,25.328125 C12.5917969,23.2324219 14.4619141,21.9316406 30.7695312,19.4921875 C41.641276,17.8658854 48.0013021,17.2565104 49.8496094,17.6640625 L54.9736328,35.3710938 L47.8945312,47.9707031 L2.73535156,35.3710938 Z" id="Path-15" fill="#86601A"></path>
                    </g>
                </g>
            </g>
        </g>
    </g>
</svg>