<?xml version="1.0" encoding="UTF-8"?>
<svg width="230px" height="42px" viewBox="0 0 230 42" version="1.1" xmlns="http://www.w3.org/2000/svg" xmlns:xlink="http://www.w3.org/1999/xlink">
    <!-- Generator: Sketch 51.3 (57544) - http://www.bohemiancoding.com/sketch -->
    <title>logo-ko</title>
    <desc>Created with Sketch.</desc>
    <defs></defs>
    <g id="Page-1" stroke="none" stroke-width="1" fill="none" fill-rule="evenodd">
        <g id="Desktop-HD-Copy-16" transform="translate(-34.000000, -32.000000)">
            <g id="logo-ko" transform="translate(34.000000, 32.000000)">
                <path d="M88,24 C87.4493671,24 87,24.4483122 87,25 C87,25.5506329 87.4493671,26 88,26 C88.5506329,26 89,25.5506329 89,25 C89,24.4483122 88.5506329,24 88,24" id="Fill-35" fill="#FEFEFE"></path>
                <path d="M88,24 C87.4493671,24 87,24.4483122 87,25 C87,25.5506329 87.4493671,26 88,26 C88.5506329,26 89,25.5506329 89,25 C89,24.4483122 88.5506329,24 88,24 Z" id="Stroke-37" stroke="#FEFEFE"></path>
                <path d="M190,21 L190,20 L197.265089,20 C197.656205,20 198,20.2288591 198,20.4885906 C198,20.7657718 197.66393,21 197.265089,21 L190,21 Z" id="Fill-39" fill="#FEFEFE"></path>
                <path d="M190,21 L190,20 L197.265089,20 C197.656205,20 198,20.2288591 198,20.4885906 C198,20.7657718 197.66393,21 197.265089,21 L190,21 Z" id="Stroke-41" stroke="#FEFEFE"></path>
                <path d="M197.337693,21 C197.696977,21 198,20.7650648 198,20.4874142 C198,20.2273074 197.691055,20 197.337693,20 L190,20 L190,21 L197.337693,21 Z" id="Fill-43" fill="#FEFEFE"></path>
                <path d="M197.337693,21 C197.696977,21 198,20.7650648 198,20.4874142 C198,20.2273074 197.691055,20 197.337693,20 L190,20 L190,21 L197.337693,21 Z" id="Stroke-45" stroke="#FEFEFE"></path>
                <path d="M88.6853722,10.4435344 C88.5765466,10.1774138 88.3069339,10 88.0137913,10 C87.7049621,10 87.4490751,10.1614665 87.3069156,10.4485179 L78.0587073,31.9305339 C77.9812549,32.1109378 77.9802745,32.3142659 78.0567465,32.5036401 C78.1332185,32.6920177 78.2792996,32.8455105 78.459695,32.925247 C78.5557752,32.9681054 78.6577379,32.9900329 78.7626418,32.9900329 C79.0587256,32.9900329 79.3234363,32.8176027 79.4381443,32.5514821 L88.0137913,12.6243283 L96.5904186,32.5564656 C96.706107,32.8385335 96.9512095,33 97.2629799,33 C97.3463148,33 97.4394538,32.9770757 97.5678875,32.925247 C97.7453417,32.8465072 97.8806383,32.6999913 97.9512278,32.5116138 C98.0208369,32.3222396 98.0159349,32.1159213 97.9365217,31.9305339 L88.6853722,10.4435344 Z" id="Fill-47" fill="#FEFEFE"></path>
                <path d="M88.6853722,10.4435344 C88.5765466,10.1774138 88.3069339,10 88.0137913,10 C87.7049621,10 87.4490751,10.1614665 87.3069156,10.4485179 L78.0587073,31.9305339 C77.9812549,32.1109378 77.9802745,32.3142659 78.0567465,32.5036401 C78.1332185,32.6920177 78.2792996,32.8455105 78.459695,32.925247 C78.5557752,32.9681054 78.6577379,32.9900329 78.7626418,32.9900329 C79.0587256,32.9900329 79.3234363,32.8176027 79.4381443,32.5514821 L88.0137913,12.6243283 L96.5904186,32.5564656 C96.706107,32.8385335 96.9512095,33 97.2629799,33 C97.3463148,33 97.4394538,32.9770757 97.5678875,32.925247 C97.7453417,32.8465072 97.8806383,32.6999913 97.9512278,32.5116138 C98.0208369,32.3222396 98.0159349,32.1159213 97.9365217,31.9305339 L88.6853722,10.4435344 Z" id="Stroke-49" stroke="#FEFEFE"></path>
                <path d="M122.256501,31.4820159 L111.487975,31.4820159 L111.487975,10.7584937 C111.487975,10.325923 111.167518,10 110.743499,10 C110.339997,10 110,10.3468539 110,10.7584937 L110,32.2415063 C110,32.6521494 110.339997,33 110.743499,33 L122.256501,33 C122.68052,33 123,32.674077 123,32.2415063 C123,31.8298665 122.660003,31.4820159 122.256501,31.4820159" id="Fill-51" fill="#FEFEFE"></path>
                <path d="M122.256501,31.4820159 L111.487975,31.4820159 L111.487975,10.7584937 C111.487975,10.325923 111.167518,10 110.743499,10 C110.339997,10 110,10.3468539 110,10.7584937 L110,32.2415063 C110,32.6521494 110.339997,33 110.743499,33 L122.256501,33 C122.68052,33 123,32.674077 123,32.2415063 C123,31.8298665 122.660003,31.4820159 122.256501,31.4820159 Z" id="Stroke-53" stroke="#FEFEFE"></path>
                <path d="M170.454915,20.8745938 L170.036858,20.6642978 L170.39364,20.3583221 C171.715017,19.2251159 172.474042,17.5796247 172.474042,15.8454305 C172.474042,12.6222213 169.858962,10 166.644963,10 L160.607348,10 L160.607348,11.4850284 L166.644963,11.4850284 C169.028777,11.4850284 170.968839,13.4404819 170.968839,15.8454305 C170.968839,18.2673224 169.028777,20.2387225 166.644963,20.2387225 L162.199523,20.2387225 L162.199523,21.7237509 L167.673798,21.7237509 C170.331376,21.7237509 172.494797,23.9194003 172.494797,26.6193613 C172.494797,29.299389 170.331376,31.4810851 167.673798,31.4810851 L158.505203,31.4810851 L158.505203,22.4762317 L158.499273,22.3875287 L158.499273,19.5829181 L158.505203,19.5829181 L158.505203,12.2414959 L158.499273,12.1527928 L158.499273,10 L157.752107,10 C157.323179,10 157,10.3259089 157,10.7594575 L157,32.2405425 C157,32.6730944 157.323179,33 157.752107,33 L167.673798,33 C171.16156,33 174,30.1365862 174,26.6193613 C174,24.1775361 172.641067,21.9769034 170.454915,20.8745938" id="Fill-55" fill="#FEFEFE"></path>
                <path d="M170.454915,20.8745938 L170.036858,20.6642978 L170.39364,20.3583221 C171.715017,19.2251159 172.474042,17.5796247 172.474042,15.8454305 C172.474042,12.6222213 169.858962,10 166.644963,10 L160.607348,10 L160.607348,11.4850284 L166.644963,11.4850284 C169.028777,11.4850284 170.968839,13.4404819 170.968839,15.8454305 C170.968839,18.2673224 169.028777,20.2387225 166.644963,20.2387225 L162.199523,20.2387225 L162.199523,21.7237509 L167.673798,21.7237509 C170.331376,21.7237509 172.494797,23.9194003 172.494797,26.6193613 C172.494797,29.299389 170.331376,31.4810851 167.673798,31.4810851 L158.505203,31.4810851 L158.505203,22.4762317 L158.499273,22.3875287 L158.499273,19.5829181 L158.505203,19.5829181 L158.505203,12.2414959 L158.499273,12.1527928 L158.499273,10 L157.752107,10 C157.323179,10 157,10.3259089 157,10.7594575 L157,32.2405425 C157,32.6730944 157.323179,33 157.752107,33 L167.673798,33 C171.16156,33 174,30.1365862 174,26.6193613 C174,24.1775361 172.641067,21.9769034 170.454915,20.8745938 Z" id="Stroke-57" stroke="#FEFEFE"></path>
                <path d="M222.638057,25.7230456 L223.145482,25.5835067 C226.592751,24.6316519 229,21.4940198 229,17.9527214 C229,13.5672127 225.410773,10 221,10 L216.689907,10 L216.689907,11.484096 L221,11.484096 C224.584193,11.484096 227.500881,14.3865055 227.500881,17.9527214 C227.500881,21.5009967 224.584193,24.3874588 221,24.3874588 L214.53335,24.3874588 L214.53335,11.7890882 L214.525296,11.7003813 L214.525296,10 L213.766172,10 C213.329222,10 213,10.325923 213,10.7584937 L213,32.2415063 C213,32.674077 213.329222,33 213.766172,33 C214.204128,33 214.53335,32.674077 214.53335,32.2415063 L214.53335,25.8725516 L220.66071,25.8725516 L227.390133,32.7747443 C227.52303,32.9262437 227.698213,33 227.928769,33 C228.132142,33 228.315379,32.9232536 228.459351,32.7817213 C228.606343,32.6471659 228.6889,32.4637719 228.69192,32.2654273 C228.694941,32.0670827 228.618424,31.8687381 228.479487,31.7212255 L222.638057,25.7230456 Z" id="Fill-59" fill="#FEFEFE"></path>
                <path d="M222.638057,25.7230456 L223.145482,25.5835067 C226.592751,24.6316519 229,21.4940198 229,17.9527214 C229,13.5672127 225.410773,10 221,10 L216.689907,10 L216.689907,11.484096 L221,11.484096 C224.584193,11.484096 227.500881,14.3865055 227.500881,17.9527214 C227.500881,21.5009967 224.584193,24.3874588 221,24.3874588 L214.53335,24.3874588 L214.53335,11.7890882 L214.525296,11.7003813 L214.525296,10 L213.766172,10 C213.329222,10 213,10.325923 213,10.7584937 L213,32.2415063 C213,32.674077 213.329222,33 213.766172,33 C214.204128,33 214.53335,32.674077 214.53335,32.2415063 L214.53335,25.8725516 L220.66071,25.8725516 L227.390133,32.7747443 C227.52303,32.9262437 227.698213,33 227.928769,33 C228.132142,33 228.315379,32.9232536 228.459351,32.7817213 C228.606343,32.6471659 228.6889,32.4637719 228.69192,32.2654273 C228.694941,32.0670827 228.618424,31.8687381 228.479487,31.7212255 L222.638057,25.7230456 Z" id="Stroke-61" stroke="#FEFEFE"></path>
                <path d="M145.641464,10.1254926 C145.524497,10.0428268 145.386355,10 145.239137,10 C144.984027,10 144.742026,10.1304724 144.594809,10.3495865 L137.764321,20.1569307 L137.750204,20.1390032 L137.68567,20.2694756 L137,21.718616 L137,32.2410687 C137,32.6524055 137.35191,33 137.768354,33 C138.205973,33 138.5357,32.6733209 138.5357,32.2410687 L138.519567,21.7684147 L145.867332,11.2041311 C146.110342,10.843589 146.010516,10.3685099 145.641464,10.1254926" id="Fill-63" fill="#FEFEFE"></path>
                <path d="M145.641464,10.1254926 C145.524497,10.0428268 145.386355,10 145.239137,10 C144.984027,10 144.742026,10.1304724 144.594809,10.3495865 L137.764321,20.1569307 L137.750204,20.1390032 L137.68567,20.2694756 L137,21.718616 L137,32.2410687 C137,32.6524055 137.35191,33 137.768354,33 C138.205973,33 138.5357,32.6733209 138.5357,32.2410687 L138.519567,21.7684147 L145.867332,11.2041311 C146.110342,10.843589 146.010516,10.3685099 145.641464,10.1254926 Z" id="Stroke-65" stroke="#FEFEFE"></path>
                <path d="M130.782347,10 C130.624661,10 130.468019,10.0453561 130.339572,10.1298835 C129.982428,10.3803732 129.892619,10.8803216 130.13907,11.2431708 L136.203213,20 L137,18.3548088 L131.455909,10.3576951 C131.303444,10.1340068 131.051772,10 130.782347,10" id="Fill-67" fill="#FEFEFE"></path>
                <path d="M130.782347,10 C130.624661,10 130.468019,10.0453561 130.339572,10.1298835 C129.982428,10.3803732 129.892619,10.8803216 130.13907,11.2431708 L136.203213,20 L137,18.3548088 L131.455909,10.3576951 C131.303444,10.1340068 131.051772,10 130.782347,10 Z" id="Stroke-69" stroke="#FEFEFE"></path>
                <path d="M52,10 C51.4304462,10 51,10.3259089 51,10.7594575 L51,32.2405425 C51,32.6730944 51.4304462,33 52,33 C52.5708661,33 53,32.6730944 53,32.2405425 L53,25.1353295 L52.9895013,25.0466265 L52.9895013,18.5832647 L53,18.5832647 L53,10.7594575 C53,10.3259089 52.5708661,10 52,10" id="Fill-71" fill="#FEFEFE"></path>
                <path d="M52,10 C51.4304462,10 51,10.3259089 51,10.7594575 L51,32.2405425 C51,32.6730944 51.4304462,33 52,33 C52.5708661,33 53,32.6730944 53,32.2405425 L53,25.1353295 L52.9895013,25.0466265 L52.9895013,18.5832647 L53,18.5832647 L53,10.7594575 C53,10.3259089 52.5708661,10 52,10 Z" id="Stroke-73" stroke="#FEFEFE"></path>
                <path d="M55.0814815,20.99818 L64.7958942,11.2757291 C65.0737334,10.9966633 65.0797085,10.494345 64.8048568,10.2192659 C64.6514975,10.0777397 64.4543214,10 64.2461909,10 C64.0430397,10 63.8438718,10.0757464 63.6974835,10.210296 L54,19.9168003 L54,22.0426832 L57.0731602,25.1183863 L57.0661893,25.1253629 L64.7012895,32.789704 C64.840707,32.9292369 65.0249373,33 65.249997,33 C65.4461773,33 65.6294118,32.9252502 65.7658418,32.789704 C65.9201969,32.6342246 66.0038474,32.4358885 65.999864,32.2305759 C65.9958806,32.0382199 65.913226,31.8618105 65.7648459,31.7242709 L55.0814815,20.99818 Z" id="Fill-75" fill="#FEFEFE"></path>
                <path d="M55.0814815,20.99818 L64.7958942,11.2757291 C65.0737334,10.9966633 65.0797085,10.494345 64.8048568,10.2192659 C64.6514975,10.0777397 64.4543214,10 64.2461909,10 C64.0430397,10 63.8438718,10.0757464 63.6974835,10.210296 L54,19.9168003 L54,22.0426832 L57.0731602,25.1183863 L57.0661893,25.1253629 L64.7012895,32.789704 C64.840707,32.9292369 65.0249373,33 65.249997,33 C65.4461773,33 65.6294118,32.9252502 65.7658418,32.789704 C65.9201969,32.6342246 66.0038474,32.4358885 65.999864,32.2305759 C65.9958806,32.0382199 65.913226,31.8618105 65.7648459,31.7242709 L55.0814815,20.99818 Z" id="Stroke-77" stroke="#FEFEFE"></path>
                <path d="M201.21796,11.4850284 C201.634638,11.4850284 202,11.1461628 202,10.7594575 C202,10.3478355 201.641822,10 201.21796,10 L186.78204,10 C186.336626,10 186,10.3259089 186,10.7594575 L186,32.2405425 C186,32.6730944 186.336626,33 186.78204,33 L201.21796,33 C201.641822,33 202,32.6521645 202,32.2405425 C202,31.8428739 201.626427,31.4810851 201.21796,31.4810851 L187.563053,31.4810851 L187.563053,21.7237509 L187.569211,21.7237509 L187.569211,20.3274256 L187.563053,20.2387225 L187.563053,11.4850284 L201.21796,11.4850284 Z" id="Fill-79" fill="#FEFEFE"></path>
                <path d="M201.21796,11.4850284 C201.634638,11.4850284 202,11.1461628 202,10.7594575 C202,10.3478355 201.641822,10 201.21796,10 L186.78204,10 C186.336626,10 186,10.3259089 186,10.7594575 L186,32.2405425 C186,32.6730944 186.336626,33 186.78204,33 L201.21796,33 C201.641822,33 202,32.6521645 202,32.2405425 C202,31.8428739 201.626427,31.4810851 201.21796,31.4810851 L187.563053,31.4810851 L187.563053,21.7237509 L187.569211,21.7237509 L187.569211,20.3274256 L187.563053,20.2387225 L187.563053,11.4850284 L201.21796,11.4850284 Z" id="Stroke-81" stroke="#FEFEFE"></path>
                <path d="M8.74692846,20.5090064 L10.0931349,20.6214286 L10.1270645,19.9619524 C10.1789569,18.9822739 10.3515986,18.0056068 10.6569649,17.0640715 C10.966323,16.1265514 11.3714822,15.2101103 11.9093661,14.3649369 C12.4482478,13.5237786 13.0769432,12.7257823 13.8194026,12.0311742 C14.5508847,11.3275322 15.3791659,10.7112181 16.279298,10.1942771 L16.2862835,10.190262 L16.279298,10.177213 L16.2723125,10.1792205 C14.3093858,10.8668023 12.5350677,12.1777245 11.2217929,13.8771052 C10.571143,14.7303088 10.0103068,15.6698365 9.61512686,16.6836431 C9.2129614,17.6934346 8.94152466,18.7634523 8.81977729,19.8535453 L8.74692846,20.5090064 Z M17.7741959,32.9145864 L18.2272558,31.5876039 L17.5576453,31.3376655 C15.74341,30.6611252 14.0908393,29.5429267 12.8484174,28.0543374 C11.5740619,26.5938536 10.7168407,24.7870695 10.3286462,22.8809124 L10.1849444,22.1722515 L8.80181457,22.4262051 L8.9155785,23.138881 C9.26485371,25.3190671 10.2538015,27.3858273 11.6768486,29.068144 C13.12185,30.731389 15.0009507,32.0282585 17.0936082,32.6967686 L17.7741959,32.9145864 Z M26.1677784,31.035531 C24.3435638,31.8415575 22.3417179,32.1697899 20.3967539,31.9720474 L19.7480999,31.9068024 L19.6602821,33.2598829 L20.3119299,33.2819659 C21.4016686,33.3181015 22.4904093,33.211702 23.5442225,32.9627673 C24.5980358,32.716844 25.6059443,32.3032912 26.540006,31.7813313 C28.4031398,30.7253664 29.9529238,29.1584832 30.9239089,27.3115484 C29.6315906,28.9416691 27.9969826,30.2325159 26.1677784,31.035531 Z M11.7916104,8.9636564 L12.19178,9.49766146 L12.4412623,9.29389637 C14.011005,8.01208347 15.8541802,7.05047285 17.8350696,6.48434718 L17.8949454,6.46728311 L17.8689992,6.35184968 L17.8071276,6.36289114 C15.7613728,6.72123664 13.7794854,7.55536861 12.0540658,8.77795915 L11.7916104,8.9636564 Z M6.28104542,16.9466306 L7.40072198,17.2889158 L7.55839479,16.731824 C8.10126827,14.8146254 9.03233621,12.9947924 10.3056939,11.4339317 L10.5741368,11.106703 L9.95542072,10.5656716 L9.67001297,10.8778437 C8.23299493,12.4497458 7.1143163,14.3388389 6.45767889,16.3945577 L6.28104542,16.9466306 Z M6.72911563,26.6761626 L8.1022662,26.1973649 C6.82591476,22.7875619 7.06142605,19.0284473 7.06142605,19.0284473 L5.82299592,18.9230516 C5.82299592,18.9230516 5.2032819,22.5185518 6.72911563,26.6761626 Z M12.8873367,34.1562486 L13.7724999,32.8794545 L13.1378169,32.4398037 C11.5281571,31.3216052 10.1530107,29.8601176 9.13212913,28.1778009 L8.74393467,27.5373964 L7.47257288,28.3113022 L7.85577769,28.9547181 C8.97146253,30.8247396 10.4803315,32.455864 12.2576434,33.7105752 L12.8873367,34.1562486 Z M22.2000119,36.4528719 L22.1690761,34.9743202 L21.4306085,34.9863655 C19.4666839,35.0184861 17.5017613,34.6390614 15.7004991,33.8671631 L14.996959,33.5650287 L14.4011953,34.988373 L15.1077291,35.2844848 C17.1135668,36.1256432 19.296038,36.5301621 21.4615443,36.4729472 L22.2000119,36.4528719 Z M30.9139296,32.8041719 L30.190431,31.8495876 L29.696456,32.2109444 C28.0957776,33.3783277 26.271563,34.2275162 24.3525452,34.6531142 L23.6669678,34.8046833 L23.9912948,36.1969108 L24.6728805,36.0272738 C26.7715256,35.5063178 28.7584026,34.5386845 30.4369195,33.1876116 L30.9139296,32.8041719 Z M35.7369214,24.8804201 L35.0164166,24.6646097 L34.8966651,25.0339967 C34.2699655,26.9572179 33.2261316,28.7208399 31.8978878,30.2074217 L31.5306499,30.6179632 L32.3798876,31.3537258 L32.7311587,30.9281278 C34.0973238,29.2688977 35.0832778,27.3125521 35.6361306,25.2558296 L35.7369214,24.8804201 Z M35.6091865,18.999338 C35.6510995,19.5122639 35.6680643,20.0251898 35.658085,20.537112 C35.6510995,21.0490341 35.5872321,21.557945 35.5572942,22.065852 L35.5413273,22.3448998 L36.1131407,22.3900694 L36.110147,22.1100179 C36.1051573,21.5800279 36.1350952,21.0530492 36.095178,20.5270743 C36.0592526,20.0010994 35.9983789,19.4781358 35.9105611,18.960191 C35.7379194,17.9253053 35.4355468,16.9175213 35.0453565,15.9559106 C35.3407435,16.9526532 35.517377,17.9764975 35.6091865,18.999338 Z M20.1452757,3.06651403 L20.1582488,3.33452033 L20.2859837,3.32649018 L21.0094824,3.2773055 C21.2499833,3.26224897 21.4914822,3.27931304 21.733979,3.27830927 L23.1899577,3.29838465 L21.7379707,3.14781931 C21.494476,3.12674016 21.2519792,3.08859695 21.0084845,3.08257433 L20.2740086,3.06852157 L20.1452757,3.06651403 Z M15.6625778,3.72599021 L15.8312278,4.28508949 L16.1006687,4.20478798 L17.2692438,3.85447263 L17.5027592,3.7842088 L17.3989746,3.32147133 L17.1614674,3.37667862 L15.9380062,3.66275276 L15.6625778,3.72599021 Z M13.2226409,4.62436338 L13.5339948,5.29688856 L13.8593197,5.14632322 L14.9620315,4.63640861 L15.2534268,4.50190358 L15.0318865,3.91971761 L14.7345036,4.03515103 L13.5569472,4.49387342 L13.2226409,4.62436338 Z M5.87588617,10.8918965 L6.83090441,11.5634179 L7.14824589,11.0856239 C7.70409245,10.2514919 8.33977335,9.46955593 9.02834449,8.73780839 L9.38161143,8.36340259 L8.67407963,7.65273419 L8.30185204,8.00806839 C7.53244863,8.74483477 6.83788991,9.5608989 6.21119038,10.4271515 L5.87588617,10.8918965 Z M3.10862852,17.487662 L4.43986606,17.7897965 C5.06357181,15.2181405 5.93875571,13.1313049 5.93875571,13.1313049 L4.82307087,12.6113526 C4.82307087,12.6113526 3.83013133,14.4281744 3.10862852,17.487662 Z M3.8291334,27.1589755 L5.26714936,26.7042682 L5.03962151,25.9845659 C4.73924482,25.0380118 4.52369211,24.0643559 4.39396132,23.0786549 L4.29716219,22.3408847 L2.83419799,22.530597 L2.92600748,23.2693709 C3.05873206,24.3423999 3.28725784,25.4033837 3.60659519,26.4372656 L3.8291334,27.1589755 Z M7.4356495,33.2990299 L8.62617903,32.3052987 C6.91572839,30.4985147 5.80303734,28.0623675 5.80303734,28.0623675 L4.45683086,28.7690208 C4.45683086,28.7690208 5.59746393,31.5635135 7.4356495,33.2990299 Z M15.4889381,38.4754662 L15.997882,37.0832387 L15.3043212,36.8232626 C14.3782429,36.4769623 13.4821025,36.048353 12.6318668,35.5434572 L11.9842108,35.1600175 L11.2237887,36.4689322 L11.8734406,36.8483568 C12.8045086,37.3913958 13.7824792,37.851122 14.7933814,38.2215127 L15.4889381,38.4754662 Z M22.4255439,39.2413419 L22.3806371,37.9103443 C19.8908038,38.0980491 17.4578524,37.5248971 17.4578524,37.5248971 L17.2083701,38.9422188 C17.2083701,38.9422188 19.8528825,39.6287967 22.4255439,39.2413419 Z M31.2133084,36.0363078 L30.6764225,35.1800929 L30.232344,35.4460916 C29.372129,35.9620289 28.4749907,36.4117173 27.5429248,36.7720704 L27.0080348,36.9788468 L27.4481216,38.0669323 L27.9750282,37.8400805 C28.9549946,37.4174938 29.8980377,36.9156093 30.7832009,36.3233857 L31.2133084,36.0363078 Z M34.4396135,33.1243741 L33.8588187,32.5652749 L33.5554482,32.8473339 L32.670285,33.6744395 L32.345958,33.9765739 L32.9546948,34.6501029 L33.2640529,34.3319081 L34.1512119,33.420486 L34.4396135,33.1243741 Z M35.9145528,31.1429343 L35.3746731,30.7524682 L35.1551287,31.0194707 L34.3837294,31.961006 L34.1412327,32.256114 L34.7459777,32.7610098 L34.9695139,32.4498414 L35.7129711,31.4229858 L35.9145528,31.1429343 Z M37.2517779,27.3908461 L37.5761049,27.5143097 C38.6159472,24.8061412 38.6578602,22.5757666 38.6578602,22.5757666 C38.6578602,22.5757666 38.1598935,25.4525683 37.2517779,27.3908461 Z M30.0127996,2.25848005 L29.8920501,2.5154449 C31.4528114,3.23313967 33.8658042,4.90039983 33.8658042,4.90039983 C33.8658042,4.90039983 32.0316103,3.26024143 30.0127996,2.25848005 Z M23.1460488,0.150565337 L23.0692082,0.835135736 L23.4015187,0.864245034 C24.4782843,0.956591774 25.5500602,1.13827395 26.6028755,1.40628025 L26.8413806,1.46650638 L26.9721093,1.00276514 L26.736598,0.929490014 C25.6738034,0.597242503 24.5830668,0.352322889 23.4763634,0.196738707 L23.1460488,0.150565337 Z M13.0599784,1.49059684 L13.4401895,2.4702753 L13.9162017,2.27353659 C15.8980891,1.45847623 18.0176907,0.96964077 20.1672302,0.832124429 L20.5743853,0.807030206 L20.536464,0 L20.1283109,0.0130489959 C17.8889578,0.0833128198 15.6535964,0.519952297 13.5419782,1.30991843 L13.0599784,1.49059684 Z M7.203132,5.06100286 L8.01145465,6.03666624 L8.4814793,5.6281323 C9.28780609,4.92850536 10.1510148,4.29311964 11.0601283,3.73201282 L11.544124,3.43288968 L10.9753044,2.46525645 L10.4823273,2.74831928 C9.50136293,3.31143364 8.56530535,3.95384575 7.68612973,4.66852922 L7.203132,5.06100286 Z M1.34329177,13.4685713 L2.68251275,14.0246593 L2.95095571,13.3541416 C3.34613567,12.3654292 3.82314582,11.4088375 4.37300481,10.4964115 L4.73126139,9.90218033 L3.56568009,9.17645541 L3.19644629,9.76466399 C2.59269913,10.7312935 2.06479458,11.7481114 1.62171402,12.8020687 L1.34329177,13.4685713 Z M0.118832654,23.6568257 L1.63668296,23.5142906 L1.59975958,22.7494187 L1.5219211,21.1544298 C1.49298115,20.6224323 1.51992524,20.089431 1.54986312,19.5584373 C1.61672437,18.495446 1.76940754,17.4384773 2.00591676,16.4005803 L2.17157301,15.6728478 L0.729565321,15.3355815 L0.558919429,16.0623102 C0.298459909,17.1774974 0.128811946,18.3137638 0.0499755399,19.4570566 C0.0150480181,20.0282011 -0.0168857161,20.6023569 0.0100583721,21.1745052 L0.0849030617,22.8919538 L0.118832654,23.6568257 Z M2.11169725,30.223482 L3.51079398,29.5981339 L3.20143593,28.8894731 C2.77731603,27.916821 2.42804081,26.9110446 2.15660407,25.884189 L1.95901409,25.1363811 L0.476091306,25.5258435 L0.667693711,26.2756588 C0.950107673,27.386831 1.3303187,28.4719052 1.79734956,29.5178324 L2.11169725,30.223482 Z M8.62717696,38.0237702 L9.54427389,36.856387 L8.96447703,36.3926457 C8.1361958,35.7301582 7.36080481,35.001422 6.64828337,34.2144672 L6.1433312,33.6553679 L5.032636,34.6782084 L5.54157989,35.2332926 C6.31198123,36.0764585 7.15024175,36.8553832 8.04438631,37.5630403 L8.62717696,38.0237702 Z M17.9498315,41.8150054 L18.1873386,40.5151246 L17.5366888,40.3886498 C15.4500189,39.9851347 13.433204,39.2363231 11.5900287,38.1833695 L10.9673209,37.8280353 L10.2647788,39.0988067 L10.8934742,39.4441032 C12.8893325,40.5402189 15.0628223,41.3050908 17.2971858,41.699572 L17.9498315,41.8150054 Z M24.6150006,41.6594212 L24.4613195,40.5512603 L23.9004833,40.6205204 C22.8406825,40.7520141 21.7709024,40.7961799 20.7061119,40.757033 L20.0883937,40.7329425 L20.0614497,41.9966876 L20.6801658,41.9996989 C21.8108195,42.0057215 22.9414733,41.9214049 24.0571582,41.7467491 L24.6150006,41.6594212 Z M33.6193157,37.590142 L33.1512869,36.938696 L32.8179785,37.1725742 C31.9358091,37.7929034 31.0047412,38.3409612 30.0377478,38.8087175 L29.6236072,39.0084675 L30.0417395,39.8476183 L30.4488946,39.6338155 C31.444828,39.1118557 32.3968524,38.5095944 33.2939908,37.8350616 L33.6193157,37.590142 Z M39.5919219,29.91934 L39.3154955,29.7808199 L39.2416488,29.9213475 C38.2207672,31.8596253 36.8895297,33.620236 35.3227808,35.118863 L35.0822799,35.348726 L35.5652776,35.8325427 L35.7928055,35.5896306 C37.3276206,33.9585061 38.5929948,32.0834658 39.5250607,30.0638827 L39.5919219,29.91934 Z M41,25.4134213 C41,25.4134213 40.9321408,26.1552066 40.2824889,28.1527067 L40.0499714,28.0724052 C40.6038221,26.8618599 41,25.4134213 41,25.4134213 Z" id="Fill-83" fill="#FEFEFE"></path>
                <path d="M25,21 C25,23.2089086 23.2089086,25 21,25 C18.7900495,25 17,23.2089086 17,21 C17,18.7910914 18.7900495,17 21,17 C23.2089086,17 25,18.7910914 25,21" id="Fill-85" fill="#FEFEFE"></path>
            </g>
        </g>
    </g>
</svg>