<?xml version="1.0" encoding="UTF-8"?>
<svg width="231px" height="42px" viewBox="0 0 231 42" version="1.1" xmlns="http://www.w3.org/2000/svg" xmlns:xlink="http://www.w3.org/1999/xlink">
    <!-- Generator: Sketch 51.3 (57544) - http://www.bohemiancoding.com/sketch -->
    <title>Group</title>
    <desc>Created with Sketch.</desc>
    <defs>
        <path d="M8.91466154,20.5135 L10.2851538,20.6251818 L10.3200462,19.9681364 C10.3723846,18.9916364 10.5491077,18.0170455 10.8595846,17.0790455 C11.1742615,16.1435909 11.5871538,15.2297727 12.1354154,14.3878636 C12.684,13.5481818 13.3246615,12.7530455 14.0800154,12.0603636 C14.8256769,11.3581364 15.6692308,10.7443636 16.5848308,10.2285909 L16.5919385,10.2244545 L16.5858,10.2117273 L16.5780462,10.2139545 C14.5794923,10.8993182 12.7725231,12.2064091 11.4346615,13.9010455 C10.7720308,14.7515455 10.2014769,15.6882727 9.79827692,16.6991364 C9.38926154,17.7068182 9.11303077,18.7727273 8.98896923,19.8596364 L8.91466154,20.5135 Z M18.1078154,32.8825 L18.5694923,31.5595 L17.8868308,31.3106818 C16.0398,30.6361364 14.3568923,29.5205909 13.0914,28.0362727 C11.7936,26.5805909 10.9206462,24.7793636 10.5258462,22.8782273 L10.3794923,22.1721818 L8.97055385,22.4245 L9.08686154,23.1359545 C9.44224615,25.3091364 10.4496,27.37 11.8982769,29.0480909 C13.3705385,30.7055 15.2834769,31.9985909 17.4141692,32.6655 L18.1078154,32.8825 Z M26.6554615,31.0090455 C24.7980923,31.8124545 22.7588308,32.1401818 20.7783692,31.9435455 L20.1173538,31.878 L20.0281846,33.2267727 L20.6924308,33.2487273 C21.8009077,33.2856364 22.9106769,33.1790455 23.9829692,32.9308636 C25.0565538,32.6858636 26.0823231,32.2731818 27.0341077,31.7532727 C28.9318615,30.7000909 30.5097692,29.1371818 31.4983846,27.2968182 C30.1831385,28.9214545 28.5173538,30.2085 26.6554615,31.0090455 Z M12.0152308,9.002 L12.4226308,9.534 L12.6768923,9.33068182 C14.2754769,8.05286364 16.1522308,7.09386364 18.1692,6.52940909 L18.2302615,6.51254545 L18.2037692,6.39768182 L18.1410923,6.40818182 C16.0575692,6.7655 14.0399538,7.59786364 12.2827385,8.8165 L12.0152308,9.002 Z M6.40370769,16.961 L7.54352308,17.3027273 L7.70409231,16.7475 C8.25687692,14.8355455 9.20478462,13.0206364 10.5025846,11.4650455 L10.7752615,11.1382727 L10.1455846,10.5989545 L9.85513846,10.9101364 C8.39192308,12.4775 7.25210769,14.3611364 6.58301538,16.4115 L6.40370769,16.961 Z M6.85956923,26.6626818 L8.25849231,26.1850909 C6.95843077,22.785 7.19815385,19.0374545 7.19815385,19.0374545 L5.93718462,18.9321364 C5.93718462,18.9321364 5.30589231,22.5174091 6.85956923,26.6626818 Z M13.1314615,34.1208636 L14.0325231,32.8481364 L13.3866923,32.4093636 C11.7470769,31.2950909 10.3462154,29.8375 9.30687692,28.1600455 L8.91110769,27.5220909 L7.61718462,28.2933636 L8.00778462,28.9348182 C9.14307692,30.7993636 10.6796308,32.4259091 12.4891846,33.677 L13.1314615,34.1208636 Z M22.6150615,36.4111364 L22.5830769,34.9366818 L21.8303077,34.9487727 C19.8307846,34.9809091 17.8302923,34.6029091 15.9961846,33.8325909 L15.2799231,33.5315909 L14.6728615,34.951 L15.3920308,35.2462727 C17.4345231,36.0846818 19.6572923,36.4881364 21.8626154,36.4308636 L22.6150615,36.4111364 Z M31.4890154,32.7724091 L30.7517538,31.8210455 L30.2484,32.1809091 C28.6184769,33.3457727 26.7611077,34.1918182 24.8061692,34.6162727 L24.108,34.7677273 L24.4388308,36.1556364 L25.1331231,35.9866818 C27.2699538,35.4670909 29.2930615,34.5020455 31.0027846,33.1551818 L31.4890154,32.7724091 Z M36.4001077,24.8725909 L35.6660769,24.6568636 L35.5436308,25.025 C34.9058769,26.9426818 33.8426308,28.7009545 32.4905538,30.1833636 L32.1167538,30.5935 L32.9816308,31.3265909 L33.3386308,30.9021364 C34.7304462,29.2479091 35.7342462,27.2971364 36.2976923,25.2467727 L36.4001077,24.8725909 Z M36.2695846,19.0085 C36.3122308,19.5191818 36.3293538,20.0311364 36.3199846,20.5415 C36.3132,21.0521818 36.2466462,21.5596818 36.2169231,22.0655909 L36.2010923,22.3433636 L36.7826308,22.3891818 L36.7803692,22.1101364 C36.7752,21.5816364 36.8058923,21.0556818 36.7645385,20.5313182 C36.7283538,20.0069545 36.666,19.4851364 36.5774769,18.9693636 C36.4007538,17.9368636 36.0928615,16.9326818 35.6958,15.9736818 C35.9969077,16.9673636 36.1765385,17.9877727 36.2695846,19.0085 Z M20.5228154,3.12136364 L20.5354154,3.38927273 L20.6659385,3.38068182 L21.4019077,3.33263636 C21.6477692,3.31672727 21.8936308,3.33390909 22.1394923,3.33263636 L23.6230615,3.35236364 L22.1443385,3.20281818 C21.8968615,3.18213636 21.6493846,3.14331818 21.4006154,3.13759091 L20.6536615,3.12390909 L20.5228154,3.12136364 Z M15.9574154,3.77968182 L16.1286462,4.33745455 L16.4032615,4.25663636 L17.5934769,3.90695455 L17.8315846,3.83727273 L17.7252923,3.37590909 L17.4839538,3.43095455 L16.2372,3.71572727 L15.9574154,3.77968182 Z M13.4729538,4.67536364 L13.7898923,5.34577273 L14.1207231,5.19590909 L15.2440615,4.68713636 L15.54,4.55254545 L15.3151385,3.97186364 L15.0117692,4.08768182 L13.8134769,4.54522727 L13.4729538,4.67536364 Z M5.99049231,10.9247727 L6.96327692,11.5942273 L7.287,11.1179091 C7.85303077,10.2855455 8.49983077,9.50663636 9.20123077,8.77736364 L9.56113846,8.40318182 L8.84003077,7.69427273 L8.46138462,8.04968182 C7.67824615,8.78404545 6.97038462,9.59731818 6.33295385,10.4611818 L5.99049231,10.9247727 Z M3.17229231,17.5009545 L4.52824615,17.8016364 C5.16373846,15.2377273 6.05478462,13.1574545 6.05478462,13.1574545 L4.91949231,12.6394545 C4.91949231,12.6394545 3.90793846,14.4499091 3.17229231,17.5009545 Z M3.90664615,27.1444091 L5.37147692,26.6906818 L5.13918462,25.9728636 C4.83387692,25.0294545 4.61418462,24.0586818 4.48172308,23.0758182 L4.38253846,22.3398636 L2.89283077,22.5285455 L2.98652308,23.2654545 C3.12221538,24.3355 3.35450769,25.3940909 3.67984615,26.425 L3.90664615,27.1444091 Z M7.57873846,33.2659091 L8.79221538,32.2754091 C7.04953846,30.4741818 5.91650769,28.0445455 5.91650769,28.0445455 L4.54601538,28.7499545 C4.54601538,28.7499545 5.70747692,31.5353182 7.57873846,33.2659091 Z M15.7806923,38.4277727 L16.2989077,37.0395455 L15.5923385,36.7805455 C14.6492769,36.435 13.7369077,36.0073636 12.8704154,35.5043182 L12.2116615,35.1218636 L11.4366,36.4270455 L12.0985846,36.8050455 C13.0464923,37.3462727 14.0425385,37.8057273 15.0718615,38.1741818 L15.7806923,38.4277727 Z M22.8438,39.1914091 L22.7979231,37.8642727 C20.2627385,38.0513636 17.7850615,37.4799091 17.7850615,37.4799091 L17.5311231,38.8929545 C17.5311231,38.8929545 20.2249385,39.5776818 22.8438,39.1914091 Z M31.7927077,35.9959091 L31.2460615,35.1422273 L30.7947231,35.4072727 C29.9188615,35.9214545 29.0045538,36.3697727 28.056,36.729 L27.5112923,36.9351818 L27.9594,38.0198636 L28.4957077,37.7936364 C29.4930462,37.373 30.4545231,36.8718636 31.3552615,36.2825909 L31.7927077,35.9959091 Z M35.0784,33.0925 L34.4868462,32.5350455 L34.1789538,32.8166364 L33.2772462,33.6407273 L32.9473846,33.9420455 L33.5670462,34.6130909 L34.7850462,33.3877727 L35.0784,33.0925 Z M36.5810308,31.1165909 L36.0308308,30.7271364 L35.8079077,30.9931364 L34.7756769,32.2264091 L35.3904923,32.7297727 L35.6192308,32.4201818 L36.5810308,31.1165909 Z M37.9424769,27.3750909 L38.2733077,27.4991818 C39.3323538,24.7981364 39.375,22.5737273 39.375,22.5737273 C39.375,22.5737273 38.8674462,25.4430909 37.9424769,27.3750909 Z M30.5705077,2.31604545 L30.4470923,2.5725 C32.0369538,3.28777273 34.4946,4.94995455 34.4946,4.94995455 C34.4946,4.94995455 32.6262462,3.31481818 30.5705077,2.31604545 Z M23.5778308,0.214136364 L23.4996462,0.896954545 L23.8382308,0.925590909 C24.9350769,1.01818182 26.0264308,1.19859091 27.0980769,1.46618182 L27.3413538,1.52695455 L27.4741385,1.064 L27.2344154,0.9905 C26.1524308,0.659590909 25.0410462,0.415227273 23.9144769,0.260590909 L23.5778308,0.214136364 Z M13.3068923,1.5505 L13.6936154,2.52731818 L14.1785538,2.33163636 C16.1968154,1.51804545 18.3556154,1.03122727 20.5444615,0.894409091 L20.9589692,0.868318182 L20.9205231,0.0645909091 L20.5053692,0.0773181818 C18.2247692,0.147318182 15.9483692,0.582272727 13.7979692,1.37040909 L13.3068923,1.5505 Z M7.34256923,5.11063636 L8.16576923,6.08268182 L8.64456923,5.67604545 C9.46550769,4.97827273 10.3442769,4.34509091 11.2705385,3.78509091 L11.7629077,3.48727273 L11.1839538,2.52286364 L10.6815692,2.80477273 C9.68358462,3.36540909 8.73018462,4.00622727 7.83429231,4.71927273 L7.34256923,5.11063636 Z M1.37469231,13.4931364 L2.73872308,14.0480455 L3.01236923,13.3792273 C3.41524615,12.3938182 3.90018462,11.4399091 4.46072308,10.5299091 L4.82547692,9.93713636 L3.63784615,9.21422727 L3.26307692,9.80095455 C2.64664615,10.7647273 2.10969231,11.7784545 1.65932308,12.8290909 L1.37469231,13.4931364 Z M0.127938462,23.6523636 L1.67450769,23.5101364 L1.55723077,21.1568636 C1.52750769,20.6267727 1.55496923,20.0947727 1.58501538,19.5653182 C1.65383077,18.5054545 1.80890769,17.4516364 2.0496,16.4165909 L2.21856923,15.6911364 L0.749861538,15.3545 L0.577015385,16.0793182 C0.311446154,17.1916818 0.138276923,18.3253636 0.0581538462,19.4647727 C0.0219692308,20.0346364 -0.00936923077,20.6060909 0.0177692308,21.1769091 L0.127938462,23.6523636 Z M2.15750769,30.1992727 L3.58292308,29.5756364 L3.2676,28.8699091 C2.835,27.9000909 2.48058462,26.8968636 2.20370769,25.8735909 L2.00210769,25.1274545 L0.492369231,25.5156364 L0.686861538,26.2633636 C0.975046154,27.3709545 1.36176923,28.4534091 1.83669231,29.4960909 L2.15750769,30.1992727 Z M8.79318462,37.9772273 L9.72687692,36.8133182 L9.13564615,36.3503636 C8.29241538,35.6901364 7.50313846,34.9630909 6.77815385,34.1787727 L6.26381538,33.6219545 L5.13272308,34.6414091 L5.65029231,35.1953636 C6.43504615,36.0353636 7.28861538,36.8126818 8.19936923,37.5177727 L8.79318462,37.9772273 Z M18.2861538,41.7569091 L18.5281385,40.4612727 L17.8658308,40.3355909 C15.7409538,39.9327727 13.6871538,39.186 11.8100769,38.1369545 L11.1752308,37.7818636 L10.4602615,39.0488636 L11.1006,39.3934545 C13.1337231,40.4860909 15.3461538,41.2490909 17.6219077,41.6420455 L18.2861538,41.7569091 Z M25.0743231,41.6019545 L24.9173077,40.4975455 L24.3461077,40.5665909 C23.2667077,40.6973636 22.1776154,40.7422273 21.0933692,40.7024545 L20.4643385,40.6792273 L20.4375231,41.9389091 L21.0672,41.9420909 C22.2186462,41.9478182 23.3700923,41.8638182 24.5057077,41.6891364 L25.0743231,41.6019545 Z M34.2435692,37.5445 L33.7667077,36.8950909 L33.4274769,37.1286364 C32.5286769,37.7471818 31.5810923,38.2931818 30.5957077,38.7596364 L30.1740923,38.9594545 L30.6002308,39.7959545 L31.0150615,39.5830909 C32.0292,39.0625455 32.9990769,38.4615 33.9124154,37.7885455 L34.2435692,37.5445 Z M40.3254923,29.8963636 L40.0447385,29.7589091 L39.9691385,29.8989091 C38.9298,31.8312273 37.5738462,33.5863182 35.9784923,35.0805 L35.7336,35.3099091 L36.225,35.7919545 L36.4572923,35.5501364 C38.0203385,33.9235909 39.3084462,32.0545909 40.2576462,30.0401818 L40.3254923,29.8963636 Z M41.7602769,25.4036364 C41.7602769,25.4036364 41.6904923,26.1427727 41.0285077,28.1349091 L40.7923385,28.0550455 C41.3567538,26.8475455 41.7602769,25.4036364 41.7602769,25.4036364 Z" id="path-1"></path>
        <linearGradient x1="28.4745713%" y1="4.23148087%" x2="66.7029927%" y2="97.9101595%" id="linearGradient-3">
            <stop stop-color="#CE2C2B" offset="0%"></stop>
            <stop stop-color="#006CA7" offset="100%"></stop>
        </linearGradient>
    </defs>
    <g id="Page-1" stroke="none" stroke-width="1" fill="none" fill-rule="evenodd">
        <g id="Desktop-HD-Copy-10" transform="translate(-35.000000, -26.000000)">
            <g id="Group-11">
                <g id="Group" transform="translate(35.000000, 26.000000)">
                    <g id="Kalyber_Primary__CMYK">
                        <g id="Group-17">
                            <mask id="mask-2" fill="white">
                                <use xlink:href="#path-1"></use>
                            </mask>
                            <g id="Clip-16"></g>
                            <path d="M8.91466154,20.5135 L10.2851538,20.6251818 L10.3200462,19.9681364 C10.3723846,18.9916364 10.5491077,18.0170455 10.8595846,17.0790455 C11.1742615,16.1435909 11.5871538,15.2297727 12.1354154,14.3878636 C12.684,13.5481818 13.3246615,12.7530455 14.0800154,12.0603636 C14.8256769,11.3581364 15.6692308,10.7443636 16.5848308,10.2285909 L16.5919385,10.2244545 L16.5858,10.2117273 L16.5780462,10.2139545 C14.5794923,10.8993182 12.7725231,12.2064091 11.4346615,13.9010455 C10.7720308,14.7515455 10.2014769,15.6882727 9.79827692,16.6991364 C9.38926154,17.7068182 9.11303077,18.7727273 8.98896923,19.8596364 L8.91466154,20.5135 Z M18.1078154,32.8825 L18.5694923,31.5595 L17.8868308,31.3106818 C16.0398,30.6361364 14.3568923,29.5205909 13.0914,28.0362727 C11.7936,26.5805909 10.9206462,24.7793636 10.5258462,22.8782273 L10.3794923,22.1721818 L8.97055385,22.4245 L9.08686154,23.1359545 C9.44224615,25.3091364 10.4496,27.37 11.8982769,29.0480909 C13.3705385,30.7055 15.2834769,31.9985909 17.4141692,32.6655 L18.1078154,32.8825 Z M26.6554615,31.0090455 C24.7980923,31.8124545 22.7588308,32.1401818 20.7783692,31.9435455 L20.1173538,31.878 L20.0281846,33.2267727 L20.6924308,33.2487273 C21.8009077,33.2856364 22.9106769,33.1790455 23.9829692,32.9308636 C25.0565538,32.6858636 26.0823231,32.2731818 27.0341077,31.7532727 C28.9318615,30.7000909 30.5097692,29.1371818 31.4983846,27.2968182 C30.1831385,28.9214545 28.5173538,30.2085 26.6554615,31.0090455 Z M12.0152308,9.002 L12.4226308,9.534 L12.6768923,9.33068182 C14.2754769,8.05286364 16.1522308,7.09386364 18.1692,6.52940909 L18.2302615,6.51254545 L18.2037692,6.39768182 L18.1410923,6.40818182 C16.0575692,6.7655 14.0399538,7.59786364 12.2827385,8.8165 L12.0152308,9.002 Z M6.40370769,16.961 L7.54352308,17.3027273 L7.70409231,16.7475 C8.25687692,14.8355455 9.20478462,13.0206364 10.5025846,11.4650455 L10.7752615,11.1382727 L10.1455846,10.5989545 L9.85513846,10.9101364 C8.39192308,12.4775 7.25210769,14.3611364 6.58301538,16.4115 L6.40370769,16.961 Z M6.85956923,26.6626818 L8.25849231,26.1850909 C6.95843077,22.785 7.19815385,19.0374545 7.19815385,19.0374545 L5.93718462,18.9321364 C5.93718462,18.9321364 5.30589231,22.5174091 6.85956923,26.6626818 Z M13.1314615,34.1208636 L14.0325231,32.8481364 L13.3866923,32.4093636 C11.7470769,31.2950909 10.3462154,29.8375 9.30687692,28.1600455 L8.91110769,27.5220909 L7.61718462,28.2933636 L8.00778462,28.9348182 C9.14307692,30.7993636 10.6796308,32.4259091 12.4891846,33.677 L13.1314615,34.1208636 Z M22.6150615,36.4111364 L22.5830769,34.9366818 L21.8303077,34.9487727 C19.8307846,34.9809091 17.8302923,34.6029091 15.9961846,33.8325909 L15.2799231,33.5315909 L14.6728615,34.951 L15.3920308,35.2462727 C17.4345231,36.0846818 19.6572923,36.4881364 21.8626154,36.4308636 L22.6150615,36.4111364 Z M31.4890154,32.7724091 L30.7517538,31.8210455 L30.2484,32.1809091 C28.6184769,33.3457727 26.7611077,34.1918182 24.8061692,34.6162727 L24.108,34.7677273 L24.4388308,36.1556364 L25.1331231,35.9866818 C27.2699538,35.4670909 29.2930615,34.5020455 31.0027846,33.1551818 L31.4890154,32.7724091 Z M36.4001077,24.8725909 L35.6660769,24.6568636 L35.5436308,25.025 C34.9058769,26.9426818 33.8426308,28.7009545 32.4905538,30.1833636 L32.1167538,30.5935 L32.9816308,31.3265909 L33.3386308,30.9021364 C34.7304462,29.2479091 35.7342462,27.2971364 36.2976923,25.2467727 L36.4001077,24.8725909 Z M36.2695846,19.0085 C36.3122308,19.5191818 36.3293538,20.0311364 36.3199846,20.5415 C36.3132,21.0521818 36.2466462,21.5596818 36.2169231,22.0655909 L36.2010923,22.3433636 L36.7826308,22.3891818 L36.7803692,22.1101364 C36.7752,21.5816364 36.8058923,21.0556818 36.7645385,20.5313182 C36.7283538,20.0069545 36.666,19.4851364 36.5774769,18.9693636 C36.4007538,17.9368636 36.0928615,16.9326818 35.6958,15.9736818 C35.9969077,16.9673636 36.1765385,17.9877727 36.2695846,19.0085 Z M20.5228154,3.12136364 L20.5354154,3.38927273 L20.6659385,3.38068182 L21.4019077,3.33263636 C21.6477692,3.31672727 21.8936308,3.33390909 22.1394923,3.33263636 L23.6230615,3.35236364 L22.1443385,3.20281818 C21.8968615,3.18213636 21.6493846,3.14331818 21.4006154,3.13759091 L20.6536615,3.12390909 L20.5228154,3.12136364 Z M15.9574154,3.77968182 L16.1286462,4.33745455 L16.4032615,4.25663636 L17.5934769,3.90695455 L17.8315846,3.83727273 L17.7252923,3.37590909 L17.4839538,3.43095455 L16.2372,3.71572727 L15.9574154,3.77968182 Z M13.4729538,4.67536364 L13.7898923,5.34577273 L14.1207231,5.19590909 L15.2440615,4.68713636 L15.54,4.55254545 L15.3151385,3.97186364 L15.0117692,4.08768182 L13.8134769,4.54522727 L13.4729538,4.67536364 Z M5.99049231,10.9247727 L6.96327692,11.5942273 L7.287,11.1179091 C7.85303077,10.2855455 8.49983077,9.50663636 9.20123077,8.77736364 L9.56113846,8.40318182 L8.84003077,7.69427273 L8.46138462,8.04968182 C7.67824615,8.78404545 6.97038462,9.59731818 6.33295385,10.4611818 L5.99049231,10.9247727 Z M3.17229231,17.5009545 L4.52824615,17.8016364 C5.16373846,15.2377273 6.05478462,13.1574545 6.05478462,13.1574545 L4.91949231,12.6394545 C4.91949231,12.6394545 3.90793846,14.4499091 3.17229231,17.5009545 Z M3.90664615,27.1444091 L5.37147692,26.6906818 L5.13918462,25.9728636 C4.83387692,25.0294545 4.61418462,24.0586818 4.48172308,23.0758182 L4.38253846,22.3398636 L2.89283077,22.5285455 L2.98652308,23.2654545 C3.12221538,24.3355 3.35450769,25.3940909 3.67984615,26.425 L3.90664615,27.1444091 Z M7.57873846,33.2659091 L8.79221538,32.2754091 C7.04953846,30.4741818 5.91650769,28.0445455 5.91650769,28.0445455 L4.54601538,28.7499545 C4.54601538,28.7499545 5.70747692,31.5353182 7.57873846,33.2659091 Z M15.7806923,38.4277727 L16.2989077,37.0395455 L15.5923385,36.7805455 C14.6492769,36.435 13.7369077,36.0073636 12.8704154,35.5043182 L12.2116615,35.1218636 L11.4366,36.4270455 L12.0985846,36.8050455 C13.0464923,37.3462727 14.0425385,37.8057273 15.0718615,38.1741818 L15.7806923,38.4277727 Z M22.8438,39.1914091 L22.7979231,37.8642727 C20.2627385,38.0513636 17.7850615,37.4799091 17.7850615,37.4799091 L17.5311231,38.8929545 C17.5311231,38.8929545 20.2249385,39.5776818 22.8438,39.1914091 Z M31.7927077,35.9959091 L31.2460615,35.1422273 L30.7947231,35.4072727 C29.9188615,35.9214545 29.0045538,36.3697727 28.056,36.729 L27.5112923,36.9351818 L27.9594,38.0198636 L28.4957077,37.7936364 C29.4930462,37.373 30.4545231,36.8718636 31.3552615,36.2825909 L31.7927077,35.9959091 Z M35.0784,33.0925 L34.4868462,32.5350455 L34.1789538,32.8166364 L33.2772462,33.6407273 L32.9473846,33.9420455 L33.5670462,34.6130909 L34.7850462,33.3877727 L35.0784,33.0925 Z M36.5810308,31.1165909 L36.0308308,30.7271364 L35.8079077,30.9931364 L34.7756769,32.2264091 L35.3904923,32.7297727 L35.6192308,32.4201818 L36.5810308,31.1165909 Z M37.9424769,27.3750909 L38.2733077,27.4991818 C39.3323538,24.7981364 39.375,22.5737273 39.375,22.5737273 C39.375,22.5737273 38.8674462,25.4430909 37.9424769,27.3750909 Z M30.5705077,2.31604545 L30.4470923,2.5725 C32.0369538,3.28777273 34.4946,4.94995455 34.4946,4.94995455 C34.4946,4.94995455 32.6262462,3.31481818 30.5705077,2.31604545 Z M23.5778308,0.214136364 L23.4996462,0.896954545 L23.8382308,0.925590909 C24.9350769,1.01818182 26.0264308,1.19859091 27.0980769,1.46618182 L27.3413538,1.52695455 L27.4741385,1.064 L27.2344154,0.9905 C26.1524308,0.659590909 25.0410462,0.415227273 23.9144769,0.260590909 L23.5778308,0.214136364 Z M13.3068923,1.5505 L13.6936154,2.52731818 L14.1785538,2.33163636 C16.1968154,1.51804545 18.3556154,1.03122727 20.5444615,0.894409091 L20.9589692,0.868318182 L20.9205231,0.0645909091 L20.5053692,0.0773181818 C18.2247692,0.147318182 15.9483692,0.582272727 13.7979692,1.37040909 L13.3068923,1.5505 Z M7.34256923,5.11063636 L8.16576923,6.08268182 L8.64456923,5.67604545 C9.46550769,4.97827273 10.3442769,4.34509091 11.2705385,3.78509091 L11.7629077,3.48727273 L11.1839538,2.52286364 L10.6815692,2.80477273 C9.68358462,3.36540909 8.73018462,4.00622727 7.83429231,4.71927273 L7.34256923,5.11063636 Z M1.37469231,13.4931364 L2.73872308,14.0480455 L3.01236923,13.3792273 C3.41524615,12.3938182 3.90018462,11.4399091 4.46072308,10.5299091 L4.82547692,9.93713636 L3.63784615,9.21422727 L3.26307692,9.80095455 C2.64664615,10.7647273 2.10969231,11.7784545 1.65932308,12.8290909 L1.37469231,13.4931364 Z M0.127938462,23.6523636 L1.67450769,23.5101364 L1.55723077,21.1568636 C1.52750769,20.6267727 1.55496923,20.0947727 1.58501538,19.5653182 C1.65383077,18.5054545 1.80890769,17.4516364 2.0496,16.4165909 L2.21856923,15.6911364 L0.749861538,15.3545 L0.577015385,16.0793182 C0.311446154,17.1916818 0.138276923,18.3253636 0.0581538462,19.4647727 C0.0219692308,20.0346364 -0.00936923077,20.6060909 0.0177692308,21.1769091 L0.127938462,23.6523636 Z M2.15750769,30.1992727 L3.58292308,29.5756364 L3.2676,28.8699091 C2.835,27.9000909 2.48058462,26.8968636 2.20370769,25.8735909 L2.00210769,25.1274545 L0.492369231,25.5156364 L0.686861538,26.2633636 C0.975046154,27.3709545 1.36176923,28.4534091 1.83669231,29.4960909 L2.15750769,30.1992727 Z M8.79318462,37.9772273 L9.72687692,36.8133182 L9.13564615,36.3503636 C8.29241538,35.6901364 7.50313846,34.9630909 6.77815385,34.1787727 L6.26381538,33.6219545 L5.13272308,34.6414091 L5.65029231,35.1953636 C6.43504615,36.0353636 7.28861538,36.8126818 8.19936923,37.5177727 L8.79318462,37.9772273 Z M18.2861538,41.7569091 L18.5281385,40.4612727 L17.8658308,40.3355909 C15.7409538,39.9327727 13.6871538,39.186 11.8100769,38.1369545 L11.1752308,37.7818636 L10.4602615,39.0488636 L11.1006,39.3934545 C13.1337231,40.4860909 15.3461538,41.2490909 17.6219077,41.6420455 L18.2861538,41.7569091 Z M25.0743231,41.6019545 L24.9173077,40.4975455 L24.3461077,40.5665909 C23.2667077,40.6973636 22.1776154,40.7422273 21.0933692,40.7024545 L20.4643385,40.6792273 L20.4375231,41.9389091 L21.0672,41.9420909 C22.2186462,41.9478182 23.3700923,41.8638182 24.5057077,41.6891364 L25.0743231,41.6019545 Z M34.2435692,37.5445 L33.7667077,36.8950909 L33.4274769,37.1286364 C32.5286769,37.7471818 31.5810923,38.2931818 30.5957077,38.7596364 L30.1740923,38.9594545 L30.6002308,39.7959545 L31.0150615,39.5830909 C32.0292,39.0625455 32.9990769,38.4615 33.9124154,37.7885455 L34.2435692,37.5445 Z M40.3254923,29.8963636 L40.0447385,29.7589091 L39.9691385,29.8989091 C38.9298,31.8312273 37.5738462,33.5863182 35.9784923,35.0805 L35.7336,35.3099091 L36.225,35.7919545 L36.4572923,35.5501364 C38.0203385,33.9235909 39.3084462,32.0545909 40.2576462,30.0401818 L40.3254923,29.8963636 Z M41.7602769,25.4036364 C41.7602769,25.4036364 41.6904923,26.1427727 41.0285077,28.1349091 L40.7923385,28.0550455 C41.3567538,26.8475455 41.7602769,25.4036364 41.7602769,25.4036364 Z" id="Fill-15" fill="url(#linearGradient-3)" mask="url(#mask-2)"></path>
                        </g>
                        <path d="M25.375,20.125 C25.375,22.0578834 23.8081084,23.625 21.8751449,23.625 C19.9418916,23.625 18.375,22.0578834 18.375,20.125 C18.375,18.1921166 19.9418916,16.625 21.8751449,16.625 C23.8081084,16.625 25.375,18.1921166 25.375,20.125" id="Fill-18" fill="#CD2B2B"></path>
                    </g>
                    <g id="logo-ko" transform="translate(52.000000, 10.000000)">
                        <path d="M37,14 C36.4493671,14 36,14.4483122 36,15 C36,15.5506329 36.4493671,16 37,16 C37.5506329,16 38,15.5506329 38,15 C38,14.4483122 37.5506329,14 37,14" id="Fill-35" fill="#D82D27"></path>
                        <path d="M37,14 C36.4493671,14 36,14.4483122 36,15 C36,15.5506329 36.4493671,16 37,16 C37.5506329,16 38,15.5506329 38,15 C38,14.4483122 37.5506329,14 37,14 Z" id="Stroke-37" stroke="#D82D27"></path>
                        <path d="M139,11 L139,10 L146.265089,10 C146.656205,10 147,10.2288591 147,10.4885906 C147,10.7657718 146.66393,11 146.265089,11 L139,11 Z" id="Fill-39" fill="#111820"></path>
                        <path d="M139,11 L139,10 L146.265089,10 C146.656205,10 147,10.2288591 147,10.4885906 C147,10.7657718 146.66393,11 146.265089,11 L139,11 Z" id="Stroke-41" stroke="#111820"></path>
                        <path d="M146.337693,11 C146.696977,11 147,10.7650648 147,10.4874142 C147,10.2273074 146.691055,10 146.337693,10 L139,10 L139,11 L146.337693,11 Z" id="Fill-43" fill="#111820"></path>
                        <path d="M146.337693,11 C146.696977,11 147,10.7650648 147,10.4874142 C147,10.2273074 146.691055,10 146.337693,10 L139,10 L139,11 L146.337693,11 Z" id="Stroke-45" stroke="#111820"></path>
                        <path d="M37.6853722,0.443534408 C37.5765466,0.177413763 37.3069339,0 37.0137913,0 C36.7049621,0 36.4490751,0.161466459 36.3069156,0.448517941 L27.0587073,21.9305339 C26.9812549,22.1109378 26.9802745,22.3142659 27.0567465,22.5036401 C27.1332185,22.6920177 27.2792996,22.8455105 27.459695,22.925247 C27.5557752,22.9681054 27.6577379,22.9900329 27.7626418,22.9900329 C28.0587256,22.9900329 28.3234363,22.8176027 28.4381443,22.5514821 L37.0137913,2.62432831 L45.5904186,22.5564656 C45.706107,22.8385335 45.9512095,23 46.2629799,23 C46.3463148,23 46.4394538,22.9770757 46.5678875,22.925247 C46.7453417,22.8465072 46.8806383,22.6999913 46.9512278,22.5116138 C47.0208369,22.3222396 47.0159349,22.1159213 46.9365217,21.9305339 L37.6853722,0.443534408 Z" id="Fill-47" fill="#111820"></path>
                        <path d="M37.6853722,0.443534408 C37.5765466,0.177413763 37.3069339,0 37.0137913,0 C36.7049621,0 36.4490751,0.161466459 36.3069156,0.448517941 L27.0587073,21.9305339 C26.9812549,22.1109378 26.9802745,22.3142659 27.0567465,22.5036401 C27.1332185,22.6920177 27.2792996,22.8455105 27.459695,22.925247 C27.5557752,22.9681054 27.6577379,22.9900329 27.7626418,22.9900329 C28.0587256,22.9900329 28.3234363,22.8176027 28.4381443,22.5514821 L37.0137913,2.62432831 L45.5904186,22.5564656 C45.706107,22.8385335 45.9512095,23 46.2629799,23 C46.3463148,23 46.4394538,22.9770757 46.5678875,22.925247 C46.7453417,22.8465072 46.8806383,22.6999913 46.9512278,22.5116138 C47.0208369,22.3222396 47.0159349,22.1159213 46.9365217,21.9305339 L37.6853722,0.443534408 Z" id="Stroke-49" stroke="#111820"></path>
                        <path d="M71.2565008,21.4820159 L60.4879753,21.4820159 L60.4879753,0.758493673 C60.4879753,0.325923037 60.1675184,0 59.7434992,0 C59.339997,0 59,0.346853874 59,0.758493673 L59,22.2415063 C59,22.6521494 59.339997,23 59.7434992,23 L71.2565008,23 C71.6805201,23 72,22.674077 72,22.2415063 C72,21.8298665 71.660003,21.4820159 71.2565008,21.4820159" id="Fill-51" fill="#111820"></path>
                        <path d="M71.2565008,21.4820159 L60.4879753,21.4820159 L60.4879753,0.758493673 C60.4879753,0.325923037 60.1675184,0 59.7434992,0 C59.339997,0 59,0.346853874 59,0.758493673 L59,22.2415063 C59,22.6521494 59.339997,23 59.7434992,23 L71.2565008,23 C71.6805201,23 72,22.674077 72,22.2415063 C72,21.8298665 71.660003,21.4820159 71.2565008,21.4820159 Z" id="Stroke-53" stroke="#111820"></path>
                        <path d="M119.454915,10.8745938 L119.036858,10.6642978 L119.39364,10.3583221 C120.715017,9.22511592 121.474042,7.57962473 121.474042,5.84543052 C121.474042,2.62222126 118.858962,0 115.644963,0 L109.607348,0 L109.607348,1.48502838 L115.644963,1.48502838 C118.028777,1.48502838 119.968839,3.44048187 119.968839,5.84543052 C119.968839,8.26732244 118.028777,10.2387225 115.644963,10.2387225 L111.199523,10.2387225 L111.199523,11.7237509 L116.673798,11.7237509 C119.331376,11.7237509 121.494797,13.9194003 121.494797,16.6193613 C121.494797,19.299389 119.331376,21.4810851 116.673798,21.4810851 L107.505203,21.4810851 L107.505203,12.4762317 L107.499273,12.3875287 L107.499273,9.58291806 L107.505203,9.58291806 L107.505203,2.24149586 L107.499273,2.15279282 L107.499273,0 L106.752107,0 C106.323179,0 106,0.325908914 106,0.759457468 L106,22.2405425 C106,22.6730944 106.323179,23 106.752107,23 L116.673798,23 C120.16156,23 123,20.1365862 123,16.6193613 C123,14.1775361 121.641067,11.9769034 119.454915,10.8745938" id="Fill-55" fill="#111820"></path>
                        <path d="M119.454915,10.8745938 L119.036858,10.6642978 L119.39364,10.3583221 C120.715017,9.22511592 121.474042,7.57962473 121.474042,5.84543052 C121.474042,2.62222126 118.858962,0 115.644963,0 L109.607348,0 L109.607348,1.48502838 L115.644963,1.48502838 C118.028777,1.48502838 119.968839,3.44048187 119.968839,5.84543052 C119.968839,8.26732244 118.028777,10.2387225 115.644963,10.2387225 L111.199523,10.2387225 L111.199523,11.7237509 L116.673798,11.7237509 C119.331376,11.7237509 121.494797,13.9194003 121.494797,16.6193613 C121.494797,19.299389 119.331376,21.4810851 116.673798,21.4810851 L107.505203,21.4810851 L107.505203,12.4762317 L107.499273,12.3875287 L107.499273,9.58291806 L107.505203,9.58291806 L107.505203,2.24149586 L107.499273,2.15279282 L107.499273,0 L106.752107,0 C106.323179,0 106,0.325908914 106,0.759457468 L106,22.2405425 C106,22.6730944 106.323179,23 106.752107,23 L116.673798,23 C120.16156,23 123,20.1365862 123,16.6193613 C123,14.1775361 121.641067,11.9769034 119.454915,10.8745938 Z" id="Stroke-57" stroke="#111820"></path>
                        <path d="M171.638057,15.7230456 L172.145482,15.5835067 C175.592751,14.6316519 178,11.4940198 178,7.95272144 C178,3.56721269 174.410773,0 170,0 L165.689907,0 L165.689907,1.48409603 L170,1.48409603 C173.584193,1.48409603 176.500881,4.38650546 176.500881,7.95272144 C176.500881,11.5009967 173.584193,14.3874588 170,14.3874588 L163.53335,14.3874588 L163.53335,1.78908823 L163.525296,1.70038135 L163.525296,0 L162.766172,0 C162.329222,0 162,0.325923037 162,0.758493673 L162,22.2415063 C162,22.674077 162.329222,23 162.766172,23 C163.204128,23 163.53335,22.674077 163.53335,22.2415063 L163.53335,15.8725516 L169.66071,15.8725516 L176.390133,22.7747443 C176.52303,22.9262437 176.698213,23 176.928769,23 C177.132142,23 177.315379,22.9232536 177.459351,22.7817213 C177.606343,22.6471659 177.6889,22.4637719 177.69192,22.2654273 C177.694941,22.0670827 177.618424,21.8687381 177.479487,21.7212255 L171.638057,15.7230456 Z" id="Fill-59" fill="#111820"></path>
                        <path d="M171.638057,15.7230456 L172.145482,15.5835067 C175.592751,14.6316519 178,11.4940198 178,7.95272144 C178,3.56721269 174.410773,0 170,0 L165.689907,0 L165.689907,1.48409603 L170,1.48409603 C173.584193,1.48409603 176.500881,4.38650546 176.500881,7.95272144 C176.500881,11.5009967 173.584193,14.3874588 170,14.3874588 L163.53335,14.3874588 L163.53335,1.78908823 L163.525296,1.70038135 L163.525296,0 L162.766172,0 C162.329222,0 162,0.325923037 162,0.758493673 L162,22.2415063 C162,22.674077 162.329222,23 162.766172,23 C163.204128,23 163.53335,22.674077 163.53335,22.2415063 L163.53335,15.8725516 L169.66071,15.8725516 L176.390133,22.7747443 C176.52303,22.9262437 176.698213,23 176.928769,23 C177.132142,23 177.315379,22.9232536 177.459351,22.7817213 C177.606343,22.6471659 177.6889,22.4637719 177.69192,22.2654273 C177.694941,22.0670827 177.618424,21.8687381 177.479487,21.7212255 L171.638057,15.7230456 Z" id="Stroke-61" stroke="#111820"></path>
                        <path d="M94.6414644,0.125492574 C94.5244971,0.0428268306 94.3863546,0 94.2391372,0 C93.9840274,0 93.7420261,0.130472438 93.5948086,0.349586455 L86.7643209,10.1569307 L86.7502041,10.1390032 L86.6856705,10.2694756 L86,11.718616 L86,22.2410687 C86,22.6524055 86.3519103,23 86.7683542,23 C87.2059733,23 87.5357001,22.6733209 87.5357001,22.2410687 L87.5195667,11.7684147 L94.8673323,1.20413112 C95.110342,0.843588966 95.0105164,0.368509938 94.6414644,0.125492574" id="Fill-63" fill="#111820"></path>
                        <path d="M94.6414644,0.125492574 C94.5244971,0.0428268306 94.3863546,0 94.2391372,0 C93.9840274,0 93.7420261,0.130472438 93.5948086,0.349586455 L86.7643209,10.1569307 L86.7502041,10.1390032 L86.6856705,10.2694756 L86,11.718616 L86,22.2410687 C86,22.6524055 86.3519103,23 86.7683542,23 C87.2059733,23 87.5357001,22.6733209 87.5357001,22.2410687 L87.5195667,11.7684147 L94.8673323,1.20413112 C95.110342,0.843588966 95.0105164,0.368509938 94.6414644,0.125492574 Z" id="Stroke-65" stroke="#111820"></path>
                        <path d="M79.7823474,0 C79.6246609,0 79.4680186,0.0453561489 79.339572,0.129883517 C78.9824277,0.380373157 78.8926195,0.880321616 79.1390699,1.24317081 L85.2032131,10 L86,8.35480878 L80.455909,0.357695083 C80.3034439,0.134006803 80.051772,0 79.7823474,0" id="Fill-67" fill="#111820"></path>
                        <path d="M79.7823474,0 C79.6246609,0 79.4680186,0.0453561489 79.339572,0.129883517 C78.9824277,0.380373157 78.8926195,0.880321616 79.1390699,1.24317081 L85.2032131,10 L86,8.35480878 L80.455909,0.357695083 C80.3034439,0.134006803 80.051772,0 79.7823474,0 Z" id="Stroke-69" stroke="#111820"></path>
                        <path d="M1,0 C0.430446194,0 0,0.325908914 0,0.759457468 L0,22.2405425 C0,22.6730944 0.430446194,23 1,23 C1.57086614,23 2,22.6730944 2,22.2405425 L2,15.1353295 L1.98950131,15.0466265 L1.98950131,8.58326472 L2,8.58326472 L2,0.759457468 C2,0.325908914 1.57086614,0 1,0" id="Fill-71" fill="#111820"></path>
                        <path d="M1,0 C0.430446194,0 0,0.325908914 0,0.759457468 L0,22.2405425 C0,22.6730944 0.430446194,23 1,23 C1.57086614,23 2,22.6730944 2,22.2405425 L2,15.1353295 L1.98950131,15.0466265 L1.98950131,8.58326472 L2,8.58326472 L2,0.759457468 C2,0.325908914 1.57086614,0 1,0 Z" id="Stroke-73" stroke="#111820"></path>
                        <path d="M4.08148152,10.99818 L13.7958942,1.27572908 C14.0737334,0.996663344 14.0797085,0.494345019 13.8048568,0.219265936 C13.6514975,0.0777397409 13.4543214,0 13.2461909,0 C13.0430397,0 12.8438718,0.0757464142 12.6974835,0.210295966 L3,9.91680028 L3,12.0426832 L6.07316019,15.1183863 L6.06618932,15.1253629 L13.7012895,22.789704 C13.840707,22.9292369 14.0249373,23 14.249997,23 C14.4461773,23 14.6294118,22.9252502 14.7658418,22.789704 C14.9201969,22.6342246 15.0038474,22.4358885 14.999864,22.2305759 C14.9958806,22.0382199 14.913226,21.8618105 14.7648459,21.7242709 L4.08148152,10.99818 Z" id="Fill-75" fill="#111820"></path>
                        <path d="M4.08148152,10.99818 L13.7958942,1.27572908 C14.0737334,0.996663344 14.0797085,0.494345019 13.8048568,0.219265936 C13.6514975,0.0777397409 13.4543214,0 13.2461909,0 C13.0430397,0 12.8438718,0.0757464142 12.6974835,0.210295966 L3,9.91680028 L3,12.0426832 L6.07316019,15.1183863 L6.06618932,15.1253629 L13.7012895,22.789704 C13.840707,22.9292369 14.0249373,23 14.249997,23 C14.4461773,23 14.6294118,22.9252502 14.7658418,22.789704 C14.9201969,22.6342246 15.0038474,22.4358885 14.999864,22.2305759 C14.9958806,22.0382199 14.913226,21.8618105 14.7648459,21.7242709 L4.08148152,10.99818 Z" id="Stroke-77" stroke="#111820"></path>
                        <path d="M150.21796,1.48502838 C150.634638,1.48502838 151,1.14616285 151,0.759457468 C151,0.347835507 150.641822,0 150.21796,0 L135.78204,0 C135.336626,0 135,0.325908914 135,0.759457468 L135,22.2405425 C135,22.6730944 135.336626,23 135.78204,23 L150.21796,23 C150.641822,23 151,22.6521645 151,22.2405425 C151,21.8428739 150.626427,21.4810851 150.21796,21.4810851 L136.563053,21.4810851 L136.563053,11.7237509 L136.569211,11.7237509 L136.569211,10.3274256 L136.563053,10.2387225 L136.563053,1.48502838 L150.21796,1.48502838 Z" id="Fill-79" fill="#111820"></path>
                        <path d="M150.21796,1.48502838 C150.634638,1.48502838 151,1.14616285 151,0.759457468 C151,0.347835507 150.641822,0 150.21796,0 L135.78204,0 C135.336626,0 135,0.325908914 135,0.759457468 L135,22.2405425 C135,22.6730944 135.336626,23 135.78204,23 L150.21796,23 C150.641822,23 151,22.6521645 151,22.2405425 C151,21.8428739 150.626427,21.4810851 150.21796,21.4810851 L136.563053,21.4810851 L136.563053,11.7237509 L136.569211,11.7237509 L136.569211,10.3274256 L136.563053,10.2387225 L136.563053,1.48502838 L150.21796,1.48502838 Z" id="Stroke-81" stroke="#111820"></path>
                    </g>
                </g>
            </g>
        </g>
    </g>
</svg>