<?xml version="1.0" encoding="UTF-8"?>
<svg width="19px" height="18px" viewBox="0 0 19 18" version="1.1" xmlns="http://www.w3.org/2000/svg" xmlns:xlink="http://www.w3.org/1999/xlink">
    <!-- Generator: Sketch 51.3 (57544) - http://www.bohemiancoding.com/sketch -->
    <title>Group</title>
    <desc>Created with Sketch.</desc>
    <defs></defs>
    <g id="Page-1" stroke="none" stroke-width="1" fill="none" fill-rule="evenodd">
        <g id="Desktop-HD-Copy-4" transform="translate(-1255.000000, -1803.000000)" fill="#FFFFFF">
            <g id="Group-6" transform="translate(0.000000, 1750.000000)">
                <g id="Group-5" transform="translate(1255.000000, 53.000000)">
                    <g id="Group">
                        <rect id="Rectangle-path" x="0.301587302" y="5.85" width="4.0542381" height="12.11085"></rect>
                        <path d="M17.6576349,6.96555 C16.8061032,6.0408 15.6796746,5.57835 14.279254,5.57835 C13.7632381,5.57835 13.2942698,5.6415 12.8723492,5.7678 C12.4505794,5.8941 12.0944048,6.07125 11.8035238,6.2994 C11.5127937,6.52755 11.2813254,6.73935 11.1094206,6.9348 C10.9459603,7.1205 10.7862698,7.33665 10.6301984,7.5813 L10.6301984,5.85915 L6.5881746,5.85915 L6.60053968,6.4458 C6.60883333,6.837 6.61290476,8.0427 6.61290476,10.0632 C6.61290476,12.08385 6.6047619,14.71935 6.5883254,17.97015 L10.6301984,17.97015 L10.6301984,11.2119 C10.6301984,10.7964 10.6751349,10.46655 10.7653095,10.2219 C10.9375159,9.80625 11.1971825,9.4581 11.5455159,9.17715 C11.8936984,8.8959 12.3257222,8.75535 12.8417381,8.75535 C13.5460952,8.75535 14.0642222,8.99775 14.3959683,9.48255 C14.7275635,9.9672 14.8934365,10.6374 14.8934365,11.49285 L14.8934365,17.96985 L18.9354603,17.96985 L18.9354603,11.02875 C18.9351587,9.24435 18.5094683,7.89 17.6576349,6.96555 L17.6576349,6.96555 Z" id="Shape"></path>
                        <path d="M2.34981746,0.02985 C1.67003968,0.02985 1.11934127,0.22755 0.697420635,0.62265 C0.2755,1.01775 0.0646904762,1.51665 0.0646904762,2.11965 C0.0646904762,2.71425 0.269468254,3.21135 0.67902381,3.6105 C1.08842857,4.00965 1.62902381,4.2093 2.30065873,4.2093 L2.3252381,4.2093 C3.01330952,4.2093 3.56823016,4.0098 3.99,3.6105 C4.41176984,3.21135 4.61850794,2.7144 4.61036508,2.11965 C4.60222222,1.51665 4.39322222,1.01775 3.98381746,0.62265 C3.5744127,0.2274 3.02959524,0.02985 2.34981746,0.02985 L2.34981746,0.02985 Z" id="Shape"></path>
                    </g>
                </g>
            </g>
        </g>
    </g>
</svg>