<?xml version="1.0" encoding="UTF-8"?>
<svg width="1440px" height="870px" viewBox="0 0 1440 870" version="1.1" xmlns="http://www.w3.org/2000/svg" xmlns:xlink="http://www.w3.org/1999/xlink">
    <!-- Generator: Sketch 51.3 (57544) - http://www.bohemiancoding.com/sketch -->
    <title>story-1</title>
    <desc>Created with Sketch.</desc>
    <defs>
        <rect id="path-1" x="0" y="0" width="1442" height="870"></rect>
        <polygon id="path-3" points="0 0.34720424 2512.9998 0.34720424 2512.9998 619.9998 0 619.9998"></polygon>
        <path d="M104.417,18.749 C43.131,48.464 0.875,111.276 0.875,183.958 C0.875,285.303 83.031,367.458 184.375,367.458 C285.719,367.458 367.875,285.303 367.875,183.958 C367.875,82.614 285.719,0.458 184.375,0.458 C155.712,0.458 128.585,7.03 104.417,18.749" id="path-5"></path>
        <path d="M104.417,18.749 C43.131,48.464 0.875,111.276 0.875,183.958 C0.875,285.303 83.031,367.458 184.375,367.458 C285.719,367.458 367.875,285.303 367.875,183.958 C367.875,82.614 285.719,0.458 184.375,0.458 C155.712,0.458 128.585,7.03 104.417,18.749" id="path-7"></path>
        <path d="M20.797,3.3 L2.378,23.531 C-0.84,27.067 -0.581,32.593 2.954,35.811 L11.459,43.554 C14.994,46.772 20.52,46.513 23.738,42.978 L42.156,22.746 C45.375,19.211 45.116,13.685 41.581,10.467 L33.076,2.724 C31.418,1.215 29.321,0.47 27.23,0.47 C24.864,0.47 22.505,1.424 20.797,3.3 Z" id="path-9"></path>
        <path d="M2.011,2.275 C0.402,4.043 0.531,6.806 2.299,8.415 L12.747,17.927 C14.515,19.535 17.277,19.406 18.887,17.639 C20.496,15.871 20.366,13.107 18.599,11.498 L8.151,1.987 C7.321,1.232 6.273,0.86 5.228,0.86 C4.045,0.86 2.865,1.337 2.011,2.275" id="path-11"></path>
    </defs>
    <g id="Page-1" stroke="none" stroke-width="1" fill="none" fill-rule="evenodd">
        <g id="Desktop-HD-Copy-16">
            <g id="story-1" transform="translate(-2.000000, 0.000000)">
                <mask id="mask-2" fill="white">
                    <use xlink:href="#path-1"></use>
                </mask>
                <use id="Mask" fill="#FFFFFF" xlink:href="#path-1"></use>
                <g id="Group-13" mask="url(#mask-2)">
                    <g transform="translate(-455.000000, 0.000000)" id="story-1-svg">
                        <g>
                            <polygon id="Fill-1" fill="#111820" points="455.02 772 1897.02 772 1897.02 0.001 455.02 0.001"></polygon>
                            <g id="Group-17" transform="translate(0.000000, 87.980000)">
                                <g id="Group-2" transform="translate(0.000000, 66.000000)">
                                    <g id="Group-4">
                                        <mask id="mask-4" fill="white">
                                            <use xlink:href="#path-3"></use>
                                        </mask>
                                        <g id="Clip-3"></g>
                                        <path d="M-0.0002,445.9998 C96.2898,203.4578 679.1438,-16.6612 805.7428,27.0278 C933.3058,71.0488 946.8568,122.1968 1079.9748,171.8038 C1256.5388,237.6008 1325.6488,-10.3172 1530.0258,0.7048 C1716.6108,10.7678 2302.9998,142.4878 2499.9998,445.9998 L2512.9998,614.9998 L-0.0002,619.9998 L-0.0002,445.9998 Z" id="Fill-2" fill="#1E76BC" mask="url(#mask-4)"></path>
                                    </g>
                                    <path d="M289.8275,524.2372 C371.0885,457.2962 862.9715,396.5442 969.8105,408.6012 C1077.4645,420.7512 1097.2895,418.5462 1209.6315,432.2372 C1358.6375,450.3972 1408.5715,398.2942 1581.0485,401.3362 C1738.5125,404.1132 2233.3785,440.4682 2399.6315,524.2372 L2412.6315,613.2372 C1910.70911,681.483025 1498.83194,715.605937 1177,715.605937 C855.168058,715.605937 558.378558,681.483025 286.6315,613.2372 L289.8275,524.2372 Z" id="Fill-5" fill="#4EC2DF"></path>
                                </g>
                                <polygon id="Fill-7" fill="#3C96AC" points="1294.0204 515.0204 811.0204 532.0204 1116.0204 626.0204 1790.0204 587.0204"></polygon>
                                <g id="Group-6" transform="translate(1282.000000, 0.000000)">
                                    <path d="M508.8807,590.0204 L13.1597,515.8944 C6.4837,515.8944 1.0207,510.4854 1.0207,503.8744 L1.0207,66.1324 C1.0207,59.5214 6.4837,54.1124 13.1597,54.1124 L508.8807,0.0204 C515.5577,0.0204 521.0207,5.4294 521.0207,12.0414 L521.0207,577.9994 C521.0207,584.6114 515.5577,590.0204 508.8807,590.0204" id="Fill-9" fill="#4F565A"></path>
                                    <path d="M502.0204,589.0204 L12.0204,515.0204 C5.4204,515.0204 0.0204,509.6204 0.0204,503.0204 L0.0204,66.0204 C0.0204,59.4204 5.4204,54.0204 12.0204,54.0204 L502.0204,0.0204 C508.6204,0.0204 514.0204,5.4204 514.0204,12.0204 L514.0204,577.0204 C514.0204,583.6204 508.6204,589.0204 502.0204,589.0204" id="Fill-11" fill="#111820"></path>
                                    <path d="M480.8378,566.0204 L24.2028,497.0594 C18.0528,497.0594 13.0208,492.0274 13.0208,485.8764 L13.0208,78.6334 C13.0208,72.4824 18.0528,67.4504 24.2028,67.4504 L480.8378,17.1274 C486.9878,17.1274 492.0208,22.1594 492.0208,28.3104 L492.0208,554.8374 C492.0208,560.9884 486.9878,566.0204 480.8378,566.0204" id="Fill-13" fill="#222A33"></path>
                                </g>
                                <path d="M1686.0204,306.5204 C1686.0204,416.1494 1605.4314,505.0204 1506.0204,505.0204 C1406.6094,505.0204 1326.0204,416.1494 1326.0204,306.5204 C1326.0204,196.8924 1406.6094,108.0204 1506.0204,108.0204 C1605.4314,108.0204 1686.0204,196.8924 1686.0204,306.5204" id="Fill-15" fill="#010202"></path>
                            </g>
                            <g id="Group-24" transform="translate(1334.000000, 197.980000)">
                                <g id="Group-20">
                                    <mask id="mask-6" fill="white">
                                        <use xlink:href="#path-5"></use>
                                    </mask>
                                    <g id="Clip-19"></g>
                                    <path d="M368.0204,182.5204 C368.0204,283.8654 285.8654,366.0204 184.5204,366.0204 C83.1754,366.0204 1.0204,283.8654 1.0204,182.5204 C1.0204,109.8384 43.2764,47.0264 104.5624,17.3104 C128.7304,5.5914 155.8584,-0.9796 184.5204,-0.9796 C285.8654,-0.9796 368.0204,81.1764 368.0204,182.5204" id="Fill-18" fill="#1E76BC" mask="url(#mask-6)"></path>
                                </g>
                                <g id="Group-23">
                                    <mask id="mask-8" fill="white">
                                        <use xlink:href="#path-7"></use>
                                    </mask>
                                    <g id="Clip-22"></g>
                                    <path d="M299.0204,185.5204 C299.0204,285.7594 217.7594,367.0204 117.5204,367.0204 C17.2814,367.0204 -63.9796,285.7594 -63.9796,185.5204 C-63.9796,85.2804 17.2814,4.0204 117.5204,4.0204 C217.7594,4.0204 299.0204,85.2804 299.0204,185.5204" id="Fill-21" fill="#1B8FCE" mask="url(#mask-8)"></path>
                                </g>
                            </g>
                            <path d="M1472.0204,122.0004 L1795.0204,530.0004 L1796.0204,100.0004 C1796.0204,100.0004 1796.0204,88.0004 1784.0204,88.0004 C1767.9894,88.0004 1472.0204,122.0004 1472.0204,122.0004" id="Fill-25" fill="#FEFEFE" opacity="0.100390625"></path>
                            <g id="Group-5" transform="translate(1326.000000, 194.000000)" fill="#191919">
                                <path d="M356.0614,200.055 C356.1684,199.981 356.2774,199.908 356.3854,199.833 C355.3454,196.497 352.7574,194.096 350.8004,191.207 C350.6414,191.92 350.5284,192.729 350.8724,193.211 C352.5344,195.54 354.3194,197.783 356.0614,200.055 Z M356.4434,269.72 C356.3054,269.618 356.1684,269.518 356.0314,269.416 C352.8844,272.527 350.9484,276.338 349.5554,280.466 C349.7124,280.559 349.8714,280.651 350.0294,280.743 C352.1664,277.069 354.3044,273.394 356.4434,269.72 Z M30.1724,203.374 C30.1514,199.6 28.5684,193.892 26.8804,190.932 C25.9844,189.359 23.8734,188.428 22.5414,189.178 C21.0104,190.041 21.6134,191.524 21.8814,192.757 C22.2904,194.636 22.8674,196.481 23.4264,198.324 C23.7004,199.223 23.9804,200.156 24.4604,200.95 C25.7284,203.043 27.8094,203.488 30.1724,203.374 Z M332.3944,143.471 C333.3534,144.945 334.6064,145.189 335.9894,145.312 C337.0274,145.405 338.0684,145.68 339.0594,146.017 C340.2584,146.426 341.0184,146.028 341.2414,144.762 C341.3224,144.304 341.4204,143.772 341.7064,143.442 C343.3704,141.512 344.4784,141.387 346.6724,142.766 C348.3404,143.814 349.9354,145.017 351.7004,145.865 C354.2484,147.09 356.5134,145.298 359.3434,145.027 C357.6894,143.877 356.3734,143.052 355.1634,142.092 C354.3124,141.416 353.3234,140.687 352.8974,139.753 C352.1024,138.013 351.7334,136.083 351.0614,134.28 C350.7764,133.513 350.3004,132.666 349.6564,132.252 C349.3604,132.062 348.3074,132.69 347.8444,133.18 C345.6404,135.507 345.0994,135.524 342.2114,134.224 C340.3324,133.379 338.5104,131.957 336.0784,132.71 C336.1194,133.122 336.0354,133.631 336.2304,133.986 C336.9394,135.276 336.6824,136.488 336.0044,137.634 C334.8374,139.609 333.5944,141.539 332.3944,143.471 Z M53.5014,57.729 L62.9944,49.909 C66.8204,46.401 70.8634,43.124 74.8784,39.828 C76.7844,38.266 78.8584,36.91 80.8334,35.433 C81.2324,35.136 81.5354,34.711 82.0874,34.127 C82.3084,34.046 82.8714,33.94 83.3234,33.658 C87.1944,31.239 91.0084,28.727 94.9154,26.37 C97.3164,24.922 99.8354,23.669 102.3274,22.376 C105.7494,20.599 109.1224,18.702 112.6494,17.16 C117.0314,15.244 121.5624,13.669 126.0024,11.882 C127.6094,11.235 129.1054,10.309 130.7194,9.683 C131.7994,9.264 133.0094,9.19 134.1414,8.887 C137.5804,7.968 140.9984,6.972 144.4454,6.088 C146.4054,5.585 148.4054,5.233 150.3914,4.831 C155.2904,3.842 160.1634,2.68 165.0984,1.933 C169.7014,1.236 174.3674,0.931 179.0134,0.554 C182.4464,0.275 185.8984,-0.079 189.3304,0.016 C197.7584,0.25 206.2014,0.481 214.5974,1.188 C220.1374,1.654 225.7114,2.461 231.1104,3.867 C233.1654,4.402 223.4324,9.892 223.4324,9.892 C223.1464,11.961 223.2794,12.147 224.9754,12.285 C225.4344,12.322 225.9044,12.35 226.3574,12.292 C227.3074,12.171 227.8394,12.643 228.0634,13.478 C228.2474,14.159 228.4394,14.877 228.4084,15.568 C228.2514,19.049 228.2674,22.564 227.7334,25.992 C227.3724,28.31 226.3134,30.552 225.3534,32.734 C224.7794,34.04 223.6724,34.743 222.0194,34.595 C219.9284,34.408 217.8094,34.497 215.7044,34.531 C214.7584,34.545 213.4884,33.973 213.2354,35.626 C213.1434,36.226 212.7424,36.955 212.9584,37.387 C213.3004,38.068 213.9724,38.923 214.6304,39.048 C217.2434,39.545 219.9044,39.785 222.5464,40.127 C224.5254,40.383 225.4594,41.562 225.2514,43.53 C225.0004,45.889 223.2134,48.693 220.1474,47.909 C219.6064,47.77 219.0224,47.696 218.4664,47.731 C217.1494,47.814 215.7164,47.688 214.5454,48.17 C211.2614,49.521 208.0824,51.131 204.8684,52.65 C203.8144,53.149 202.5414,53.456 201.7834,54.247 C200.4334,55.656 199.2454,57.278 198.2744,58.974 C197.2704,60.731 196.3014,62.13 193.9554,61.83 C192.9654,61.703 191.7904,61.729 190.9394,62.159 C189.7924,62.738 188.0834,62.631 187.7574,64.52 C187.4734,66.171 186.8544,67.761 186.4444,69.392 C185.3374,73.801 183.8904,78.032 180.8514,81.567 C179.3234,83.346 176.6494,84.255 174.3484,83.754 C172.3504,83.319 170.9104,82.095 169.4344,80.831 C165.4224,77.396 161.9234,73.605 159.5864,68.756 C156.8504,63.08 157.7344,57.327 162.1814,52.766 C162.9924,51.934 163.8064,51.107 164.7794,50.116 C164.3894,49.79 164.0404,49.257 163.6244,49.197 C161.9754,48.958 161.3274,47.647 160.5164,46.51 C159.9644,45.736 159.7724,44.957 160.6404,44.188 C160.8754,43.98 160.8544,43.482 160.9534,43.105 C163.0324,43.04 166.2614,41.6 166.8404,40.2 C166.0964,40.2 165.4824,40.165 164.8734,40.208 C164.1044,40.263 163.3414,40.419 162.5734,40.461 C160.7414,40.56 159.9324,39.932 160.1654,38.175 C160.4444,36.064 160.9494,33.961 161.5844,31.927 C162.1054,30.261 161.5664,29.234 160.3324,28.194 C159.4214,27.428 158.5864,26.477 157.9994,25.448 C157.3274,24.272 157.0084,22.9 156.4384,21.657 C156.2944,21.342 155.7844,21.009 155.4364,21.003 C152.4594,20.952 149.4824,20.973 146.5694,20.973 C145.9104,22.105 145.3044,23.211 144.6224,24.268 C144.4514,24.532 144.0484,24.672 143.7264,24.806 C143.1244,25.056 142.4734,25.198 141.8994,25.494 C140.3644,26.287 138.9104,26.026 138.0104,24.577 C137.4024,23.598 136.9234,22.521 136.5074,21.441 C135.8924,19.844 135.3834,18.205 134.8314,16.587 C130.0604,17.795 130.7944,17.384 128.8234,21.006 C128.6794,21.27 128.5034,21.548 128.2724,21.727 C126.4344,23.149 124.5054,24.465 122.7584,25.989 C121.7664,26.854 120.8324,27.941 120.2764,29.119 C119.0544,31.707 117.8114,34.254 114.5184,34.308 C112.7624,34.337 111.0024,33.719 109.2314,33.506 C108.2174,33.385 106.6994,32.597 106.8274,34.775 C106.8324,34.873 106.6564,34.974 106.5864,35.087 C106.2154,35.69 105.7874,36.269 105.4994,36.911 C105.1844,37.617 105.2164,38.601 104.7234,39.084 C101.5354,42.209 94.5924,39.291 93.6394,35.76 C93.0214,36.206 92.4714,36.618 91.9074,37.008 C87.5214,40.036 83.1184,43.04 78.7574,46.105 C77.9844,46.649 76.8494,47.408 76.8104,48.119 C76.7234,49.69 77.0584,51.347 77.5354,52.871 C78.1254,54.755 79.1584,56.5 79.7704,58.379 C80.3984,60.307 78.5754,62.248 76.5974,61.951 C75.0514,61.718 75.0434,61.71 73.9154,62.88 C73.2884,63.531 72.6374,64.172 72.0964,64.892 C71.1144,66.202 70.1424,67.625 68.4234,67.852 C64.6734,68.348 61.0534,68.17 58.4324,64.537 C57.8634,65.156 55.4184,65.425 53.2564,65.743 L49.1744,62.983 L53.5014,57.729 Z M126.5154,364 C124.9414,363.302 123.2694,362.828 121.6574,362.212 C119.6454,361.445 117.6314,360.678 115.6554,359.827 C115.6554,359.827 109.6084,356.929 110.7624,349.657 C111.2274,347.867 111.7984,346.548 111.8814,345.201 C112.2954,338.427 112.7184,331.649 112.8754,324.867 C113.0404,317.819 113.2144,310.734 110.7124,303.943 C110.0744,302.21 109.0304,300.904 107.2994,300.126 C106.2874,299.672 105.3214,299.076 104.4164,298.429 C103.8494,298.023 103.4574,297.381 102.9464,296.886 C101.3344,295.324 99.5524,293.908 98.1274,292.193 C96.7734,290.564 94.8994,289.46 93.9104,287.426 C93.1254,285.817 91.6824,284.54 90.6444,283.037 C88.9544,280.591 87.3284,278.098 85.7244,275.591 C84.4434,273.587 83.1284,271.591 82.0244,269.49 C80.5564,266.697 80.6654,263.867 82.5014,261.236 C83.8834,259.255 85.3264,257.315 86.8074,255.409 C89.0134,252.571 89.7274,249.284 89.8564,245.8 C89.8984,244.647 89.6184,243.67 88.4374,243.161 C87.7404,242.861 87.0804,242.464 86.3704,242.202 C85.0714,241.726 83.7684,241.224 82.4234,240.928 C81.9374,240.822 81.1884,241.128 80.7984,241.498 C78.9884,243.219 77.9624,243.135 76.6974,240.941 C75.1694,238.291 73.5584,235.676 72.2334,232.925 C70.1504,228.601 66.4874,226.53 62.1364,225.29 C60.6774,224.874 59.0394,224.75 57.8004,223.981 C56.2514,223.017 54.7514,222.445 52.9444,222.462 C48.7734,222.501 44.5964,222.588 40.4324,222.414 C38.9744,222.354 37.4384,221.792 36.1254,221.102 C33.3434,219.638 32.8034,216.677 31.9394,214.011 C31.5684,212.866 31.8954,211.046 31.1914,210.555 C29.9544,209.691 29.9754,208.874 29.9334,207.653 C29.9064,206.827 29.3884,205.722 28.7284,205.276 C27.2304,204.261 25.5314,202.969 23.8744,202.909 C21.7544,202.832 19.5674,203.448 17.3584,203.541 C16.5254,203.576 15.9104,203.661 15.3434,203.101 C12.9584,200.738 12.0484,197.641 11.6624,194.499 C11.5284,193.409 11.4904,192.306 11.4954,191.199 C11.5014,189.474 11.6114,187.737 11.6174,186.013 C11.6194,185.163 11.6174,184.312 11.6174,183.448 C4.0504,188.775 0.9594,178.885 0.9594,178.885 C1.5144,173.941 2.4264,167.807 3.0914,162.881 C3.7624,157.915 4.7784,152.988 5.8134,148.08 C6.6824,143.954 7.7244,139.859 8.8264,135.788 C9.7174,132.494 10.6584,129.198 11.8574,126.008 C13.3004,122.167 14.9784,118.409 16.6684,114.666 C18.5074,110.595 20.5894,106.63 22.3564,102.529 C24.0214,98.663 26.3184,95.169 28.4284,91.569 C30.0684,88.77 31.9904,86.137 33.7764,83.423 C35.1744,81.298 36.4574,79.088 37.9704,77.049 C39.6984,74.722 41.5944,72.516 43.4704,70.304 L46.0834,67.619 L52.1374,71.379 C52.6534,71.604 53.1544,71.982 53.3194,71.869 C54.3104,71.194 54.9294,71.818 55.6234,72.355 C55.8114,72.5 56.0944,72.566 56.3404,72.587 C60.3834,72.935 64.4364,73.482 68.4624,72.565 C69.1784,72.402 69.8924,71.855 70.4184,71.305 C72.2174,69.426 73.8794,67.856 76.9794,68.429 C80.5504,69.089 83.6284,67.714 86.3404,65.063 C89.2914,62.178 92.8954,60.607 97.2524,61.824 C98.4354,62.153 99.7904,62.216 100.9984,62.007 C102.4234,61.759 103.8124,61.166 105.1504,60.574 C107.2424,59.647 109.9074,60.54 110.0344,62.436 C110.1384,64.007 110.1294,65.675 109.7104,67.171 C108.9714,69.815 107.5574,72.066 104.4954,72.537 C103.1884,72.738 101.8374,72.69 100.5484,72.957 C99.4274,73.189 98.0454,73.407 97.3424,74.159 C95.7874,75.821 94.6094,77.832 93.2314,79.666 C92.0734,81.209 90.9094,82.747 88.9874,83.477 C88.4384,83.685 87.9034,84.097 87.5254,84.552 C86.4544,85.842 85.2904,87.103 84.4864,88.555 C82.9084,91.401 81.6634,94.44 81.9524,97.773 C82.0274,98.636 82.8524,99.746 83.6414,100.17 C85.3224,101.076 87.2024,101.614 89.0044,102.287 C91.1724,103.097 93.3644,103.846 95.5084,104.71 C96.7014,105.19 97.3704,106.131 97.2164,107.497 C96.8804,110.492 96.9364,113.47 98.2714,116.227 C98.9414,117.61 99.9334,118.847 100.8744,120.078 C101.0614,120.323 101.9234,120.435 102.0594,120.269 C102.6344,119.564 103.3184,118.783 103.4794,117.938 C104.0034,115.2 104.3024,112.419 104.7134,109.659 C104.8894,108.477 105.3954,107.597 106.6634,107.164 C107.8174,106.771 108.9544,106.222 109.9664,105.544 C111.7314,104.363 111.9914,102.568 112.0094,100.53 C112.0544,95.394 112.1904,90.25 113.4824,85.221 C113.9944,83.228 115.8104,81.566 117.8864,81.451 C120.6214,81.301 123.3584,81.2 125.9164,81.085 C125.6754,80.615 125.3874,80.11 125.1544,79.581 C124.6614,78.467 124.2854,77.291 123.6994,76.229 C122.6464,74.321 120.5664,73.473 118.9564,74.068 C118.0124,74.416 117.0214,74.715 116.0294,74.828 C114.3454,75.019 113.6244,73.904 114.4524,72.399 C115.5954,70.32 116.6594,68.161 118.0784,66.279 C119.6174,64.237 121.3794,62.266 124.4894,62.879 C124.9154,62.963 125.8714,62.263 125.9574,61.807 C126.1744,60.667 126.1604,59.437 125.9704,58.288 C125.9004,57.86 125.1054,57.278 124.6084,57.244 C123.0624,57.137 122.4824,56.736 122.4054,55.184 C122.3524,54.106 122.5294,53.001 122.3594,51.947 C122.2324,51.158 121.8264,50.349 121.3444,49.696 C120.7434,48.882 119.8934,48.475 118.9204,49.263 C117.1984,47.839 116.4864,49.517 115.8744,50.471 C114.5194,52.585 113.4934,53.248 111.0294,53.002 C108.6304,52.763 106.2754,52.587 103.9484,53.649 C102.3764,54.367 101.1114,53.349 101.1574,51.623 C101.1834,50.653 101.1004,49.828 100.1264,49.253 C98.6574,48.386 98.5184,47.435 99.6674,46.153 C100.7824,44.911 102.0074,43.769 103.1514,42.552 C103.8224,41.837 104.2974,40.633 105.0864,40.396 C106.9694,39.831 107.9314,38.336 109.2064,37.135 C110.3744,36.034 113.0114,35.508 114.2604,36.169 C115.8904,37.032 117.4024,36.775 119.0354,36.055 C121.5234,34.957 124.0724,33.98 126.6494,33.11 C128.1084,32.618 129.7504,33.375 130.1204,34.843 C130.7374,37.297 131.1184,39.824 131.4174,42.341 C131.6424,44.228 131.9684,44.463 133.8004,44.14 C135.3914,43.861 137.0554,43.79 138.6674,43.899 C140.2334,44.005 141.6524,45.943 141.6054,47.594 C141.5044,51.119 142.4994,54.327 144.8894,56.885 C146.6724,58.793 146.9694,60.752 146.1864,63.075 C145.4044,65.396 142.5094,66.911 140.3954,66.018 C139.7664,65.753 139.2494,65.223 138.3584,64.583 C138.1934,65.469 138.0854,66.121 137.9474,66.767 C137.5144,68.771 137.5884,70.91 135.8704,72.512 C134.5024,73.785 133.3654,75.303 132.0904,76.68 C130.7344,78.146 129.3064,79.55 127.9894,81.05 C127.8044,81.261 127.9524,81.937 128.1524,82.277 C128.7624,83.318 129.5424,84.262 130.1294,85.314 C130.9914,86.856 131.6574,88.512 132.5814,90.012 C132.9884,90.672 133.6144,91.072 134.7514,90.927 C136.7674,90.669 137.3504,89.168 138.2084,87.872 C138.7894,86.996 139.3974,86.396 140.3684,87.088 C141.3164,87.764 142.3244,88.5 142.9604,89.443 C144.6854,91.993 146.2954,94.629 147.8234,97.305 C149.5964,100.409 151.2544,103.581 152.9244,106.744 C154.2194,109.199 152.8784,111.169 151.6544,113.146 C151.2234,113.842 150.8124,114.549 150.4034,115.232 C151.6084,116.388 153.0384,117.545 154.1994,118.928 C155.7344,120.757 157.1554,122.724 157.4254,125.221 C157.6194,126.999 156.8234,128.246 155.0504,128.294 C153.0524,128.347 151.0274,128.005 149.0404,127.68 C147.5084,127.429 147.2234,126.222 147.0964,124.826 C146.9334,123.038 145.9424,121.259 144.0684,121.212 C140.5824,121.126 137.1004,120.863 133.6154,120.827 C131.9604,120.81 130.3024,121.145 128.2764,121.36 C128.8384,122.318 129.1564,122.977 129.5794,123.56 C131.1064,125.669 132.6974,127.707 132.7024,130.542 C132.7034,131.03 133.6124,131.845 134.1954,131.939 C135.8054,132.2 137.4644,132.191 139.1064,132.22 C139.7074,132.23 140.3124,132.046 140.8544,131.961 C140.9854,132.273 141.2504,132.66 141.2944,133.07 C141.3594,133.685 141.4994,134.47 141.2044,134.916 C139.7184,137.159 137.3784,138.392 135.0704,139.551 C133.1544,140.513 131.1224,141.279 129.0784,141.933 C127.8414,142.329 126.4374,142.648 125.1974,142.449 C124.0174,142.26 122.9534,141.353 121.8864,140.787 C118.3704,150.848 111.5974,157.38 100.1884,158.482 C100.1884,159.614 100.0554,160.815 100.2414,161.965 C100.3404,162.586 100.9684,163.131 101.3844,163.69 C101.6224,164.008 102.1704,164.315 102.1404,164.574 C101.9654,166.025 101.7104,167.473 101.3654,168.893 C101.2474,169.381 100.8854,169.948 100.4664,170.201 C97.4544,172.031 94.7064,174.14 92.8814,177.227 C91.1984,180.075 90.4954,183.045 91.1794,186.438 C91.6174,188.602 91.9844,191.242 91.1214,193.076 C90.2884,194.845 87.9924,196.233 86.0314,197.033 C85.0514,197.432 83.3634,196.59 81.9544,196.963 C81.8734,196.986 81.7334,196.79 81.6334,196.705 C82.2754,194.529 82.0074,193.126 80.7944,192.227 C77.5354,189.812 74.1154,187.662 69.9484,187.385 C66.6674,187.167 63.4114,185.702 60.0734,187.089 C59.5374,187.311 58.7044,187.213 58.4194,187.581 C57.5614,188.69 56.4304,189.545 55.5684,190.555 C53.3344,193.168 52.5494,196.389 53.2644,199.858 C53.7114,202.027 54.1654,204.194 54.6144,206.351 C54.1164,206.022 53.5854,205.672 53.1264,205.368 C52.8384,207.405 52.5324,209.351 52.3144,211.308 C52.2684,211.717 52.4194,212.295 52.7014,212.571 C54.0774,213.915 55.6854,214.706 57.6954,214.322 C58.0424,214.254 58.4144,214.312 58.7954,214.312 C60.3954,212.094 61.7884,209.701 64.3044,208.162 C65.4684,207.451 67.2614,206.902 67.1304,204.871 C67.1184,204.682 67.6564,204.284 67.9454,204.277 C70.2354,204.228 72.5264,204.249 74.8184,204.249 C74.6104,207.379 77.1424,208.179 79.8094,209.357 C78.7834,209.749 78.1444,209.991 77.5074,210.238 C76.5204,210.622 75.1064,210.733 74.6344,211.456 C73.6054,213.035 73.0554,214.928 72.2054,216.94 C74.0604,217.369 75.7214,217.753 77.3814,218.14 C77.7644,218.229 78.2984,218.199 78.5014,218.442 C79.8244,220.025 81.1614,221.509 80.7844,223.949 C80.4254,226.265 80.5074,228.667 80.5834,231.026 C80.6374,232.688 81.3594,233.144 82.9514,233.037 C84.0294,232.965 85.1194,233.048 86.1904,232.935 C87.9084,232.755 89.1804,233.452 90.1164,234.801 C91.4074,236.662 92.6364,238.567 93.8874,240.456 C94.4744,241.342 95.0884,241.572 95.7654,240.555 C96.4304,239.558 97.0784,238.548 97.7484,237.553 C100.0524,234.131 102.8564,231.249 106.5664,229.326 C108.6244,228.259 109.7314,228.397 111.3984,230.004 C112.4224,230.992 113.3174,232.249 114.5334,232.871 C117.0404,234.157 119.7534,234.496 122.6114,233.909 C124.3554,233.549 126.2034,233.471 127.9854,233.576 C129.9534,233.691 130.3484,234.909 129.3534,236.541 C129.0234,237.084 129.0414,238.088 129.3114,238.701 C130.0904,240.477 131.5074,241.772 133.2004,242.666 C135.1824,243.714 137.1574,244.933 139.2894,245.513 C144.6594,246.974 149.4984,249.036 152.3104,254.243 C153.3854,256.236 153.6534,258.173 152.2904,260.173 C151.7264,261.002 151.3554,261.963 150.8384,262.979 C152.5604,263.282 154.1304,263.474 155.6584,263.844 C157.8184,264.368 159.9394,265.046 162.0894,265.613 C164.4894,266.244 166.9854,266.605 169.2904,267.479 C172.3824,268.651 175.3434,270.177 178.3394,271.594 C182.9674,273.784 186.0824,277.175 186.6784,282.452 C186.9994,285.291 187.0294,288.214 185.3924,290.644 C183.8784,292.889 181.9584,294.877 180.0924,296.86 C179.2044,297.804 178.5764,298.627 179.1494,299.956 C179.3034,300.314 179.2784,300.757 179.3004,301.162 C179.4814,304.388 178.4134,307.359 177.1884,310.229 C176.1584,312.643 174.5634,314.818 173.5654,317.242 C172.7104,319.32 171.1354,320.657 169.3434,321.388 C166.0994,322.712 162.6744,323.634 159.2684,324.5 C157.8354,324.865 157.4524,325.598 157.4594,326.856 C157.4674,327.989 157.5644,329.132 157.4384,330.249 C157.2664,331.774 157.3354,333.385 155.3104,334.06 C153.7904,334.567 152.6364,335.686 152.5544,337.546 C152.4684,339.49 152.2844,341.428 152.1254,343.367 C152.0174,344.697 151.1784,345.221 149.9934,344.909 C148.1004,344.409 146.2464,343.759 144.3864,343.139 C143.5294,342.853 142.7204,342.385 141.8474,342.201 C141.4924,342.127 140.7644,342.51 140.6724,342.822 C140.5614,343.201 140.8144,343.852 141.1294,344.167 C143.3494,346.388 143.7394,347.582 142.7414,349.518 C141.4854,351.953 138.7214,353.354 135.9794,352.859 C134.9264,352.668 134.1964,352.992 133.9764,353.988 C133.6484,355.479 133.4824,357.006 133.2234,358.672 L126.5154,364 Z M374.2514,246.104 C373.3334,248.891 372.3324,251.655 371.2584,254.386 C369.9414,257.736 368.5874,261.076 367.1104,264.358 C365.4694,268.001 363.7464,271.613 361.9144,275.164 C360.6424,277.628 359.1734,279.996 357.7064,282.353 C355.7204,285.542 353.7194,288.726 351.6004,291.826 C349.6324,294.702 347.4274,297.416 345.4584,300.292 C342.1284,305.156 338.1664,309.496 334.2074,313.813 C330.4584,317.899 326.4154,321.724 322.3654,325.52 C316.5254,330.994 310.2964,336.006 303.7004,340.554 C300.8274,342.534 298.0904,344.723 295.1384,346.574 C288.5914,352.926 285.0154,343.698 285.0154,343.698 C285.3544,343.5 285.6454,342.831 285.5954,342.424 C285.2014,339.174 284.6694,335.94 284.2794,332.689 C284.0104,330.449 284.0304,328.169 283.6924,325.943 C283.0284,321.573 283.1404,317.199 283.8254,312.888 C284.1234,311.007 285.2374,309.204 286.2104,307.497 C287.0294,306.061 288.4374,304.936 289.1314,303.46 C290.5914,300.358 291.3754,297.005 291.3324,293.563 C291.2864,289.812 291.1254,286.052 290.7664,282.32 C290.5524,280.103 290.2164,277.903 288.2194,276.214 C285.7724,274.144 285.2734,271.154 285.6574,268.089 C285.9054,266.118 286.2874,264.138 286.8534,262.236 C288.5264,256.613 284.5724,252.791 280.4514,250.995 C277.6244,249.764 274.4804,249.221 272.0574,247.101 C271.8404,246.911 271.3584,246.844 271.0744,246.941 C269.2264,247.566 267.4174,248.309 265.5624,248.906 C262.7064,249.826 259.8364,250.714 256.9444,251.511 C254.7364,252.118 252.4964,252.626 250.2474,253.061 C247.8634,253.521 245.3004,254.025 243.3584,252.138 C241.2584,250.097 239.3534,247.856 237.7474,245.346 C235.3664,241.625 232.9094,237.975 231.6514,233.676 C230.9114,231.146 229.6704,228.661 229.4744,226.094 C229.1694,222.115 229.4744,218.076 229.6914,214.073 C229.8544,211.054 230.5394,208.049 230.5384,205.038 C230.5384,200.666 232.0824,196.869 234.3484,193.342 C235.3144,191.84 236.7844,190.592 238.2174,189.478 C239.8214,188.234 241.1284,186.951 241.1324,184.776 C241.1344,183.667 241.8274,183.289 242.8144,183.165 C244.4514,182.959 246.2694,181.583 246.2844,179.973 C246.3124,177.002 246.9904,174.249 248.0944,171.548 C248.1504,171.41 248.0954,171.227 248.1534,171.092 C248.6344,169.97 249.1294,168.855 249.7684,167.402 C250.0974,168.298 250.2624,168.747 250.3624,169.019 C251.6304,168.089 252.8404,167.179 254.0764,166.302 C256.1834,164.805 258.6894,164.858 261.0964,164.539 C263.3324,164.243 265.6054,164.112 267.7914,163.606 C268.8384,163.365 270.0144,162.623 270.6064,161.751 C271.2754,160.765 272.0164,160.489 272.9974,160.526 C279.2214,160.763 285.4444,161.035 291.6664,161.298 C292.5594,161.336 293.1424,161.593 293.3994,162.648 C293.8804,164.625 294.5424,166.563 295.2434,168.476 C295.4074,168.924 295.9674,169.389 296.4404,169.531 C297.9004,169.968 299.4134,170.226 300.8914,170.608 C301.5504,170.778 302.1934,171.04 302.8144,171.324 C303.5254,171.648 304.1734,172.265 304.9044,172.37 C308.4504,172.878 312.0154,173.258 315.5744,173.679 C315.8274,173.709 316.0844,173.732 316.3374,173.714 C318.1064,173.586 319.9004,173.195 321.6354,173.375 C323.7224,173.592 325.7634,174.221 326.3044,176.813 C326.5014,177.758 327.1424,178.51 328.8254,178.441 C327.3904,176.549 326.1704,174.94 324.8254,173.164 C325.3224,173.079 325.6044,172.988 325.8854,172.989 C328.4544,172.997 331.0284,172.933 333.5874,173.092 C334.4024,173.142 335.3744,173.612 335.9334,174.209 C337.0464,175.396 337.8894,176.833 338.9174,178.107 C339.2764,178.55 339.8364,179.087 340.3324,179.116 C342.3164,179.231 344.3114,179.163 346.4024,179.163 C346.3164,178.747 346.2884,178.497 346.2114,178.262 C345.2574,175.3 345.6134,174.191 348.0944,172.212 C348.3344,172.02 348.5414,171.641 348.5564,171.338 C348.6734,168.975 348.7834,166.611 348.7794,164.246 C348.7784,163.883 348.1904,163.209 347.8664,163.204 C343.2314,163.138 338.5944,163.112 333.9624,163.231 C333.3974,163.246 332.6354,164.062 332.3464,164.683 C331.7284,166.017 331.3654,167.468 330.8874,168.867 C330.3874,170.333 329.1624,170.69 327.9084,170.374 C326.2404,169.952 324.4744,169.48 323.0734,168.546 C320.9194,167.11 320.6964,166.208 322.8164,164.722 C324.3654,163.636 326.2974,163.098 328.1114,162.292 C328.4744,159.263 328.8644,156.003 329.2564,152.744 C329.4444,151.181 328.8874,150.376 327.3214,150.003 C326.2774,149.755 325.2334,149.434 324.1734,149.351 C323.5074,149.298 322.8124,149.624 322.1744,149.77 C323.4034,152.458 324.4734,154.87 325.6054,157.253 C326.2764,158.664 326.0634,159.333 324.6154,159.821 C323.4084,160.227 322.1954,160.613 320.9824,160.997 C319.1914,161.563 318.2444,161.178 317.2644,159.569 C316.9494,159.052 316.4794,158.629 316.1554,158.115 C315.2604,156.7 313.7054,155.719 314.0334,153.564 C314.3754,151.315 314.2494,148.985 314.1974,146.694 C314.1854,146.202 313.5854,145.736 313.2954,145.235 C312.3584,143.617 310.2814,143.23 309.3804,141.49 C308.9774,140.711 307.9594,140.262 307.2584,139.622 C306.5894,139.012 305.9164,138.392 305.3354,137.701 C303.6234,135.662 302.0334,133.512 300.2134,131.576 C299.7454,131.078 298.6084,131.145 297.7714,131.105 C297.5824,131.096 297.1834,131.732 297.1964,132.058 C297.2234,132.758 297.2934,133.543 297.6314,134.128 C299.6124,137.565 301.8074,140.849 304.6094,143.701 C306.2294,145.35 308.3564,146.401 309.6484,148.473 C310.8984,150.478 310.7944,153.19 308.8574,153.674 C306.9564,154.148 304.8854,153.94 304.1714,156.44 C304.2744,156.54 304.6224,156.846 304.9314,157.186 C306.4984,158.909 306.6934,160.066 305.6584,161.386 C304.2574,163.171 301.3954,164.065 299.8384,163.2 C298.2114,162.296 297.4814,160.608 296.8324,159.088 C296.4254,158.136 297.0474,156.745 297.2104,155.537 C298.2044,155.465 298.9684,155.408 299.7324,155.353 C300.6314,155.288 300.9944,154.94 301.0494,153.912 C301.1074,152.861 301.7304,151.851 301.9674,150.793 C302.0964,150.22 302.1624,149.407 301.8564,149.012 C301.2534,148.232 300.3624,147.68 299.6094,147.012 C297.9614,145.549 296.2454,144.153 294.7144,142.575 C293.6324,141.459 292.8224,140.081 291.8684,138.837 C291.2204,137.993 290.8454,136.822 289.2934,137.261 C287.6184,137.734 285.8444,137.867 284.1734,138.353 C282.6084,138.81 281.0294,139.374 279.6174,140.175 C276.3654,142.02 273.7224,144.576 271.8084,147.806 C270.8744,149.382 269.8754,150.989 270.1564,152.971 C270.3304,154.204 269.9884,155.148 268.8964,155.878 C268.1484,156.378 267.5184,157.069 266.8844,157.72 C265.2594,159.388 263.7484,160.724 260.9624,160 C258.6814,159.407 256.1524,159.72 253.7324,159.727 C252.4364,159.731 251.5644,159.255 251.0564,158.074 C250.7974,157.473 250.4664,156.9 250.2504,156.285 C249.7854,154.958 248.8614,153.541 249.0364,152.287 C249.5394,148.662 250.4384,145.087 251.2964,141.52 C251.6174,140.189 252.4494,139.488 254.0794,139.547 C258.2974,139.7 262.5254,139.571 266.7484,139.638 C268.0674,139.658 268.5284,138.957 268.2214,137.935 C267.6694,136.092 268.7434,133.536 265.9214,132.606 C265.1634,132.356 264.5184,131.703 263.8724,131.173 C262.4564,130.013 260.9574,128.917 259.7414,127.571 C259.3204,127.104 259.4744,125.931 259.6674,125.156 C259.8364,124.474 260.4254,123.896 260.7294,123.427 C261.3664,123.321 262.0794,123.368 262.6204,123.085 C265.6854,121.48 268.7134,119.802 271.7484,118.137 C274.4564,116.652 276.3294,114.549 277.4134,111.555 C278.2114,109.347 279.4524,107.242 280.8074,105.31 C281.9104,103.739 283.7884,102.967 285.9464,103.752 C287.9054,104.464 290.1764,104.753 292.2624,104.597 C297.6174,104.196 302.9444,103.443 308.2834,102.833 C310.8864,102.536 311.6694,101.722 311.3704,99.897 C311.1154,98.341 310.9054,96.735 311.0274,95.178 C311.0854,94.43 311.8094,93.508 312.4924,93.079 C314.2504,91.977 316.2164,91.795 318.2514,92.386 C319.4414,92.732 320.0574,92.145 319.9554,90.953 C319.9014,90.326 319.5404,89.729 319.4414,89.099 C319.3384,88.435 319.0954,87.388 319.4144,87.133 C320.8624,85.972 322.4024,84.848 324.0774,84.076 C325.2324,83.544 326.6884,83.702 327.9564,83.356 C328.3944,83.236 329.0494,82.417 328.9584,82.101 C328.4634,80.362 328.8214,78.166 326.8644,77.332 C324.9334,79.067 323.1234,80.808 321.1884,82.396 C319.4304,83.839 317.8694,83.352 316.7844,81.289 C316.2294,80.235 315.6954,79.08 314.8544,78.287 C313.5824,77.087 312.8164,75.798 313.2494,74.088 C313.8454,71.739 314.5404,69.41 315.2914,67.104 C316.1184,64.568 317.1044,62.084 317.9084,59.541 C318.1014,58.931 317.8484,58.179 317.8054,57.551 C316.7284,57.855 315.9344,57.938 315.2854,58.288 C312.9884,59.529 310.8074,60.992 309.2794,63.14 C308.2654,64.565 307.3604,66.028 307.7794,68.085 C308.2484,70.391 307.1454,72.346 305.3274,73.836 C305.1864,73.951 304.9594,73.966 304.7724,74.022 C304.2174,74.186 303.6634,74.348 303.1084,74.511 C303.4514,75.04 303.7224,75.639 304.1524,76.085 C305.2564,77.233 307.0284,78.137 307.4224,79.468 C307.8924,81.051 307.4504,83.053 306.9394,84.733 C306.5404,86.049 306.1074,87.705 304.4124,88.162 C302.1824,88.763 301.1344,91.32 302.3574,93.33 C303.2694,94.833 303.1174,95.39 301.4164,95.796 C299.3754,96.283 297.2924,96.593 295.4184,96.944 C294.8234,95.811 294.1734,95.004 293.9724,94.098 C293.5874,92.363 293.5844,90.541 293.1704,88.815 C292.9574,87.924 292.2914,87.073 291.6264,86.406 C291.4634,86.242 290.4784,86.828 289.9164,87.15 C289.2944,87.505 288.7084,87.931 288.1344,88.363 C286.1054,89.891 285.2644,89.884 283.2184,88.367 C282.8214,88.073 282.3334,87.869 281.8584,87.715 C280.1714,87.17 279.3434,85.611 279.4094,83.807 C279.4574,82.512 279.1884,81.151 278.7864,79.909 C278.2304,78.191 277.7464,76.58 279.1014,75.022 C279.9714,74.023 280.7824,72.97 281.6864,72.003 C285.4784,67.947 289.3704,63.982 293.0734,59.848 C295.0384,57.656 296.5064,55.226 296.4954,51.974 C296.4804,48.127 298.5724,45.044 301.1524,42.343 L305.6394,36.367 C307.6944,37.837 309.5524,39.584 311.6234,41.03 C316.1914,44.22 320.2874,47.974 324.2144,51.867 C329.4624,57.068 334.5104,62.484 339.4214,68.006 C342.8154,71.822 345.9514,75.886 348.9814,80.001 C351.5344,83.467 353.8674,87.107 356.1194,90.78 C358.9064,95.328 361.7034,99.89 364.1344,104.631 C366.3804,109.009 368.2964,113.573 370.0894,118.16 C372.0664,123.22 373.8074,128.377 375.5164,133.536 C376.5414,136.632 377.3894,139.794 378.1744,142.962 C379.0804,146.611 379.9284,150.279 380.6134,153.974 C381.2254,157.286 381.6064,160.642 382.0424,163.985 C382.3154,166.068 382.4944,168.163 382.7304,170.251 C383.6234,178.136 384.1224,186.039 383.6554,193.972 C383.3804,198.64 383.0994,203.313 382.5964,207.959 C382.2024,211.617 381.4484,215.235 380.8854,218.874 C380.6594,220.343 380.6234,221.848 380.3094,223.294 C379.7874,225.706 379.0954,228.081 378.5034,230.479 L373.7004,233.591 C373.4344,233.517 370.8234,230.411 370.7364,230.427 C370.4334,230.482 370.1354,230.565 369.8354,230.635 C367.6664,231.148 366.9014,230.914 365.7334,229.011 C365.0024,227.82 364.3214,226.538 363.9394,225.205 C363.0754,222.188 362.3204,219.13 361.7094,216.052 C361.4764,214.879 360.9874,214.144 360.0404,213.506 C359.1794,212.928 358.2154,212.31 357.6974,211.463 C356.9154,210.193 356.0264,210.265 354.9234,210.564 C356.7224,215.511 358.5394,220.328 360.2204,225.194 C361.3104,228.349 362.2414,231.562 363.1704,234.77 C363.6664,236.483 364.1494,238.073 366.4504,237.809 C366.7854,237.77 367.1504,238.06 367.4834,238.055 C378.5754,237.883 374.2514,246.104 374.2514,246.104 Z" id="Fill-27"></path>
                                <path d="M258.3153,102.2963 C258.0573,99.6413 258.7923,96.7393 256.6783,94.5133 C255.7903,93.5773 254.4153,93.0813 253.2223,92.4623 C251.9263,91.7893 251.3203,90.5993 252.0403,89.3903 C253.6843,86.6263 256.2573,84.8723 259.1643,83.7033 C259.7043,83.4863 260.9673,84.1713 261.3983,84.7883 C262.0943,85.7833 262.5503,87.0333 262.7953,88.2393 C263.2153,90.3013 264.5183,91.8813 265.3863,93.6953 C266.6093,96.2473 267.6523,98.8853 268.8163,101.4663 C269.0953,102.0863 269.2313,103.1653 270.0033,102.5783 C270.6233,103.3603 271.0623,104.1903 271.7403,104.7073 C272.7873,105.5033 273.2113,106.4363 272.7933,107.6293 C272.0733,109.6853 271.4283,111.8043 270.3763,113.6863 C269.9713,114.4093 268.5643,114.8093 267.5663,114.9193 C264.3973,115.2703 261.4343,116.1393 258.6983,117.7753 C257.7333,118.3523 256.6223,117.8413 256.6733,116.5983 C256.7703,114.3123 257.1563,112.0373 257.4543,109.7623 C257.5303,109.1773 257.7293,108.6083 257.9143,107.8653 C255.0413,108.8193 253.2383,110.8333 251.2933,112.6523 C249.9543,113.9053 249.7333,113.8423 248.9503,112.1423 C248.7913,111.7973 248.5153,111.4413 248.1983,111.2433 C246.3543,110.1003 245.7113,108.3763 246.5983,106.4203 C247.0763,105.3663 247.1703,104.4463 246.7353,103.3313 C245.9403,101.2953 246.6263,99.8793 248.8063,98.8193 C249.7963,98.3383 250.6213,97.5253 251.5923,96.9963 C252.8483,96.3123 254.1433,95.6513 255.4993,95.2343 C255.8073,95.1393 256.7083,96.0053 256.8593,96.5593 C257.1513,97.6253 257.0623,98.7893 257.2073,99.9023 C257.3153,100.7373 257.5433,101.5563 257.7163,102.3823 C257.9163,102.3543 258.1153,102.3253 258.3153,102.2963" id="Fill-29"></path>
                                <path d="M223.0995,56.4179 C226.0105,56.9259 228.9115,57.5039 231.8365,57.9109 C233.1985,58.1009 234.6365,58.1319 235.9785,57.8919 C236.6215,57.7769 237.3495,56.9649 237.6455,56.2949 C238.4805,54.4019 239.0165,54.0709 240.6305,55.3099 C242.9145,57.0629 244.4975,59.2979 243.8925,62.3829 C243.7455,63.1339 243.1565,63.9139 242.5575,64.4389 C239.9555,66.7229 237.2695,68.9099 234.6255,71.1459 C233.2745,72.2899 232.0495,73.6219 230.5785,74.5759 C229.4095,75.3339 228.1585,75.4269 226.8705,74.1399 C225.5965,72.8669 223.8115,72.1219 222.3205,71.0489 C220.4175,69.6799 218.5175,68.2899 216.7465,66.7579 C215.7415,65.8879 215.5185,64.7419 216.4485,63.4829 C216.8665,62.9169 216.9305,62.0739 217.0985,61.3429 C217.3355,60.3079 217.4125,59.2219 217.7545,58.2259 C218.1985,56.9399 219.4565,56.8799 220.5695,56.7639 C221.3835,56.6789 222.2135,56.7479 223.0375,56.7479 C223.0585,56.6379 223.0785,56.5279 223.0995,56.4179" id="Fill-31"></path>
                                <path d="M80.08,49.1063 C82.107,47.1723 83.931,45.4513 85.725,43.7003 C85.961,43.4703 86.142,43.0993 86.185,42.7723 C86.396,41.2063 87.514,40.7203 88.814,40.7573 C91.375,40.8293 93.963,42.7313 94.303,45.7743 C94.463,47.2013 94.991,48.1233 96.384,48.6553 C97.107,48.9323 97.825,49.4943 98.291,50.1183 C99.128,51.2383 98.296,52.9173 96.562,53.9303 C95.141,54.7603 93.672,55.5263 92.333,56.4763 C91.067,57.3753 90.035,57.1763 89.059,56.1553 C88.569,55.6413 88.085,55.0733 87.778,54.4413 C87.039,52.9163 85.809,52.0333 84.318,51.3523 C83.028,50.7623 81.805,50.0283 80.08,49.1063" id="Fill-33"></path>
                            </g>
                            <g id="Group-3" transform="translate(1303.000000, 115.000000)" fill="#D82D27">
                                <path d="M442.2284,209.9838 C444.5824,220.1518 446.4194,230.4408 447.7204,240.7988 L447.6434,240.8078 C446.3684,230.4498 444.5554,220.1578 442.2284,209.9838" id="Fill-87"></path>
                                <path d="M450.0077,272.0199 C450.2377,282.4579 449.9117,292.9119 449.0147,303.3189 L448.5847,303.2799 C449.5597,292.8959 449.9637,282.4569 449.8117,272.0239 L450.0077,272.0199 Z" id="Fill-89"></path>
                                <path d="M444.6532,334.3441 C442.6322,344.6001 440.0262,354.7451 436.8252,364.7071 L435.6402,364.3171 C438.9692,354.4491 441.7122,344.3811 443.8742,334.1851 L444.6532,334.3441 Z" id="Fill-91"></path>
                                <path d="M425.4276,393.9486 C421.0166,403.4456 416.0416,412.6906 410.4846,421.5856 L408.5676,420.3556 C414.2816,411.6816 419.3996,402.6056 423.8906,393.2236 L425.4276,393.9486 Z" id="Fill-93"></path>
                                <path d="M391.9891,447.0492 C385.2331,455.0982 377.8901,462.6692 370.0001,469.6452 L367.6071,466.8782 C375.5071,460.1992 382.8991,452.9072 389.7371,445.1162 L391.9891,447.0492 Z" id="Fill-95"></path>
                                <path d="M344.7938,488.6966 C335.8978,494.3796 326.5288,499.3476 316.7998,503.5106 L314.7918,498.6456 C324.3568,494.8466 333.6158,490.2486 342.4528,484.9246 L344.7938,488.6966 Z" id="Fill-97"></path>
                                <path d="M286.6786,513.5463 C276.3786,516.0583 265.8576,517.7243 255.2596,518.5083 L254.8386,511.6093 C265.0726,511.1233 275.2756,509.7833 285.3136,507.6133 L286.6786,513.5463 Z" id="Fill-99"></path>
                                <path d="M223.3837,518.2367 C212.7827,517.2717 202.2477,515.4757 191.9257,512.8327 L194.1227,504.5927 C203.9677,507.3297 214.0177,509.3617 224.1797,510.5437 L223.3837,518.2367 Z" id="Fill-101"></path>
                                <path d="M161.6571,502.6361 C151.8341,498.5021 142.3091,493.6621 133.1521,488.2091 L138.3121,479.7521 C146.9721,485.1711 155.9971,490.0101 165.3241,494.1801 L161.6571,502.6361 Z" id="Fill-103"></path>
                                <path d="M106.8583,470.058 C98.5093,463.433 90.5793,456.285 83.1033,448.692 L90.9633,441.061 C98.0283,448.446 105.5343,455.41 113.4453,461.876 L106.8583,470.058 Z" id="Fill-105"></path>
                                <path d="M62.0643,424.6556 C55.5263,416.2446 49.4453,407.4736 43.9273,398.3606 L54.0253,392.2766 C59.2803,401.0426 64.9553,409.5596 71.1183,417.7146 L62.0643,424.6556 Z" id="Fill-107"></path>
                                <path d="M28.8514,370.2025 C24.3274,360.5595 20.3664,350.6565 16.9124,340.5855 L28.4144,336.6615 C31.7014,346.3465 35.5074,355.8485 39.7604,365.1455 L28.8514,370.2025 Z" id="Fill-109"></path>
                                <path d="M8.1366,309.8929 C5.7496,299.5199 3.9086,289.0199 2.6056,278.4519 L14.6766,276.9519 C15.9486,287.0989 17.7606,297.1789 20.0556,307.1489 L8.1366,309.8929 Z" id="Fill-111"></path>
                                <path d="M0.3837,246.5946 C0.2277,235.9436 0.6387,225.2836 1.6327,214.6756 L13.4047,215.7356 C12.5287,225.9196 12.2107,236.1516 12.4387,246.3716 L0.3837,246.5946 Z" id="Fill-113"></path>
                                <path d="M6.4364,183.0917 C8.6454,172.6677 11.4484,162.3687 14.8534,152.2707 L25.3114,155.7147 C22.1874,165.4447 19.6434,175.3607 17.6694,185.3877 L6.4364,183.0917 Z" id="Fill-115"></path>
                                <path d="M26.8798,122.6664 C31.4828,113.0534 36.7198,103.7394 42.5848,94.8364 L50.9858,100.2274 C45.5808,108.8934 40.7278,117.9014 36.4278,127.1674 L26.8798,122.6664 Z" id="Fill-117"></path>
                                <path d="M61.9208,69.3935 C68.9498,61.3805 76.5568,53.8715 84.6918,46.9875 L90.3148,53.4875 C82.6618,60.2585 75.5328,67.6155 68.9698,75.4415 L61.9208,69.3935 Z" id="Fill-119"></path>
                                <path d="M110.6229,28.369 C119.7399,22.871 129.2999,18.118 139.1769,14.19 L141.8399,20.641 C132.4249,24.678 123.3549,29.493 114.7409,35.003 L110.6229,28.369 Z" id="Fill-121"></path>
                                <path d="M169.6141,4.9154 C179.9771,2.6704 190.5171,1.2814 201.0891,0.7744 L201.4131,6.0854 C191.1521,6.8514 180.9681,8.4704 170.9941,10.9094 L169.6141,4.9154 Z" id="Fill-123"></path>
                                <path d="M232.7489,1.8612 C243.2379,3.0752 253.6039,5.1692 263.7519,7.9832 L262.7999,11.5552 C252.7789,8.9912 242.5609,7.2582 232.2869,6.3302 L232.7489,1.8612 Z" id="Fill-125"></path>
                                <path d="M293.4081,18.6933 C303.0031,22.9793 312.2781,27.9493 321.1711,33.5103 L319.9691,35.4813 C311.0441,30.1713 301.7691,25.4643 292.2141,21.4483 L293.4081,18.6933 Z" id="Fill-127"></path>
                                <path d="M346.6903,51.8388 C354.8013,58.4648 362.4913,65.5978 369.7253,73.1568 L368.8203,74.0358 C361.5113,66.6178 353.7643,59.6388 345.6143,53.1758 L346.6903,51.8388 Z" id="Fill-129"></path>
                                <path d="M390.037,97.0399 C396.337,105.3819 402.149,114.0809 407.519,123.0379 L407.147,123.2629 C401.743,114.3429 395.799,105.7539 389.396,97.5309 L390.037,97.0399 Z" id="Fill-131"></path>
                                <path d="M422.0956,150.7523 C426.4396,160.2463 430.3356,169.9443 433.6876,179.8313 L433.6136,179.8573 C430.2226,169.9883 426.3516,160.2803 421.9146,150.8353 L422.0956,150.7523 Z" id="Fill-133"></path>
                            </g>
                            <g id="Group-263" transform="translate(554.000000, 8.980000)">
                                <g id="Group-228" opacity="0.304464286" fill="#FEFEFE">
                                    <path d="M395.0204,106.5204 C395.0204,108.4534 393.4534,110.0204 391.5204,110.0204 C389.5874,110.0204 388.0204,108.4534 388.0204,106.5204 C388.0204,104.5874 389.5874,103.0204 391.5204,103.0204 C393.4534,103.0204 395.0204,104.5874 395.0204,106.5204" id="Fill-168"></path>
                                    <path d="M223.0204,10.5204 C223.0204,12.4534 221.4534,14.0204 219.5204,14.0204 C217.5874,14.0204 216.0204,12.4534 216.0204,10.5204 C216.0204,8.5874 217.5874,7.0204 219.5204,7.0204 C221.4534,7.0204 223.0204,8.5874 223.0204,10.5204" id="Fill-170"></path>
                                    <path d="M542.0204,45.5204 C542.0204,47.4534 540.4534,49.0204 538.5204,49.0204 C536.5874,49.0204 535.0204,47.4534 535.0204,45.5204 C535.0204,43.5874 536.5874,42.0204 538.5204,42.0204 C540.4534,42.0204 542.0204,43.5874 542.0204,45.5204" id="Fill-172"></path>
                                    <path d="M573.0204,140.5204 C573.0204,142.4534 571.4534,144.0204 569.5204,144.0204 C567.5874,144.0204 566.0204,142.4534 566.0204,140.5204 C566.0204,138.5874 567.5874,137.0204 569.5204,137.0204 C571.4534,137.0204 573.0204,138.5874 573.0204,140.5204" id="Fill-174"></path>
                                    <path d="M463.0204,161.5204 C463.0204,163.4534 461.4534,165.0204 459.5204,165.0204 C457.5874,165.0204 456.0204,163.4534 456.0204,161.5204 C456.0204,159.5874 457.5874,158.0204 459.5204,158.0204 C461.4534,158.0204 463.0204,159.5874 463.0204,161.5204" id="Fill-176"></path>
                                    <path d="M599.0204,239.0204 C599.0204,240.1244 598.1244,241.0204 597.0204,241.0204 C595.9164,241.0204 595.0204,240.1244 595.0204,239.0204 C595.0204,237.9164 595.9164,237.0204 597.0204,237.0204 C598.1244,237.0204 599.0204,237.9164 599.0204,239.0204" id="Fill-178"></path>
                                    <path d="M304.0204,52.0204 C304.0204,53.1244 303.1244,54.0204 302.0204,54.0204 C300.9164,54.0204 300.0204,53.1244 300.0204,52.0204 C300.0204,50.9164 300.9164,50.0204 302.0204,50.0204 C303.1244,50.0204 304.0204,50.9164 304.0204,52.0204" id="Fill-180"></path>
                                    <path d="M325.0204,127.0204 C325.0204,128.1244 324.1244,129.0204 323.0204,129.0204 C321.9164,129.0204 321.0204,128.1244 321.0204,127.0204 C321.0204,125.9164 321.9164,125.0204 323.0204,125.0204 C324.1244,125.0204 325.0204,125.9164 325.0204,127.0204" id="Fill-182"></path>
                                    <path d="M423.0204,27.0204 C423.0204,28.1244 422.1244,29.0204 421.0204,29.0204 C419.9164,29.0204 419.0204,28.1244 419.0204,27.0204 C419.0204,25.9164 419.9164,25.0204 421.0204,25.0204 C422.1244,25.0204 423.0204,25.9164 423.0204,27.0204" id="Fill-184"></path>
                                    <path d="M316.0204,66.0204 C316.0204,67.1244 315.1244,68.0204 314.0204,68.0204 C312.9164,68.0204 312.0204,67.1244 312.0204,66.0204 C312.0204,64.9164 312.9164,64.0204 314.0204,64.0204 C315.1244,64.0204 316.0204,64.9164 316.0204,66.0204" id="Fill-186"></path>
                                    <path d="M458.0204,88.0204 C458.0204,89.1244 457.1244,90.0204 456.0204,90.0204 C454.9164,90.0204 454.0204,89.1244 454.0204,88.0204 C454.0204,86.9164 454.9164,86.0204 456.0204,86.0204 C457.1244,86.0204 458.0204,86.9164 458.0204,88.0204" id="Fill-188"></path>
                                    <path d="M258.0204,125.0204 C258.0204,126.1244 257.1244,127.0204 256.0204,127.0204 C254.9164,127.0204 254.0204,126.1244 254.0204,125.0204 C254.0204,123.9164 254.9164,123.0204 256.0204,123.0204 C257.1244,123.0204 258.0204,123.9164 258.0204,125.0204" id="Fill-190"></path>
                                    <path d="M218.0204,69.0204 C218.0204,70.1244 217.1244,71.0204 216.0204,71.0204 C214.9164,71.0204 214.0204,70.1244 214.0204,69.0204 C214.0204,67.9164 214.9164,67.0204 216.0204,67.0204 C217.1244,67.0204 218.0204,67.9164 218.0204,69.0204" id="Fill-192"></path>
                                    <path d="M4.0204,119.0204 C4.0204,120.1244 3.1244,121.0204 2.0204,121.0204 C0.9164,121.0204 0.0204,120.1244 0.0204,119.0204 C0.0204,117.9164 0.9164,117.0204 2.0204,117.0204 C3.1244,117.0204 4.0204,117.9164 4.0204,119.0204" id="Fill-194"></path>
                                    <path d="M580.0204,83.0204 C580.0204,84.1244 579.1244,85.0204 578.0204,85.0204 C576.9164,85.0204 576.0204,84.1244 576.0204,83.0204 C576.0204,81.9164 576.9164,81.0204 578.0204,81.0204 C579.1244,81.0204 580.0204,81.9164 580.0204,83.0204" id="Fill-196"></path>
                                    <path d="M486.0204,133.0204 C486.0204,134.1244 485.1244,135.0204 484.0204,135.0204 C482.9164,135.0204 482.0204,134.1244 482.0204,133.0204 C482.0204,131.9164 482.9164,131.0204 484.0204,131.0204 C485.1244,131.0204 486.0204,131.9164 486.0204,133.0204" id="Fill-198"></path>
                                    <path d="M501.0204,112.0204 C501.0204,113.1244 500.1244,114.0204 499.0204,114.0204 C497.9164,114.0204 497.0204,113.1244 497.0204,112.0204 C497.0204,110.9164 497.9164,110.0204 499.0204,110.0204 C500.1244,110.0204 501.0204,110.9164 501.0204,112.0204" id="Fill-200"></path>
                                    <path d="M654.0204,71.0204 C654.0204,72.1244 653.1244,73.0204 652.0204,73.0204 C650.9164,73.0204 650.0204,72.1244 650.0204,71.0204 C650.0204,69.9164 650.9164,69.0204 652.0204,69.0204 C653.1244,69.0204 654.0204,69.9164 654.0204,71.0204" id="Fill-202"></path>
                                    <path d="M1044.0204,66.0204 C1044.0204,67.1244 1043.1244,68.0204 1042.0204,68.0204 C1040.9164,68.0204 1040.0204,67.1244 1040.0204,66.0204 C1040.0204,64.9164 1040.9164,64.0204 1042.0204,64.0204 C1043.1244,64.0204 1044.0204,64.9164 1044.0204,66.0204" id="Fill-204"></path>
                                    <path d="M1206.0204,66.0204 C1206.0204,67.1244 1205.1244,68.0204 1204.0204,68.0204 C1202.9164,68.0204 1202.0204,67.1244 1202.0204,66.0204 C1202.0204,64.9164 1202.9164,64.0204 1204.0204,64.0204 C1205.1244,64.0204 1206.0204,64.9164 1206.0204,66.0204" id="Fill-206"></path>
                                    <path d="M103.0204,134.5204 C103.0204,136.4534 101.4534,138.0204 99.5204,138.0204 C97.5874,138.0204 96.0204,136.4534 96.0204,134.5204 C96.0204,132.5874 97.5874,131.0204 99.5204,131.0204 C101.4534,131.0204 103.0204,132.5874 103.0204,134.5204" id="Fill-208"></path>
                                    <path d="M756.0204,67.5204 C756.0204,69.4534 754.4534,71.0204 752.5204,71.0204 C750.5874,71.0204 749.0204,69.4534 749.0204,67.5204 C749.0204,65.5874 750.5874,64.0204 752.5204,64.0204 C754.4534,64.0204 756.0204,65.5874 756.0204,67.5204" id="Fill-210"></path>
                                    <path d="M1164.0204,8.5204 C1164.0204,10.4534 1162.4534,12.0204 1160.5204,12.0204 C1158.5874,12.0204 1157.0204,10.4534 1157.0204,8.5204 C1157.0204,6.5874 1158.5874,5.0204 1160.5204,5.0204 C1162.4534,5.0204 1164.0204,6.5874 1164.0204,8.5204" id="Fill-212"></path>
                                    <path d="M934.0204,101.5204 C934.0204,103.4534 932.4534,105.0204 930.5204,105.0204 C928.5874,105.0204 927.0204,103.4534 927.0204,101.5204 C927.0204,99.5874 928.5874,98.0204 930.5204,98.0204 C932.4534,98.0204 934.0204,99.5874 934.0204,101.5204" id="Fill-214"></path>
                                    <path d="M824.0204,122.5204 C824.0204,124.4534 822.4534,126.0204 820.5204,126.0204 C818.5874,126.0204 817.0204,124.4534 817.0204,122.5204 C817.0204,120.5874 818.5874,119.0204 820.5204,119.0204 C822.4534,119.0204 824.0204,120.5874 824.0204,122.5204" id="Fill-216"></path>
                                    <path d="M1283.0204,76.5204 C1283.0204,78.4534 1281.4534,80.0204 1279.5204,80.0204 C1277.5874,80.0204 1276.0204,78.4534 1276.0204,76.5204 C1276.0204,74.5874 1277.5874,73.0204 1279.5204,73.0204 C1281.4534,73.0204 1283.0204,74.5874 1283.0204,76.5204" id="Fill-218"></path>
                                    <path d="M700.0204,14.0204 C700.0204,15.1244 699.1244,16.0204 698.0204,16.0204 C696.9164,16.0204 696.0204,15.1244 696.0204,14.0204 C696.0204,12.9164 696.9164,12.0204 698.0204,12.0204 C699.1244,12.0204 700.0204,12.9164 700.0204,14.0204" id="Fill-220"></path>
                                    <path d="M902.0204,2.0204 C902.0204,3.1244 901.1244,4.0204 900.0204,4.0204 C898.9164,4.0204 898.0204,3.1244 898.0204,2.0204 C898.0204,0.9164 898.9164,0.0204 900.0204,0.0204 C901.1244,0.0204 902.0204,0.9164 902.0204,2.0204" id="Fill-222"></path>
                                    <path d="M820.0204,24.0204 C820.0204,25.1244 819.1244,26.0204 818.0204,26.0204 C816.9164,26.0204 816.0204,25.1244 816.0204,24.0204 C816.0204,22.9164 816.9164,22.0204 818.0204,22.0204 C819.1244,22.0204 820.0204,22.9164 820.0204,24.0204" id="Fill-224"></path>
                                    <path d="M973.0204,34.0204 C973.0204,35.1244 972.1244,36.0204 971.0204,36.0204 C969.9164,36.0204 969.0204,35.1244 969.0204,34.0204 C969.0204,32.9164 969.9164,32.0204 971.0204,32.0204 C972.1244,32.0204 973.0204,32.9164 973.0204,34.0204" id="Fill-226"></path>
                                </g>
                                <g id="Group-7" transform="translate(150.000000, 478.000000)">
                                    <path d="M61.9969,196.8016 C62.0339,196.5256 60.9959,196.0606 59.2429,196.2866 C59.2419,196.2866 58.2059,196.4626 58.2049,196.4626 C58.2009,196.4636 58.0489,196.4896 57.8149,196.5296 C54.1989,196.5756 52.4119,196.4426 49.2299,197.2496 C45.7729,198.1276 34.7259,199.0966 30.3369,199.8156 C29.2599,199.9906 28.5839,200.1536 28.5179,200.2936 C28.4769,200.3816 28.4129,200.4566 28.3369,200.5216 C25.8189,200.8466 23.8509,201.1856 22.2139,201.5016 C19.8039,201.4576 15.7369,201.6776 9.3219,202.5066 C8.5409,202.3596 7.8279,202.2386 6.6279,202.3076 C2.9259,202.5176 -0.9141,204.2566 0.5839,205.5536 C0.7369,205.6856 1.9049,206.6326 5.9199,206.9686 C11.6269,207.4446 21.4579,207.0726 33.1239,205.2026 C33.9099,205.2806 34.7919,205.3566 35.8039,205.4246 C37.0139,205.5066 38.3609,205.5096 39.7429,205.4616 C41.6159,205.4116 43.4479,205.2616 45.2459,205.0616 C48.8389,204.6876 51.6899,204.2066 51.6899,204.2066 C51.6899,204.2066 51.7419,204.1976 51.8169,204.1856 C52.4889,204.0916 53.1569,203.9986 53.8229,203.9116 C56.3849,203.6046 61.1359,203.1706 67.4329,203.2016 C77.1119,203.2496 79.6349,203.4386 79.6349,203.4386 C79.6349,203.4386 81.7159,203.5146 81.6839,203.2396 C82.9409,203.2046 84.3819,203.1286 86.0329,202.9896 C108.7349,201.0936 195.9719,198.1636 195.9719,198.1636 L205.8249,198.1656 L212.8629,197.6696 L213.4699,196.9536 C213.4699,196.9536 213.9999,197.0646 215.5179,196.9746 C217.1839,196.8766 217.8229,196.5176 216.5179,196.1436 C216.1509,196.0376 218.6869,195.3476 218.6869,195.3476 C218.6869,195.3476 216.7019,195.0626 216.5529,194.9476 C215.8349,194.3936 212.2459,194.4736 210.9079,194.4966 C209.3729,194.5236 211.7589,194.6616 211.6749,194.9736 C211.4969,195.6316 203.3119,195.9856 203.3119,195.9856 C203.3119,195.9856 199.8229,196.1786 198.7619,196.1626 C198.2679,196.1556 187.0619,196.8026 186.6469,196.7956 L151.4859,198.1876 C151.4859,198.1876 138.3289,199.2306 126.8749,199.0796 C115.4219,198.9286 88.4389,199.9776 98.0969,199.1906 C107.7549,198.4036 125.3219,197.1796 125.3219,197.1796 L157.8389,195.4046 L190.0719,194.2066 L190.9409,193.1206 L191.4839,192.7946 L192.6789,191.9266 C192.6789,191.9266 193.3929,191.9896 194.9099,191.9006 C196.5759,191.8026 198.3309,191.6646 196.7429,191.0486 C196.4819,190.9476 195.6879,190.9686 195.6879,190.9686 C195.6879,190.9686 195.6519,190.4426 195.4739,190.3046 C194.7749,189.7626 193.5219,189.6136 191.9099,189.6416 C190.3739,189.6696 190.7419,190.0686 190.6419,190.2796 C190.3689,190.8556 188.4169,192.7826 188.2259,192.7946 C187.4269,192.8006 162.7469,194.2116 161.7279,194.2066 C161.2279,194.2046 159.6169,194.2766 158.6489,194.2636 L158.6759,194.2256 C158.6759,194.2256 157.7739,194.2246 156.2439,194.2296 C156.1789,194.2286 156.1349,194.2276 156.1349,194.2276 L156.1329,194.2296 C152.1719,194.2416 144.1959,194.2876 136.6689,194.4636 C126.1109,194.7106 110.2869,195.4386 97.9749,195.8936 C91.0469,196.1496 84.1289,196.6776 79.4029,197.0906 L79.2809,196.9636 C79.2809,196.9636 72.2779,197.0606 68.2969,197.6946 C64.3169,198.3276 54.3209,198.6976 51.3279,198.9696" id="Fill-229" fill="#3794A5"></path>
                                    <g id="arm" transform="translate(218.000000, 6.000000)">
                                        <path d="M7.285,2.7284 C7.045,2.7284 6.81,2.7654 6.584,2.8384 C4.644,3.4814 3.917,6.7774 4.995,10.0344 C5.549,11.7074 6.526,13.1824 7.675,14.0804 C8.258,14.5354 9.407,15.2424 10.562,14.8604 C11.717,14.4784 12.219,13.2244 12.415,12.5104 C12.802,11.1044 12.706,9.3384 12.152,7.6654 C11.2,4.7884 9.099,2.7284 7.285,2.7284 M9.866,17.6794 C8.576,17.6794 7.247,17.1814 6.009,16.2134 C4.425,14.9764 3.153,13.0844 2.425,10.8854 C0.832,6.0744 2.285,1.4114 5.733,0.2694 C9.179,-0.8706 13.13,2.0024 14.722,6.8144 C15.45,9.0134 15.558,11.2914 15.025,13.2284 C14.439,15.3614 13.156,16.8534 11.413,17.4294 C10.91,17.5964 10.39,17.6794 9.866,17.6794" id="Fill-148" fill="#E3E5E5"></path>
                                        <path d="M13.0321,15.0038 L21.1401,28.5408" id="Fill-150" fill="#E3E5E5"></path>
                                        <polygon id="Fill-152" fill="#E3E5E5" points="19.9637 29.0038 12.1517 15.4828 13.9117 14.5248 21.7007 28.1348"></polygon>
                                        <path d="M12.0204,15.0204 L20.0204,29.0204" id="Fill-154" fill="#4EC2DF"></path>
                                        <polygon id="Fill-156" fill="#4EC2DF" points="19.1522 29.5164 11.1522 15.5164 12.8882 14.5244 20.8882 28.5244"></polygon>
                                        <path d="M8.99827456,15.1054231 C6.85827456,15.6794231 4.34127456,13.2294231 3.37627456,9.63342306 C2.41227456,6.03742306 3.36427456,2.65842306 5.50427456,2.08342306 C7.64527456,1.50942306 10.1612746,3.95842306 11.1262746,7.55442306 C12.0912746,11.1504231 11.1382746,14.5314231 8.99827456,15.1054231 Z" id="Fill-158" fill="#8EBADD" opacity="0.503459821"></path>
                                        <path d="M5.9315,2.7284 C5.6915,2.7284 5.4565,2.7654 5.2305,2.8384 C3.2905,3.4814 2.5635,6.7774 3.6415,10.0344 C4.1955,11.7074 5.1715,13.1824 6.3215,14.0804 C6.9045,14.5354 8.0535,15.2424 9.2085,14.8604 C10.3635,14.4784 10.8655,13.2244 11.0615,12.5104 C11.4485,11.1044 11.3525,9.3384 10.7985,7.6654 C9.8465,4.7884 7.7455,2.7284 5.9315,2.7284 M8.5125,17.6794 C7.2225,17.6794 5.8935,17.1814 4.6555,16.2134 C3.0715,14.9764 1.7995,13.0844 1.0715,10.8854 C-0.5215,6.0744 0.9315,1.4114 4.3795,0.2694 C7.8255,-0.8706 11.7755,2.0024 13.3685,6.8144 C14.0965,9.0134 14.2035,11.2914 13.6715,13.2284 C13.0855,15.3614 11.8025,16.8534 10.0595,17.4294 C9.5565,17.5964 9.0365,17.6794 8.5125,17.6794" id="Fill-160" fill="#4EC2DF"></path>
                                        <path d="M13.7616,27.45 C13.7616,27.45 13.2256,20.805 13.2256,20.02 C13.2256,17.19 18.2566,18.096 20.1066,22.02 C21.9566,25.945 18.0836,29.37 18.0836,29.37 L13.7616,27.45 Z" id="Fill-162" fill="#D4992B"></path>
                                        <path d="M14.6219,18.3748 C14.6219,18.3748 17.4229,19.3638 18.2929,20.3638 C19.7329,22.0198 20.2809,23.2918 19.1829,26.6278 C18.9559,27.3158 18.0829,29.3098 18.0829,29.3098 L13.7669,27.3538 C13.7669,27.3538 13.4549,24.3688 13.3459,22.1358 C13.2439,20.0588 12.7889,18.8428 14.6219,18.3748" id="Fill-164" fill="#C0872B"></path>
                                        <path d="M13.7841,27.2518 C13.7841,27.2518 17.6321,26.2048 18.2681,29.5528 C18.2681,29.5528 17.1541,43.9548 16.9431,45.8878 C16.7331,47.8188 16.8381,57.8788 15.9441,60.8978 C15.0201,64.0208 12.0201,65.0208 10.7201,65.0768 C9.6751,65.1238 5.8811,61.0748 6.2421,58.7218 C6.6031,56.3678 13.7841,27.2518 13.7841,27.2518" id="Fill-166" fill="#1E76BC"></path>
                                        <path d="M13.7723,27.2401 L8.6153,48.7141 L12.0203,55.0201 L15.0443,27.0941 C15.0443,27.0941 14.5393,27.1141 14.3703,27.1331 C14.2213,27.1501 13.7723,27.2401 13.7723,27.2401" id="Fill-233" fill="#114668"></path>
                                        <path d="M5.48022461,3.79539062 C6.35715753,4.9933586 7.1571842,6.43040316 7.88030463,8.10652429 C8.60342506,9.78264542 9.19605789,11.527567 9.65820313,13.3412891 C10.3226381,11.2876686 10.2182852,9.2489316 9.34514438,7.22507812 C8.47200355,5.20122465 7.18369696,4.05799548 5.48022461,3.79539062 Z" id="Path-2" fill="#6BA9D9"></path>
                                    </g>
                                    <path d="M189.8007,176.8856 L189.3967,180.5216 L188.9047,184.9486 C188.9047,184.9486 190.5757,185.7886 191.4297,185.8446 C192.1337,185.8906 194.1987,185.3566 194.1987,185.3566 C194.1987,185.3566 195.2197,181.7436 195.5597,180.5396 C195.7487,179.8706 196.3167,177.8636 196.3167,177.8636 L189.8007,176.8856 Z" id="Fill-235" fill="#C0872B"></path>
                                    <path d="M195.928955,177.377075 C195.315959,179.199534 194.91919,180.56684 194.738647,181.478994 C194.342041,183.482769 193.639771,185.580913 193.639771,185.580913 C193.639771,185.580913 193.809367,185.580913 194.14856,185.580913 C194.440104,184.727879 194.692017,183.837824 194.904297,182.910747 C195.116577,181.98367 195.602987,180.239774 196.363525,177.679058 L195.928955,177.377075 Z" id="Path-3" fill="#D4992B"></path>
                                    <path d="M214.9408,177.1571 L215.327881,188.528789 L220.2168,188.9581 C220.2168,188.9581 220.8188,185.1691 221.1308,183.7811 C221.4278,182.4631 222.6508,178.1351 222.6508,178.1351 L214.9408,177.1571 Z" id="Fill-237" fill="#C0872B"></path>
                                    <path d="M220.26001,180.618328 C220.332952,182.066786 220.332952,183.153151 220.26001,183.877422 C219.991719,186.541378 219.462402,188.538066 219.462402,188.538066 C219.462402,188.538066 219.728271,188.566082 220.26001,188.622112 C220.507138,187.196209 220.75962,185.862245 221.017456,184.62022 C221.275292,183.378194 221.55056,182.169922 221.843262,180.995403 L220.26001,180.618328 Z" id="Path-3" fill="#D4992B"></path>
                                    <path d="M188.4559,85.0204 L220.3169,84.0204 C220.3169,84.0204 225.6269,98.0204 225.6269,112.0204 C225.6269,126.0204 226.5119,144.0204 225.6269,156.0204 C224.7419,168.0204 222.0869,181.0204 222.0869,181.0204 L215.0069,180.0204 L211.4669,143.0204 C211.4669,143.0204 207.9269,123.0204 205.2709,112.0204 C202.6159,101.0204 206.1569,137.0204 202.6159,150.0204 C199.0759,163.0204 196.3169,178.0264 196.3169,178.0264 L189.3119,177.2114 C189.3119,177.2114 191.1109,124.0204 184.5889,98.1624 C182.1269,88.4024 188.4559,85.0204 188.4559,85.0204" id="Fill-239" fill="#F1F1F1"></path>
                                    <path d="M217.9818,85.1754 C217.9818,85.1754 219.9058,90.5804 221.2398,101.4644 C221.5578,104.0614 223.3658,128.6444 221.6738,135.1294 C220.6968,138.8764 216.4608,132.5234 216.4608,133.8274 C216.4608,137.0914 218.8508,140.9944 220.9138,143.4924 C223.9288,147.1424 216.9278,143.0344 217.3298,146.8584 C217.5468,148.9214 220.4568,161.3964 220.5878,163.3654 C221.2598,173.4724 220.5878,180.812969 220.5878,180.812969 L214.8438,180.0204 L211.3038,143.0204 C211.3038,143.0204 207.7638,123.0204 205.1078,112.0204 C202.4538,101.0204 205.9938,137.0204 202.4538,150.0204 C198.9138,163.0204 196.1538,178.0264 196.1538,178.0264 L189.1488,177.2114 C189.1488,177.2114 190.9478,124.0204 184.4258,98.1624 C181.9648,88.4024 188.2928,85.0204 188.2928,85.0204 L217.9818,85.1754 Z" id="Fill-241" fill="#C2E6F2"></path>
                                    <path d="M192.0204,32.0204 C192.0204,32.0204 186.2824,31.6394 181.2824,40.7324 C176.2824,49.8264 186.0204,58.0634 188.0204,66.0204 C190.0204,73.9774 183.5444,90.7474 183.2824,91.8834 C183.0204,93.0204 185.0204,93.0204 185.2824,93.0204 C187.0204,93.0204 217.7284,91.6644 217.7284,91.6644 L223.2824,90.7474 C223.2824,90.7474 224.2824,82.7904 221.2824,78.2434 C218.2824,73.6964 218.2824,62.3304 217.2824,58.9194 C216.2824,55.5094 219.2824,43.0054 218.2824,38.4594 C217.2824,33.9134 209.4174,34.6584 205.0204,32.0204 C200.0204,29.0204 193.0204,33.1574 192.0204,32.0204" id="Fill-243" fill="#1E76BC"></path>
                                    <path d="M207.4281,32.8622 C207.4281,32.8622 202.8161,42.3682 211.3571,50.0052 C219.8981,57.6402 225.8231,71.0082 228.2501,69.7722 L230.6771,68.5382 C230.8471,62.8822 233.3031,60.8422 228.3651,56.6092 C223.7421,52.6472 220.2851,40.0622 216.8521,35.0482 C216.0111,33.8172 215.1701,33.0432 214.3141,32.9632 C209.9681,32.5522 211.4361,30.4952 207.4281,32.8622" id="Fill-245" fill="#1E76BC"></path>
                                    <path d="M191.0204,8.0204 C191.0204,8.0204 200.0204,1.0204 205.0204,11.0204 C210.0204,21.0204 209.0204,26.0204 207.0204,28.0204 C205.0204,30.0204 199.0204,30.0204 199.0204,30.0204 C199.0204,30.0204 194.0204,29.0204 190.0204,26.0204 C188.2314,24.6784 183.0204,15.0204 191.0204,8.0204" id="Fill-247" fill="#D4992B"></path>
                                    <path d="M202.0204,7.0204 L204.6244,12.5004 L206.9044,17.3884 C206.9044,17.3884 209.0204,23.0204 207.0204,27.0204 C205.0204,31.0204 191.0204,20.0204 191.0204,20.0204 L202.0204,7.0204 Z" id="Fill-249" fill="#C0872B"></path>
                                    <path d="M218.0634,57.5643 L224.0204,67.0203 L226.3704,70.1533 C226.8104,70.7413 227.4864,71.1033 228.2204,71.1273 C229.9164,71.1793 233.0204,70.0203 232.0204,68.0203 C232.0204,68.0193 231.1744,66.8353 231.1734,66.8353 C231.1534,66.8063 227.0404,61.0483 227.0204,61.0203 C223.3544,53.0203 219.6874,45.0203 216.0204,37.0203 C216.0204,37.0203 214.9464,35.1313 213.0204,33.0203 C210.8644,30.6563 189.4754,32.0713 189.4754,32.0713 C189.4754,32.0713 185.0204,34.0203 181.0204,41.0203 C177.0204,48.0203 184.9144,59.1123 184.9144,59.1123 C184.9144,59.1123 190.0204,66.0413 187.5204,77.0303 C185.0204,88.0203 183.2854,90.8773 183.2854,90.8773 C183.2854,90.8773 182.0204,94.0203 185.0204,93.0203 L206.0904,92.1793 C206.0904,92.1793 216.0204,91.0203 218.0204,91.0203 C220.0204,91.0203 220.0204,88.0203 218.0204,83.0203 C216.0204,78.0203 209.0204,68.0203 209.0204,68.0203 C209.0204,68.0203 208.0204,64.0203 213.0204,67.0203 C218.0204,70.0203 215.0204,63.0203 215.0204,63.0203 L207.0204,53.0203 C207.0204,53.0203 206.2784,49.1263 209.1494,50.0743 C211.4174,50.8213 213.7644,54.7203 214.6514,54.3573 C214.8444,54.2783 215.0314,53.9823 215.0204,53.0203" id="Fill-251" fill="#114668"></path>
                                    <path d="M206.8876,8.0204 C207.1926,10.8664 202.9576,11.2734 201.9176,15.0204 C200.4356,20.3604 208.1266,22.8064 213.0996,33.0204 C214.4296,35.7494 217.0576,41.3464 215.5846,48.0204 C214.4246,53.2784 211.1656,57.1784 210.6156,57.0204 C210.0146,56.8484 212.9716,51.9584 212.0436,45.1814 C211.7666,43.1544 211.3876,40.6344 209.3726,38.0204 C206.3796,34.1364 200.5866,31.2924 198.1906,32.0204 C185.0206,36.0204 203.8146,50.2914 201.9176,51.0204 C200.3126,51.6374 188.0856,45.6184 183.0206,38.0204 C174.1266,24.6794 174.0706,13.4874 178.3106,7.0204 C181.2916,2.4754 187.4006,1.1884 188.2506,1.0204 C196.5856,-0.6256 206.4366,3.8074 206.8876,8.0204" id="Fill-253" fill="#111820"></path>
                                    <path d="M197.8368,186.8221 C193.8138,186.5931 194.1988,185.3561 194.1988,185.3561 L188.9048,184.9491 C188.9048,184.9491 186.6638,189.8741 186.8688,191.6001 C187.0928,193.4961 189.0948,195.1841 191.7008,193.7181 C192.4348,193.3051 192.7328,192.6861 192.7328,192.6861 C192.7328,192.6861 195.6578,192.5111 196.3988,192.3471 C199.9778,191.5551 201.9088,190.1351 202.0718,188.6141 C202.2588,186.8701 199.7368,186.9301 197.8368,186.8221" id="Fill-255" fill="#111820"></path>
                                    <path d="M224.1176,190.0799 C220.1056,189.6959 220.2626,188.6139 220.2626,188.6139 L215.1856,188.2069 C215.1856,188.2069 212.9446,193.1319 213.1496,194.8579 C213.3736,196.7539 213.8196,198.7539 217.9816,196.9759 C218.6666,196.6839 218.7146,195.7809 218.7146,195.7809 C218.7146,195.7809 221.9676,195.7619 222.8566,195.5659 C226.3586,194.7949 227.5656,193.3789 227.7556,191.5459 C227.9366,189.8009 225.3936,190.2019 224.1176,190.0799" id="Fill-257" fill="#111820"></path>
                                    <path d="M124.8256,196.1512 L124.9286,196.1242" id="Fill-259" fill="#111820"></path>
                                </g>
                            </g>
                            <g id="search-bar" transform="translate(1344.000000, 320.000000)">
                                <path d="M244.175755,47.5814 L17.494996,43.6414 C8.66636472,43.6414 1.4425,35.7194 1.4425,26.0384 C1.4425,16.3564 8.66636472,8.4354 17.494996,8.4354 L245.015335,1.1014 C253.844932,1.1014 266,8.2824 266,24.1114 C266,43.2574 244.175755,47.5814 244.175755,47.5814" id="Fill-231" fill="#111820" opacity="0.360993304"></path>
                                <path d="M238.4432,44.1058 L16.1022,40.3868 C7.4422,40.3868 0.3562,32.9098 0.3562,23.7718 C0.3562,14.6328 7.4422,7.1558 16.1022,7.1558 L239.2662,0.2328 C247.9262,0.2328 259.8492,7.0108 259.8492,21.9528 C259.8492,40.0248 238.4432,44.1058 238.4432,44.1058" id="Fill-261" fill="#FEFEFE"></path>
                                <path d="M62.5454,25.98 L63.1454,25.284 C63.7094,25.872 64.4894,26.268 65.3174,26.268 C66.3494,26.268 66.9614,25.752 66.9614,24.984 C66.9614,24.18 66.3854,23.928 65.6414,23.592 L64.5134,23.1 C63.7814,22.788 62.9174,22.224 62.9174,21.072 C62.9174,19.872 63.9734,18.984 65.4014,18.984 C66.3374,18.984 67.1654,19.38 67.7174,19.956 L67.1894,20.604 C66.7094,20.148 66.1214,19.86 65.4014,19.86 C64.5134,19.86 63.9254,20.304 63.9254,21.012 C63.9254,21.768 64.6214,22.056 65.2334,22.32 L66.3614,22.8 C67.2734,23.196 67.9814,23.736 67.9814,24.9 C67.9814,26.148 66.9494,27.144 65.2934,27.144 C64.1894,27.144 63.2294,26.688 62.5454,25.98 Z M68.9654,24.096 C68.9654,22.188 70.2494,21.024 71.5814,21.024 C73.0694,21.024 73.9094,22.092 73.9094,23.76 C73.9094,23.964 73.8974,24.156 73.8734,24.3 L69.9374,24.3 C70.0094,25.56 70.7654,26.352 71.8814,26.352 C72.4334,26.352 72.9014,26.172 73.3334,25.896 L73.6814,26.544 C73.1774,26.868 72.5534,27.144 71.7614,27.144 C70.2014,27.144 68.9654,26.004 68.9654,24.096 Z M69.9254,23.652 L73.0454,23.652 C73.0454,22.464 72.5174,21.804 71.6054,21.804 C70.7894,21.804 70.0454,22.476 69.9254,23.652 Z M74.7254,25.488 C74.7254,24.216 75.8294,23.58 78.3134,23.304 C78.3134,22.56 78.0614,21.84 77.1134,21.84 C76.4294,21.84 75.8294,22.152 75.3734,22.464 L74.9774,21.78 C75.5174,21.432 76.3334,21.024 77.2694,21.024 C78.6974,21.024 79.2974,21.972 79.2974,23.424 L79.2974,27 L78.4814,27 L78.3974,26.304 L78.3734,26.304 C77.8094,26.76 77.1614,27.144 76.4414,27.144 C75.4574,27.144 74.7254,26.532 74.7254,25.488 Z M75.6974,25.416 C75.6974,26.076 76.1414,26.352 76.7174,26.352 C77.2814,26.352 77.7494,26.076 78.3134,25.572 L78.3134,23.952 C76.3574,24.192 75.6974,24.672 75.6974,25.416 Z M81.1574,27 L81.1574,21.168 L81.9734,21.168 L82.0574,22.224 L82.0934,22.224 C82.4894,21.492 83.0894,21.024 83.7494,21.024 C84.0014,21.024 84.1814,21.06 84.3734,21.144 L84.1814,22.008 C83.9894,21.948 83.8574,21.912 83.6174,21.912 C83.1254,21.912 82.5374,22.272 82.1414,23.256 L82.1414,27 L81.1574,27 Z M84.6482,24.096 C84.6482,22.14 85.9562,21.024 87.4562,21.024 C88.2242,21.024 88.7642,21.348 89.1602,21.72 L88.6682,22.356 C88.3202,22.056 87.9602,21.84 87.4922,21.84 C86.4362,21.84 85.6682,22.752 85.6682,24.096 C85.6682,25.428 86.4002,26.328 87.4682,26.328 C88.0202,26.328 88.4882,26.052 88.8362,25.74 L89.2802,26.388 C88.7522,26.856 88.0802,27.144 87.3842,27.144 C85.8362,27.144 84.6482,26.028 84.6482,24.096 Z M90.5522,27 L90.5522,18.456 L91.5362,18.456 L91.5362,20.784 L91.5002,21.984 C92.0522,21.456 92.6402,21.024 93.4442,21.024 C94.6682,21.024 95.2202,21.816 95.2202,23.304 L95.2202,27 L94.2362,27 L94.2362,23.436 C94.2362,22.344 93.9002,21.876 93.1322,21.876 C92.5322,21.876 92.1242,22.188 91.5362,22.776 L91.5362,27 L90.5522,27 Z M102.3482,18.504 L102.1322,19.26 C101.9162,19.164 101.6882,19.116 101.4722,19.116 C100.9202,19.116 100.6562,19.5 100.6562,20.244 L100.6562,21.168 L101.8922,21.168 L101.8922,21.972 L100.6562,21.972 L100.6562,27 L99.6722,27 L99.6722,21.972 L98.8802,21.972 L98.8802,21.228 L99.6722,21.168 L99.6722,20.244 C99.6722,19.056 100.2122,18.312 101.3762,18.312 C101.7362,18.312 102.0842,18.396 102.3482,18.504 Z M102.3362,24.096 C102.3362,22.14 103.6082,21.024 105.0362,21.024 C106.4642,21.024 107.7362,22.14 107.7362,24.096 C107.7362,26.028 106.4642,27.144 105.0362,27.144 C103.6082,27.144 102.3362,26.028 102.3362,24.096 Z M103.3562,24.096 C103.3562,25.428 104.0402,26.328 105.0362,26.328 C106.0442,26.328 106.7162,25.428 106.7162,24.096 C106.7162,22.752 106.0442,21.84 105.0362,21.84 C104.0402,21.84 103.3562,22.752 103.3562,24.096 Z M109.2722,27 L109.2722,21.168 L110.0882,21.168 L110.1722,22.224 L110.2082,22.224 C110.6042,21.492 111.2042,21.024 111.8642,21.024 C112.1162,21.024 112.2962,21.06 112.4882,21.144 L112.2962,22.008 C112.1042,21.948 111.9722,21.912 111.7322,21.912 C111.2402,21.912 110.6522,22.272 110.2562,23.256 L110.2562,27 L109.2722,27 Z M115.8602,27 L115.8602,21.168 L116.6762,21.168 L116.7602,22.008 L116.7962,22.008 C117.3002,21.456 117.9122,21.024 118.6082,21.024 C119.4962,21.024 119.9762,21.444 120.2162,22.14 C120.8282,21.48 121.4282,21.024 122.1362,21.024 C123.3362,21.024 123.9122,21.816 123.9122,23.304 L123.9122,27 L122.9282,27 L122.9282,23.436 C122.9282,22.344 122.5802,21.876 121.8482,21.876 C121.3922,21.876 120.9242,22.176 120.3842,22.776 L120.3842,27 L119.4002,27 L119.4002,23.436 C119.4002,22.344 119.0522,21.876 118.3082,21.876 C117.8762,21.876 117.3842,22.176 116.8442,22.776 L116.8442,27 L115.8602,27 Z M125.4122,28.608 C125.5322,28.644 125.7122,28.692 125.8562,28.692 C126.5162,28.692 126.9362,28.164 127.1762,27.444 L127.3082,27.012 L124.9682,21.168 L125.9882,21.168 L127.1762,24.396 C127.3562,24.9 127.5602,25.5 127.7402,26.04 L127.7882,26.04 C127.9562,25.512 128.1242,24.912 128.2802,24.396 L129.3242,21.168 L130.2842,21.168 L128.0882,27.48 C127.6802,28.632 127.0802,29.508 125.9042,29.508 C125.6402,29.508 125.4122,29.46 125.2202,29.388 L125.4122,28.608 Z M133.8362,27 L133.8362,18.456 L134.8202,18.456 L134.8202,20.784 L134.7962,21.84 C135.3242,21.372 135.9722,21.024 136.6202,21.024 C138.1322,21.024 138.9362,22.188 138.9362,23.988 C138.9362,25.98 137.7482,27.144 136.4162,27.144 C135.8762,27.144 135.2642,26.88 134.7482,26.424 L134.7122,26.424 L134.6282,27 L133.8362,27 Z M134.8202,25.704 C135.3362,26.148 135.8642,26.316 136.2482,26.316 C137.2082,26.316 137.9162,25.44 137.9162,24 C137.9162,22.716 137.4842,21.852 136.3802,21.852 C135.8882,21.852 135.3722,22.128 134.8202,22.644 L134.8202,25.704 Z M140.4122,24.864 L140.4122,21.168 L141.4082,21.168 L141.4082,24.732 C141.4082,25.824 141.7322,26.292 142.5002,26.292 C143.1002,26.292 143.5202,25.992 144.0722,25.308 L144.0722,21.168 L145.0562,21.168 L145.0562,27 L144.2402,27 L144.1562,26.088 L144.1202,26.088 C143.5802,26.724 143.0042,27.144 142.2002,27.144 C140.9642,27.144 140.4122,26.352 140.4122,24.864 Z M146.3762,26.34 L146.8682,25.68 C147.3722,26.088 147.8882,26.376 148.5842,26.376 C149.3522,26.376 149.7362,25.968 149.7362,25.464 C149.7362,24.864 149.0402,24.6 148.4042,24.36 C147.5762,24.06 146.6642,23.664 146.6642,22.68 C146.6642,21.744 147.4082,21.024 148.6682,21.024 C149.4002,21.024 150.0362,21.324 150.4802,21.684 L150.0122,22.308 C149.6162,22.008 149.1962,21.792 148.6802,21.792 C147.9482,21.792 147.6122,22.188 147.6122,22.632 C147.6122,23.172 148.2482,23.388 148.9082,23.64 C149.7482,23.952 150.6842,24.3 150.6842,25.404 C150.6842,26.352 149.9282,27.144 148.5482,27.144 C147.7202,27.144 146.9282,26.796 146.3762,26.34 Z M152.5562,19.968 C152.1722,19.968 151.8722,19.704 151.8722,19.332 C151.8722,18.948 152.1722,18.696 152.5562,18.696 C152.9402,18.696 153.2402,18.948 153.2402,19.332 C153.2402,19.704 152.9402,19.968 152.5562,19.968 Z M152.0522,27 L152.0522,21.168 L153.0362,21.168 L153.0362,27 L152.0522,27 Z M155.0042,27 L155.0042,21.168 L155.8202,21.168 L155.9042,22.008 L155.9402,22.008 C156.4922,21.456 157.0922,21.024 157.8962,21.024 C159.1202,21.024 159.6722,21.816 159.6722,23.304 L159.6722,27 L158.6882,27 L158.6882,23.436 C158.6882,22.344 158.3522,21.876 157.5842,21.876 C156.9842,21.876 156.5762,22.188 155.9882,22.776 L155.9882,27 L155.0042,27 Z M161.1362,24.096 C161.1362,22.188 162.4202,21.024 163.7522,21.024 C165.2402,21.024 166.0802,22.092 166.0802,23.76 C166.0802,23.964 166.0682,24.156 166.0442,24.3 L162.1082,24.3 C162.1802,25.56 162.9362,26.352 164.0522,26.352 C164.6042,26.352 165.0722,26.172 165.5042,25.896 L165.8522,26.544 C165.3482,26.868 164.7242,27.144 163.9322,27.144 C162.3722,27.144 161.1362,26.004 161.1362,24.096 Z M162.0962,23.652 L165.2162,23.652 C165.2162,22.464 164.6882,21.804 163.7762,21.804 C162.9602,21.804 162.2162,22.476 162.0962,23.652 Z M166.8722,26.34 L167.3642,25.68 C167.8682,26.088 168.3842,26.376 169.0802,26.376 C169.8482,26.376 170.2322,25.968 170.2322,25.464 C170.2322,24.864 169.5362,24.6 168.9002,24.36 C168.0722,24.06 167.1602,23.664 167.1602,22.68 C167.1602,21.744 167.9042,21.024 169.1642,21.024 C169.8962,21.024 170.5322,21.324 170.9762,21.684 L170.5082,22.308 C170.1122,22.008 169.6922,21.792 169.1762,21.792 C168.4442,21.792 168.1082,22.188 168.1082,22.632 C168.1082,23.172 168.7442,23.388 169.4042,23.64 C170.2442,23.952 171.1802,24.3 171.1802,25.404 C171.1802,26.352 170.4242,27.144 169.0442,27.144 C168.2162,27.144 167.4242,26.796 166.8722,26.34 Z M171.9002,26.34 L172.3922,25.68 C172.8962,26.088 173.4122,26.376 174.1082,26.376 C174.8762,26.376 175.2602,25.968 175.2602,25.464 C175.2602,24.864 174.5642,24.6 173.9282,24.36 C173.1002,24.06 172.1882,23.664 172.1882,22.68 C172.1882,21.744 172.9322,21.024 174.1922,21.024 C174.9242,21.024 175.5602,21.324 176.0042,21.684 L175.5362,22.308 C175.1402,22.008 174.7202,21.792 174.2042,21.792 C173.4722,21.792 173.1362,22.188 173.1362,22.632 C173.1362,23.172 173.7722,23.388 174.4322,23.64 C175.2722,23.952 176.2082,24.3 176.2082,25.404 C176.2082,26.352 175.4522,27.144 174.0722,27.144 C173.2442,27.144 172.4522,26.796 171.9002,26.34 Z" id="Search-for-my-business" fill="#7D8286" transform="translate(119.376800, 23.910000) rotate(-1.000000) translate(-119.376800, -23.910000) "></path>
                            </g>
                            <g id="Group-286" transform="translate(1355.000000, 217.980000)">
                                <path d="M4.8954,129.5335 C2.5054,129.5335 0.5504,127.5785 0.5504,125.1895 L0.5504,124.1035 C0.5504,121.7145 2.5054,119.7595 4.8954,119.7595 C7.2844,119.7595 9.2394,121.7145 9.2394,124.1035 L9.2394,125.1895 C9.2394,126.1645 8.9134,127.0675 8.3654,127.7945 C7.5714,128.8485 6.3084,129.5335 4.8954,129.5335 Z" id="Stroke-264" stroke="#1E76BC"></path>
                                <path d="M7.9354,127.5785 L12.0624,131.7055" id="Stroke-266" stroke="#1E76BC"></path>
                                <path d="M344.1874,29.7411 L362.6064,9.5101 C365.8244,5.9741 371.3504,5.7151 374.8854,8.9331 L383.3894,16.6761 C386.9244,19.8941 387.1844,25.4201 383.9654,28.9551 L365.5474,49.1871 C362.3294,52.7221 356.8024,52.9811 353.2674,49.7631 L344.7634,42.0201 C341.2284,38.8021 340.9684,33.2761 344.1874,29.7411" id="Fill-268" fill="#FEFEFE"></path>
                                <path d="M373.1503,2.4022 C374.7593,0.6342 377.5223,0.5052 379.2903,2.1142 L389.7383,11.6262 C391.5053,13.2352 391.6353,15.9982 390.0263,17.7652 C388.4173,19.5332 385.6543,19.6632 383.8863,18.0532 L373.4383,8.5422 C371.6713,6.9322 371.5413,4.1702 373.1503,2.4022" id="Fill-270" fill="#FEFEFE"></path>
                                <path d="M347.9276,77.4134 C355.3236,69.2894 354.7286,56.5904 346.6046,49.1934 C338.4796,41.7974 325.7816,42.3934 318.3846,50.5174 L347.9276,77.4134 Z" id="Fill-272" fill="#FEFEFE"></path>
                                <path d="M383.8661,5.5077 L343.0121,50.3827 C342.5931,50.8437 342.6261,51.5637 343.0871,51.9837 L343.8931,52.7177 C344.3541,53.1367 345.0741,53.1037 345.4931,52.6427 L386.3471,7.7667 C386.7671,7.3067 386.7331,6.5867 386.2731,6.1667 L385.4671,5.4327 C385.0061,5.0127 384.2861,5.0467 383.8661,5.5077" id="Fill-274" fill="#FEFEFE"></path>
                                <path d="M393.8827,49.2 L342.3607,2.293 C341.8997,1.874 341.1787,1.908 340.7597,2.368 C340.3397,2.829 340.3737,3.549 340.8347,3.969 L392.3587,50.875 C392.8187,51.295 393.5387,51.261 393.9577,50.8 C394.3777,50.339 394.3437,49.619 393.8827,49.2" id="Fill-276" fill="#FEFEFE"></path>
                                <polygon id="Fill-278" fill="#FEFEFE" points="332.7528 55.9481 333.9868 56.3691 329.9438 68.2351 340.5978 62.4491 341.2198 63.5941 327.6328 70.9731"></polygon>
                                <path d="M324.5223,73.4491 C323.1823,72.2281 323.0853,70.1531 324.3053,68.8121 C325.5253,67.4721 327.6013,67.3741 328.9413,68.5951 C330.2823,69.8151 330.3793,71.8911 329.1593,73.2311 C327.9383,74.5721 325.8633,74.6691 324.5223,73.4491" id="Fill-280" fill="#EA4435"></path>
                                <path d="M324.2352,68.7489 C323.0142,70.0889 323.1122,72.1649 324.4532,73.3849 C325.7932,74.6059 327.8692,74.5079 329.0892,73.1679 C329.0892,73.1679 326.9712,74.1739 325.1902,72.5519 C323.4112,70.9319 324.2352,68.7489 324.2352,68.7489" id="Fill-282" fill="#D82D27"></path>
                                <path d="M349.2157,45.8822 L344.8067,41.8682 C341.2717,38.6502 341.0117,33.1242 344.2307,29.5892 L362.6497,9.3572 C365.8667,5.8222 371.3937,5.5632 374.9287,8.7812 L379.3377,12.7952" id="Fill-284" fill="#E3E5E5"></path>
                            </g>
                            <g id="Group-289" transform="translate(1697.000000, 223.980000)">
                                <mask id="mask-10" fill="white">
                                    <use xlink:href="#path-9"></use>
                                </mask>
                                <g id="Clip-288"></g>
                                <polygon id="Fill-287" fill="#EA4435" mask="url(#mask-10)" points="16.5497 -0.4489 21.8887 -6.3119 52.8807 21.9031 47.5427 27.7671"></polygon>
                            </g>
                            <g id="satelight" transform="translate(1665.000000, 190.980000)">
                                <path d="M68.2089,73.7284 L78.8439,62.0464 C80.2919,60.4554 82.7789,60.3384 84.3699,61.7874 L113.1779,88.0134 C114.7689,89.4614 114.8849,91.9484 113.4369,93.5394 L102.8019,105.2214 C101.3539,106.8124 98.8669,106.9284 97.2759,105.4804 L68.4679,79.2534 C66.8769,77.8054 66.7609,75.3194 68.2089,73.7284" id="Fill-290" fill="#E0F2F7"></path>
                                <path d="M98.2294,87.2762 L102.6804,82.3872 C103.3244,81.6802 104.4284,81.6282 105.1354,82.2722 L112.6094,89.0752 C113.3164,89.7192 113.3684,90.8242 112.7244,91.5312 L108.2734,96.4202 C107.6294,97.1272 106.5244,97.1792 105.8174,96.5352 L98.3434,89.7322 C97.6364,89.0882 97.5844,87.9832 98.2294,87.2762" id="Fill-292" fill="#557DBE"></path>
                                <path d="M90.702,95.5433 L95.153,90.6543 C95.798,89.9473 96.902,89.8953 97.609,90.5393 L105.083,97.3423 C105.79,97.9863 105.842,99.0913 105.198,99.7983 L100.747,104.6883 C100.103,105.3953 98.998,105.4463 98.291,104.8033 L90.817,97.9993 C90.11,97.3553 90.058,96.2503 90.702,95.5433" id="Fill-294" fill="#557DBE"></path>
                                <path d="M87.1952,77.2313 L91.6462,72.3423 C92.2912,71.6353 93.3952,71.5833 94.1022,72.2273 L101.5762,79.0303 C102.2832,79.6743 102.3352,80.7793 101.6912,81.4863 L97.2402,86.3763 C96.5962,87.0833 95.4912,87.1343 94.7842,86.4913 L87.3102,79.6873 C86.6032,79.0433 86.5512,77.9383 87.1952,77.2313" id="Fill-296" fill="#557DBE"></path>
                                <path d="M79.7762,85.596 L84.2272,80.707 C84.8712,79.999 85.9752,79.948 86.6822,80.592 L94.1562,87.395 C94.8632,88.039 94.9152,89.144 94.2712,89.851 L89.8202,94.74 C89.1762,95.447 88.0712,95.499 87.3642,94.855 L79.8912,88.052 C79.1842,87.408 79.1312,86.303 79.7762,85.596" id="Fill-298" fill="#557DBE"></path>
                                <path d="M76.2499,67.2665 L80.7009,62.3775 C81.3449,61.6705 82.4499,61.6185 83.1569,62.2625 L90.6299,69.0655 C91.3369,69.7095 91.3889,70.8145 90.7449,71.5215 L86.2939,76.4115 C85.6499,77.1185 84.5449,77.1695 83.8379,76.5255 L76.3649,69.7225 C75.6579,69.0785 75.6059,67.9735 76.2499,67.2665" id="Fill-300" fill="#557DBE"></path>
                                <path d="M68.83,75.6307 L73.281,70.7417 C73.925,70.0347 75.03,69.9827 75.737,70.6267 L83.211,77.4297 C83.918,78.0737 83.97,79.1787 83.325,79.8857 L78.874,84.7757 C78.23,85.4827 77.126,85.5337 76.419,84.8907 L68.945,78.0867 C68.238,77.4427 68.186,76.3377 68.83,75.6307" id="Fill-302" fill="#557DBE"></path>
                                <path d="M1.369,13.5585 L12.004,1.8765 C13.452,0.2865 15.939,0.1695 17.53,1.6175 L46.338,27.8445 C47.929,29.2925 48.045,31.7795 46.597,33.3705 L35.962,45.0515 C34.514,46.6425 32.027,46.7595 30.436,45.3105 L1.628,19.0845 C0.037,17.6365 -0.079,15.1495 1.369,13.5585" id="Fill-304" fill="#E0F2F7"></path>
                                <path d="M31.3895,27.1063 L35.8405,22.2173 C36.4845,21.5103 37.5895,21.4583 38.2965,22.1023 L45.7695,28.9053 C46.4765,29.5493 46.5285,30.6543 45.8845,31.3613 L41.4335,36.2513 C40.7895,36.9583 39.6845,37.0093 38.9775,36.3663 L31.5045,29.5623 C30.7975,28.9183 30.7455,27.8133 31.3895,27.1063" id="Fill-306" fill="#557DBE"></path>
                                <path d="M23.8632,35.3739 L28.3142,30.4839 C28.9582,29.7769 30.0622,29.7259 30.7692,30.3699 L38.2432,37.1729 C38.9502,37.8169 39.0022,38.9219 38.3582,39.6289 L33.9072,44.5179 C33.2632,45.2249 32.1582,45.2769 31.4512,44.6329 L23.9782,37.8299 C23.2712,37.1859 23.2182,36.0809 23.8632,35.3739" id="Fill-308" fill="#557DBE"></path>
                                <path d="M20.3563,17.0619 L24.8073,12.1729 C25.4513,11.4659 26.5553,11.4139 27.2623,12.0579 L34.7363,18.8609 C35.4433,19.5049 35.4953,20.6099 34.8513,21.3169 L30.4003,26.2069 C29.7563,26.9139 28.6513,26.9649 27.9443,26.3209 L20.4713,19.5179 C19.7643,18.8739 19.7123,17.7689 20.3563,17.0619" id="Fill-310" fill="#557DBE"></path>
                                <path d="M12.9364,25.4261 L17.3874,20.5371 C18.0314,19.8301 19.1364,19.7781 19.8434,20.4221 L27.3164,27.2251 C28.0234,27.8691 28.0754,28.9741 27.4314,29.6811 L22.9804,34.5711 C22.3364,35.2781 21.2314,35.3291 20.5244,34.6861 L13.0514,27.8821 C12.3444,27.2381 12.2924,26.1331 12.9364,25.4261" id="Fill-312" fill="#557DBE"></path>
                                <path d="M9.41,7.0966 L13.861,2.2076 C14.505,1.5006 15.61,1.4486 16.317,2.0926 L23.791,8.8956 C24.498,9.5396 24.55,10.6446 23.905,11.3516 L19.455,16.2416 C18.81,16.9486 17.706,16.9996 16.999,16.3566 L9.525,9.5526 C8.818,8.9086 8.766,7.8036 9.41,7.0966" id="Fill-314" fill="#557DBE"></path>
                                <path d="M1.9901,15.4613 L6.4411,10.5723 C7.0851,9.8653 8.1901,9.8133 8.8971,10.4573 L16.3711,17.2603 C17.0781,17.9043 17.1301,19.0093 16.4861,19.7163 L12.0351,24.6053 C11.3911,25.3123 10.2861,25.3643 9.5791,24.7203 L2.1051,17.9173 C1.3981,17.2733 1.3461,16.1683 1.9901,15.4613" id="Fill-316" fill="#557DBE"></path>
                                <path d="M23.2928,91.0028 L8.3638,77.4118 C15.7608,69.2878 28.4598,68.6918 36.5838,76.0878 L23.2928,91.0028 Z" id="Fill-318" fill="#E3E5E5"></path>
                                <path d="M58.0272,52.0634 C57.5652,51.6434 57.1942,51.3734 56.7712,51.1364 L51.9692,56.4114 L54.0532,58.3094 L56.8732,55.2124 C57.3342,55.7474 57.8072,56.7944 57.6492,58.0214 L57.7102,58.0944 L60.5202,57.6034 L60.6362,57.4984 C60.6232,55.5444 59.7382,53.6204 58.0272,52.0634" id="Fill-320" fill="#557DBE"></path>
                                <path d="M58.6112,62.4574 C59.9922,60.9404 60.6512,59.2124 60.6362,57.4984 L57.6492,58.0204 C57.5492,58.7964 57.2002,59.6434 56.4382,60.4794 C55.0862,61.9654 52.9582,62.3334 51.1942,61.5504 L51.1402,61.6214 L50.9032,64.5774 L50.9462,64.6574 C53.6222,65.4044 56.6102,64.6544 58.6112,62.4574" id="Fill-322" fill="#35A751"></path>
                                <path d="M51.1942,61.5502 C50.7372,61.3512 50.2992,61.0782 49.9132,60.7262 C49.5262,60.3742 49.2142,59.9642 48.9662,59.5332 L48.8892,59.4692 L45.9272,59.9832 L45.9022,60.0662 C46.3172,61.1392 46.9732,62.1362 47.8792,62.9612 C48.7842,63.7842 49.8382,64.3442 50.9462,64.6572 L51.1942,61.5502" id="Fill-324" fill="#F8BB15"></path>
                                <path d="M49.5477,54.2059 C50.5077,53.1509 51.6107,52.8539 52.3607,52.7949 L52.2567,49.8009 C50.4647,49.9499 48.7557,50.7119 47.3747,52.2279 C45.3747,54.4259 44.9077,57.4709 45.9017,60.0659 L48.9667,59.5339 C48.0267,57.8449 48.1947,55.6919 49.5477,54.2059" id="Fill-326" fill="#EA4435"></path>
                            </g>
                            <g id="Group-331" transform="translate(1726.000000, 217.980000)">
                                <mask id="mask-12" fill="white">
                                    <use xlink:href="#path-11"></use>
                                </mask>
                                <g id="Clip-330"></g>
                                <path d="M4.0692,-4.4728 L5.6532,-6.2128 C7.2622,-7.9808 10.0252,-8.1108 11.7932,-6.5008 L26.8092,7.1702 C28.5772,8.7792 28.7072,11.5422 27.0972,13.3102 L25.5132,15.0502 C23.9042,16.8182 21.1412,16.9472 19.3742,15.3382 L4.3572,1.6672 C2.5902,0.0582 2.4602,-2.7048 4.0692,-4.4728" id="Fill-329" fill="#EA4435" mask="url(#mask-12)"></path>
                            </g>
                            <g id="cloud-group-2" transform="translate(1264.000000, 60.000000)">
                                <path d="M69.8192,173.0004 C68.3672,165.8444 66.1162,163.7414 64.2352,163.2284 C59.8212,162.0234 56.5842,169.3384 50.2752,168.8124 C44.7842,168.3544 43.2152,162.4764 39.1072,163.2284 C34.8672,164.0054 34.5142,170.6414 30.7322,170.9064 C26.9752,171.1694 25.0972,164.7824 21.6582,165.3224 C18.6582,165.7934 18.7112,170.8684 15.3762,171.6044 C11.8982,172.3724 9.7382,167.3174 6.3022,168.1144 C3.4382,168.7794 3.5782,171.2104 0.0202,173.0004 L69.8192,173.0004 Z" id="Path" fill="#FEFEFE"></path>
                                <path d="M551.0204,178.0004 C557.2124,170.9764 566.5624,162.1944 569.0204,164.0004 C571.3484,165.7104 566.9364,173.6164 569.0204,175.0004 C570.8314,176.2034 574.8044,170.7684 582.0204,167.0004 C591.9544,161.8134 605.1724,161.2784 608.0204,166.0004 C610.0814,169.4174 605.7114,173.9264 608.0204,177.0004 L551.0204,178.0004 Z" id="Path" fill="#FEFEFE"></path>
                                <path d="M223.0204,24.14 C219.7914,9.352 215.0394,1.343 211.1134,0.326 C197.7944,-3.126 184.2074,25.514 169.8114,20.047 C160.3844,16.467 159.0294,8.171 149.7174,6.652 C136.7404,4.534 125.3064,23.088 118.8334,19.675 C115.0404,17.673 115.6794,13.121 112.8804,12.605 C109.8324,12.043 107.8834,18.559 103.9514,17.814 C100.0324,17.072 99.1854,13.065 94.6484,11.489 C91.8214,10.507 87.1544,16.077 79.0204,26 L223.0204,24.14 Z" id="Fill-144" fill="#E5EEF6"></path>
                            </g>
                            <g id="cloud-group-1" transform="translate(1171.000000, 121.000000)" fill="#FEFEFE">
                                <path d="M141.3553,87.2606 L17.2153,87.2606 L0.0203,86.8416 C0.0203,86.8416 7.1503,79.2926 14.2803,77.1956 C18.9573,75.8196 17.6343,87.2606 28.1133,77.9336 C28.1133,77.9336 33.7163,73.5416 37.0443,73.1106 C41.1213,72.5816 38.8913,80.2486 42.8533,80.3886 C47.7253,80.5606 51.7873,72.8286 57.4773,69.2266 C62.6393,65.9586 66.8833,69.4616 67.2323,73.1106 C67.3823,74.6816 68.3443,76.7716 70.1523,77.3176 C72.3883,77.9936 75.5033,74.3266 78.8423,71.3236 C79.5433,70.6946 92.0653,59.6276 99.2053,62.5206 C104.3203,64.5936 103.5053,70.2576 108.1383,74.8906 C109.4493,76.2006 110.1273,76.6316 110.8913,76.9396 C115.3233,78.7226 119.3013,74.5256 123.3213,73.8406 C126.9433,73.2226 132.6343,75.1086 141.3553,87.2606" id="Path"></path>
                                <path d="M785.0204,72.0678 C777.5064,51.3318 782.8794,32.2248 769.1684,31.4058 C749.7184,30.2438 724.0574,50.9268 709.2094,48.6358 C688.2094,45.3948 707.9164,3.9128 688.5344,0.3918 C667.1374,-3.4942 626.6894,51.5748 596.8724,48.6358 C575.7844,46.5568 591.5574,22.0688 572.0604,22.4458 C552.5964,22.8228 525.5564,47.3668 503.8314,48.6358 C484.2734,49.7778 497.4384,35.0798 474.8844,33.4738 C457.3454,32.2238 418.1354,46.8668 405.2764,70.0008 L785.0204,72.0678 Z" id="Fill-332"></path>
                                <path d="M396.4921,70.1459 C386.1591,61.4559 373.1381,56.2409 365.3041,57.1109 C357.4831,57.9799 354.0071,59.7179 334.0201,71.8839 L396.4921,70.1459 Z" id="Fill-146"></path>
                            </g>
                        </g>
                    </g>
                </g>
            </g>
        </g>
    </g>
</svg>