<?xml version="1.0" encoding="UTF-8"?>
<svg width="1440px" height="868px" viewBox="0 0 1440 868" version="1.1" xmlns="http://www.w3.org/2000/svg" xmlns:xlink="http://www.w3.org/1999/xlink">
    <!-- Generator: Sketch 51.3 (57544) - http://www.bohemiancoding.com/sketch -->
    <title>Group 172</title>
    <desc>Created with Sketch.</desc>
    <defs>
        <polygon id="path-1" points="0 869.39 1447.407 869.39 1447.407 0.39 0 0.39"></polygon>
        <polyline id="path-3" points="0.519 33.574 288.01 71.44 286.972 24.293 2.086 0.906"></polyline>
    </defs>
    <g id="Page-1" stroke="none" stroke-width="1" fill="none" fill-rule="evenodd">
        <g id="Desktop-HD-Copy">
            <g id="Group-172" transform="translate(-4.000000, -2.000000)">
                <g id="Group-27" transform="translate(0.000000, 0.610000)">
                    <path d="M1276.3953,458.0543 L1020.0063,426.2663 C1016.5533,426.2663 1013.7283,423.9463 1013.7283,421.1113 L1013.7283,152.3413 C1013.7283,149.5063 1016.5533,147.1863 1020.0063,147.1863 L1276.3953,123.9903 C1279.8483,123.9903 1282.6733,126.3093 1282.6733,129.1443 L1282.6733,452.9003 C1282.6733,455.7353 1279.8483,458.0543 1276.3953,458.0543" id="Fill-1" fill="#222A33"></path>
                    <mask id="mask-2" fill="white">
                        <use xlink:href="#path-1"></use>
                    </mask>
                    <g id="Clip-4"></g>
                    <polygon id="Fill-3" fill="#4EC2DF" mask="url(#mask-2)" points="4.303 765.196 1446.907 765.196 1446.907 0.89 4.303 0.89"></polygon>
                    <polygon id="Stroke-5" stroke="#989898" mask="url(#mask-2)" points="4.303 765.196 1446.907 765.196 1446.907 0.89 4.303 0.89"></polygon>
                    <path d="M5.22331515,464.2428 C234.989101,354.2088 389.387995,354.1818 489.014154,375.7878 C608.983294,401.8048 631.200025,455.2158 748.754893,461.1928 C915.80787,469.6878 974.717923,367.1058 1137.37236,363.5868 C1209.43282,362.0278 1315.73012,379.6118 1448.6648,476.4438 L1448.6648,613.7028 L1.2578,613.7028 L5.22331515,464.2428 Z" id="Fill-6" fill="#8FD2E8" mask="url(#mask-2)"></path>
                    <path d="M-0.0002,768.4313 L592.4858,765.9543 L579.4858,596.9543 C466.0558,422.1953 223.5278,304.3893 2.5588,233.9703 L-0.0002,768.4313 Z" id="Fill-7" fill="#1E76BC" mask="url(#mask-2)"></path>
                    <path d="M1445.5778,573.89071 C1598.1617,686.398527 1626.27639,763.231624 1529.92188,804.39 C1385.39011,866.127564 894.376114,870.39 751.453125,870.39 C626.63961,870.39 121.265625,854.765 -1.58975863,828.397813 C-124.445142,802.030625 -1.58975863,582.830814 -1.58975863,574.978346 C-1.58975863,574.978346 706.141593,380.197167 1445.5778,573.89071 Z" id="Fill-8" fill="#111820" mask="url(#mask-2)"></path>
                    <path d="M982.8064,65.9718 L858.6664,65.9718 L841.4714,65.5528 C841.4714,65.5528 848.6014,58.0038 855.7314,55.9068 C860.4094,54.5308 859.0864,65.9718 869.5654,56.6448 C869.5654,56.6448 875.1674,52.2528 878.4954,51.8218 C882.5724,51.2928 880.3424,58.9598 884.3044,59.0998 C889.1774,59.2718 893.2394,51.5408 898.9284,47.9378 C904.0904,44.6698 908.3354,48.1728 908.6844,51.8218 C908.8334,53.3938 909.7964,55.4828 911.6034,56.0288 C913.8404,56.7048 916.9544,53.0378 920.2944,50.0348 C920.9944,49.4058 933.5174,38.3388 940.6574,41.2318 C945.7714,43.3048 944.9564,48.9688 949.5904,53.6018 C950.9014,54.9118 951.5784,55.3428 952.3434,55.6508 C956.7744,57.4338 960.7534,53.2368 964.7734,52.5518 C968.3954,51.9338 974.0854,53.8198 982.8064,65.9718" id="Fill-9" fill="#E5EEF6" mask="url(#mask-2)"></path>
                    <path d="M1316.6648,155.1427 C1323.7208,147.1397 1334.3738,137.1327 1337.1758,139.1907 C1339.8288,141.1397 1334.8018,150.1467 1337.1758,151.7247 C1339.2388,153.0957 1343.7658,146.9027 1351.9878,142.6087 C1363.3078,136.6977 1378.3698,136.0887 1381.6138,141.4697 C1383.9618,145.3627 1378.9828,150.5007 1381.6138,154.0037 L1316.6648,155.1427 Z" id="Fill-10" fill="#FEFEFE" mask="url(#mask-2)"></path>
                    <path d="M1110.7498,641.108 L1091.0688,617.367 L1413.29515,550.545 C1413.29515,550.545 1413.5428,560.791 1400.9208,563.265 L1110.7498,641.108" id="Fill-11" fill="#3A4045" mask="url(#mask-2)"></path>
                    <path d="M577.6072,171.192 C617.7692,136.438 631.6072,131.94 636.1682,135.596 C641.6442,139.987 629.7092,143.403 638.4642,152.046 C644.1652,157.674 654.4352,154.171 661.4292,152.046 C681.3232,146.002 687.6862,136.035 697.0252,136.745 C707.0542,137.506 696.6712,148.131 709.6562,152.046 C727.8442,157.531 764.6342,125.872 775.1052,131.004 C781.8772,134.321 778.9972,145.329 787.7362,152.046 C802.5732,163.45 845.6362,127.576 855.4822,136.745 C861.6522,142.489 860.7032,147.486 866.9642,152.046 C872.3052,155.935 870.8692,149.589 886.4852,152.046 C895.8202,153.515 902.3352,166.15 906.0052,171.192 L577.6072,171.192 Z" id="Fill-12" fill="#E5EEF6" mask="url(#mask-2)"></path>
                    <path d="M887.2644,499.316 L647.8844,528.334 C647.8844,535.854 656.2644,543.121 663.7854,543.121 L1110.7494,641.108 C1118.2704,641.108 1124.4234,634.955 1124.4234,627.434 L1412.9234,549.432 L887.2644,499.316 Z" id="Fill-13" fill="#222A33" mask="url(#mask-2)"></path>
                    <polygon id="Fill-14" fill="#656B71" mask="url(#mask-2)" points="1124.7273 627.2662 647.8233 528.2722 976.3593 481.4972 1413.2943 550.5452"></polygon>
                    <polygon id="Fill-15" fill="#CCE0F2" mask="url(#mask-2)" points="1125.5935 618.4801 677.8925 529.3851 974.1315 487.0661 1388.4225 550.5451"></polygon>
                    <polygon id="Fill-16" fill="#111820" mask="url(#mask-2)" points="1062.3601 519.8571 1107.5631 512.4331 997.1481 495.6041 950.0031 502.0391"></polygon>
                    <polygon id="Fill-17" fill="#B4D2EE" mask="url(#mask-2)" points="1190.4343 539.5328 1235.6363 532.1078 1125.2213 515.2788 1078.0763 521.7138"></polygon>
                    <polygon id="Fill-18" fill="#369AD5" mask="url(#mask-2)" points="949.5076 502.5338 1061.8656 519.8568 1099.4836 425.3178 987.7536 413.6668"></polygon>
                    <polygon id="Fill-19" fill="#7FB6E2" mask="url(#mask-2)" points="720.5828 529.0143 912.8798 502.2853 1109.3828 534.4583 915.8498 566.8793"></polygon>
                    <polygon id="Fill-20" fill="#222A33" mask="url(#mask-2)" points="929.9558 570.2203 1119.7768 537.5523 1306.3818 572.0763 1149.7238 612.1693"></polygon>
                    <polygon id="Fill-21" fill="#111820" mask="url(#mask-2)" points="1119.8074 537.4674 1123.7174 606.9704 1150.0784 612.1554 1306.3814 572.0764"></polygon>
                    <path d="M1148.613,611.8297 L1148.236,332.3667 C1148.236,329.8597 1145.129,327.8087 1141.331,327.8087 C1137.533,327.8087 1134.426,329.8597 1134.426,332.3667 L1134.604,609.2237 L1148.613,611.8297 Z" id="Fill-22" fill="#3A4045" mask="url(#mask-2)"></path>
                    <path d="M1148.613,611.8297 L1148.236,332.3667 C1148.236,329.8597 1147.279,328.7447 1143.482,328.7447 L1146.089,329.1787 L1146.089,610.6617 L1148.613,611.8297 Z" id="Fill-23" fill="#656B71" mask="url(#mask-2)"></path>
                    <path d="M1276.9373,424.777 L1266.8473,422.428 L1013.6993,392.272 C1010.1053,392.272 1007.1643,389.952 1007.1643,387.117 L1007.1643,118.347 C1007.1643,115.512 1010.1053,113.193 1013.6993,113.193 L1274.8423,89.681 L1280.5503,89.996 C1284.1453,89.996 1287.0853,92.315 1287.0853,95.151 L1287.0853,418.906 C1287.0853,421.741 1280.5323,424.777 1276.9373,424.777" id="Fill-24" fill="#369AD5" mask="url(#mask-2)"></path>
                    <path d="M1006.41846,392.034043 C1002.78346,392.034043 999.809457,389.715043 999.809457,386.879043 L999.809457,118.110043 C999.809457,115.274043 1002.78346,112.955043 1006.41846,112.955043 L1276.9939,89.6505 C1280.6289,89.6505 1283.6019,91.9695 1283.6019,94.8045 L1283.6019,418.5605 C1283.6019,421.3955 1280.6289,423.7145 1276.9939,423.7145 L1006.41846,392.034043 Z" id="Fill-25" fill="#EE443D" mask="url(#mask-2)"></path>
                    <path d="M1283.3953,385.9215 L1287.0853,384.9425 L1287.2013,419.0845 C1287.2013,419.0845 1286.6243,422.7965 1278.2063,424.6525 L1283.3953,385.9215 Z" id="Fill-26" fill="#CCE0F2" mask="url(#mask-2)"></path>
                </g>
                <g id="Group-30" transform="translate(997.000000, 362.610000)">
                    <mask id="mask-4" fill="white">
                        <use xlink:href="#path-3"></use>
                    </mask>
                    <g id="Clip-29"></g>
                    <path d="M279.8728,62.8453 L9.3618,31.0563 C5.7188,31.0563 2.7368,28.7373 2.7368,25.9023 L2.7368,-242.8677 C2.7368,-245.7027 5.7188,-248.0227 9.3618,-248.0227 L279.8728,-271.2197 C283.5168,-271.2197 286.4978,-268.9007 286.4978,-266.0647 L286.4978,57.6903 C286.4978,60.5253 283.5168,62.8453 279.8728,62.8453" id="Fill-28" fill="#FEFEFE" mask="url(#mask-4)"></path>
                </g>
                <g id="Group-171" transform="translate(999.000000, 119.610000)">
                    <path d="M159.6326,222.173 L30.4456,519.156" id="Fill-31" fill="#222A33"></path>
                    <path d="M154.7126,219.2975 C140.1046,252.8795 125.4966,286.4615 110.8886,320.0435 C87.7756,373.1755 64.6636,426.3075 41.5516,479.4405 C36.2096,491.7195 30.8666,503.9995 25.5256,516.2795 C22.6296,522.9375 32.4436,528.7455 35.3646,522.0305 C49.9726,488.4485 64.5806,454.8665 79.1896,421.2845 C102.3016,368.1525 125.4136,315.0215 148.5256,261.8885 C153.8676,249.6085 159.2096,237.3285 164.5516,225.0485 C167.4476,218.3915 157.6336,212.5825 154.7126,219.2975" id="Fill-33" fill="#BC3939"></path>
                    <path d="M0.8515625,18.0291602 C5.01683437,18.0291602 115.3034,19.8158 149.8374,105.8248 C184.3704,191.8338 196.5744,212.9938 284.1374,267.0838 L0.8515625,243.951523 L0.8515625,18.0291602 Z" id="Fill-35" fill="#D82D27"></path>
                    <path d="M179.6082,232.7145 L156.6252,232.7145 L154.1412,232.7145 C151.9422,232.7145 151.9382,236.1325 154.1412,236.1325 L171.7042,236.1325 L174.1872,236.1325 C176.3872,236.1325 178.2872,232.7145 176.0842,232.7145 L179.6082,232.7145 Z" id="Fill-37" fill="#97999C"></path>
                    <path d="M164.5789,257.109 C158.7429,256.876 152.9059,256.643 147.0689,256.41 C146.2289,256.376 145.3899,256.342 144.5489,256.309 C142.3499,256.221 142.3529,259.64 144.5489,259.728 C150.3859,259.961 156.2229,260.194 162.0579,260.427 C162.8989,260.461 163.7389,260.494 164.5789,260.527 C166.7789,260.615 166.7749,257.197 164.5789,257.109" id="Fill-39" fill="#97999C"></path>
                    <path d="M154.9021,281.7906 C149.0951,281.1566 143.2891,280.5236 137.4811,279.8916 C136.6451,279.7996 135.8091,279.7086 134.9741,279.6176 C134.0541,279.5176 133.2641,280.4746 133.2641,281.3266 C133.2641,282.3336 134.0521,282.9356 134.9741,283.0356 C140.7811,283.6686 146.5881,284.3026 152.3941,284.9356 C153.2301,285.0266 154.0661,285.1176 154.9021,285.2086 C155.8211,285.3096 156.6111,284.3516 156.6111,283.4996 C156.6111,282.4926 155.8241,281.8916 154.9021,281.7906" id="Fill-41" fill="#97999C"></path>
                    <path d="M148.5574,306.4625 L128.2954,303.4805 C127.3364,303.3395 126.3774,303.1975 125.4184,303.0565 C124.4984,302.9215 123.5934,303.2855 123.3174,304.2505 C123.0854,305.0535 123.5984,306.2185 124.5104,306.3535 C131.2644,307.3475 138.0184,308.3415 144.7714,309.3355 C145.7304,309.4775 146.6894,309.6175 147.6484,309.7595 C148.5684,309.8955 149.4744,309.5295 149.7504,308.5655 C149.9814,307.7625 149.4684,306.5975 148.5574,306.4625" id="Fill-43" fill="#97999C"></path>
                    <path d="M137.8162,330.4645 C131.0632,329.4665 124.3102,328.4685 117.5562,327.4695 C116.5982,327.3275 115.6392,327.1865 114.6802,327.0445 C113.7602,326.9085 112.8542,327.2745 112.5782,328.2375 C112.3472,329.0415 112.8602,330.2055 113.7712,330.3405 C120.5252,331.3395 127.2782,332.3375 134.0312,333.3355 C134.9902,333.4775 135.9492,333.6195 136.9082,333.7615 C137.8282,333.8975 138.7332,333.5305 139.0092,332.5675 C139.2412,331.7645 138.7282,330.5995 137.8162,330.4645" id="Fill-45" fill="#97999C"></path>
                    <path d="M127.7371,354.652 C121.0161,353.544 114.2951,352.435 107.5741,351.327 C106.6031,351.168 105.6331,351.007 104.6621,350.847 C102.5091,350.492 101.5841,353.786 103.7531,354.143 C110.4741,355.252 117.1951,356.36 123.9171,357.468 C124.8871,357.629 125.8581,357.789 126.8291,357.948 C128.9801,358.303 129.9061,355.009 127.7371,354.652" id="Fill-47" fill="#97999C"></path>
                    <path d="M116.5544,378.152 L96.2374,375.58 C95.2754,375.459 94.3144,375.337 93.3524,375.215 C92.4284,375.098 91.6524,376.085 91.6434,376.924 C91.6324,377.944 92.4404,378.518 93.3524,378.633 C100.1244,379.491 106.8974,380.347 113.6694,381.205 C114.6314,381.327 115.5934,381.448 116.5544,381.57 C117.4784,381.687 118.2554,380.701 118.2634,379.861 C118.2744,378.841 117.4664,378.267 116.5544,378.152" id="Fill-49" fill="#97999C"></path>
                    <path d="M107.2156,403.069 C100.5286,401.71 93.8416,400.35 87.1546,398.991 C86.2016,398.797 85.2496,398.603 84.2966,398.41 C82.1496,397.973 81.2306,401.267 83.3886,401.706 L103.4476,405.784 C104.4016,405.978 105.3546,406.172 106.3066,406.365 C108.4536,406.801 109.3726,403.507 107.2156,403.069" id="Fill-51" fill="#97999C"></path>
                    <path d="M96.3669,427.0905 L76.3159,422.9655 C75.3639,422.7695 74.4119,422.5725 73.4599,422.3775 C71.3119,421.9355 70.3939,425.2305 72.5509,425.6735 C79.2339,427.0485 85.9179,428.4245 92.6009,429.7995 C93.5539,429.9955 94.5059,430.1915 95.4579,430.3875 C97.6049,430.8285 98.5229,427.5345 96.3669,427.0905" id="Fill-53" fill="#97999C"></path>
                    <path d="M90.6775,451.9449 C82.4245,450.0679 74.1715,448.1919 65.9195,446.3149 L62.3925,445.5119 C60.2495,445.0249 59.3355,448.3199 61.4835,448.8089 C69.7365,450.6849 77.9895,452.5619 86.2405,454.4389 L89.7685,455.2419 C91.9105,455.7279 92.8245,452.4329 90.6775,451.9449" id="Fill-55" fill="#97999C"></path>
                    <path d="M79.7156,474.9928 C71.7216,473.6718 63.7286,472.3488 55.7356,471.0268 C54.5806,470.8368 53.4266,470.6448 52.2716,470.4548 C50.1196,470.0978 49.1946,473.3918 51.3626,473.7508 C59.3566,475.0728 67.3496,476.3938 75.3426,477.7168 C76.4976,477.9078 77.6526,478.0978 78.8066,478.2898 C80.9586,478.6448 81.8836,475.3518 79.7156,474.9928" id="Fill-57" fill="#97999C"></path>
                    <path d="M66.3064,499.1559 C59.6324,497.7339 52.9584,496.3109 46.2854,494.8889 C45.3334,494.6859 44.3834,494.4839 43.4324,494.2809 C41.2864,493.8239 40.3694,497.1189 42.5244,497.5779 C49.1974,498.9999 55.8704,500.4229 62.5444,501.8439 C63.4954,502.0469 64.4474,502.2499 65.3974,502.4519 C67.5424,502.9099 68.4594,499.6149 66.3064,499.1559" id="Fill-59" fill="#97999C"></path>
                    <polygon id="Fill-61" fill="#010202" points="259.8113 140.3883 196.1293 138.3333 198.2753 71.8473 261.9563 73.9023"></polygon>
                    <path d="M199.2244,135.4318 L256.9094,137.2928 L258.8614,76.8038 L201.1764,74.9428 L199.2244,135.4318 Z M262.7114,143.4838 L193.0354,141.2358 L195.3734,68.7518 L265.0504,70.9998 L262.7114,143.4838 Z" id="Fill-63" fill="#EE443D"></path>
                    <path d="M212.6755,82.7443 C212.0105,103.3693 196.6585,119.6103 178.3865,119.0203 C160.1145,118.4313 145.8425,101.2343 146.5075,80.6093 C147.1725,59.9853 162.5245,43.7443 180.7965,44.3333 C199.0685,44.9233 213.3415,62.1203 212.6755,82.7443" id="Fill-65" fill="#010202"></path>
                    <path d="M179.8308,47.318 C172.1798,47.318 164.8938,50.585 159.2288,56.577 C153.2578,62.896 149.8048,71.465 149.5058,80.706 C149.2078,89.947 152.1018,98.721 157.6538,105.412 C163.1188,111.997 170.5168,115.765 178.4828,116.022 C186.4788,116.272 194.0748,112.995 199.9538,106.776 C205.9258,100.458 209.3788,91.889 209.6778,82.648 C209.9758,73.406 207.0818,64.632 201.5288,57.942 C196.0638,51.357 188.6668,47.589 180.6998,47.332 C180.4098,47.323 180.1188,47.318 179.8308,47.318 M179.3608,122.036 C179.0048,122.036 178.6478,122.03 178.2898,122.019 C168.5828,121.706 159.6138,117.169 153.0368,109.244 C146.5468,101.424 143.1638,91.221 143.5098,80.513 C143.8538,69.805 147.8888,59.84 154.8688,52.456 C161.9428,44.972 171.1638,41.032 180.8928,41.335 C190.6008,41.648 199.5688,46.185 206.1458,54.11 C212.6368,61.929 216.0188,72.133 215.6738,82.841 C215.3288,93.549 211.2948,103.513 204.3138,110.898 C197.5008,118.106 188.6758,122.036 179.3608,122.036" id="Fill-67" fill="#EE443D"></path>
                    <polygon id="Fill-69" fill="#010202" points="177.0037 81.5934 205.7727 7.7574 242.0947 81.9074"></polygon>
                    <path d="M181.3835,78.6144 L237.2735,78.8844 L206.0855,15.2164 L181.3835,78.6144 Z M246.9155,84.9304 L172.6235,84.5724 L205.4585,0.2974 L246.9155,84.9304 Z" id="Fill-71" fill="#EE443D"></path>
                    <path d="M38.5994,139.9161 C38.5994,139.9161 25.6094,141.0891 32.6234,170.9041 C39.6374,200.7181 87.5674,202.3741 87.5674,202.3741 C87.5674,202.3741 141.2074,208.0821 162.3834,222.2501 C183.8374,236.6051 206.0204,232.9751 217.1994,230.2561 C225.7114,228.1861 236.2564,222.9401 240.6954,217.4191 C245.5794,211.3421 242.6584,191.3321 208.7564,171.4561 C174.8564,151.5801 125.4264,110.9241 123.0884,91.0471 C120.7494,71.1711 79.5154,206.1701 38.5994,139.9161" id="Fill-73" fill="#9B2221"></path>
                    <path d="M38.0564,139.8077 C38.0564,139.8077 26.3414,142.4137 33.0524,165.8707 C39.7624,189.3277 85.6184,190.6307 85.6184,190.6307 C85.6184,190.6307 136.9384,195.1217 157.1974,206.2687 C177.7224,217.5627 198.9454,214.7067 209.6404,212.5677 C217.7854,210.9387 227.8734,206.8117 232.1194,202.4687 C236.7934,197.6867 233.9974,181.9437 201.5644,166.3057 C169.1294,150.6677 123.6444,113.7447 121.4084,98.1067 C119.1704,82.4687 77.2024,191.9337 38.0564,139.8077" id="Fill-75" fill="#FEFEFE"></path>
                    <path d="M56.7996,80.2965 C56.7996,80.2965 30.8786,128.5135 37.3596,151.9705 C43.8396,175.4275 88.1196,176.7305 88.1196,176.7305 C88.1196,176.7305 137.6776,181.2215 157.2406,192.3685 C177.0616,203.6625 197.4866,200.2965 208.0116,199.8615 C214.1056,199.6105 225.0976,196.8205 229.1976,192.4775 C233.7106,187.6955 231.4036,168.0435 200.0836,152.4045 C168.7636,136.7665 124.8406,99.8435 122.6806,84.2065 C120.5206,68.5675 94.5996,132.4225 56.7996,80.2965" id="Fill-77" fill="#010202"></path>
                    <path d="M186.7322,221.0592 L60.8852,527.3232" id="Fill-79" fill="#222A33"></path>
                    <path d="M181.238,219.5446 C167.079,254.0026 152.921,288.4606 138.761,322.9176 C116.176,377.8796 93.592,432.8416 71.009,487.8026 C65.802,500.4716 60.597,513.1396 55.391,525.8086 C52.607,532.5856 63.626,535.5376 66.38,528.8376 C80.539,494.3796 94.698,459.9216 108.856,425.4636 C131.441,370.5026 154.025,315.5406 176.609,260.5786 C181.815,247.9106 187.02,235.2426 192.226,222.5736 C195.01,215.7966 183.992,212.8436 181.238,219.5446" id="Fill-81" fill="#EE4742"></path>
                    <g id="Group-86" transform="translate(145.000000, 228.000000)">
                        <path d="M39.4792,0.1124 L0.1282,95.8894" id="Fill-83" fill="#222A33"></path>
                        <path d="M39.4792,0.1124 L0.1282,95.8894" id="Stroke-85" stroke="#BC3939" stroke-width="3"></path>
                    </g>
                    <polygon id="Fill-87" fill="#EE443D" points="72.8738 143.839 60.6748 139.855 64.8338 127.117 77.0338 131.102"></polygon>
                    <path d="M61.6609,139.3541 L72.3729,142.8521 L76.0479,131.6031 L65.3349,128.1041 L61.6609,139.3541 Z M73.3759,144.8261 L59.6869,140.3561 L64.3329,126.1301 L78.0199,130.6011 L73.3759,144.8261 Z" id="Fill-89" fill="#010202"></path>
                    <path d="M67.0056,130.0363 C65.7146,133.9873 61.8306,136.2643 58.3306,135.1203 C54.8296,133.9773 53.0386,129.8473 54.3286,125.8963 C55.6186,121.9453 59.5026,119.6683 63.0036,120.8123 C66.5036,121.9553 68.2956,126.0853 67.0056,130.0363" id="Fill-91" fill="#EE443D"></path>
                    <path d="M61.1492,121.2999 C58.5562,121.2999 56.0282,123.2129 55.0722,126.1389 C53.9182,129.6739 55.4892,133.3689 58.5742,134.3769 C61.6572,135.3859 65.1072,133.3279 66.2622,129.7929 C67.4162,126.2579 65.8442,122.5629 62.7602,121.5559 C62.2302,121.3829 61.6882,121.2999 61.1492,121.2999 M60.1782,136.1969 C59.4802,136.1969 58.7782,136.0899 58.0872,135.8639 C54.1822,134.5889 52.1632,130.0079 53.5852,125.6529 C55.0062,121.2989 59.3352,118.7929 63.2472,120.0679 C67.1512,121.3429 69.1712,125.9239 67.7492,130.2789 C66.5782,133.8639 63.4322,136.1969 60.1782,136.1969" id="Fill-93" fill="#010202"></path>
                    <polygon id="Fill-95" fill="#EE443D" points="60.1716 127.8043 69.8946 115.1453 72.7416 131.5313"></polygon>
                    <path d="M61.4861,127.3781 L71.7551,130.4221 L69.4281,117.0361 L61.4861,127.3781 Z M73.7291,132.6401 L58.8571,128.2311 L70.3591,113.2541 L73.7291,132.6401 Z" id="Fill-97" fill="#010202"></path>
                    <g id="Group-102" transform="translate(63.000000, 426.000000)">
                        <path d="M39.8083,0.3483 L0.4583,96.1253" id="Fill-99" fill="#222A33"></path>
                        <path d="M39.8083,0.3483 L0.4583,96.1253" id="Stroke-101" stroke="#BC3939" stroke-width="3"></path>
                    </g>
                    <path d="M153.8259,156.3839 C153.8259,156.3839 158.2109,153.2849 158.7549,152.9629 C160.7159,151.8009 162.1539,155.6589 160.1929,158.5519 C158.2329,161.4459 154.2699,160.1669 154.2699,160.1669 L153.8259,156.3839 Z" id="Fill-103" fill="#D4992B"></path>
                    <path d="M160.4685,153.2545 C160.4685,153.2545 160.9325,155.6025 160.5965,156.6155 C160.0405,158.2925 159.3835,159.1945 156.6205,159.8035 C156.0515,159.9285 154.3125,160.1415 154.3125,160.1415 L153.8945,156.3485 C153.8945,156.3485 155.8355,154.9065 157.3375,153.9145 C158.7355,152.9915 159.3915,152.1765 160.4685,153.2545" id="Fill-105" fill="#C0872B"></path>
                    <path d="M156.8738,158.9259 C156.8738,158.9259 155.9118,155.8619 153.3648,156.8849 C153.3648,156.8849 144.0828,163.8999 142.8638,164.8819 C141.6448,165.8639 134.7788,170.1639 133.1188,172.0829 C131.4028,174.0659 132.0288,176.5349 132.5558,177.4419 C132.9778,178.1699 137.3718,178.9839 138.8118,177.7159 C140.2498,176.4479 156.8738,158.9259 156.8738,158.9259" id="Fill-107" fill="#F1F1F1"></path>
                    <path d="M156.8865,158.9293 L144.5665,171.7583 L138.8105,172.1893 L156.4325,158.0033 C156.4325,158.0033 156.6395,158.3533 156.6995,158.4773 C156.7525,158.5853 156.8865,158.9293 156.8865,158.9293" id="Fill-109" fill="#C9C9CB"></path>
                    <path d="M157.7087,170.7672 C158.5007,167.9792 159.2937,165.1912 160.0867,162.4032 C161.9907,155.7082 163.8957,149.0132 165.7997,142.3182 C168.1037,134.2192 170.4067,126.1192 172.7097,118.0202 C174.7007,111.0192 176.6917,104.0192 178.6837,97.0192 C179.6477,93.6262 180.6677,90.2432 181.5797,86.8352 C181.5927,86.7842 181.6077,86.7332 181.6227,86.6832 C182.1467,84.8372 179.3497,83.7512 178.8207,85.6082 C178.0277,88.3962 177.2347,91.1842 176.4417,93.9722 C174.5377,100.6672 172.6337,107.3622 170.7297,114.0582 C168.4267,122.1572 166.1227,130.2562 163.8187,138.3552 C161.8277,145.3552 159.8377,152.3562 157.8467,159.3562 C156.8817,162.7492 155.8607,166.1322 154.9497,169.5402 C154.9367,169.5912 154.9207,169.6422 154.9057,169.6922 C154.3817,171.5382 157.1807,172.6242 157.7087,170.7672" id="Fill-111" fill="#956A28"></path>
                    <path d="M168.2644,82.9708 C177.7534,83.4848 187.2434,83.9998 196.7324,84.5138 C198.0674,84.5858 199.4014,84.6578 200.7354,84.7308 C202.3544,84.8188 203.7354,83.2888 203.7354,81.7308 C203.7354,80.0328 202.3594,78.8188 200.7354,78.7308 C191.2454,78.2168 181.7564,77.7018 172.2674,77.1878 C170.9334,77.1158 169.5994,77.0428 168.2644,76.9708 C166.6454,76.8828 165.2644,78.4118 165.2644,79.9708 C165.2644,81.6678 166.6404,82.8828 168.2644,82.9708" id="Fill-113" fill="#FEFEFE"></path>
                    <path d="M201.3904,80.7867 C200.5584,82.1257 199.7254,83.4657 198.8934,84.8047 C199.1094,84.6807 199.3254,84.5577 199.5404,84.4327 C189.8354,83.8627 180.1314,83.2917 170.4274,82.7207 C169.0544,82.6407 167.6824,82.5587 166.3104,82.4787 C165.3454,82.4217 165.3484,83.9217 166.3104,83.9787 C176.0144,84.5497 185.7184,85.1197 195.4234,85.6907 C196.7954,85.7717 198.1674,85.8527 199.5404,85.9327 C199.8054,85.9487 200.0534,85.7777 200.1884,85.5617 C201.0204,84.2227 201.8534,82.8827 202.6864,81.5437 C203.1974,80.7217 201.9004,79.9677 201.3904,80.7867" id="Fill-115" fill="#D4992B"></path>
                    <path d="M182.0134,86.2745 L178.2644,86.0415 C177.5484,85.9975 176.9994,85.3755 177.0444,84.6605 C177.0884,83.9445 177.7104,83.3965 178.4254,83.4405 L182.1754,83.6735 C182.8904,83.7175 183.4394,84.3395 183.3954,85.0545 C183.3504,85.7705 182.7294,86.3185 182.0134,86.2745" id="Fill-117" fill="#D4992B"></path>
                    <path d="M160.3513,160.7799 C160.3513,160.7799 159.9203,155.4279 159.9203,154.7959 C159.9203,152.5159 163.9723,153.2459 165.4623,156.4069 C166.9533,159.5679 163.8323,162.3259 163.8323,162.3259 L160.3513,160.7799 Z" id="Fill-119" fill="#D4992B"></path>
                    <path d="M161.0447,153.4703 C161.0447,153.4703 163.3017,154.2673 164.0017,155.0733 C165.1607,156.4063 165.6027,157.4303 164.7187,160.1173 C164.5357,160.6723 163.8327,162.2773 163.8327,162.2773 L160.3567,160.7023 C160.3567,160.7023 160.1057,158.2983 160.0177,156.4993 C159.9357,154.8263 159.5687,153.8473 161.0447,153.4703" id="Fill-121" fill="#C0872B"></path>
                    <path d="M160.5017,160.8668 C160.5017,160.8668 163.6007,160.0238 164.1127,162.7198 C164.1127,162.7198 163.2157,174.3198 163.0457,175.8758 C162.8757,177.4318 162.9607,185.5338 162.2407,187.9658 C161.4967,190.4798 159.0807,191.2858 158.0337,191.3318 C157.1907,191.3688 154.1367,188.1078 154.4277,186.2128 C154.7177,184.3168 160.5017,160.8668 160.5017,160.8668" id="Fill-123" fill="#F1F1F1"></path>
                    <path d="M160.4919,160.8575 L156.3389,178.1525 L159.0809,183.2315 L161.5159,160.7395 C161.5159,160.7395 161.1099,160.7555 160.9729,160.7715 C160.8529,160.7845 160.4919,160.8575 160.4919,160.8575" id="Fill-125" fill="#C9C9CB"></path>
                    <path d="M126.5564,276.6158 L126.2314,279.5438 L125.8344,283.1098 C125.8344,283.1098 127.1814,283.7868 127.8684,283.8318 C128.4354,283.8688 130.0984,283.4378 130.0984,283.4378 C130.0984,283.4378 130.9204,280.5288 131.1954,279.5588 L131.8044,277.4028 L126.5564,276.6158 Z" id="Fill-127" fill="#D4992B"></path>
                    <path d="M126.614,224.9908 L150.664,224.1848 C150.664,224.1848 154.148,224.6818 159.685,234.5048 C165.129,244.1588 163.378,245.3638 159.685,253.1828 C158.943,254.7538 149.694,278.3778 149.694,278.3778 L143.396,278.3778 L148.608,252.7488 L140.157,246.7368 C140.157,246.7368 140.87,266.8718 138.019,277.3428 C135.168,287.8118 134.491,303.1368 134.491,303.1368 L127.758,302.9208 C127.758,302.9208 128.753,256.4018 123.5,235.5748 C121.517,227.7148 126.614,224.9908 126.614,224.9908" id="Fill-129" fill="#1E76BC"></path>
                    <path d="M125.1228,187.3243 C123.5118,180.9153 115.6688,174.2813 119.6958,166.9573 C123.7238,159.6333 128.3448,159.9403 128.3448,159.9403 C129.1488,160.8563 134.7878,157.5243 138.8138,159.9403 C142.3548,162.0653 148.6898,161.4643 149.4958,165.1263 C150.3018,168.7883 147.8858,178.8583 148.6898,181.6053 C149.4958,184.3513 149.4958,193.5063 151.9118,197.1683 C154.3278,200.8303 162.7268,261.8703 162.7268,261.8703 L153.8018,262.1303 C153.8018,262.1303 125.0258,214.9873 123.6268,214.9873 C123.6268,214.9873 126.8148,196.8553 125.1228,187.3243" id="Fill-131" fill="#F1F1F1"></path>
                    <path d="M140.7537,160.6183 C140.7537,160.6183 137.0397,168.2743 143.9187,174.4253 C150.7977,180.5753 155.5687,191.3413 157.5237,190.3463 L159.4787,189.3513 C159.6157,184.7963 161.5937,183.1543 157.6157,179.7443 C153.8937,176.5533 151.1087,166.4173 148.3437,162.3783 C147.6657,161.3883 146.9887,160.7643 146.2997,160.6993 C142.7997,160.3683 143.9817,158.7123 140.7537,160.6183" id="Fill-133" fill="#F1F1F1"></path>
                    <path d="M127.5388,140.6105 C127.5388,140.6105 134.7878,134.9725 138.8138,143.0275 C142.8418,151.0805 142.0358,155.1085 140.4258,156.7185 C138.8138,158.3295 133.9818,158.3295 133.9818,158.3295 C133.9818,158.3295 129.9548,157.5245 126.7328,155.1085 C125.2928,154.0275 121.0958,146.2485 127.5388,140.6105" id="Fill-135" fill="#D4992B"></path>
                    <path d="M136.1814,139.8053 L138.2784,144.2203 L140.1154,148.1553 C140.1154,148.1553 141.8194,152.6913 140.2074,155.9133 C139.7234,156.8823 138.3644,156.7583 136.7004,156.1113 C132.8324,154.6063 127.3224,150.2753 127.3224,150.2753 L136.1814,139.8053 Z" id="Fill-137" fill="#C0872B"></path>
                    <path d="M149.3191,180.5138 L154.1171,188.1298 L156.0091,190.6528 C156.3641,191.1258 156.9091,191.4178 157.5001,191.4368 C158.8651,191.4788 161.3661,190.5458 160.5601,188.9348 C160.5601,188.9338 159.8791,187.9808 159.8791,187.9798 C159.8621,187.9568 156.5491,183.3198 156.5331,183.2968 C153.5801,176.8538 150.6271,170.4108 147.6731,163.9678 C147.6731,163.9678 146.8081,162.4468 145.2571,160.7458 C143.5211,158.8418 126.2941,159.9818 126.2941,159.9818 C126.2941,159.9818 122.7071,161.5518 119.4851,167.1888 C116.2631,172.8268 122.6211,181.7608 122.6211,181.7608 C122.6211,181.7608 126.7331,187.3408 124.7191,196.1918 C121.1331,205.2788 121.3081,207.3438 121.3081,207.3438 C121.3081,207.3438 116.0171,258.2818 123.7141,259.3318 L146.8041,261.7808 C146.8041,261.7808 156.0401,262.4798 157.6501,262.4798 C159.2611,262.4798 150.8951,205.0428 149.2851,201.0158 C147.6731,196.9888 142.0361,188.9348 142.0361,188.9348 C142.0361,188.9348 141.2301,185.7138 145.2571,188.1298 C149.2851,190.5458 146.8691,184.9078 146.8691,184.9078 L140.4251,176.8538 C140.4251,176.8538 139.8281,173.7188 142.1391,174.4808 C143.9651,175.0828 145.8571,178.2228 146.5711,177.9308 C146.7261,177.8668 146.8781,177.6288 146.8691,176.8538" id="Fill-139" fill="#C9C9CB"></path>
                    <path d="M115.6492,150.9933 C112.7532,147.3733 114.0942,142.8513 115.3782,140.2423 C117.4982,135.9333 123.5872,135.3123 125.3082,134.9723 C132.0212,133.6473 138.5812,137.5003 138.9432,140.8933 C139.1892,143.1863 136.7462,143.5983 134.0562,143.9893 C123.8152,145.4753 131.4502,150.9933 131.4502,150.9933 C131.4502,150.9933 135.3022,156.1703 125.7492,159.3013 C125.7492,159.3013 123.4682,160.7663 115.6492,150.9933" id="Fill-141" fill="#111820"></path>
                    <path d="M128.0876,144.403 C128.0876,144.403 134.3846,137.056 139.1086,135.744 C143.8306,134.432 145.1426,136.531 145.1426,136.531 C145.1426,136.531 144.5566,139.814 138.8146,143.027 C133.0726,146.24 128.0876,144.403 128.0876,144.403" id="Fill-143" fill="#BC3939"></path>
                    <path d="M116.0818,139.213 C118.4018,134.991 122.6878,133.993 124.1408,133.655 C130.8848,132.086 138.8318,135.847 139.2508,140.14 C139.3548,141.211 138.9778,142.19 137.1198,144.441 C136.6068,145.062 135.9808,145.78 135.2218,146.624 C127.4808,155.217 123.6108,159.514 120.8628,158.685 C116.0398,157.23 112.3118,146.071 116.0818,139.213" id="Fill-145" fill="#D82D27"></path>
                    <path d="M135.2214,146.6237 C134.4214,147.7357 132.4904,149.7817 129.5024,153.0297 C126.7734,155.9967 124.4574,160.0627 120.8634,158.6857 C114.8824,156.3927 112.8394,145.3847 115.9574,139.1837 C118.2074,134.7077 123.8704,133.6447 124.1404,133.6557 C125.7294,133.7177 119.7054,141.1607 121.5894,144.7217 C122.2664,146.0017 123.6044,146.3757 125.3674,146.8397 C130.9914,148.3177 135.8674,145.7257 135.2214,146.6237" id="Fill-147" fill="#993131"></path>
                    <path d="M136.2507,303.9479 C133.0107,303.7629 133.3197,302.7669 133.3197,302.7669 L129.0567,302.4389 C129.0567,302.4389 127.2517,306.4059 127.4167,307.7969 C127.5977,309.3239 129.2097,310.6829 131.3087,309.5029 C131.8987,309.1699 132.1397,308.6719 132.1397,308.6719 C132.1397,308.6719 134.4957,308.5299 135.0917,308.3979 C137.9747,307.7609 139.5297,306.6159 139.6617,305.3909 C139.8127,303.9859 137.7807,304.0359 136.2507,303.9479" id="Fill-149" fill="#D82D27"></path>
                    <path d="M151.2273,279.4235 C147.9963,279.1135 148.1223,278.2425 148.1223,278.2425 L144.0333,277.9145 C144.0333,277.9145 142.2283,281.8805 142.3933,283.2725 C142.5743,284.7985 142.9333,286.4085 146.2853,284.9775 C146.8373,284.7415 146.8753,284.0155 146.8753,284.0155 C146.8753,284.0155 149.4953,283.9995 150.2113,283.8415 C153.0323,283.2205 154.0033,282.0795 154.1573,280.6045 C154.3023,279.1985 152.2543,279.5225 151.2273,279.4235" id="Fill-151" fill="#D82D27"></path>
                    <path d="M142.8533,159.9523 C142.8533,159.9523 141.2913,157.2413 140.4253,156.7193 C138.3563,155.4713 133.1933,155.5623 130.7983,155.8803 C128.5633,156.1763 123.7053,157.1903 122.3283,158.9753 C121.7223,159.7593 121.1673,162.0343 121.6763,162.8843 C122.3123,163.9483 126.0753,165.1653 126.0753,165.1653 L142.8533,159.9523 Z" id="Fill-153" fill="#C9C9CB"></path>
                    <path d="M20.9617,250.2369 C18.9947,250.2099 17.3847,251.3729 17.3427,254.4649 L17.3197,254.4649 C17.3617,251.3729 15.7837,250.1659 13.8177,250.1389 C11.8517,250.1119 10.2237,252.5969 10.1817,255.6899 C10.1597,257.2429 10.5427,258.6529 11.1787,259.6759 L17.0987,270.7479 L17.0977,270.7899 L17.1087,270.7689 L17.1197,270.7899 L17.1207,270.7489 L23.3397,259.8409 C24.0027,258.8359 24.4247,257.4369 24.4447,255.8839 C24.4877,252.7919 22.9277,250.2629 20.9617,250.2369" id="Fill-155" fill="#EE443D"></path>
                    <path d="M50.5457,262.3356 C50.5457,264.5846 50.0037,266.6646 49.0817,268.3676 C48.7207,269.0336 51.1757,272.6536 50.7087,273.1916 C50.2987,273.6646 46.9777,271.0716 46.4997,271.4276 C45.3237,272.3026 43.9627,272.7986 42.5147,272.7886 C38.1217,272.7616 34.5817,268.0946 34.5817,262.3636 C34.5817,256.6336 38.1217,251.9536 42.5147,251.9106 C46.9377,251.8676 50.5457,256.5346 50.5457,262.3356 Z" id="Stroke-157" stroke="#989898"></path>
                    <path d="M40.1238,262.4259 C40.0728,263.2649 39.5938,263.9199 39.0548,263.8869 C38.5168,263.8539 38.1218,263.1479 38.1728,262.3099 C38.2248,261.4709 38.7018,260.8169 39.2408,260.8479 C39.7798,260.8799 40.1758,261.5859 40.1238,262.4259" id="Fill-159" fill="#7D8286"></path>
                    <path d="M43.2673,262.6183 C43.2163,263.4583 42.7373,264.1123 42.1983,264.0793 C41.6603,264.0463 41.2653,263.3403 41.3163,262.5023 C41.3683,261.6633 41.8453,261.0093 42.3843,261.0413 C42.9233,261.0723 43.3193,261.7783 43.2673,262.6183" id="Fill-161" fill="#7D8286"></path>
                    <path d="M46.4109,262.8107 C46.3599,263.6507 45.8809,264.3047 45.3419,264.2717 C44.8039,264.2387 44.4089,263.5327 44.4599,262.6947 C44.5119,261.8557 44.9889,261.2027 45.5279,261.2337 C46.0669,261.2647 46.4629,261.9717 46.4109,262.8107" id="Fill-163" fill="#7D8286"></path>
                    <polygon id="Stroke-165" stroke="#989898" points="62.9255 263.2672 82.2655 256.3872 73.5255 277.4002 69.7265 267.8432"></polygon>
                    <path d="M82.4509,256.3868 L69.7259,267.8438" id="Stroke-167" stroke="#989898"></path>
                    <polygon id="Stroke-169" stroke="#989898" points="253.2986 271.6393 269.9116 272.7773 269.7696 296.1113 261.2316 286.8653 253.1556 293.9723"></polygon>
                </g>
            </g>
        </g>
    </g>
</svg>