<?xml version="1.0" encoding="UTF-8"?>
<svg width="1440px" height="869px" viewBox="0 0 1440 869" version="1.1" xmlns="http://www.w3.org/2000/svg" xmlns:xlink="http://www.w3.org/1999/xlink">
    <!-- Generator: Sketch 51.3 (57544) - http://www.bohemiancoding.com/sketch -->
    <title>Group 113</title>
    <desc>Created with Sketch.</desc>
    <defs></defs>
    <g id="Page-1" stroke="none" stroke-width="1" fill="none" fill-rule="evenodd">
        <g id="Desktop-HD-Copy-3">
            <g id="Group-113" transform="translate(-113.000000, -101.000000)">
                <polygon id="Fill-1" fill="#1D8FCE" points="113 857.308 1555.604 857.308 1555.604 86.781 113 86.781"></polygon>
                <g id="Group-30" transform="translate(0.000000, 0.510000)">
                    <path d="M1283.71769,488.721489 C1284.00614,489.14542 1284.29707,489.659232 1284.5906,490.249087 C1287.9876,497.083654 1291.0886,514.288014 1295.4726,520.199045 C1295.5306,519.579357 1295.5986,519.112591 1295.6766,518.840727 C1295.6766,518.840727 1293.3356,514.29501 1291.7386,508.533904 C1290.8636,505.65335 1290.2856,502.712827 1290.2966,499.691345 C1290.2426,497.463464 1290.5056,495.095653 1290.7136,493.024693 C1290.9026,491.128645 1291.3926,482.986734 1295.9706,482.270094 C1308.1726,469.223646 1293.4546,456.899835 1297.1646,447.610501 C1299.7746,441.076782 1305.4956,439.062794 1306.2926,438.798926 C1314.1026,436.207228 1319.9656,444.790917 1321.1426,450.664967 C1321.4446,452.167212 1325.5726,467.260632 1322.5946,471.573466 C1319.9226,475.445521 1318.1286,473.73538 1320.9926,480.60593 C1321.3546,480.719873 1321.7786,480.813825 1322.2866,480.868798 C1323.1006,480.955754 1323.9316,482.028215 1324.7856,483.744354 C1326.2366,486.663887 1327.6336,491.47747 1329.0996,496.493951 C1330.4016,489.053687 1328.0426,477.186647 1330.7286,471.3076 L1334.5246,467.951285 C1338.3276,463.113715 1342.5906,460.699927 1339.7106,456.807882 C1336.5036,452.472059 1334.9566,435.989337 1335.2156,434.434118 C1336.2296,428.354172 1340.2326,420.284225 1348.3526,422.686018 C1349.1806,422.930895 1356.5106,422.964878 1359.4156,429.596548 C1363.5436,439.025812 1343.7716,451.970311 1367.3666,464.150194 C1370.2786,464.509014 1371.7246,468.858829 1372.4676,472.604948 C1372.7856,464.054242 1361.5906,455.950312 1364.1566,449.52354 C1366.7666,442.989821 1372.4876,440.975833 1373.2856,440.711965 C1381.0956,438.120267 1386.9576,446.703956 1388.1346,452.578006 C1388.4366,454.080252 1392.5646,469.173671 1389.5876,473.486505 C1386.9146,477.358561 1385.1206,475.64842 1387.9846,482.518969 C1388.3476,482.632912 1388.7716,482.726865 1389.2796,482.781837 C1390.0926,482.868793 1390.9246,483.941255 1391.7776,485.658392 C1393.2276,488.573928 1394.6246,493.381514 1396.0886,498.393996 C1396.3886,491.172623 1395.0786,481.991234 1397.3386,477.045718 L1401.1336,473.690403 C1404.9366,468.852832 1409.1996,466.440044 1406.3196,462.546999 C1403.1126,458.211177 1401.5656,441.728455 1401.8256,440.173236 C1402.8396,434.093289 1406.8416,426.023342 1414.9626,428.425136 C1415.7916,428.670013 1423.1216,428.703996 1426.0246,435.335665 C1429.6266,443.560535 1415.0466,454.460061 1426.9206,465.192671 C1426.1546,460.299128 1425.8276,455.73642 1425.9586,454.952813 C1426.9716,448.872867 1430.9746,439.272688 1439.0946,441.674482 C1439.9236,441.919359 1447.2536,443.483573 1450.1576,450.115243 C1453.7136,458.238163 1446.3436,465.978276 1453.4506,478.329073 C1456.0506,471.956274 1461.6036,469.936288 1462.4946,469.637438 C1466.1576,465.200667 1469.9426,462.828858 1467.1866,459.103729 C1463.9796,454.767906 1462.4336,438.285184 1462.6926,436.729965 C1463.7076,430.650019 1467.7096,422.580072 1475.8296,424.981865 C1476.6586,425.226742 1483.9886,425.260725 1486.8916,431.892395 C1490.6566,440.490077 1474.5566,452.009292 1489.5726,463.207668 C1487.3286,459.582488 1485.5036,456.198188 1486.7076,453.183702 C1489.3166,446.649983 1495.0386,444.635995 1495.8356,444.372127 C1503.6456,441.781428 1509.5086,450.364118 1510.6856,456.238168 C1510.8246,456.92982 1511.7746,460.508023 1512.4686,464.586975 C1527.6986,452.861863 1506.2206,441.172734 1509.6756,432.521079 C1512.2856,425.98836 1518.0076,423.974371 1518.8036,423.710504 C1526.6146,421.119805 1532.4766,429.703494 1533.6546,435.576544 C1533.8266,436.436113 1535.2536,441.753442 1535.8826,446.950832 C1536.8806,446.419099 1537.6406,446.153233 1537.8946,446.068275 C1545.7066,443.477576 1551.5676,452.061266 1552.7456,457.934316 C1553.0476,459.436561 1557.1746,474.530981 1554.1976,478.842815 C1551.5246,482.714871 1549.7306,481.00473 1552.5946,487.875279 C1552.9576,487.990221 1553.3826,488.083175 1553.8886,488.138147 C1554.1146,488.162135 1554.3406,488.268082 1554.5676,488.435997 C1575.1056,478.009234 1560.3676,466.799863 1564.0476,459.195682 C1566.6916,453.729428 1572.4236,452.019287 1573.2206,451.7944 C1575.3036,451.206695 1577.0336,451.286655 1578.4756,451.804395 C1578.1076,450.42009 1578.0776,449.090757 1578.5826,447.826392 C1581.1926,441.292674 1586.9136,439.279685 1587.7106,439.015817 C1589.8316,438.311171 1591.8066,438.436108 1593.5856,439.102774 C1593.6896,439.064793 1593.7786,439.033808 1593.8356,439.015817 C1601.6466,436.424119 1607.5076,445.007808 1608.6856,450.881858 C1608.9866,452.383104 1613.1156,467.477523 1610.1376,471.790357 C1607.4656,475.662413 1605.6716,473.951272 1608.5356,480.822821 C1608.8976,480.936764 1609.3226,481.029717 1609.8306,481.084689 C1610.6436,481.172645 1611.4746,482.244107 1612.3286,483.961245 C1612.9236,485.158643 1613.5086,486.67788 1614.0936,488.395018 C1614.2966,486.800819 1614.6316,485.36354 1615.1746,484.173138 L1618.9696,480.817823 C1622.7726,475.980253 1627.0356,473.566465 1624.1556,469.67342 C1620.9486,465.338597 1619.4026,448.855875 1619.6616,447.300656 C1620.6756,441.22071 1624.6776,431.620531 1632.7996,434.022325 C1633.6276,434.267202 1640.9576,435.830417 1643.8616,442.463086 C1647.9896,451.89235 1637.3916,460.805874 1651.8126,477.016732 C1656.5446,477.59944 1657.4086,488.721854 1657.6686,490.664878 C1657.9516,492.787812 1658.3006,495.214593 1658.3206,497.507442 C1658.4336,500.614881 1657.9366,503.659352 1657.1346,506.64985 C1655.6856,512.629847 1653.4306,517.383459 1653.4306,517.383459 C1654.7026,521.297494 1655.0176,563.73718 1655.0176,563.73718 C1655.0176,563.73718 1655.9396,567.18145 1654.2796,567.146467 C1654.3476,569.23142 1652.6206,567.73817 1652.1586,570.482792 L1649.8246,572.037011 L1646.8016,572.822617 L1649.6416,789.638727 L852.6236,792.922078 C848.888276,787.088551 854.027644,779.5948 865.022042,771.25081 L479.7759,772.837365 C461.3999,744.141777 657.7839,675.269366 709.4639,662.642707 C761.1439,650.017048 936.6099,624.523851 808.2299,571.961249 C705.2879,529.814416 825.3719,535.763429 831.1989,523.751461 C835.5799,514.716999 848.7809,498.867958 851.8699,489.314756 C854.1629,482.226316 853.2719,464.008465 859.9099,460.618168 C867.9339,456.520226 879.3799,464.286326 884.1269,467.990466 C904.5319,455.638669 880.4799,443.147942 884.1209,434.030521 C886.7309,427.496802 892.4509,425.483813 893.2489,425.219946 C901.0599,422.629247 906.9209,431.212936 908.0989,437.085986 C908.4009,438.588232 912.5289,453.681652 909.5519,457.994486 C906.8779,461.866541 905.0839,460.1564 907.9489,467.026949 C908.3119,467.140892 908.7359,467.234845 909.2429,467.288818 C910.0569,467.376774 910.8879,468.449235 911.7429,470.166373 C915.1389,476.999941 918.2409,494.2043 922.6239,500.115332 C922.6829,499.495643 922.7499,499.029877 922.8289,498.758013 C922.8289,498.758013 920.4879,494.211297 918.8899,488.45019 C918.0159,485.569637 917.4369,482.630113 917.4489,479.607631 C917.3939,477.37975 917.6579,475.011939 917.8649,472.940979 C918.0549,471.044932 918.5449,462.903021 923.1219,462.18638 C935.3249,449.139933 920.6059,436.816122 924.3169,427.526787 C926.9259,420.993069 932.6479,418.97908 933.4449,418.715213 C941.2549,416.124514 947.1179,424.708203 948.2949,430.581253 C948.5959,432.083499 952.7239,447.176919 949.7469,451.489753 C947.0739,455.361808 945.2799,453.651667 948.1439,460.522216 C948.5069,460.636159 948.9309,460.730112 949.4389,460.785084 C950.2519,460.872041 951.0829,461.944502 951.9379,463.66164 C953.3889,466.580174 954.7849,471.393756 956.2519,476.410237 C957.5529,468.969974 955.1939,457.102933 957.8799,451.223886 L961.6759,447.867572 C965.4789,443.030001 969.7419,440.616213 966.8619,436.724168 C963.6549,432.388346 962.1089,415.905624 962.3679,414.351404 C963.3809,408.270458 967.3839,400.200511 975.5039,402.602305 C976.3329,402.848181 983.6629,402.881165 986.5669,409.513834 C990.6959,418.942099 970.9239,431.886598 994.5189,444.066481 C997.4309,444.4253 998.8759,448.775116 999.6189,452.521235 C999.9379,443.971528 988.7419,435.866599 991.3089,429.439826 C993.9179,422.906108 999.6399,420.892119 1000.4369,420.628252 C1008.2469,418.037553 1014.1099,426.621242 1015.2869,432.494292 C1015.5879,433.996538 1019.7169,449.089958 1016.7399,453.402792 C1014.0669,457.274847 1012.2729,455.564706 1015.1369,462.435255 C1015.4989,462.549198 1015.9239,462.643151 1016.4309,462.698123 C1017.2449,462.78508 1018.0759,463.857541 1018.9299,465.574679 C1020.3799,468.491214 1021.7759,473.2978 1023.2409,478.310283 C1023.5399,471.088909 1022.2309,461.907521 1024.4909,456.963004 L1028.2849,453.606689 C1032.0889,448.769119 1036.3509,446.356331 1033.4709,442.463286 C1030.2649,438.128463 1028.7179,421.644741 1028.9769,420.090522 C1029.9919,414.009576 1033.9929,405.939629 1042.1139,408.341423 C1042.9429,408.587299 1050.2729,408.620282 1053.1769,415.252951 C1056.7779,423.476821 1042.1989,434.376347 1054.0729,445.108957 C1053.3069,440.216414 1052.9799,435.652706 1053.1099,434.8691 C1054.1229,428.789153 1058.1259,419.188975 1066.2459,421.590768 C1067.0759,421.835645 1074.4059,423.39986 1077.3089,430.031529 C1080.8659,438.15445 1073.4959,445.894563 1080.6019,458.24536 C1083.2019,451.87256 1088.7549,449.852575 1089.6459,449.553725 C1093.3089,445.116953 1097.0949,442.745144 1094.3389,439.020015 C1091.1319,434.684193 1089.5849,418.201471 1089.8449,416.646252 C1090.8589,410.566305 1094.8619,402.496358 1102.9819,404.898152 C1103.8099,405.144028 1111.1399,405.177012 1114.0439,411.809681 C1117.8089,420.406363 1101.7089,431.925578 1116.7249,443.124954 C1114.4799,439.498775 1112.6549,436.114474 1113.8589,433.099988 C1116.4689,426.56627 1122.1899,424.553281 1122.9869,424.288414 C1130.7979,421.697715 1136.6599,430.280404 1137.8369,436.154454 C1137.9759,436.846107 1138.9269,440.425309 1139.6209,444.503261 C1154.8499,432.77815 1133.3719,421.08902 1136.8269,412.438365 C1139.4379,405.904646 1145.1589,403.890658 1145.9559,403.62679 C1153.7669,401.036091 1159.6279,409.619781 1160.8059,415.492831 C1160.9789,416.352399 1162.4049,421.669729 1163.0339,426.867119 C1164.0329,426.335386 1164.7919,426.069519 1165.0469,425.984562 C1172.8579,423.393863 1178.7189,431.977552 1179.8979,437.851602 C1180.1989,439.352848 1184.3269,454.447267 1181.3499,458.759102 C1178.6759,462.632157 1176.8829,460.921016 1179.7459,467.791565 C1180.1099,467.906508 1180.5339,467.999461 1181.0409,468.054433 C1181.2659,468.078421 1181.4929,468.184368 1181.7199,468.352284 C1202.2579,457.92552 1187.5199,446.71615 1191.1989,439.111969 C1193.8439,433.646714 1199.5749,431.935573 1200.3729,431.710686 C1202.4559,431.123981 1204.1859,431.202941 1205.6279,431.720681 C1205.2599,430.336376 1205.2299,429.007044 1205.7349,427.742679 C1208.3439,421.20896 1214.0659,419.195971 1214.8629,418.932104 C1216.9829,418.228457 1218.9579,418.353394 1220.7369,419.01906 C1220.8419,418.981079 1220.9299,418.951094 1220.9879,418.932104 C1228.7979,416.340405 1234.6589,424.924094 1235.8379,430.798144 C1236.1389,432.30039 1240.2669,447.39381 1237.2899,451.706644 C1234.6169,455.578699 1232.8229,453.867558 1235.6869,460.739107 C1236.0499,460.85305 1236.4739,460.946003 1236.9819,461.000976 C1237.7949,461.088932 1238.6259,462.160394 1239.4809,463.878531 C1240.0759,465.07493 1240.6609,466.595166 1241.2459,468.311304 C1241.4489,466.717105 1241.7829,465.279827 1242.3259,464.090424 L1246.1219,460.73411 C1249.9249,455.896539 1254.1879,453.482752 1251.3079,449.590706 C1248.1009,445.254884 1246.5539,428.772162 1246.8139,427.216943 C1247.8269,421.136996 1251.8299,411.536818 1259.9509,413.938612 C1260.7799,414.183489 1268.1099,415.747703 1271.0129,422.379372 C1274.04418,429.301807 1269.13809,435.946275 1272.02091,445.404247 C1276.7678,447.211512 1280.09231,452.904809 1280.9476,457.1697 C1280.982,457.341369 1281.06638,457.690524 1281.18444,458.180793 C1283.99152,461.261976 1284.60807,468.991164 1284.8199,470.581164 C1285.1029,472.704098 1285.4529,475.130879 1285.4719,477.423728 C1285.5849,480.531167 1285.0889,483.575638 1284.2859,486.567136 C1284.10691,487.306198 1283.91558,488.026537 1283.71769,488.721489 Z" id="Combined-Shape" fill="#1E76BC"></path>
                    <polygon id="Fill-6" fill="#1E76BC" points="243.968 63.2785327 1558.535 235.77219 1558.535 45.280859 243.968 0.344427022"></polygon>
                    <path d="M94,648.993862 C94,648.993862 193.158596,539.58281 504.518432,529.814716 C621.797818,526.134564 621.797818,522.327286 759.687687,537.629791 C842.997458,544.173617 1108.3027,618.85078 1555.6034,761.661278 L1555.6034,928.804785 C1329.96745,956.086168 1092.6361,969.647906 843.609375,969.49 C470.069281,969.253141 281.757813,945.786875 94,915.974375 C-31.171875,896.099375 -31.171875,807.105871 94,648.993862 Z" id="Fill-8" fill="#222A33"></path>
                    <polygon id="Fill-10" fill="#4EC2DF" points="989.8323 654.918586 989.8323 551.496527 1060.0243 532.744945 1059.1103 627.947132"></polygon>
                    <polygon id="Fill-12" fill="#8FD2E8" points="1279.6917 594.771993 1059.0977 533.070981 988.1757 550.368294 1210.5417 611.36466"></polygon>
                    <polygon id="Fill-14" fill="#4EC2DF" points="1208.4885 729.132315 1208.4885 612.834722 1278.6805 596.242055 1277.7665 705.2683"></polygon>
                    <path d="M793.367187,928.115678 C741.152344,922.532545 694.24636,973.215696 647.777344,955.082603 C601.308327,936.949511 659.75,925.898042 659.75,885.133358 C659.75,844.368675 1028.3236,724.376803 1039.3836,720.039981 C1053.1786,714.630698 1082.5416,714.120954 1097.8986,716.912552 C1126.7236,722.15192 1117.7576,741.120394 1099.8616,745.536176 C1091.5486,747.587146 845.582031,933.698812 793.367187,928.115678 Z" id="Fill-16" fill="#111820"></path>
                    <path d="M1128.467,547.424672 C1128.467,547.424672 1136.194,542.873958 1137.144,542.413189 C1140.569,540.751024 1142.43,547.367701 1138.767,551.910419 C1135.104,556.453138 1128.683,553.779481 1128.683,553.779481 L1128.467,547.424672 Z" id="Fill-18" fill="#D4992B"></path>
                    <path d="M1130.6643,544.7805 C1130.6643,544.7805 1133.7543,552.105821 1130.0763,554.841447 C1130.0763,554.841447 1128.2363,554.650543 1125.7743,555.530101 C1123.3123,556.410659 1111.2013,562.445628 1107.0203,563.13828 C1102.7003,563.853921 1099.7273,560.812448 1098.8933,559.273221 C1098.2243,558.035843 1100.8933,551.070341 1103.9543,550.124816 C1107.0153,549.178291 1130.6643,544.7805 1130.6643,544.7805" id="Fill-20" fill="#1E76BC"></path>
                    <path d="M1131.7932,551.227462 L1104.6552,558.345887 C1104.6552,558.345887 1095.8902,552.870637 1097.6582,558.465827 C1099.4282,564.063016 1103.3102,563.988054 1103.3102,563.988054 L1107.0212,563.13848 L1128.6522,555.206464 C1128.6522,555.206464 1131.7202,555.389372 1131.7932,551.227462" id="Fill-22" fill="#114668"></path>
                    <path d="M1051.6233,706.194635 L1051.0793,711.083179 L1050.4173,717.037189 C1050.4173,717.037189 1052.6663,718.167621 1053.8143,718.242584 C1054.7623,718.303553 1057.5393,717.584914 1057.5393,717.584914 C1057.5393,717.584914 1058.9133,712.727354 1059.3713,711.109166 C1059.6253,710.209618 1060.3893,707.508974 1060.3893,707.508974 L1051.6233,706.194635 Z" id="Fill-24" fill="#D4992B"></path>
                    <path d="M1085.4446,706.559651 L1085.8096,721.308244 L1092.5426,722.427682 C1092.5426,722.427682 1093.3516,717.332241 1093.7716,715.467178 C1094.1716,713.695068 1095.8166,707.873991 1095.8166,707.873991 L1085.4446,706.559651 Z" id="Fill-26" fill="#D4992B"></path>
                    <path d="M1049.8137,582.669671 L1092.6757,581.325346 C1092.6757,581.325346 1099.8207,600.149892 1099.8207,618.974438 C1099.8207,637.799984 1101.0107,662.002829 1099.8207,678.138725 C1098.6297,694.274621 1095.0577,711.753843 1095.0577,711.753843 L1085.5327,710.410517 L1080.7697,660.658504 C1080.7697,660.658504 1076.0077,633.76601 1072.4357,618.974438 C1068.8637,604.183866 1073.6257,652.590556 1068.8637,670.070777 C1064.1007,687.551997 1060.3887,707.727864 1060.3887,707.727864 L1050.9647,706.632415 C1050.9647,706.632415 1053.3857,635.110335 1044.6117,600.340796 C1041.2997,587.217387 1049.8137,582.669671 1049.8137,582.669671" id="Fill-28" fill="#FEFEFE"></path>
                </g>
                <g id="Group-112" transform="translate(589.000000, 85.510000)">
                    <path d="M465.6086,426.6616 C465.6086,426.6616 457.8896,426.1486 451.1636,438.3826 C444.4366,450.6156 457.5376,461.6976 460.2276,472.4016 C462.9186,483.1056 454.2066,505.6666 453.8536,507.1956 C453.5016,508.7246 456.1916,508.7246 456.5446,508.7246 C458.8816,508.7246 500.1936,506.8996 500.1936,506.8996 L507.6666,505.6666 C507.6666,505.6666 509.0116,494.9626 504.9756,488.8456 C500.9396,482.7286 500.9396,467.4366 499.5936,462.8496 C498.2496,458.2616 502.2856,441.4396 500.9396,435.3236 C499.5936,429.2066 489.0126,430.2106 483.0976,426.6616 C476.3716,422.6256 466.9546,428.1906 465.6086,426.6616" id="Fill-34" fill="#1E76BC"></path>
                    <path d="M486.3372,427.7934 C486.3372,427.7934 480.1332,440.5814 491.6232,450.8554 C503.1132,461.1284 511.0832,479.1104 514.3492,477.4494 L517.6142,475.7884 C517.8432,468.1794 521.1482,465.4364 514.5032,459.7414 C508.2842,454.4104 503.6342,437.4814 499.0162,430.7334 C497.8832,429.0794 496.7522,428.0364 495.6012,427.9284 C489.7542,427.3774 491.7292,424.6094 486.3372,427.7934" id="Fill-36" fill="#1E76BC"></path>
                    <path d="M466.9563,395.1694 C466.9563,395.1694 480.5383,388.0424 484.7793,402.4734 C489.0203,416.9034 486.5073,423.2864 483.3833,425.4584 C480.2593,427.6314 472.3143,426.2034 472.3143,426.2034 C472.3143,426.2034 465.9323,423.6904 461.3493,418.7664 C459.3003,416.5644 454.6973,402.5344 466.9563,395.1694" id="Fill-38" fill="#D4992B"></path>
                    <path d="M481.759,396.4633 L483.903,404.3403 L485.76,411.3533 C485.76,411.3533 487.221,419.3143 483.621,424.1343 C480.021,428.9553 464.101,411.0593 464.101,411.0593 L481.759,396.4633 Z" id="Fill-40" fill="#C0872B"></path>
                    <path d="M500.6448,461.0258 L508.6588,473.7468 L511.8198,477.9618 C512.4128,478.7518 513.3228,479.2398 514.3098,479.2708 C516.5898,479.3418 520.7668,477.7828 519.4208,475.0918 C519.4208,475.0908 518.2838,473.4988 518.2818,473.4978 C518.2548,473.4588 512.7218,465.7128 512.6948,465.6748 C507.7618,454.9128 502.8298,444.1498 497.8968,433.3878 C497.8968,433.3878 496.4518,430.8468 493.8608,428.0058 C490.9598,424.8258 462.1848,426.7298 462.1848,426.7298 C462.1848,426.7298 456.1918,429.3518 450.8108,438.7688 C445.4288,448.1858 456.0478,463.1078 456.0478,463.1078 C456.0478,463.1078 462.9178,472.4288 459.5548,487.2138 C456.1918,501.9988 453.8568,505.8408 453.8568,505.8408 C453.8568,505.8408 452.1558,510.0708 456.1918,508.7248 L484.5378,507.5938 C484.5378,507.5938 497.8968,506.0348 500.5868,506.0348 C503.2778,506.0348 503.2778,501.9988 500.5868,495.2718 C497.8968,488.5458 488.4798,475.0918 488.4798,475.0918 C488.4798,475.0918 487.1338,469.7118 493.8608,473.7468 C500.5868,477.7828 496.5508,468.3658 496.5508,468.3658 L485.7888,454.9128 C485.7888,454.9128 484.7908,449.6748 488.6528,450.9488 C491.7038,451.9548 494.8618,457.1998 496.0548,456.7118 C496.3138,456.6048 496.5668,456.2068 496.5508,454.9128" id="Fill-42" fill="#114668"></path>
                    <path d="M453.5012,434.7328 C441.5362,416.7858 441.4602,401.7288 447.1652,393.0288 C451.1752,386.9148 459.3942,385.1828 460.5372,384.9568 C471.7502,382.7418 485.0042,388.7058 485.6102,394.3738 C486.0202,398.2028 480.3232,398.7508 478.9242,403.7918" id="Fill-44" fill="#111820"></path>
                    <path d="M473.4338,634.9174 C468.0218,634.6074 468.5388,632.9444 468.5388,632.9444 L461.4168,632.3964 C461.4168,632.3964 458.4028,639.0214 458.6778,641.3454 C458.9808,643.8964 461.6728,646.1664 465.1798,644.1944 C466.1658,643.6394 466.5678,642.8064 466.5678,642.8064 C466.5678,642.8064 470.5018,642.5704 471.4978,642.3504 C476.3138,641.2844 478.9128,639.3734 479.1318,637.3274 C479.3828,634.9804 475.9908,635.0634 473.4338,634.9174" id="Fill-46" fill="#D82D27"></path>
                    <path d="M508.7893,639.3002 C503.3933,638.7832 503.6023,637.3272 503.6023,637.3272 L496.7723,636.7792 C496.7723,636.7792 493.7583,643.4042 494.0333,645.7292 C494.3363,648.2792 494.9353,650.9682 500.5353,648.5772 C501.4573,648.1842 501.5203,646.9702 501.5203,646.9702 C501.5203,646.9702 505.8963,646.9442 507.0943,646.6802 C511.8053,645.6432 513.4283,643.7372 513.6843,641.2732 C513.9273,638.9252 510.5063,639.4642 508.7893,639.3002" id="Fill-48" fill="#D82D27"></path>
                    <path d="M534.554,392.7553 C534.554,402.0923 528.647,409.6613 521.36,409.6613 C514.073,409.6613 508.164,402.0923 508.164,392.7553 C508.164,383.4193 514.073,375.8503 521.36,375.8503 C528.647,375.8503 534.554,383.4193 534.554,392.7553" id="Fill-50" fill="#FEFEFE" opacity="0.347823661"></path>
                    <polygon id="Fill-52" fill="#FEFEFE" points="521.4514 386.8251 522.2954 389.8641 524.5684 388.4791 523.4874 391.3921 525.8594 392.4731 523.4874 393.5541 524.5684 396.4671 522.2954 395.0821 521.4514 398.1211 520.6074 395.0821 518.3344 396.4671 519.4154 393.5541 517.0434 392.4731 519.4154 391.3921 518.3344 388.4791 520.6074 389.8641"></polygon>
                    <path d="M751.1975,493.2573 C751.1975,508.6293 741.4705,521.0913 729.4725,521.0913 C717.4745,521.0913 707.7485,508.6293 707.7485,493.2573 C707.7485,477.8843 717.4745,465.4223 729.4725,465.4223 C741.4705,465.4223 751.1975,477.8843 751.1975,493.2573" id="Fill-54" fill="#FEFEFE" opacity="0.350111607"></path>
                    <polygon id="Fill-56" fill="#FEFEFE" points="728.1243 484.5395 729.2463 489.6995 732.2723 487.3485 730.8343 492.2955 733.9903 494.1315 730.8343 495.9665 732.2723 500.9135 729.2463 498.5615 728.1243 503.7235 727.0023 498.5615 723.9763 500.9135 725.4143 495.9665 722.2583 494.1315 725.4143 492.2955 723.9763 487.3485 727.0023 489.6995"></polygon>
                    <path d="M952.4309,503.0688 C952.4309,511.2078 947.2819,517.8058 940.9279,517.8058 C934.5759,517.8058 929.4259,511.2078 929.4259,503.0688 C929.4259,494.9288 934.5759,488.3308 940.9279,488.3308 C947.2819,488.3308 952.4309,494.9288 952.4309,503.0688" id="Fill-58" fill="#FEFEFE" opacity="0.350111607"></path>
                    <path d="M332.2737,417.1577 C332.2737,424.3497 327.7227,430.1797 322.1097,430.1797 C316.4957,430.1797 311.9447,424.3497 311.9447,417.1577 C311.9447,409.9657 316.4957,404.1347 322.1097,404.1347 C327.7227,404.1347 332.2737,409.9657 332.2737,417.1577" id="Fill-60" fill="#FEFEFE" opacity="0.350111607"></path>
                    <polygon id="Fill-62" fill="#FEFEFE" points="940.2141 498.4526 940.8091 501.1846 942.4101 499.9396 941.6501 502.5586 943.3201 503.5316 941.6501 504.5036 942.4101 507.1226 940.8091 505.8776 940.2141 508.6096 939.6201 505.8776 938.0181 507.1226 938.7791 504.5036 937.1091 503.5316 938.7791 502.5586 938.0181 499.9396 939.6201 501.1846"></polygon>
                    <path d="M829.7708,411.5092 C829.7708,423.4342 822.2268,433.1002 812.9198,433.1002 C803.6138,433.1002 796.0688,423.4342 796.0688,411.5092 C796.0688,399.5852 803.6138,389.9192 812.9198,389.9192 C822.2268,389.9192 829.7708,399.5852 829.7708,411.5092" id="Fill-64" fill="#FEFEFE" opacity="0.350111607"></path>
                    <polygon id="Fill-66" fill="#FEFEFE" points="811.8733 404.7475 812.7443 408.7505 815.0913 406.9275 813.9763 410.7645 816.4243 412.1875 813.9763 413.6105 815.0913 417.4485 812.7443 415.6245 811.8733 419.6275 811.0033 415.6245 808.6563 417.4485 809.7713 413.6105 807.3233 412.1875 809.7713 410.7645 808.6563 406.9275 811.0033 408.7505"></polygon>
                    <polygon id="Fill-68" fill="#FEFEFE" points="321.6682 412.3041 322.2632 415.0361 323.8642 413.7911 323.1042 416.4101 324.7742 417.3821 323.1042 418.3541 323.8642 420.9741 322.2632 419.7291 321.6682 422.4611 321.0742 419.7291 319.4722 420.9741 320.2332 418.3541 318.5632 417.3821 320.2332 416.4101 319.4722 413.7911 321.0742 415.0361"></polygon>
                    <polygon id="Fill-70" fill="#111820" points="1032.7708 110.6372 0.6648 3.9902 1.2518 0.0192 1033.3588 99.6652"></polygon>
                    <path d="M490.4778,411.9233 C488.5158,411.3583 486.5528,410.7923 484.5898,410.2273 C484.1708,410.1063 483.7478,409.9503 483.3208,409.8603 C482.5408,409.6973 483.5158,409.9533 483.5508,410.0743 C483.4878,409.8563 483.1178,409.5613 482.9698,409.3863 C482.6018,408.9493 482.2328,408.5123 481.8648,408.0753 C481.0268,407.0813 480.1878,406.0873 479.3488,405.0933 C479.0518,404.7403 478.7548,404.3893 478.4578,404.0363 C478.3738,403.9353 478.2878,403.8333 478.2018,403.7323 C477.9578,403.4443 478.4868,404.5103 478.2408,403.5833 C477.7698,401.8093 476.7208,399.9843 475.7688,398.4283 C474.8808,396.9793 473.8448,395.6043 472.6808,394.3653 C468.6648,390.0953 463.0768,387.6963 457.2508,387.3993 C452.9148,387.1783 448.1008,388.0353 444.5398,390.6543 C442.6018,392.0783 441.1158,393.8233 441.1118,396.3513 C441.1068,400.2813 443.5488,404.2783 445.3448,407.6113 C446.2618,409.3113 448.8528,407.7983 447.9358,406.0973 C446.4348,403.3123 444.4038,400.0583 444.1308,396.8173 C443.9928,395.1723 444.6648,394.2883 446.0528,393.2443 C449.1408,390.9243 453.2738,390.2153 457.1368,390.3933 C462.4378,390.6373 467.4178,392.9483 470.9538,396.9173 C472.0058,398.0983 472.8998,399.4073 473.6728,400.7863 C474.0898,401.5293 474.4728,402.2923 474.8168,403.0723 C475.2028,403.9453 475.4258,404.9723 475.9878,405.7423 C477.0758,407.2373 478.4018,408.6063 479.5928,410.0193 C480.1888,410.7253 480.7498,411.5693 481.4298,412.1963 C481.9688,412.6943 482.7238,412.8123 483.4128,413.0103 C485.5018,413.6113 487.5908,414.2143 489.6808,414.8173 C491.5398,415.3523 492.3328,412.4583 490.4778,411.9233" id="Fill-72" fill="#FEFEFE"></path>
                    <path d="M453.0051,434.7319 C434.5061,423.6389 436.8181,396.3719 446.6701,393.0279 C456.6901,389.6269 445.3371,402.5099 450.9841,406.4199 C456.6321,410.3299 475.7441,408.1579 475.7441,408.1579 C473.7511,415.3399 471.2261,413.9629 477.9161,427.7049 C477.9161,427.7049 469.7951,444.7999 453.0051,434.7319" id="Fill-74" fill="#010202"></path>
                    <path d="M456.1975,422.2748 C456.1975,427.4328 452.3075,431.6148 447.5095,431.6148 C442.7115,431.6148 438.8215,427.4328 438.8215,422.2748 C438.8215,417.1168 442.7115,412.9358 447.5095,412.9358 C452.3075,412.9358 456.1975,417.1168 456.1975,422.2748" id="Fill-76" fill="#D82D27"></path>
                    <path d="M453.675,422.4467 C453.675,428.4187 449.171,433.2597 443.615,433.2597 C438.06,433.2597 433.556,428.4187 433.556,422.4467 C433.556,416.4737 438.06,411.6327 443.615,411.6327 C449.171,411.6327 453.675,416.4737 453.675,422.4467" id="Fill-78" fill="#111820"></path>
                    <path d="M445.7092,426.059 C450.8962,427.866 454.5022,421.908 452.6742,427.154 C450.8472,432.401 445.1602,435.189 439.9742,433.382 C434.7872,431.576 432.0642,425.858 433.8932,420.611 C434.9952,417.445 436.4652,418.347 437.5652,420.738 C439.0742,424.014 443.6522,425.342 445.7092,426.059" id="Fill-80" fill="#010202"></path>
                    <path d="M865.5266,89.9614 C866.8536,87.9244 867.6306,85.4984 867.6306,82.8864 C867.6306,75.7134 861.8166,69.8994 854.6446,69.8994 C847.4706,69.8994 841.6566,75.7134 841.6566,82.8864 C841.6566,83.2784 841.6816,83.6664 841.7146,84.0494 C836.4876,85.5614 832.0846,89.5844 830.3806,95.1474 L820.1736,128.5054 C817.4986,137.2514 822.4646,146.5974 831.2116,149.2744 L839.6686,151.8614 C848.4146,154.5384 857.7596,149.5714 860.4366,140.8244 L870.6436,107.4674 C872.6326,100.9664 870.3946,94.1404 865.5266,89.9614" id="Fill-82" fill="#111820"></path>
                    <path d="M831.3918,149.5034 L839.8488,152.0904 C848.5958,154.7674 857.9418,149.8004 860.6178,141.0544 L870.8248,107.6964 C872.8138,101.1954 870.5758,94.3694 865.7068,90.1904 C867.0348,88.1544 867.8128,85.7274 867.8128,83.1154 C867.8128,75.9424 861.9968,70.1284 854.8258,70.1284" id="Fill-84" fill="#222A33"></path>
                    <path d="M854.342,149.2876 C853.51,152.7496 845.461,153.7836 836.363,151.5986 C827.266,149.4126 820.566,144.8336 821.397,141.3716 C822.229,137.9106 830.278,136.8756 839.375,139.0616 C848.473,141.2466 855.173,145.8256 854.342,149.2876" id="Fill-86" fill="#FEFEFE"></path>
                    <path d="M854.3538,149.0835 C855.1848,145.6215 848.4848,141.0435 839.3868,138.8575 C830.2898,136.6715 822.2408,137.7065 821.4088,141.1685 C821.4088,141.1685 830.2248,140.5645 833.4828,141.2165 C836.7408,141.8685 842.2798,142.8455 847.1668,144.4745 C849.1448,145.1345 854.3538,149.0835 854.3538,149.0835" id="Fill-88" fill="#DFE0DF"></path>
                    <path d="M841.1506,84.0283 C844.4236,81.8803 848.4376,80.8193 852.6326,81.2943 C858.5046,81.9583 863.3606,85.4773 865.9726,90.3093 C866.7796,91.8013 862.3156,87.6843 853.4816,85.1203 C845.5816,82.8273 839.0466,85.4093 841.1506,84.0283" id="Fill-90" fill="#111820"></path>
                    <path d="M586.2581,63.499 C587.3661,61.796 588.0171,59.768 588.0171,57.584 C588.0171,51.588 583.1561,46.728 577.1601,46.728 C571.1641,46.728 566.3041,51.588 566.3041,57.584 C566.3041,57.913 566.3241,58.236 566.3531,58.557 C561.9831,59.82 558.3011,63.183 556.8781,67.834 L548.3451,95.719 C546.1081,103.031 550.2601,110.844 557.5711,113.081 L564.6411,115.244 C571.9531,117.481 579.7661,113.33 582.0031,106.018 L590.5351,78.132 C592.1981,72.698 590.3271,66.992 586.2581,63.499" id="Fill-92" fill="#111820"></path>
                    <path d="M557.7229,113.2725 L564.7919,115.4365 C572.1039,117.6725 579.9159,113.5215 582.1539,106.2095 L590.6869,78.3245 C592.3489,72.8905 590.4779,67.1835 586.4089,63.6905 C587.5179,61.9875 588.1679,59.9595 588.1679,57.7755 C588.1679,51.7795 583.3079,46.9185 577.3119,46.9185" id="Fill-94" fill="#222A33"></path>
                    <path d="M576.9075,113.0923 C576.2125,115.9863 569.4835,116.8513 561.8795,115.0243 C554.2735,113.1963 548.6725,109.3693 549.3675,106.4753 C550.0625,103.5813 556.7915,102.7173 564.3965,104.5443 C572.0015,106.3713 577.6025,110.1983 576.9075,113.0923" id="Fill-96" fill="#FEFEFE"></path>
                    <path d="M576.9172,112.9219 C577.6122,110.0279 572.0112,106.2009 564.4062,104.3739 C556.8012,102.5469 550.0722,103.4109 549.3772,106.3049 C549.3772,106.3049 556.7472,105.8009 559.4712,106.3449 C562.1942,106.8899 566.8242,107.7069 570.9092,109.0689 C572.5632,109.6199 576.9172,112.9219 576.9172,112.9219" id="Fill-98" fill="#DFE0DF"></path>
                    <path d="M565.8811,58.5391 C568.6161,56.7431 571.9731,55.8561 575.4791,56.2531 C580.3881,56.8091 584.4471,59.7501 586.6311,63.7891 C587.3051,65.0371 583.5731,61.5951 576.1891,59.4521 C569.5841,57.5351 564.1211,59.6941 565.8811,58.5391" id="Fill-100" fill="#111820"></path>
                    <path d="M335.4514,40.9487 C336.2614,39.7047 336.7364,38.2227 336.7364,36.6267 C336.7364,32.2457 333.1844,28.6937 328.8044,28.6937 C324.4224,28.6937 320.8704,32.2457 320.8704,36.6267 C320.8704,36.8667 320.8864,37.1037 320.9064,37.3377 C317.7134,38.2607 315.0224,40.7187 313.9824,44.1167 L307.7484,64.4927 C306.1134,69.8357 309.1474,75.5437 314.4894,77.1787 L319.6554,78.7597 C324.9984,80.3947 330.7074,77.3607 332.3424,72.0177 L338.5764,51.6417 C339.7924,47.6707 338.4254,43.5017 335.4514,40.9487" id="Fill-102" fill="#111820"></path>
                    <path d="M314.6008,77.3188 L319.7658,78.8998 C325.1088,80.5338 330.8178,77.5008 332.4528,72.1578 L338.6868,51.7818 C339.9028,47.8108 338.5358,43.6408 335.5618,41.0888 C336.3718,39.8448 336.8468,38.3618 336.8468,36.7668 C336.8468,32.3858 333.2948,28.8338 328.9138,28.8338" id="Fill-104" fill="#222A33"></path>
                    <path d="M328.6194,77.187 C328.1104,79.302 323.1944,79.934 317.6374,78.599 C312.0804,77.264 307.9874,74.467 308.4954,72.352 C309.0034,70.238 313.9204,69.605 319.4764,70.941 C325.0344,72.276 329.1274,75.072 328.6194,77.187" id="Fill-106" fill="#FEFEFE"></path>
                    <path d="M328.6262,77.0625 C329.1342,74.9475 325.0412,72.1515 319.4832,70.8165 C313.9272,69.4815 309.0102,70.1135 308.5022,72.2285 C308.5022,72.2285 313.8882,71.8595 315.8772,72.2575 C317.8672,72.6555 321.2502,73.2515 324.2352,74.2475 C325.4442,74.6505 328.6262,77.0625 328.6262,77.0625" id="Fill-108" fill="#DFE0DF"></path>
                    <path d="M320.5618,37.3247 C322.5608,36.0127 325.0128,35.3647 327.5748,35.6547 C331.1628,36.0597 334.1278,38.2097 335.7238,41.1617 C336.2158,42.0737 333.4898,39.5577 328.0938,37.9917 C323.2678,36.5917 319.2758,38.1687 320.5618,37.3247" id="Fill-110" fill="#111820"></path>
                </g>
            </g>
        </g>
    </g>
</svg>