<?xml version="1.0" encoding="UTF-8"?>
<svg width="102px" height="110px" viewBox="0 0 102 110" version="1.1" xmlns="http://www.w3.org/2000/svg" xmlns:xlink="http://www.w3.org/1999/xlink">
    <title>Group 16</title>
    <defs>
        <rect id="path-1" x="0" y="0" width="26" height="19" rx="7"></rect>
    </defs>
    <g id="Page-1" stroke="none" stroke-width="1" fill="none" fill-rule="evenodd">
        <g id="Desktop-HD-Copy-29" transform="translate(-1119.000000, -872.000000)">
            <g id="Group-16" transform="translate(1119.000000, 872.000000)">
                <ellipse id="Oval" fill-opacity="0.146170236" fill="#111820" cx="51.5" cy="108" rx="34.5" ry="2"></ellipse>
                <g id="lightbulb-2">
                    <g id="lightbulb">
                        <circle id="Oval" fill="#D4992B" fill-rule="nonzero" cx="50.5984252" cy="50.5" r="50.5"></circle>
                        <rect id="Rectangle" fill="#CCCCCC" fill-rule="nonzero" x="44.0984252" y="101" width="13" height="7" rx="3.5"></rect>
                        <path d="M49.0984252,87 L57.0984252,87 C59.3075642,87 61.0984252,88.767297 61.0984252,90.9473684 L61.0984252,98.0526316 C61.0984252,100.232703 59.3075642,102 57.0984252,102 L49.0984252,102 L49.0984252,102 L49.0984252,87 Z" id="Path" fill="#979797" fill-rule="nonzero"></path>
                        <path d="M39.0984252,87 L47.0984252,87 C49.3075642,87 51.0984252,88.767297 51.0984252,90.9473684 L51.0984252,98.0526316 C51.0984252,100.232703 49.3075642,102 47.0984252,102 L39.0984252,102 L39.0984252,102 L39.0984252,87 Z" id="Path" fill="#CCCCCC" fill-rule="nonzero" transform="translate(45.098425, 94.500000) scale(-1, 1) translate(-45.098425, -94.500000) "></path>
                        <path d="M49.0984252,100 L52.8520484,100 C54.6449728,100 56.0984252,101.567004 56.0984252,103.5 C56.0984252,105.432996 54.6449728,107 52.8520484,107 L49.0984252,107 L49.0984252,100 Z" id="Rectangle" fill="#979797" fill-rule="nonzero"></path>
                        <g id="Rectangle" transform="translate(37.098425, 84.000000)">
                            <rect stroke="#FFFFFF" stroke-width="3" x="1.08333333" y="1.09615385" width="23.8333333" height="16.8076923" rx="7"></rect>
                            <g id="Clipped">
                                <mask id="mask-2" fill="white">
                                    <use xlink:href="#path-1"></use>
                                </mask>
                                <g id="path-1"></g>
                            </g>
                        </g>
                        <rect id="Rectangle" stroke="#FFFFFF" fill="#D8D8D8" fill-rule="nonzero" x="38.0984252" y="90" width="12" height="1" rx="0.5"></rect>
                        <rect id="Rectangle-Copy" stroke="#FFFFFF" fill="#D8D8D8" fill-rule="nonzero" x="55.0984252" y="93" width="8" height="1" rx="0.5"></rect>
                        <rect id="Rectangle-Copy-2" stroke="#FFFFFF" fill="#D8D8D8" fill-rule="nonzero" x="38.0984252" y="97" width="14" height="1" rx="0.5"></rect>
                        <path d="M33.9009995,81.8985234 C36.6605795,78.2660408 42.8688109,76.4400765 52.5256939,76.420629 C67.0110182,76.3914577 78.7772951,64.6481293 78.8064633,50.1911711 C78.8355233,35.734213 67.1164498,24.0381808 52.6311254,24.0672976 C38.1458011,24.0965233 26.3795239,35.8398514 26.3504098,50.2968096 C26.3310004,59.9347817 24.539225,66.1685192 20.9750837,68.998022 L33.9009995,81.8985234 Z" id="Oval" stroke="#FFFFFF" stroke-width="4" fill="#FFF5E2" fill-rule="nonzero" transform="translate(49.890773, 52.982911) rotate(-45.000000) translate(-49.890773, -52.982911) "></path>
                        <path d="M36.0982009,77.8404174 C38.7725424,74.3384538 44.7890772,72.5780484 54.1478054,72.5592014 C68.1858978,72.5309308 79.5887738,61.2095244 79.6168935,47.2721323 C79.6313558,40.064929 76.6013401,33.5695117 71.7304734,28.9808888 C70.4287124,27.7545591 63.2482693,34.6418403 50.189144,49.6427326 L29.9309324,71.7175665 L36.0982009,77.8404174 Z" id="Oval" fill="#FFE0A8" fill-rule="nonzero" transform="translate(54.773913, 53.341146) rotate(-45.000000) translate(-54.773913, -53.341146) "></path>
                        <path d="M41.4114104,60.414998 C52.7021174,72.376528 59.3595013,78.3593307 61.383562,78.3634182 C64.4196531,78.3695211 66.8758966,75.8943809 66.8697471,72.8350266 C66.8635745,69.7756721 64.3973419,67.2906187 61.3612508,67.2845045 C58.3251597,67.2783903 55.8689162,69.7535305 55.8750772,72.812885 C55.8791846,74.8524545 55.7116027,75.9903712 55.3723314,76.2266336 L54.3796382,77.2269643" id="Oval-Copy" stroke="#D4992B" transform="translate(54.140579, 69.389208) scale(-1, 1) rotate(-135.000000) translate(-54.140579, -69.389208) "></path>
                        <path d="M32.4521096,60.4149641 C43.7624153,72.3765337 50.4295985,78.3593561 52.4536592,78.3634436 C55.4897503,78.3695465 57.945999,75.8969597 57.9398558,72.8407545 C57.9336895,69.7845499 55.467462,67.3020499 52.4313709,67.2959356 C49.3952799,67.2898214 46.9390312,69.7624083 46.9451859,72.8186129 C46.9492891,74.8560828 46.7817048,75.9928273 46.442433,76.2288465 L45.4497377,77.2281447" id="Oval-Copy-2" stroke="#D4992B" transform="translate(45.195983, 69.389204) rotate(-135.000000) translate(-45.195983, -69.389204) "></path>
                    </g>
                </g>
            </g>
        </g>
    </g>
</svg>