<?xml version="1.0" encoding="UTF-8"?>
<svg width="707px" height="500px" viewBox="0 0 707 500" version="1.1" xmlns="http://www.w3.org/2000/svg" xmlns:xlink="http://www.w3.org/1999/xlink">
    <!-- Generator: Sketch 51.3 (57544) - http://www.bohemiancoding.com/sketch -->
    <title>Group 206 Copy</title>
    <desc>Created with Sketch.</desc>
    <defs>
        <path d="M1.18016739,17.1488893 C9.00913131,48.5060614 6.84929293,113.005384 6.84929293,113.005384 L15.2605368,113.99367 C15.2605368,113.99367 18.5729293,95.7970763 22.8229726,80.0342131 C27.0730159,64.2689246 22.8229726,20.6145607 26.0105051,33.9533941 C29.1992381,47.2934402 33.4480808,71.5458645 33.4480808,71.5458645 L37.6993247,116.411637 L44.5954401,117.373246 C44.5954401,117.373246 45.402228,108.472606 44.5954401,96.2154306 C44.4369639,93.828992 40.9444848,78.7015423 40.682759,76.1986921 C40.4378413,73.8546953 42.4668167,73.9686817 44.0635844,74.0826681 C45.6255354,74.1954419 46.7744877,74.3057904 44.9856277,72.1170091 C42.5100375,69.0878813 39.640658,64.3550207 39.640658,60.397025 C39.640658,59.7155319 40.5867128,60.7608114 41.756075,61.8060909 C43.2988167,63.1836286 45.231746,64.5611663 45.899267,61.9770705 C47.929443,54.1132219 45.76,24.3021418 45.3770159,21.1541772 C43.7766465,7.95479519 41.4655354,1.40179013 41.4655354,1.40179013 L5.82279942,1.21262122 C5.82279942,1.21262122 -1.7744531,5.31370618 1.18016739,17.1488893 Z" id="path-1"></path>
    </defs>
    <g id="Page-1" stroke="none" stroke-width="1" fill="none" fill-rule="evenodd">
        <g id="Desktop-HD-Copy-24" transform="translate(-608.000000, -268.000000)">
            <g id="Group-206-Copy" transform="translate(608.000000, 268.000000)">
                <polygon id="Fill-2" fill="#111820" points="342.7103 431.1625 326.4213 440.2845 415.6883 499.5785 706.2933 369.2625 639.1813 338.6375 375.9413 450.7095"></polygon>
                <path d="M671.584667,422.04195 C661.147535,424.617456 640.828905,425.336909 633.614111,422.938733 C624.421666,419.885281 628.631985,415.524654 620.039084,412.168896 C610.880416,408.593587 605.359545,410.665814 594.013808,407.652894 C581.693602,404.383269 581.776356,395.467796 595.662132,390.019546 C612.981354,383.225277 649.840642,382.5852 669.120626,386.091266 C705.306061,392.67105 694.051523,416.495746 671.584667,422.04195" id="Fill-143" fill="#111820" transform="translate(638.734463, 404.202027) scale(-1, 1) translate(-638.734463, -404.202027) "></path>
                <g id="Group-157" transform="translate(0.000000, 106.000000)">
                    <path d="M279.8549,100.7709 C272.4419,101.0779 258.5069,99.5079 253.8669,97.6129 C247.9549,95.1979 251.3299,93.3999 245.8609,90.8909 C240.0299,88.2159 236.0279,88.7369 228.6419,86.1379 C220.6229,83.3179 221.7109,78.8289 231.8079,77.4019 C244.4009,75.6219 269.6019,78.8039 282.3389,82.4059 C306.2449,89.1659 295.8129,100.1099 279.8549,100.7709" id="Fill-6" fill="#111820"></path>
                    <g id="man" transform="translate(508.000000, 146.500000) scale(-1, 1) translate(-508.000000, -146.500000) translate(471.000000, 20.000000)">
                        <g id="Group-8" transform="translate(1.000000, 0.000000)">
                            <path d="M47.9730655,27.4677419 C47.9730655,27.4677419 47.5344473,34.9112903 50.6020836,37.9771505 C53.6710655,41.0416667 44.9054291,51.9892473 44.9054291,51.9892473 C44.9054291,51.9892473 34.8225927,49.3629032 34.8225927,47.1733871 C34.8225927,44.9825269 36.57572,36.2258065 36.57572,33.1599462 C36.57572,30.0954301 47.9730655,27.4677419 47.9730655,27.4677419" id="Fill-65" fill="#D4992B"></path>
                            <path d="M35.4723127,7.33467742 C35.4723127,7.33467742 20.7449673,6.38037634 23.5314036,20.9637097 C26.3164945,35.547043 31.2879491,40.2486559 34.9126036,40.9435484 C38.5359127,41.6397849 44.66984,37.1975806 44.66984,37.1975806 C44.66984,37.1975806 48.9900945,32.4072581 50.7095855,26.1814516 C51.4791855,23.3978495 49.1798036,9.02956989 35.4723127,7.33467742" id="Fill-67" fill="#D4992B"></path>
                            <path d="M40.7705078,38.6621094 C44.258138,44.1178385 44.7838542,48.1738281 42.3476562,50.8300781 C39.9114583,53.4863281 41.6197917,54.6031901 47.4726562,54.1806641 L54.6464844,41.5996094 C50.7555339,38.9134115 48.5457357,35.7988281 48.0170898,32.2558594 C47.488444,28.7128906 45.0729167,30.8483073 40.7705078,38.6621094 Z" id="Path-8" fill="#C0872B"></path>
                            <path d="M29.0102539,12.7304687 C27.6975781,12.8266764 26.7970247,13.842627 26.3085937,15.7783203 C25.8201628,17.7140137 26.1464974,20.0229329 27.2875977,22.7050781 C32.487793,22.6210937 29.108723,28.5019053 30.9179687,31.2353516 C31.4070124,31.9742089 31.7126368,31.3659836 32.9267578,32.206543 C34.5535393,33.3327951 33.9899464,39.7021171 35.1445312,40.3393555 C38.0695494,41.9536028 45.7114909,38.9608871 48.4104727,31.6275538 C50.5134182,25.9178763 50.6022182,13.2364247 50.6022182,13.2364247 L29.0102539,12.7304687 Z" id="Fill-69" fill="#C0872B"></path>
                            <path d="M26.3157786,226.498686 C25.1289005,229.610901 21.1243819,232.870473 18.7519915,234.944374 C16.3782353,237.019639 11.8547137,240.13049 12.0035856,242.279433 C12.2480634,245.839175 17.2687353,247.391871 21.7185039,246.206201 C26.1682724,245.02053 31.5809283,238.278988 32.7678064,237.094681 C33.229446,236.633511 33.8085442,237.231122 34.4736876,236.501164 C35.5212543,235.346874 36.286101,234.462738 36.5496999,233.462626 C37.102848,231.375082 35.6605657,224.869582 35.6605657,224.869582 C35.6605657,224.869582 27.2008154,224.177827 26.3157786,226.498686" id="Fill-13" fill="#A46C28"></path>
                            <path d="M50.0189636,240.792876 C47.6805636,242.837231 43.2244182,245.901747 43.3710727,248.018683 C43.6119091,251.525403 48.5578,253.054973 52.9412909,251.886962 C57.3247818,250.718952 62.6568182,244.077823 63.8260182,242.911156 C64.2807818,242.456855 64.8512545,243.045565 65.5064909,242.326478 C66.5384545,241.189382 67.2919091,240.318414 67.5515818,239.333199 C68.0964909,237.276747 66.6756909,230.868145 66.6756909,230.868145 C66.6756909,230.868145 58.3419455,230.186694 57.4700909,232.472984 C56.3008909,235.538844 52.3560182,238.749866 50.0189636,240.792876 Z" id="Fill-13" fill="#A46C28"></path>
                            <path d="M70.8904618,118.98629 L23.4268618,119.277957 C23.4268618,119.277957 23.1335527,126.005108 23.1335527,144.822312 C23.1335527,163.639516 23.65828,172.92043 24.7669345,189.049462 C25.8755891,205.177151 25.1786436,229.042742 25.1786436,229.042742 L37.1612618,230.210753 L41.5016982,188.61129 C41.5016982,188.61129 43.9988618,170.488978 45.1761345,155.33172 C46.4004982,139.56828 51.7056255,164.964785 52.5223164,187.298118 C53.18428,205.393548 55.86308,233.421774 55.86308,233.421774 L68.42828,234.298118 C68.42828,234.298118 70.8904618,188.173118 72.5238436,128.619355 C72.8938436,115.097849 70.8904618,118.98629 70.8904618,118.98629" id="Fill-55" fill="#114668"></path>
                            <path d="M68.0712891,234.15332 L72.0009766,133.40625 L72.0009766,118.373047 L70.6582031,120.750977 C68.8919271,140.498372 68.0947266,157.019857 68.2666016,170.31543 C68.5244141,190.258789 65.5241052,188.863215 66.4003906,192.616211 C68.1842448,200.256185 68.296875,213.734701 66.7382813,233.051758 L68.0712891,234.15332 Z" id="Path-5" fill="#1D8FCE"></path>
                            <path d="M42.6831055,24.5458984 C42.6831055,24.5458984 44.0966797,15.2631836 37.0727539,16.2558594 C30.0488281,17.2485352 32.5947266,18.027832 25.2729492,17.8867188 C17.9511719,17.7456055 24.7949219,3.09277344 35.4125977,1.4453125 C37.3536784,0.812825521 39.5011393,0.835286458 41.8549805,1.51269531 C45.3857422,2.52880859 48.9707031,3.34423828 51.8544922,6.93847656 C54.7382812,10.5327148 54.5732422,21.277832 53.2211914,25.3383789 C51.8691406,29.3989258 51.762058,33.0025622 49.5703125,33.8789063 C47.378567,34.7552503 48.19224,30.9708333 48.19224,30.9708333 C48.19224,30.9708333 49.7260582,21.7745968 48.19224,20.2423387 C46.6584218,18.7100806 44.9496945,20.3928763 44.9496945,20.3928763" id="Fill-177" fill="#2E4157"></path>
                            <g id="arm-4" transform="translate(0.000000, 43.000000)">
                                <path d="M8.63157091,55.5153226 L0.413534545,62.1927419 C0.413534545,62.1927419 -1.66922909,68.7612903 6.00255273,67.3379032 C13.6729891,65.9158602 15.3171345,67.0099462 15.3171345,67.0099462 C15.3171345,67.0099462 16.8496073,61.4266129 17.1805891,59.7841398 C17.50888,58.1430108 8.63157091,55.5153226 8.63157091,55.5153226" id="Fill-185" fill="#D4992B"></path>
                                <path d="M15.9016,44.7139785 L18.8602545,37.4895161 C18.0933455,17.6736559 21.7085818,13.1494624 22.6961455,9.42768817 C24.7493091,1.67365591 32.6323273,-1.00913978 33.9454909,1.69112903 C35.8345091,5.5688172 32.1923636,28.2569892 31.3164727,35.2623656 C31.3030182,35.363172 31.2895636,35.4693548 31.2761091,35.5728495 C31.4550545,39.0580645 30.2993091,43.9827957 26.5306909,50.2973118 C26.3208,51.2543011 17.6547273,60.1494624 17.6547273,60.1494624 L9.21603636,56.2086022 C9.21603636,56.2086022 10.4229091,50.6252688 15.9016,44.7139785" id="Fill-179" fill="#32465D"></path>
                            </g>
                            <path d="M66.9671164,43.0854839 C74.8568618,53.5948925 67.27388,55.3462366 68.2452982,66.4389785 C68.2452982,66.4389785 72.8480982,105.193011 72.4108255,119.205108 C72.4027527,119.420161 68.6839164,122.926882 68.6839164,122.928226 C67.9170073,124.131183 65.3969709,125.775 61.2327891,125.992742 C36.6903527,127.283065 20.56508,129.562634 21.7827164,119.424194 C23.0972255,108.476613 23.2600255,93.5236559 23.0972255,76.5115591 C22.9761345,63.7642473 21.2230073,55.4080645 23.2788618,50.5303763 C26.0800982,43.8852151 35.1148255,42.0639785 35.1148255,42.0639785 C35.1148255,42.0639785 35.7000982,49.2158602 39.9732618,48.5586022 C44.8034436,47.8166667 46.96828,39.461828 50.7853345,38.5612903 C57.8328255,36.8973118 63.9950073,41.994086 66.9671164,43.0854839" id="Fill-181" fill="#1E2A39"></path>
                            <path d="M69.9505544,84.9892473 C70.8755544,90.504069 71.2132319,96.3713195 70.2839617,100.351566 C69.3546915,104.331813 63.2743603,107.430004 61.0837264,108.694843 C58.8930926,109.959681 54.5136709,111.621724 50.349489,111.839466 C25.8070527,113.129788 21.6030451,122.534564 21.9015514,118.967945 C22.2000577,115.401326 21.668659,120.110222 23.2166215,106.107411 C23.6789144,101.925528 26.63765,101.231952 33.556108,103.730471 C40.5615983,106.26042 47.9790016,93.4342394 55.0848584,94.2173692 C62.276936,95.0100013 63.6319109,93.2408067 69.9505544,84.9892473 Z" id="Fill-181" fill="#111820"></path>
                            <g id="arm-5" transform="translate(10.000000, 38.000000)">
                                <path d="M62.0818618,33.6951613 C62.9577527,26.6884409 61.3391709,11.736828 59.4514982,7.85913978 C59.054253,7.04311744 57.4265591,4.92906698 54.790625,3.48791635 C50.2425393,1.00133048 42.777239,-0.743735834 41.0075994,0.54936891 C40.4089953,0.986778809 48.2534738,3.83597145 48.0600675,5.02035818 C47.6337677,7.6330842 47.6810473,10.3995833 47.8868656,13.4274022 C48.4215775,21.293617 50.0263476,30.923611 47.1769164,44.2032258 C46.9347345,45.3322581 46.7342618,46.3819892 46.5674255,47.3604839 C46.5284073,47.377957 46.4840073,47.4008065 46.4463345,47.4155914 C39.6760073,49.9424731 21.3818618,61.8147849 21.3818618,61.8147849 L27.8911709,69.9303763 C27.8911709,69.9303763 36.2401648,65.987276 52.9381527,58.1010753 C53.2126255,57.9465054 53.4870982,57.7919355 53.7534982,57.6319892 C54.67648,57.0782258 55.4972073,56.4169355 56.2318255,55.6776882 C57.5871467,54.362276 58.3352194,53.3855735 58.4760436,52.7475806 C62.2446618,46.4330645 62.2204436,37.4895161 62.0401527,34.0043011 C62.0549527,33.9008065 62.0684073,33.7946237 62.0818618,33.6951613 Z" id="Fill-183" fill="#32465D"></path>
                                <path d="M13.0965527,64.2370968 L3.56266182,70.1483871 C3.56266182,70.1483871 -3.53595636,74.5986559 4.00128,76.6080645 C5.64542545,77.0462366 12.0094255,77.0932796 14.1917527,76.2787634 C15.9421891,75.6268817 21.3159345,70.1483871 21.6455709,68.5072581 C21.9738618,66.8647849 13.0965527,64.2370968 13.0965527,64.2370968" id="Fill-187" fill="#D4992B"></path>
                                <path d="M61.2505149,14.2429015 C60.8096946,11.8887821 60.8096946,11.3324106 60.1517489,9.54614783 C58.9547674,9.54614783 59.0341501,15.2842182 60.389897,26.7603589 C60.389897,32.847686 59.9197325,38.6112424 58.9794034,44.051028 C57.5689098,52.2107065 54.8275312,54.1628921 55.1953125,51.1055108 C55.3924438,49.4667496 56.265544,45.6152531 54.4214134,46.120973 C52.7437432,46.581044 51.4302138,53.5162349 50.3370916,54.409941 C47.8970757,56.4048298 51.0518942,49.7221542 48.2344904,51.1055108 C45.9986076,52.2033382 45.9105951,54.8198317 42.8326349,56.8313303 C41.5712502,57.6556664 36.2106737,60.900046 26.7509055,66.5644689 L25.4488104,71.2339865 L53.5483132,57.8777879 C54.6099909,57.2136554 55.1589906,56.8648362 55.1953125,56.8313303 C58.6007908,53.6898748 59.343889,51.4759712 60.389897,48.3983062 C61.984011,43.7079514 63.9754217,30.8885997 61.2505149,14.2429015 Z" id="Path-2" fill="#1A2531"></path>
                            </g>
                            <path d="M36.9345703,229.548828 L34.3125,229.606445 C37.6425781,210.586914 39.5214844,196.513672 39.9492188,187.386719 C40.3769531,178.259766 40.3769531,164.305013 39.9492188,145.522461 L42.7841797,173.291992 L36.9345703,229.548828 Z" id="Path-6" fill="#1D8FCE"></path>
                        </g>
                        <g id="shoe-1" transform="translate(0.000000, 86.000000)">
                            <path d="M1.3610981,11.4307389 C1.3610981,11.4307389 -0.891583877,11.9384866 0.39914201,16.512333 C1.68851493,21.0848071 10.5017104,21.3386809 10.5017104,21.3386809 C10.5017104,21.3386809 20.3661574,22.2142027 24.2599824,24.3865395 C28.20522,26.5890668 32.2830479,26.0319166 34.3395504,25.6147401 C35.9049276,25.2977409 37.8450753,24.4935783 38.6595585,23.6455023 C39.5579254,22.7137167 39.0221524,19.6452737 32.7877028,16.5960427 C26.5532532,13.5468118 17.8104119,6.3491448 17.3815229,3.30128618 C16.9499279,0.252055269 8.88492059,21.5925548 1.3610981,11.4307389" id="Fill-189" fill="#FEFEFE"></path>
                            <path d="M4.89356148,0 C4.89356148,0 -0.0345246033,9.21358858 1.19783143,13.6952933 C2.43018747,18.178343 10.8466038,18.4271772 10.8466038,18.4271772 C10.8466038,18.4271772 20.2679055,19.2853187 23.9877207,21.4145319 C27.7543681,23.5733363 31.6360889,22.9290576 33.6364931,22.8470096 C34.7965938,22.7985878 36.8853101,22.2659482 37.6640628,21.4360527 C38.5230993,20.5214191 38.0842146,16.7660411 32.1298342,13.7786863 C26.1767918,10.7899865 17.8272786,3.73520226 17.4164933,0.747847482 C17.007046,-2.24085235 12.0789599,9.96009101 4.89356148,0" id="Fill-191" fill="#010202"></path>
                            <polygon id="Fill-193" fill="#EE443D" points="8.23709122 12 6 11.2853535 6.7616179 9 9 9.71464646"></polygon>
                            <path d="M6.43010753,11.8298193 L8.76804916,12.5783133 L9.56989247,10.1701807 L7.23195084,9.42319277 L6.43010753,11.8298193 Z M8.98771121,13 L6,12.0436747 L7.01382488,9 L10,9.9563253 L8.98771121,13 Z" id="Fill-195" fill="#010202"></path>
                            <path d="M6.90718162,9.91736768 C6.61963112,10.7125303 5.75854241,11.1703513 4.98184352,10.9407321 C4.20514464,10.7111129 3.80663716,9.87909782 4.09262488,9.08393515 C4.3786126,8.28877249 5.24126408,7.82953416 6.01952574,8.05915332 C6.79622463,8.29018989 7.19316933,9.12078761 6.90718162,9.91736768" id="Fill-197" fill="#EE443D"></path>
                            <path d="M5.59602416,8.28505078 C5.0804961,8.28505078 4.57617516,8.6327593 4.38705481,9.16651114 C4.15730861,9.81060589 4.46830652,10.484211 5.08329788,10.6676882 C5.69688835,10.8524484 6.38332518,10.4765126 6.61447227,9.83370093 C6.84421848,9.18832311 6.53041878,8.51471803 5.91682831,8.33124084 C5.81036056,8.30044747 5.70249192,8.28505078 5.59602416,8.28505078 M5.40270114,11 C5.26401288,11 5.12392373,10.9807541 4.98523547,10.9396963 C4.20914159,10.7074629 3.80848663,9.87219264 4.09006581,9.07798018 C4.37304589,8.28505078 5.23459416,7.82828238 6.01348983,8.06051575 C6.7909846,8.29274912 7.19304046,9.12801942 6.90865949,9.92094882 C6.6761115,10.575308 6.049913,11 5.40270114,11" id="Fill-199" fill="#010202"></path>
                            <polygon id="Fill-201" fill="#EE443D" points="6 9.31701031 7.54733894 7 8 10"></polygon>
                            <path d="M5.53099858,8.91358025 L7.60246096,9.54248366 L7.13251301,6.77995643 L5.53099858,8.91358025 Z M8,10 L5,9.08932462 L7.32134406,6 L8,10 Z" id="Fill-203" fill="#010202"></path>
                        </g>
                    </g>
                    <polygon id="Fill-61-Copy" fill="#4EC2DF" points="604.933594 233.207031 607.785156 108.160156 675.445312 132.429688 669.230469 262.914062"></polygon>
                    <g id="woman-copy-2" transform="translate(353.000000, 66.000000)">
                        <path d="M18.0879655,214 L17.5974096,218.057216 L17,222.997066 C17,222.997066 19.029007,223.934377 20.0659741,223.996865 C20.9208041,224.048193 23.4282245,223.452332 23.4282245,223.452332 C23.4282245,223.452332 24.6679709,219.42078 25.0820291,218.077301 C25.3103076,217.3308 26,215.091297 26,215.091297 L18.0879655,214 Z" id="Fill-151" fill="#D4992B"></path>
                        <path d="M48,214 L48.3163424,227.011779 L54.1575875,228 C54.1575875,228 54.8614786,223.504957 55.2245136,221.858317 C55.5712062,220.294721 57,215.160241 57,215.160241 L48,214 Z" id="Fill-153" fill="#D4992B"></path>
                        <g id="Group-160" transform="translate(10.000000, 101.000000)">
                            <path d="M6.71975065,1.50195264 L44.9713408,0.289331423 C44.9713408,0.289331423 51.3464058,17.2660285 51.3464058,34.2427255 C51.3464058,51.2194226 52.4089166,73.0466045 51.3464058,87.5980592 C50.2838949,102.149514 47.0963625,117.91359 47.0963625,117.91359 L38.5962759,116.700968 L34.3462326,71.8339833 C34.3462326,71.8339833 30.0961893,47.581559 26.9074563,34.2427255 C23.7199238,20.9038921 27.9699671,64.558256 23.7199238,80.3223319 C19.4698805,96.0864077 16.1562874,114.283002 16.1562874,114.283002 L7.74744473,113.294715 C7.74744473,113.294715 9.90728312,48.7941802 2.07711861,17.4382207 C-0.877501876,5.6030376 6.71975065,1.50195264 6.71975065,1.50195264" id="Fill-155" fill="#FEFEFE"></path>
                            <mask id="mask-2" fill="white">
                                <use xlink:href="#path-1"></use>
                            </mask>
                            <g id="Clip-159"></g>
                            <polygon id="Fill-158" fill="#C0E5F0" mask="url(#mask-2)" points="-5.50584704 123.436352 52.7569639 123.436352 52.7569639 -4.85048487 -5.50584704 -4.85048487"></polygon>
                        </g>
                        <g id="Group-2" transform="translate(61.000000, 100.000000) rotate(86.000000) translate(-61.000000, -100.000000) translate(41.000000, 90.000000)">
                            <path d="M26.8276688,6.8606816 C26.8276688,6.8606816 33.703935,2.6899253 34.5492499,2.2671802 C37.5988494,0.743818855 39.2547568,6.80891689 35.9944272,10.9722782 C32.735295,15.1368721 27.0192416,12.686676 27.0192416,12.686676 L26.8276688,6.8606816 Z" id="Fill-145" fill="#D4992B" transform="translate(32.301335, 7.714945) rotate(24.000000) translate(-32.301335, -7.714945) "></path>
                            <path d="M29.281019,4.28526971 C29.281019,4.28526971 31.7322404,8.30105322 28.4587402,10.8091765 C28.4587402,10.8091765 26.8219901,10.63293 24.6308762,11.4402129 C22.4397623,12.2462633 11.6602004,17.7789244 7.94009607,18.4136583 C4.09427213,19.070577 1.44817284,16.2814454 0.707025568,14.8714734 C0.11075523,13.7363473 2.48745527,7.35203361 5.21018368,6.48559104 C7.0269324,5.90796265 15.0505442,5.17452221 29.281019,4.28526971 Z" id="Fill-147" fill="#EC8E8A"></path>
                            <path d="M12.2718316,7.28156984 C13.4628189,7.35249841 0.0107643963,8.05335068 1.58405601,13.1281162 C3.15734763,18.2041013 4.63642315,19.1918546 4.63642315,19.1918546 L7.93985661,18.4210659 L27.1917256,11.2278511 C27.1917256,11.2278511 29.921638,11.393717 29.9874911,7.61904762 L12.2718316,7.28156984 Z" id="Fill-149" fill="#EC554F"></path>
                        </g>
                        <path d="M7.694072,48.8634791 C1.69204152,59.8432425 13.3815961,69.7882954 15.7824083,79.3952865 C18.1832205,89.0022776 10.4093906,109.249763 10.0948842,110.621328 C9.78037779,111.9941 12.18119,111.9941 12.4956964,111.9941 C14.5820022,111.9941 62.0829159,193.340301 62.0829159,193.340301 L72.0569268,193.153039 C85.8496652,204.420324 59.3115341,99.6427718 55.7103158,94.1528901 C52.1090976,88.6630085 52.1090976,74.9389079 50.9086915,70.8217985 C49.7082854,66.7046891 53.3095037,51.6090237 52.1090976,46.119142 C50.9086915,40.6292603 41.4662971,41.5299534 36.1893119,38.3449286 C30.1872814,34.7228382 21.7844388,39.7177009 20.5840327,38.3449286 C20.5840327,38.3449286 13.6961025,37.8849231 7.694072,48.8634791 Z" id="Fill-161" fill="#EC8E8A"></path>
                        <path d="M40.3341207,66.0432305 C50.7935064,75.2599957 58.0493149,91.3941627 61.0202164,89.9034994 L63.9923425,88.4128361 C71.520344,87.4716214 67.2093904,79.1248571 61.162271,74.0155634 C55.4996789,69.2321637 51.2662055,54.0430892 47.0633473,47.9899099 C46.0322265,46.5052817 45.0023303,45.5698452 43.9552896,45.4732841 C38.6319142,44.978408 40.4296402,42.4943715 35.5226319,45.3513756 C35.5226319,45.3513756 29.8747351,56.8252584 40.3341207,66.0432305 Z" id="Fill-163" fill="#EC8E8A" transform="translate(51.000000, 67.000000) rotate(16.000000) translate(-51.000000, -67.000000) "></path>
                        <path d="M19.3159702,9.02848191 C19.3159702,9.02848191 30.3801101,0.128453432 36.5268545,12.8427798 C42.6735989,25.5571062 41.44425,31.9142694 38.9855523,34.4571347 C36.5268545,37 29.1507612,37 29.1507612,37 C29.1507612,37 23.0040168,35.7285674 18.0866213,31.9142694 C15.8873161,30.2080068 9.48117911,17.9285104 19.3159702,9.02848191" id="Fill-165" fill="#D4992B"></path>
                        <path d="M32.3534795,8 L35.7513396,15.0889464 L38.7277293,21.4096327 C38.7277293,21.4096327 41.487512,28.6938776 38.8777884,33.8673469 C36.2680649,39.0408163 18,24.8137755 18,24.8137755 L32.3534795,8 Z" id="Fill-167" fill="#C0872B"></path>
                        <path d="M47.3542429,72.3827058 L51.3432459,84.2916669 L54.6256601,92.5259264 C55.1609789,93.2315313 56.241493,92.4788216 57.1332853,92.5064688 C59.1966958,92.5701776 63.2306886,93.0971452 62.7050384,90.4458192 C62.1793882,87.7944933 60.4298498,83.973165 59.1189719,80.8504562 C59.0946392,80.8167987 54.8435148,71.2947732 54.8179655,71.2611157 C50.3565703,61.6446954 51.3539167,49.5460012 49.0870792,45.9032656 C46.8202416,42.26053 44.4081892,43.5892043 41.6356511,41.2209397 C40.5661299,40.3073692 37.0583114,37.4229205 32.652739,37.0811095 C25.8954516,36.5568381 17.6615942,38.7456627 17.6615942,38.7456627 C17.6615942,38.7456627 12.2427084,41.0884631 7.37617425,49.502831 C2.5096401,57.9171988 12.1137452,71.2503656 12.1137452,71.2503656 C12.1137452,71.2503656 13.1911121,80.8444538 10.1495282,94.0538092 C7.10794438,107.264367 9.17997488,194.187851 9.17997488,194.187851 C9.17997488,194.187851 7.64093345,197.965903 11.2908341,196.76385 L48.9405681,196.29401 C48.9405681,196.29401 69.3560555,194.264015 71.7893225,194.264015 C74.2225896,194.264015 54.8248822,105.999301 52.3916152,99.9890378 C49.9583481,93.9787751 41.4419133,81.9582497 41.4419133,81.9582497 C41.4419133,81.9582497 40.2252798,77.1500395 46.3084475,80.7561971 C52.3916152,84.3623547 46.7817341,74.1644636 46.7817341,74.1644636 L39.0086462,63.9274615 C39.0086462,63.9274615 38.1059041,59.2466689 41.598859,60.3850126 C44.3581839,61.2841479 44.5392537,63.1994264 45.2479304,64.8183428 C45.36285,65.0808674 46.0649541,67.6023217 47.3542429,72.3827058 Z" id="Fill-169" fill="#EC554F"></path>
                        <path d="M32.9241359,17.1919954 C31.118075,23.5875671 26.1767205,17.3100349 32.2395765,29.545354 C33.8591816,32.8156126 31.0890021,38.5090086 28.1602051,39.3318462 C19.0443328,41.8929258 14.2857656,36.4145681 10.8013552,34.2893488 C3.8700339,30.0617819 -1.01201514,15.3556194 4.15512244,7.60882007 C7.78674273,2.16437858 15.232783,0.622685249 16.2686478,0.421438567 C26.424998,-1.55029976 38.4324995,3.75997728 38.9808986,8.80671699 C39.3525912,12.2159316 34.191547,12.7034757 32.9241359,17.1919954 Z" id="Fill-171" fill="#111820"></path>
                        <path d="M26.9818449,225.209478 C22.225925,224.939339 22.6810652,223.480116 22.6810652,223.480116 L16.4225913,223 C16.4225913,223 13.7733205,228.80976 14.0156679,230.84583 C14.2816589,233.082441 16.647206,235.073684 19.7279735,233.344322 C20.5956954,232.857128 20.9479857,232.126927 20.9479857,232.126927 C20.9479857,232.126927 24.4058694,231.920489 25.2818666,231.727027 C29.5128976,230.791567 31.7956919,229.117648 31.9883876,227.323405 C32.2094557,225.266101 29.2279916,225.33688 26.9818449,225.209478" id="Fill-173" fill="#D82D27"></path>
                        <path d="M59.7607585,230.178131 C55.0997785,229.731573 55.2822202,228.473304 55.2822202,228.473304 L49.3813336,228 C49.3813336,228 46.7771809,233.727333 47.015401,235.734516 C47.2768622,237.939394 47.7939741,240.264051 52.6304236,238.19756 C53.4275894,237.85799 53.4833678,236.807882 53.4833678,236.807882 C53.4833678,236.807882 57.2623523,236.785787 58.2965763,236.557856 C62.3649111,235.661253 63.7675047,234.014572 63.9894561,231.882957 C64.198625,229.853679 61.2435334,230.320006 59.7607585,230.178131" id="Fill-175" fill="#D82D27"></path>
                        <ellipse id="Oval" fill="#FFFFFF" cx="10" cy="27.5" rx="5" ry="4.5"></ellipse>
                        <path d="M9.78153295,26.1404412 C6.66253019,24.5423658 -7.39109976,36.8833654 5.06261278,47.8494691 C13.3650878,55.1602049 16.5423144,65.5437152 14.5942926,79 C22.9953107,69.1560562 26.3094253,61.3242621 24.5366366,55.5046177 C21.8774534,46.7751512 13.4692627,48.351946 9.96642469,41.3809374 C6.46358667,34.4099289 12.9005357,27.7385167 9.78153295,26.1404412 Z" id="Path-7" fill="#111820"></path>
                    </g>
                    <path d="M179.9399,0.8134 C179.9529,0.7464 179.9609,0.7004 179.9609,0.7004" id="Fill-57" fill="#111820"></path>
                    <polygon id="Fill-59" fill="#FEFEFE" points="605.2982 108.973 341.7792 211.226 405.9142 245.805 675.6692 132.43"></polygon>
                    <polygon id="Fill-61" fill="#8FD2E8" points="342.932 341.362 342 211 406.135 245.579 406.135 381.108"></polygon>
                    <path d="M590.2308,146.1127 C590.2308,142.8747 582.5728,140.2487 573.1268,140.2487 C563.6798,140.2487 556.0228,142.8747 556.0228,146.1127 C556.0228,149.3517 563.6798,151.9767 573.1268,151.9767 C582.5728,151.9767 590.2308,149.3517 590.2308,146.1127" id="Fill-111" fill="#4EC2DF"></path>
                    <path d="M559.1713,147.307 C559.1713,139.51 565.4923,133.19 573.2893,133.19 C581.0863,133.19 587.4063,139.51 587.4063,147.307 C587.4063,147.307 581.9373,150.348 573.2893,150.348 C562.3753,150.348 559.1713,147.307 559.1713,147.307" id="Fill-113" fill="#D0ECF4"></path>
                    <path d="M573.0492,136.2914 C572.2432,136.2914 571.5832,135.6324 571.5832,134.8254 L571.5832,109.2514 C571.5832,108.4444 572.2432,107.7854 573.0492,107.7854 C573.8562,107.7854 574.5152,108.4444 574.5152,109.2514 L574.5152,134.8254 C574.5152,135.6324 573.8562,136.2914 573.0492,136.2914" id="Fill-115" fill="#B3E1F0"></path>
                    <polygon id="Fill-117" fill="#4EC2DF" points="545.1088 100.1761 545.2708 98.5471 577.9318 92.1131 599.7598 119.0721 599.8408 120.7011 567.5878 132.4301"></polygon>
                    <polygon id="Fill-119" fill="#D0ECF4" points="545.1088 98.5472 577.2808 91.2172 599.8408 119.0722 567.5878 130.8002"></polygon>
                    <polygon id="Fill-121" fill="#1E76BC" points="550.5385 100.3656 577.1055 94.3116 595.7355 117.3146 569.1015 126.9996"></polygon>
                    <polyline id="Fill-123" fill="#7FB6E2" points="550.5385 100.3656 577.1055 94.3116 595.7355 117.3146"></polyline>
                    <path d="M477.724,191.724 C477.724,188.485 470.066,185.86 460.62,185.86 C451.173,185.86 443.516,188.485 443.516,191.724 C443.516,194.962 451.173,197.588 460.62,197.588 C470.066,197.588 477.724,194.962 477.724,191.724" id="Fill-125" fill="#4EC2DF"></path>
                    <path d="M446.6654,192.9183 C446.6654,185.1213 452.9854,178.8003 460.7824,178.8003 C468.5794,178.8003 474.9004,185.1213 474.9004,192.9183 C474.9004,192.9183 469.4304,195.9593 460.7824,195.9593 C449.8684,195.9593 446.6654,192.9183 446.6654,192.9183" id="Fill-127" fill="#D0ECF4"></path>
                    <path d="M460.5433,181.9027 C459.7363,181.9027 459.0763,181.2427 459.0763,180.4367 L459.0763,154.8617 C459.0763,154.0547 459.7363,153.3957 460.5433,153.3957 C461.3493,153.3957 462.0093,154.0547 462.0093,154.8617 L462.0093,180.4367 C462.0093,181.2427 461.3493,181.9027 460.5433,181.9027" id="Fill-129" fill="#B3E1F0"></path>
                    <polygon id="Fill-131" fill="#4EC2DF" points="432.6019 145.7875 432.7649 144.1585 465.4249 137.7245 487.2529 164.6835 487.3339 166.3115 455.0809 178.0405"></polygon>
                    <polygon id="Fill-133" fill="#D0ECF4" points="432.6019 144.1586 464.7739 136.8276 487.3339 164.6826 455.0809 176.4116"></polygon>
                    <polygon id="Fill-135" fill="#1E76BC" points="438.0316 145.976 464.5986 139.923 483.2296 162.925 456.5946 172.611"></polygon>
                    <polyline id="Fill-137" fill="#7FB6E2" points="438.0316 145.976 464.5986 139.923 483.2296 162.925"></polyline>
                    <polygon id="Fill-139" fill="#111820" points="0.787109375 17.3125 44.9382 2.113 267.1272 116.791 212.3942 143.506"></polygon>
                    <path d="M195.7993,161.3617 C189.6193,162.8867 177.5883,163.3127 173.3163,161.8927 C167.8733,160.0847 170.3663,157.5027 165.2783,155.5157 C159.8553,153.3987 156.5863,154.6257 149.8683,152.8417 C142.5733,150.9057 142.6223,145.6267 150.8443,142.4007 C161.0993,138.3777 182.9243,137.9987 194.3403,140.0747 C215.7663,143.9707 209.1023,158.0777 195.7993,161.3617" id="Fill-143" fill="#111820"></path>
                </g>
                <g id="Group-205" transform="translate(7.000000, 14.000000)">
                    <g id="man" transform="translate(213.000000, 0.000000)">
                        <g id="Group-8">
                            <path d="M36.3989,18.204 C36.3989,18.204 36.0729,23.742 38.3529,26.023 C40.6339,28.303 34.1189,36.448 34.1189,36.448 C34.1189,36.448 26.6249,34.494 26.6249,32.865 C26.6249,31.235 27.9279,24.72 27.9279,22.439 C27.9279,20.159 36.3989,18.204 36.3989,18.204" id="Fill-65" fill="#D4992B"></path>
                            <path d="M27.1078,3.225 C27.1078,3.225 16.1618,2.515 18.2328,13.365 C20.3028,24.215 23.9978,27.713 26.6918,28.23 C29.3848,28.748 33.9438,25.443 33.9438,25.443 C33.9438,25.443 37.1548,21.879 38.4328,17.247 C39.0048,15.176 37.2958,4.486 27.1078,3.225" id="Fill-67" fill="#D4992B"></path>
                            <path d="M20.933,7.4969 L22.172,13.3689 L23.308,18.5809 C23.308,18.5809 24.875,23.8859 28.743,26.0229 C30.917,27.2239 34.718,26.7549 36.724,21.2989 C38.287,17.0509 38.353,7.6159 38.353,7.6159 L20.933,7.4969 Z" id="Fill-69" fill="#C0872B"></path>
                            <path d="M20.7055,164.9701 C20.7055,164.9701 17.6725,168.0031 16.2445,169.2521 C14.8165,170.5011 9.6425,172.2851 11.2485,173.7131 C12.8545,175.1411 15.3525,176.7461 18.0285,176.0331 C20.7055,175.3191 23.7385,172.2851 24.4525,171.5721 C25.1665,170.8581 26.9505,168.3601 26.9505,168.3601 L26.4155,163.1861 L20.7055,164.9701 Z" id="Fill-71" fill="#4F565A"></path>
                            <path d="M43.4575,170.7279 C42.5885,173.0089 39.6565,175.3979 37.9195,176.9179 C36.1815,178.4389 32.8695,180.7189 32.9785,182.2939 C33.1575,184.9029 36.8335,186.0409 40.0915,185.1719 C43.3495,184.3029 47.3125,179.3619 48.1815,178.4939 C48.5195,178.1559 48.9435,178.5939 49.4305,178.0589 C50.1975,177.2129 50.7575,176.5649 50.9505,175.8319 C51.3555,174.3019 50.2995,169.5339 50.2995,169.5339 C50.2995,169.5339 44.1055,169.0269 43.4575,170.7279" id="Fill-13" fill="#4F565A"></path>
                            <path d="M53.4321,86.2938 L18.1551,86.5108 C18.1551,86.5108 17.9371,91.5158 17.9371,105.5158 C17.9371,119.5158 18.3271,126.4208 19.1511,138.4208 C19.9751,150.4198 19.4571,168.1758 19.4571,168.1758 L28.3631,169.0448 L31.5891,138.0948 C31.5891,138.0948 33.4451,124.6118 34.3201,113.3348 C35.2301,101.6068 39.1731,120.5018 39.7801,137.1178 C40.2721,150.5808 42.2631,171.4338 42.2631,171.4338 L51.6021,172.0858 C51.6021,172.0858 53.4321,137.7688 54.6461,93.4608 C54.9211,83.4008 53.4321,86.2938 53.4321,86.2938" id="Fill-55" fill="#111820"></path>
                            <path d="M34.1518,12.9403 C34.1518,12.9403 30.9688,9.1903 27.4938,9.6243 C24.0188,10.0593 26.9498,16.0263 19.4028,14.3463 C11.8558,12.6653 13.1588,1.8053 20.5438,0.9373 L27.9278,0.0683 C27.9278,0.0683 35.4218,-0.3667 36.7238,3.0543 C38.0278,6.4753 42.0998,12.8283 40.7978,17.0633 C39.4938,21.2983 39.8198,22.9273 38.1908,23.5793 C36.5618,24.2313 36.5618,20.8103 36.5618,20.8103 C36.5618,20.8103 37.7018,13.9683 36.5618,12.8283 C35.4218,11.6883 34.1518,12.9403 34.1518,12.9403" id="Fill-177" fill="#BC3939"></path>
                            <path d="M12.562,63.0272 L14.761,57.6522 C14.191,42.9092 16.878,39.5432 17.612,36.7742 C19.138,31.0052 24.997,29.0092 25.973,31.0182 C27.377,33.9032 24.67,50.7832 24.019,55.9952 C24.009,56.0702 23.999,56.1492 23.989,56.2262 C24.122,58.8192 23.263,62.4832 20.462,67.1812 C20.306,67.8932 13.865,74.5112 13.865,74.5112 L7.593,71.5792 C7.593,71.5792 8.49,67.4252 12.562,63.0272" id="Fill-179" fill="#EE443D"></path>
                            <path d="M50.5161,29.8236 C56.3801,37.6426 50.7441,38.9456 51.4661,47.1986 C51.4661,47.1986 54.8871,76.0316 54.5621,86.4566 C54.5561,86.6166 51.7921,89.2256 51.7921,89.2266 C51.2221,90.1216 49.3491,91.3446 46.2541,91.5066 C28.0131,92.4666 16.0281,94.1626 16.9331,86.6196 C17.9101,78.4746 18.0311,67.3496 17.9101,54.6926 C17.8201,45.2086 16.5171,38.9916 18.0451,35.3626 C20.1271,30.4186 26.8421,29.0636 26.8421,29.0636 C26.8421,29.0636 27.2771,34.3846 30.4531,33.8956 C34.0431,33.3436 35.6521,27.1276 38.4891,26.4576 C43.7271,25.2196 48.3071,29.0116 50.5161,29.8236" id="Fill-181" fill="#D82D27"></path>
                            <path d="M52.7335201,61 C53.4210201,65.1030273 53.6719967,69.4682617 52.9813229,72.4295654 C52.2906491,75.3908691 47.771484,77.6959229 46.1433102,78.6369629 C44.5151364,79.5780029 41.2601608,80.8145625 38.1651608,80.9765625 C19.9241608,81.9365625 16.7995605,88.9337158 17.0214233,86.2801514 C17.2432861,83.6265869 16.8483276,87.1300049 17.9988403,76.7119141 C18.3424363,73.6005929 20.5414966,73.0845725 25.6835937,74.9434704 C30.8903771,76.8257527 36.403312,67.2830741 41.684692,67.8657227 C47.0301552,68.4554409 48.0372311,67.1391602 52.7335201,61 Z" id="Fill-181" fill="#9B211D"></path>
                            <path d="M54.3176,51.1092 C54.9686,45.8962 53.7656,34.7722 52.3626,31.8872 C52.0673502,31.2800794 50.8575777,29.7072258 48.8984375,28.6350098 C45.5181035,26.7849899 39.9695696,25.4866605 38.6542969,26.4487305 C38.2093884,26.7741634 44.039744,28.8939628 43.8959961,29.7751465 C43.5791517,31.7190146 43.6142919,33.7772899 43.7672649,36.0299872 C44.164686,41.882451 45.3574205,49.0471666 43.2396,58.9272 C43.0596,59.7672 42.9106,60.5482 42.7866,61.2762 C42.7576,61.2892 42.7246,61.3062 42.6966,61.3172 C37.6646,63.1972 24.0676,72.0302 24.0676,72.0302 L28.9056,78.0682 C28.9056,78.0682 35.1109333,75.1345333 47.5216,69.2672 C47.7256,69.1522 47.9296,69.0372 48.1276,68.9182 C48.8136,68.5062 49.4236,68.0142 49.9696,67.4642 C50.9769333,66.4855333 51.5329333,65.7588667 51.6376,65.2842 C54.4386,60.5862 54.4206,53.9322 54.2866,51.3392 C54.2976,51.2622 54.3076,51.1832 54.3176,51.1092 Z" id="Fill-183" fill="#EE443D"></path>
                            <path d="M7.1586,71.0634 L1.0506,76.0314 C1.0506,76.0314 -0.4974,80.9184 5.2046,79.8594 C10.9056,78.8014 12.1276,79.6154 12.1276,79.6154 C12.1276,79.6154 13.2666,75.4614 13.5126,74.2394 C13.7566,73.0184 7.1586,71.0634 7.1586,71.0634" id="Fill-185" fill="#D4992B"></path>
                            <path d="M17.9096,73.8324 L10.8236,78.2304 C10.8236,78.2304 5.5476,81.5414 11.1496,83.0364 C12.3716,83.3624 17.1016,83.3974 18.7236,82.7914 C20.0246,82.3064 24.0186,78.2304 24.2636,77.0094 C24.5076,75.7874 17.9096,73.8324 17.9096,73.8324" id="Fill-187" fill="#D4992B"></path>
                            <path d="M53.699707,36.6367188 C53.3720703,34.8852539 53.3720703,34.4713135 52.8830566,33.142334 C51.9934082,33.142334 52.0524089,37.4114583 53.0600586,45.949707 C53.0600586,50.4786784 52.710612,54.7667643 52.0117188,58.8139648 C50.9633789,64.8847656 48.9258678,66.3371917 49.1992188,64.0625 C49.3457353,62.8432617 49.9946611,59.9777483 48.6240234,60.3540039 C47.3771064,60.6962968 46.4008346,65.8560787 45.5883789,66.5209961 C43.7748536,68.0051933 46.1196511,63.0332827 44.0256348,64.0625 C42.36383,64.8792836 42.2984153,66.8259548 40.0107422,68.3225098 C39.0732265,68.9358158 35.0890142,71.3496342 28.0581055,75.5639648 L27.090332,79.0380859 L47.9750977,69.1010742 C48.7641824,68.6069596 49.1722228,68.3474381 49.1992188,68.3225098 C51.7303175,65.9852669 52.2826202,64.3381226 53.0600586,62.0483398 C54.244873,58.5587158 55.7249756,49.0211182 53.699707,36.6367188 Z" id="Path-2" fill="#D52D27"></path>
                        </g>
                        <path d="M1.0502,70.2411 C1.0502,70.2411 -0.6148,70.6111 0.3392,73.9441 C1.2922,77.2761 7.8062,77.4611 7.8062,77.4611 C7.8062,77.4611 15.0972,78.0991 17.9752,79.6821 C20.8912,81.2871 23.9052,80.8811 25.4252,80.5771 C26.5822,80.3461 28.0162,79.7601 28.6182,79.1421 C29.2822,78.4631 28.8862,76.2271 24.2782,74.0051 C19.6702,71.7831 13.2082,66.5381 12.8912,64.3171 C12.5722,62.0951 6.6112,77.6461 1.0502,70.2411" id="Fill-189" fill="#FEFEFE"></path>
                        <path d="M3.7123,61.7865 C3.7123,61.7865 0.0293,68.6365 0.9503,71.9685 C1.8713,75.3015 8.1613,75.4865 8.1613,75.4865 C8.1613,75.4865 15.2023,76.1245 17.9823,77.7075 C20.7973,79.3125 23.6983,78.8335 25.1933,78.7725 C26.0603,78.7365 27.6213,78.3405 28.2033,77.7235 C28.8453,77.0435 28.5173,74.2515 24.0673,72.0305 C19.6183,69.8085 13.3783,64.5635 13.0713,62.3425 C12.7653,60.1205 9.0823,69.1915 3.7123,61.7865" id="Fill-191" fill="#010202"></path>
                        <polygon id="Fill-193" fill="#EE443D" points="5.9965 70.8138 4.2635 70.2478 4.8535 68.4378 6.5875 69.0038"></polygon>
                        <path d="M4.4028,70.1766 L5.9248,70.6736 L6.4468,69.0746 L4.9248,68.5786 L4.4028,70.1766 Z M6.0678,70.9536 L4.1228,70.3186 L4.7828,68.2976 L6.7268,68.9326 L6.0678,70.9536 Z" id="Fill-195" fill="#010202"></path>
                        <path d="M5.1625,68.8529 C4.9785,69.4139 4.4275,69.7369 3.9305,69.5749 C3.4335,69.4129 3.1785,68.8259 3.3615,68.2649 C3.5445,67.7039 4.0965,67.3799 4.5945,67.5419 C5.0915,67.7049 5.3455,68.2909 5.1625,68.8529" id="Fill-197" fill="#EE443D"></path>
                        <path d="M4.3305,67.6117 C3.9625,67.6117 3.6025,67.8827 3.4675,68.2987 C3.3035,68.8007 3.5255,69.3257 3.9645,69.4687 C4.4025,69.6127 4.8925,69.3197 5.0575,68.8187 C5.2215,68.3157 4.9975,67.7907 4.5595,67.6477 C4.4835,67.6237 4.4065,67.6117 4.3305,67.6117 M4.1925,69.7277 C4.0935,69.7277 3.9935,69.7127 3.8945,69.6807 C3.3405,69.4997 3.0545,68.8487 3.2555,68.2297 C3.4575,67.6117 4.0725,67.2557 4.6285,67.4367 C5.1835,67.6177 5.4705,68.2687 5.2675,68.8867 C5.1015,69.3967 4.6545,69.7277 4.1925,69.7277" id="Fill-199" fill="#010202"></path>
                        <polygon id="Fill-201" fill="#EE443D" points="4.1918 68.5355 5.5728 66.7375 5.9768 69.0655"></polygon>
                        <path d="M4.3784,68.475 L5.8374,68.908 L5.5064,67.006 L4.3784,68.475 Z M6.1174,69.223 L4.0044,68.596 L5.6394,66.469 L6.1174,69.223 Z" id="Fill-203" fill="#010202"></path>
                    </g>
                    <polygon id="Fill-141" fill="#4EC2DF" points="206 228.864 206 139.249 252.918 123 252.308 205.493"></polygon>
                    <polygon id="Fill-141-Copy" fill="#4EC2DF" points="0.724121094 110.633789 0.724121094 38.7441406 41.5332031 27.8876953 41.5332031 96.7890625"></polygon>
                    <polygon id="Fill-73" fill="#8FD2E8" points="0.720703125 38.7617188 41.5097656 27.8945312 252.6569 123.4349 206.3939 139.7239"></polygon>
                    <g id="display-shoes" transform="translate(37.000000, 32.000000)">
                        <path d="M1.725,9.2792 C1.725,9.2792 -0.121,9.4462 0.875,13.6812 C1.872,17.9172 8.681,18.1522 8.681,18.1522 C8.681,18.1522 16.301,18.9632 19.31,20.9752 C22.358,23.0152 25.509,22.4992 27.097,22.1132 C28.306,21.8192 29.804,21.0732 30.435,20.2892 C31.128,19.4262 30.713,16.5832 25.898,13.7592 C21.081,10.9362 14.059,5.1602 13.727,2.3362 C13.395,-0.4868 7.537,18.6912 1.725,9.2792" id="Fill-75" fill="#1D8FCE"></path>
                        <path d="M1.6479,9.2635 C1.6479,9.2635 -0.0171,9.6335 0.9369,12.9665 C1.8899,16.2985 8.4039,16.4835 8.4039,16.4835 C8.4039,16.4835 15.6949,17.1215 18.5729,18.7055 C21.4889,20.3095 24.5029,19.9045 26.0229,19.5995 C27.1799,19.3685 28.6139,18.7825 29.2159,18.1655 C29.8799,17.4865 29.4839,15.2495 24.8759,13.0275 C20.2679,10.8065 13.8059,5.5605 13.4889,3.3395 C13.1699,1.1175 7.2089,16.6685 1.6479,9.2635" id="Fill-77" fill="#111820"></path>
                        <path d="M4.31,0.8094 C4.31,0.8094 0.627,7.6594 1.548,10.9914 C2.469,14.3234 8.759,14.5094 8.759,14.5094 C8.759,14.5094 15.8,15.1464 18.58,16.7304 C21.395,18.3344 24.296,17.8564 25.791,17.7944 C26.658,17.7594 28.219,17.3634 28.801,16.7464 C29.443,16.0664 29.115,13.2744 24.665,11.0534 C20.216,8.8314 13.976,3.5864 13.669,1.3644 C13.363,-0.8576 9.68,8.2144 4.31,0.8094" id="Fill-79" fill="#FEFEFE"></path>
                        <polygon id="Fill-81" fill="#EE443D" points="6.5942 9.8363 4.8612 9.2703 5.4512 7.4613 7.1852 8.0263"></polygon>
                        <path d="M5.0004,9.1991 L6.5224,9.6961 L7.0444,8.0981 L5.5224,7.6011 L5.0004,9.1991 Z M6.6654,9.9761 L4.7204,9.3421 L5.3804,7.3211 L7.3244,7.9551 L6.6654,9.9761 Z" id="Fill-83" fill="#FEFEFE"></path>
                        <path d="M5.7602,7.8754 C5.5762,8.4374 5.0252,8.7604 4.5282,8.5974 C4.0312,8.4354 3.7762,7.8484 3.9592,7.2874 C4.1422,6.7264 4.6942,6.4024 5.1922,6.5644 C5.6892,6.7274 5.9432,7.3134 5.7602,7.8754" id="Fill-85" fill="#EE443D"></path>
                        <path d="M4.9282,6.6342 C4.5602,6.6342 4.2002,6.9062 4.0652,7.3212 C3.9012,7.8242 4.1232,8.3492 4.5622,8.4922 C5.0002,8.6352 5.4902,8.3432 5.6552,7.8412 C5.8192,7.3392 5.5952,6.8142 5.1572,6.6712 C5.0812,6.6462 5.0042,6.6342 4.9282,6.6342 M4.7902,8.7502 C4.6912,8.7502 4.5912,8.7352 4.4922,8.7032 C3.9382,8.5222 3.6522,7.8712 3.8532,7.2532 C4.0552,6.6342 4.6702,6.2782 5.2262,6.4592 C5.7812,6.6402 6.0682,7.2912 5.8652,7.9102 C5.6992,8.4192 5.2522,8.7502 4.7902,8.7502" id="Fill-87" fill="#FEFEFE"></path>
                        <polygon id="Fill-89" fill="#EE443D" points="4.7895 7.5585 6.1705 5.7595 6.5745 8.0875"></polygon>
                        <path d="M4.976,7.4979 L6.435,7.9299 L6.104,6.0289 L4.976,7.4979 Z M6.715,8.2459 L4.602,7.6189 L6.237,5.4909 L6.715,8.2459 Z" id="Fill-91" fill="#FEFEFE"></path>
                        <path d="M64.4936,36.4281 C64.4936,36.4281 62.6476,36.5951 63.6446,40.8301 C64.6406,45.0661 71.4496,45.3011 71.4496,45.3011 C71.4496,45.3011 79.0706,46.1121 82.0786,48.1251 C85.1266,50.1641 88.2776,49.6481 89.8656,49.2621 C91.0756,48.9681 92.5736,48.2231 93.2036,47.4391 C93.8976,46.5751 93.4826,43.7331 88.6666,40.9091 C83.8506,38.0851 76.8286,32.3091 76.4966,29.4861 C76.1646,26.6621 70.3056,45.8411 64.4936,36.4281" id="Fill-93" fill="#1D8FCE"></path>
                        <path d="M64.4164,36.413 C64.4164,36.413 62.7524,36.783 63.7054,40.116 C64.6584,43.448 71.1734,43.633 71.1734,43.633 C71.1734,43.633 78.4644,44.271 81.3424,45.854 C84.2584,47.459 87.2724,47.053 88.7924,46.749 C89.9494,46.518 91.3824,45.932 91.9854,45.314 C92.6494,44.635 92.2524,42.399 87.6454,40.177 C83.0374,37.955 76.5754,32.71 76.2574,30.489 C75.9394,28.267 69.9784,43.818 64.4164,36.413" id="Fill-95" fill="#FEFEFE"></path>
                        <path d="M67.0795,27.9584 C67.0795,27.9584 63.3965,34.8084 64.3175,38.1404 C65.2375,41.4734 71.5285,41.6584 71.5285,41.6584 C71.5285,41.6584 78.5685,42.2964 81.3485,43.8794 C84.1635,45.4844 87.0655,45.0064 88.5605,44.9444 C89.4265,44.9084 90.9875,44.5124 91.5705,43.8954 C92.2115,43.2164 91.8845,40.4244 87.4345,38.2024 C82.9845,35.9804 76.7455,30.7354 76.4375,28.5144 C76.1315,26.2924 72.4495,35.3634 67.0795,27.9584" id="Fill-97" fill="#EE443D"></path>
                        <polygon id="Fill-99" fill="#111820" points="69.3627 36.9857 67.6297 36.4197 68.2197 34.6107 69.9537 35.1757"></polygon>
                        <path d="M67.77,36.3485 L69.291,36.8455 L69.814,35.2465 L68.291,34.7505 L67.77,36.3485 Z M69.434,37.1255 L67.49,36.4905 L68.15,34.4695 L70.094,35.1045 L69.434,37.1255 Z" id="Fill-101" fill="#EE443D"></path>
                        <path d="M68.5287,35.0248 C68.3457,35.5858 67.7947,35.9098 67.2967,35.7468 C66.7997,35.5848 66.5457,34.9978 66.7277,34.4368 C66.9117,33.8758 67.4637,33.5518 67.9607,33.7138 C68.4577,33.8768 68.7127,34.4628 68.5287,35.0248" id="Fill-103" fill="#111820"></path>
                        <path d="M67.6967,33.7836 C67.3287,33.7836 66.9687,34.0546 66.8337,34.4706 C66.6707,34.9726 66.8927,35.4986 67.3317,35.6416 C67.7687,35.7846 68.2587,35.4916 68.4237,34.9906 C68.5877,34.4886 68.3647,33.9626 67.9257,33.8196 C67.8507,33.7956 67.7737,33.7836 67.6967,33.7836 M67.5587,35.8996 C67.4607,35.8996 67.3597,35.8846 67.2617,35.8526 C66.7077,35.6716 66.4207,35.0206 66.6227,34.4016 C66.8247,33.7836 67.4387,33.4276 67.9957,33.6086 C68.5507,33.7896 68.8367,34.4406 68.6347,35.0586 C68.4677,35.5686 68.0217,35.8996 67.5587,35.8996" id="Fill-105" fill="#EE443D"></path>
                        <polygon id="Fill-107" fill="#111820" points="67.558 34.7074 68.94 32.9094 69.344 35.2374"></polygon>
                        <path d="M67.7446,34.6469 L69.2036,35.0799 L68.8736,33.1779 L67.7446,34.6469 Z M69.4846,35.3949 L67.3716,34.7679 L69.0056,32.6409 L69.4846,35.3949 Z" id="Fill-109" fill="#EE443D"></path>
                    </g>
                    <g id="woman" transform="translate(139.000000, 47.000000)">
                        <path d="M14.9418,177.1039 L14.5378,180.7399 L14.0458,185.1669 C14.0458,185.1669 15.7168,186.0069 16.5708,186.0629 C17.2748,186.1089 19.3398,185.5749 19.3398,185.5749 C19.3398,185.5749 20.3608,181.9619 20.7018,180.7579 C20.8898,180.0889 21.4578,178.0819 21.4578,178.0819 L14.9418,177.1039 Z" id="Fill-151" fill="#D4992B"></path>
                        <path d="M40.0825,177.3754 L40.3535,188.3434 L45.3575,189.1764 C45.3575,189.1764 45.9605,185.3874 46.2715,183.9994 C46.5685,182.6814 47.7925,178.3534 47.7925,178.3534 L40.0825,177.3754 Z" id="Fill-153" fill="#D4992B"></path>
                        <g id="Group-160" transform="translate(8.000000, 84.000000)">
                            <path d="M5.5971,1.2386 L37.4581,0.2386 C37.4581,0.2386 42.7681,14.2386 42.7681,28.2386 C42.7681,42.2386 43.6531,60.2386 42.7681,72.2386 C41.8831,84.2386 39.2281,97.2386 39.2281,97.2386 L32.1481,96.2386 L28.6081,59.2386 C28.6081,59.2386 25.0681,39.2386 22.4121,28.2386 C19.7571,17.2386 23.2971,53.2386 19.7571,66.2386 C16.2171,79.2386 13.4571,94.2446 13.4571,94.2446 L6.4531,93.4296 C6.4531,93.4296 8.2521,40.2386 1.7301,14.3806 C-0.7309,4.6206 5.5971,1.2386 5.5971,1.2386" id="Fill-155" fill="#FEFEFE"></path>
                            <path d="M0.983,14.142 C7.504,40.001 5.705,93.191 5.705,93.191 L12.711,94.006 C12.711,94.006 15.47,79 19.01,66.001 C22.55,53 19.01,17 21.665,28 C24.321,39.001 27.86,59.001 27.86,59.001 L31.401,96 L37.145,96.793 C37.145,96.793 37.817,89.453 37.145,79.345 C37.013,77.377 34.104,64.902 33.886,62.838 C33.682,60.905 35.372,60.999 36.702,61.093 C38.003,61.186 38.96,61.277 37.47,59.472 C35.408,56.974 33.018,53.071 33.018,49.807 C33.018,49.245 33.806,50.107 34.78,50.969 C36.065,52.105 37.675,53.241 38.231,51.11 C39.922,44.625 38.115,20.041 37.796,17.445 C36.463,6.56 34.538,1.156 34.538,1.156 L4.85,1 C4.85,1 -1.478,4.382 0.983,14.142 Z" id="Fill-159" fill="#C0E5F0"></path>
                        </g>
                        <g id="arm-2" transform="translate(48.000000, 55.000000)">
                            <path d="M24.062,4.0267 C24.062,4.0267 29.805,0.6427 30.511,0.2997 C33.058,-0.9363 34.441,3.9847 31.718,7.3627 C28.996,10.7417 24.222,8.7537 24.222,8.7537 L24.062,4.0267 Z" id="Fill-145" fill="#D4992B"></path>
                            <path d="M25.6948,2.0609 C25.6948,2.0609 27.9918,7.5079 25.2578,9.5429 C25.2578,9.5429 23.8908,9.3999 22.0608,10.0549 C20.2308,10.7089 11.2278,15.1979 8.1208,15.7129 C4.9088,16.2459 2.6988,13.9829 2.0798,12.8389 C1.5818,11.9179 3.5668,6.7379 5.8408,6.0349 C8.1168,5.3319 25.6948,2.0609 25.6948,2.0609" id="Fill-147" fill="#1E76BC"></path>
                            <path d="M26.5346,6.8553 L6.3626,12.1493 C6.3626,12.1493 -0.1524,8.0773 1.1616,12.2383 C2.4756,16.4003 5.3616,16.3443 5.3616,16.3443 L8.1206,15.7123 L24.1996,9.8143 C24.1996,9.8143 26.4796,9.9503 26.5346,6.8553" id="Fill-149" fill="#114668"></path>
                        </g>
                        <path d="M17.1616,32.2386 C17.1616,32.2386 11.4236,31.8576 6.4236,40.9506 C1.4236,50.0446 11.1616,58.2816 13.1616,66.2386 C15.1616,74.1956 8.6856,90.9656 8.4236,92.1016 C8.1616,93.2386 10.1616,93.2386 10.4236,93.2386 C12.1616,93.2386 42.8686,91.8826 42.8686,91.8826 L48.4236,90.9656 C48.4236,90.9656 49.4236,83.0086 46.4236,78.4616 C43.4236,73.9146 43.4236,62.5476 42.4236,59.1376 C41.4236,55.7276 44.4236,43.2246 43.4236,38.6776 C42.4236,34.1306 34.5576,34.8766 30.1616,32.2386 C25.1616,29.2386 18.1616,33.3756 17.1616,32.2386" id="Fill-161" fill="#1E76BC"></path>
                        <path d="M32.5698,33.08 C32.5698,33.08 27.9578,42.586 36.4988,50.223 C45.0398,57.859 50.9648,71.226 53.3908,69.991 L55.8178,68.756 C55.9888,63.1 58.4448,61.061 53.5068,56.828 C48.8828,52.865 45.4258,40.281 41.9938,35.266 C41.1518,34.036 40.3108,33.261 39.4558,33.181 C35.1088,32.771 36.5768,30.713 32.5698,33.08" id="Fill-163" fill="#1E76BC"></path>
                        <path d="M16.1616,8.2386 C16.1616,8.2386 25.1616,1.2386 30.1616,11.2386 C35.1616,21.2386 34.1616,26.2386 32.1616,28.2386 C30.1616,30.2386 24.1616,30.2386 24.1616,30.2386 C24.1616,30.2386 19.1616,29.2386 15.1616,26.2386 C13.3726,24.8966 8.1616,15.2386 16.1616,8.2386" id="Fill-165" fill="#D4992B"></path>
                        <path d="M27.1616,7.2386 L29.7656,12.7196 L32.0466,17.6066 C32.0466,17.6066 34.1616,23.2386 32.1616,27.2386 C30.1616,31.2386 16.1616,20.2386 16.1616,20.2386 L27.1616,7.2386 Z" id="Fill-167" fill="#C0872B"></path>
                        <path d="M43.2045,57.7826 L49.1615,67.2386 L51.5115,70.3716 C51.9515,70.9586 52.6285,71.3216 53.3615,71.3446 C55.0575,71.3976 58.1615,70.2386 57.1615,68.2386 C57.1615,68.2376 56.3155,67.0536 56.3145,67.0526 C56.2945,67.0246 52.1825,61.2666 52.1615,61.2386 C48.4945,53.2386 44.8285,45.2386 41.1615,37.2386 C41.1615,37.2386 40.0875,35.3506 38.1615,33.2386 C36.0055,30.8736 14.6155,32.2896 14.6155,32.2896 C14.6155,32.2896 10.1615,34.2386 6.1615,41.2386 C2.1615,48.2386 10.0555,59.3306 10.0555,59.3306 C10.0555,59.3306 15.1615,66.2596 12.6615,77.2486 C10.1615,88.2386 8.4265,91.0956 8.4265,91.0956 C8.4265,91.0956 7.1615,94.2386 10.1615,93.2386 L31.2315,92.3986 C31.2315,92.3986 41.1615,91.2386 43.1615,91.2386 C45.1615,91.2386 45.1615,88.2386 43.1615,83.2386 C41.1615,78.2386 34.1615,68.2386 34.1615,68.2386 C34.1615,68.2386 33.1615,64.2386 38.1615,67.2386 C43.1615,70.2386 40.1615,63.2386 40.1615,63.2386 L32.1615,53.2386 C32.1615,53.2386 31.4195,49.3446 34.2905,50.2916 C36.5585,51.0396 38.9055,54.9386 39.7925,54.5756 C39.9845,54.4966 40.1735,54.2006 40.1615,53.2386" id="Fill-169" fill="#114668"></path>
                        <path d="M32.0287,8.2386 C32.3337,11.0846 28.0987,11.4916 27.0587,15.2386 C25.5767,20.5776 33.2667,23.0246 38.2417,33.2386 C39.5707,35.9686 42.1987,41.5646 40.7257,48.2386 C39.5657,53.4956 36.3067,57.3966 35.7567,57.2386 C35.1567,57.0666 38.1127,52.1766 37.1847,45.3996 C36.9077,43.3726 36.5287,40.8526 34.5137,38.2386 C31.5207,34.3546 25.7267,31.5106 23.3317,32.2386 C10.1617,36.2386 28.9567,50.5096 27.0587,51.2386 C25.4537,51.8556 13.2267,45.8366 8.1617,38.2386 C-0.7323,24.8976 -0.7883,13.7056 3.4517,7.2386 C6.4317,2.6936 12.5417,1.4066 13.3917,1.2386 C21.7257,-0.4074 31.5787,4.0256 32.0287,8.2386" id="Fill-171" fill="#111820"></path>
                        <path d="M22.978,187.0404 C18.955,186.8114 19.34,185.5744 19.34,185.5744 L14.046,185.1674 C14.046,185.1674 11.805,190.0924 12.01,191.8184 C12.235,193.7144 14.236,195.4024 16.842,193.9364 C17.576,193.5234 17.874,192.9044 17.874,192.9044 C17.874,192.9044 20.799,192.7294 21.54,192.5654 C25.119,191.7724 27.05,190.3534 27.213,188.8324 C27.4,187.0884 24.878,187.1484 22.978,187.0404" id="Fill-173" fill="#D82D27"></path>
                        <path d="M49.2582,190.2982 C45.2472,189.9142 45.4042,188.8322 45.4042,188.8322 L40.3262,188.4252 C40.3262,188.4252 38.0852,193.3502 38.2902,195.0762 C38.5152,196.9722 38.9602,198.9712 43.1222,197.1942 C43.8082,196.9022 43.8562,195.9992 43.8562,195.9992 C43.8562,195.9992 47.1082,195.9802 47.9982,195.7842 C51.4992,195.0132 52.7062,193.5972 52.8972,191.7642 C53.0772,190.0192 50.5342,190.4202 49.2582,190.2982" id="Fill-175" fill="#D82D27"></path>
                    </g>
                    <g id="woman-copy" transform="translate(609.057525, 273.404117) scale(-1, 1) rotate(3.000000) translate(-609.057525, -273.404117) translate(561.057525, 156.404117)">
                        <path d="M15.0879655,210 L14.5974096,214.057216 L14,218.997066 C14,218.997066 16.029007,219.934377 17.0659741,219.996865 C17.9208041,220.048193 20.4282245,219.452332 20.4282245,219.452332 C20.4282245,219.452332 21.6679709,215.42078 22.0820291,214.077301 C22.3103076,213.3308 23,211.091297 23,211.091297 L15.0879655,210 Z" id="Fill-151" fill="#D4992B"></path>
                        <path d="M46,210 L46.3163424,223.011779 L52.1575875,224 C52.1575875,224 52.8614786,219.504957 53.2245136,217.858317 C53.5712062,216.294721 55,211.160241 55,211.160241 L46,210 Z" id="Fill-153" fill="#D4992B"></path>
                        <g id="Group-160" transform="translate(8.050965, 99.946294)">
                            <path d="M6.74196136,1.46609796 L45.1199841,0.28242449 C45.1199841,0.28242449 51.5161205,16.8538531 51.5161205,33.4252816 C51.5161205,49.9967102 52.5821432,71.3028327 51.5161205,85.5069143 C50.4500977,99.7109959 47.2520295,115.098751 47.2520295,115.098751 L38.7238477,113.915078 L34.4597568,70.1191592 C34.4597568,70.1191592 30.1956659,46.4456898 26.9963932,33.4252816 C23.798325,20.4048735 28.0624159,63.0171184 23.798325,78.4048735 C19.5342341,93.7926286 16.2096886,111.554833 16.2096886,111.554833 L7.77305227,110.590139 C7.77305227,110.590139 9.94002955,47.6293633 2.08398409,17.0219347 C-0.880402273,5.46928163 6.74196136,1.46609796 6.74196136,1.46609796" id="Fill-155" fill="#FEFEFE"></path>
                            <path d="M1.18406818,16.7395102 C9.03890909,47.3481224 6.87193182,110.307714 6.87193182,110.307714 L15.3109773,111.272408 C15.3109773,111.272408 18.6343182,93.5102041 22.8984091,78.1236327 C27.1625,62.7346939 22.8984091,20.122449 26.0964773,33.1428571 C29.29575,46.164449 33.5586364,69.8379184 33.5586364,69.8379184 L37.8239318,113.632653 L44.7428409,114.571306 C44.7428409,114.571306 45.5522955,105.883143 44.7428409,93.9185714 C44.5838409,91.589102 41.0798182,76.8227755 40.8172273,74.3796735 C40.5715,72.0916327 42.6071818,72.202898 44.2092273,72.3141633 C45.7763409,72.4242449 46.9290909,72.5319592 45.1343182,70.3954286 C42.6505455,67.4386122 39.7716818,62.8187347 39.7716818,58.9552245 C39.7716818,58.29 40.7208636,59.3103265 41.8940909,60.3306531 C43.4419318,61.6753061 45.38125,63.0199592 46.0509773,60.497551 C48.0878636,52.8214286 45.91125,23.722 45.527,20.6491837 C43.9213409,7.76489796 41.6025909,1.36832653 41.6025909,1.36832653 L5.84204545,1.18367347 C5.84204545,1.18367347 -1.78031818,5.18685714 1.18406818,16.7395102 Z" id="Fill-159" fill="#C0E5F0"></path>
                        </g>
                        <g id="arm-3" transform="translate(56.000000, 64.000000)">
                            <path d="M28.0084465,4.97415882 C28.0084465,4.97415882 34.9381599,0.793923529 35.7900452,0.370217647 C38.8633484,-1.15660588 40.5321267,4.92227647 37.2464555,9.0951 C33.961991,13.2691588 28.2015083,10.8133941 28.2015083,10.8133941 L28.0084465,4.97415882 Z" id="Fill-145" fill="#D4992B"></path>
                            <path d="M29.9786425,2.54581765 C29.9786425,2.54581765 32.7502866,9.27446471 29.4513424,11.7882882 C29.4513424,11.7882882 27.8018703,11.6116412 25.5937255,12.4207588 C23.3855807,13.2286412 12.5222323,18.7738765 8.77321267,19.4100529 C4.89749623,20.0684647 2.23082956,17.2729941 1.48392157,15.8598176 C0.883016591,14.7221118 3.27819005,8.32328824 6.02208145,7.45487647 C8.76838612,6.58646471 29.9786425,2.54581765 29.9786425,2.54581765" id="Fill-147" fill="#1E76BC"></path>
                            <path d="M30.9919759,8.46831176 L6.65170437,15.0079588 C6.65170437,15.0079588 -1.20953243,9.97784118 0.375987934,15.1179 C1.9615083,20.2591941 5.44386124,20.1900176 5.44386124,20.1900176 L8.77297134,19.4093118 L28.1744796,12.1235471 C28.1744796,12.1235471 30.9256109,12.2915471 30.9919759,8.46831176" id="Fill-149" fill="#114668"></path>
                        </g>
                        <path d="M18.4994914,37.3091668 C18.4994914,37.3091668 11.6514894,36.8613929 5.68425174,47.5480281 C-0.282985955,58.2358386 11.3388062,67.9164516 13.7257013,77.2679919 C16.1125963,86.6195322 8.38383008,106.328635 8.07114682,107.66373 C7.75846357,109 10.1453586,109 10.4580419,109 C12.5322537,109 49.1794473,107.406348 49.1794473,107.406348 L55.8090484,106.328635 C55.8090484,106.328635 57.0024959,96.9770947 53.4221533,91.6331895 C49.8418107,86.2892843 49.8418107,72.9301088 48.6483632,68.9224737 C47.4549156,64.9148386 51.0352582,50.2205684 49.8418107,44.8766631 C48.6483632,39.5327579 39.2607048,40.4095016 34.0143094,37.3091668 C28.0470717,33.7833882 19.692939,38.645437 18.4994914,37.3091668" id="Fill-161" fill="#1E76BC"></path>
                        <path d="M37.5263753,38.3219978 C37.5263753,38.3219978 31.864593,49.5464484 42.3496933,58.5640299 C52.8347935,67.5804306 60.1084405,83.3638548 63.086646,81.9055973 L66.0660792,80.4473397 C66.2760021,73.7688742 69.2910362,71.3612733 63.2290499,66.3630512 C57.5525362,61.6836384 53.3086548,46.8247612 49.0954638,40.9031728 C48.061808,39.4508191 47.0293798,38.5357182 45.9797649,38.4412561 C40.6433018,37.9571382 42.4454476,35.5271025 37.5263753,38.3219978" id="Fill-163" fill="#1E76BC"></path>
                        <path d="M17.3159702,8.83309598 C17.3159702,8.83309598 28.3801101,0.507262888 34.5268545,12.4013102 C40.6735989,24.2953574 39.44425,30.2423811 36.9855523,32.6211905 C34.5268545,35 27.1507612,35 27.1507612,35 C27.1507612,35 21.0040168,33.8105953 16.0866213,30.2423811 C13.8873161,28.6461999 7.48117911,17.1589291 17.3159702,8.83309598" id="Fill-165" fill="#D4992B"></path>
                        <path d="M31.7010486,7 L34.9444605,13.5638393 L37.7855598,19.4163265 C37.7855598,19.4163265 40.4198978,26.1609977 37.928798,30.9512472 C35.4376983,35.7414966 18,22.5683107 18,22.5683107 L31.7010486,7 Z" id="Fill-167" fill="#C0872B"></path>
                        <path d="M49.2323308,67.7261472 L56.290749,78.9383217 L59.0752517,82.6531845 C59.5966054,83.3492025 60.3987792,83.7796191 61.2673071,83.8068907 C63.2768886,83.8697338 66.954802,82.4954836 65.7699072,80.1240423 C65.7699072,80.1228566 64.7674863,78.7189633 64.7663014,78.7177776 C64.7426035,78.6845774 59.8703161,71.8571979 59.8454333,71.8239978 C55.5004242,62.3382326 51.1565999,52.8524673 46.8115908,43.3667021 C46.8115908,43.3667021 45.5390138,41.1280616 43.2569064,38.6238195 C40.7022733,35.8195902 15.357374,37.4985706 15.357374,37.4985706 C15.357374,37.4985706 10.0798526,39.8095402 5.3402735,48.1095847 C0.600694379,56.4096293 9.95425377,69.5616428 9.95425377,69.5616428 C9.95425377,69.5616428 16.0043265,77.7775011 13.0420896,90.8073854 C10.0798526,103.838455 8.02406017,107.226059 8.02406017,107.226059 C8.02406017,107.226059 6.52516828,110.952779 10.0798526,109.767059 L35.0455856,108.771053 C35.0455856,108.771053 46.8115908,107.395617 49.1813803,107.395617 C51.5511699,107.395617 51.5511699,103.838455 49.1813803,97.9098521 C46.8115908,91.9812488 38.5173273,80.1240423 38.5173273,80.1240423 C38.5173273,80.1240423 37.3324325,75.3811597 43.2569064,78.9383217 C49.1813803,82.4954836 45.626696,74.1954391 45.626696,74.1954391 L36.1475378,62.3382326 C36.1475378,62.3382326 35.2683458,57.7210363 38.6701787,58.8439138 C41.3575201,59.7308328 44.1384681,64.3539577 45.1894698,63.9235411 C45.4169696,63.8298691 45.6409147,63.4788958 45.626696,62.3382326" id="Fill-169" fill="#114668"></path>
                        <path d="M30.9147273,17.0623178 C30.1158477,19.886531 42.7694092,35.9775899 38.9644144,47.4461036 C35.1594195,58.9146174 5.98655717,52.7813698 4.71023898,53.2624247 C2.76576655,53.9959522 2.52259374,49.3559385 4.0455818,40.5800101 C7.62497403,19.9544446 -2.82217233,15.2397935 2.31462713,7.55142746 C5.92492486,2.14805288 13.3272467,0.617988393 14.3570296,0.418259696 C24.4537482,-1.538606 36.3907494,3.73161612 36.9359285,8.74028876 C37.3054389,12.123788 32.174697,12.6076546 30.9147273,17.0623178 Z" id="Fill-171" fill="#DCDCDC"></path>
                        <path d="M30.9147273,17.0623178 C30.1158477,19.886531 42.7694092,35.9775899 38.9644144,47.4461036 C35.1594195,58.9146174 5.98655717,52.7813698 4.71023898,53.2624247 C2.76576655,53.9959522 2.52259374,49.3559385 4.0455818,40.5800101 C7.62497403,19.9544446 -2.82217233,15.2397935 2.31462713,7.55142746 C4.18489355,4.75228157 12.959177,22.9659172 20.0087801,25.6407032 C26.5674874,28.1292318 31.5219865,14.9153332 30.9147273,17.0623178 Z" id="Fill-171" fill="#C5C5C5"></path>
                        <path d="M25.5983866,220.212219 C20.5782489,219.94208 21.0586747,218.482857 21.0586747,218.482857 L14.4525078,218.002741 C14.4525078,218.002741 11.6560553,223.812501 11.9118664,225.848571 C12.1926347,228.085182 14.6896011,230.076425 17.9415223,228.347063 C18.857451,227.859869 19.229313,227.129668 19.229313,227.129668 C19.229313,227.129668 22.8793013,226.92323 23.803965,226.729768 C28.2700533,225.794308 30.6796695,224.120389 30.8830706,222.326146 C31.1164202,220.268842 27.9693192,220.339621 25.5983866,220.212219" id="Fill-173" fill="#1E76BC"></path>
                        <path d="M57.4067194,224.180872 C52.4715641,223.734314 52.6647377,222.476045 52.6647377,222.476045 L46.4167401,222.002741 C46.4167401,222.002741 43.659402,227.730074 43.9116351,229.737257 C44.1884763,231.942135 44.7360066,234.266792 49.856953,232.200301 C50.701011,231.860731 50.7600705,230.810623 50.7600705,230.810623 C50.7600705,230.810623 54.7613482,230.788528 55.8564088,230.560597 C60.1640575,229.663994 61.6491566,228.017313 61.8841639,225.885698 C62.1056369,223.85642 58.9767164,224.322747 57.4067194,224.180872" id="Fill-175" fill="#1E76BC"></path>
                    </g>
                </g>
                <path d="M137,0 L169.825989,0 C174.244267,-8.11624501e-16 177.825989,3.581722 177.825989,8 L177.825989,28.4257376 C177.825989,32.8440156 174.244267,36.4257376 169.825989,36.4257376 L161.835235,36.4257376 C163.199586,44.2929542 163.199586,48.2265625 161.835235,48.2265625 C160.470885,48.2265625 156.557459,44.2929542 150.094958,36.4257376 L137,36.4257376 C132.581722,36.4257376 129,32.8440156 129,28.4257376 L129,8 C129,3.581722 132.581722,8.11624501e-16 137,0 Z" id="chat-1" fill="#FEFEFE"></path>
                <path d="M641,118 L673.825989,118 C678.244267,118 681.825989,121.581722 681.825989,126 L681.825989,146.425738 C681.825989,150.844016 678.244267,154.425738 673.825989,154.425738 L665.835235,154.425738 C659.372735,162.954413 655.459309,167.21875 654.094958,167.21875 C652.730608,167.21875 652.730608,162.954413 654.094958,154.425738 L641,154.425738 C636.581722,154.425738 633,150.844016 633,146.425738 L633,126 C633,121.581722 636.581722,118 641,118 Z" id="chat-2" fill="#FFEEEE"></path>
            </g>
        </g>
    </g>
</svg>