<?xml version="1.0" encoding="UTF-8"?>
<svg width="1440px" height="870px" viewBox="0 0 1440 870" version="1.1" xmlns="http://www.w3.org/2000/svg" xmlns:xlink="http://www.w3.org/1999/xlink">
    <!-- Generator: Sketch 51.3 (57544) - http://www.bohemiancoding.com/sketch -->
    <title>Group 172</title>
    <desc>Created with Sketch.</desc>
    <defs></defs>
    <g id="Page-1" stroke="none" stroke-width="1" fill="none" fill-rule="evenodd">
        <g id="Desktop-HD-Copy-22" transform="translate(0.000000, -1.000000)">
            <g id="Group-172" transform="translate(-64.000000, 0.000000)">
                <g id="Group-27" transform="translate(0.000000, 0.610000)">
                    <polygon id="Fill-3" fill="#4EC2DF" points="61.303 765.196 1503.907 765.196 1503.907 0.89 61.303 0.89"></polygon>
                    <polygon id="Stroke-5" stroke="#989898" points="61.303 765.196 1503.907 765.196 1503.907 0.89 61.303 0.89"></polygon>
                    <path d="M62.2233151,464.2428 C291.989101,354.2088 446.387995,354.1818 546.014154,375.7878 C665.983294,401.8048 688.200025,455.2158 805.754893,461.1928 C972.80787,469.6878 1031.71792,367.1058 1194.37236,363.5868 C1266.43282,362.0278 1372.73012,379.6118 1505.6648,476.4438 L1505.6648,613.7028 L58.2578,613.7028 L62.2233151,464.2428 Z" id="Fill-6" fill="#8FD2E8"></path>
                    <path d="M56.9998,768.4313 L649.4858,765.9543 L636.4858,596.9543 C523.0558,422.1953 280.5278,304.3893 59.5588,233.9703 L56.9998,768.4313 Z" id="Fill-7" fill="#1E76BC"></path>
                    <path d="M1502.5778,573.89071 C1655.1617,686.398527 1683.27639,763.231624 1586.92188,804.39 C1442.39011,866.127564 951.376114,870.39 808.453125,870.39 C683.63961,870.39 178.265625,854.765 55.4102414,828.397813 C-67.4451423,802.030625 55.4102414,582.830814 55.4102414,574.978346 C55.4102414,574.978346 763.141593,380.197167 1502.5778,573.89071 Z" id="Fill-8" fill="#111820"></path>
                </g>
            </g>
        </g>
    </g>
</svg>