<?xml version="1.0" encoding="UTF-8"?>
<svg width="837px" height="612px" viewBox="0 0 837 612" version="1.1" xmlns="http://www.w3.org/2000/svg" xmlns:xlink="http://www.w3.org/1999/xlink">
    <!-- Generator: Sketch 51.3 (57544) - http://www.bohemiancoding.com/sketch -->
    <title>Group 172</title>
    <desc>Created with Sketch.</desc>
    <defs>
        <polyline id="path-1" points="0.519 33.574 288.01 71.44 286.972 24.293 2.086 0.906"></polyline>
    </defs>
    <g id="Page-1" stroke="none" stroke-width="1" fill="none" fill-rule="evenodd">
        <g id="Desktop-HD-Copy-21" transform="translate(-577.000000, -41.000000)">
            <g id="Group-172" transform="translate(577.000000, 40.000000)">
                <g id="Group-27" transform="translate(0.000000, 0.610000)">
                    <path d="M405.8064,25.9718 L281.6664,25.9718 L264.4714,25.5528 C264.4714,25.5528 271.6014,18.0038 278.7314,15.9068 C283.4094,14.5308 282.0864,25.9718 292.5654,16.6448 C292.5654,16.6448 298.1674,12.2528 301.4954,11.8218 C305.5724,11.2928 303.3424,18.9598 307.3044,19.0998 C312.1774,19.2718 316.2394,11.5408 321.9284,7.9378 C327.0904,4.6698 331.3354,8.1728 331.6844,11.8218 C331.8334,13.3938 332.7964,15.4828 334.6034,16.0288 C336.8404,16.7048 339.9544,13.0378 343.2944,10.0348 C343.9944,9.4058 356.5174,-1.6612 363.6574,1.2318 C368.7714,3.3048 367.9564,8.9688 372.5904,13.6018 C373.9014,14.9118 374.5784,15.3428 375.3434,15.6508 C379.7744,17.4338 383.7534,13.2368 387.7734,12.5518 C391.3954,11.9338 397.0854,13.8198 405.8064,25.9718" id="Fill-9" fill="#E5EEF6"></path>
                    <path d="M739.6648,115.1427 C746.7208,107.1397 757.3738,97.1327 760.1758,99.1907 C762.8288,101.1397 757.8018,110.1467 760.1758,111.7247 C762.2388,113.0957 766.7658,106.9027 774.9878,102.6087 C786.3078,96.6977 801.3698,96.0887 804.6138,101.4697 C806.9618,105.3627 801.9828,110.5007 804.6138,114.0037 L739.6648,115.1427 Z" id="Fill-10" fill="#FEFEFE"></path>
                    <path d="M533.7498,601.108 L514.0688,577.367 L836.295155,510.545 C836.295155,510.545 836.5428,520.791 823.9208,523.265 L533.7498,601.108" id="Fill-11" fill="#3A4045"></path>
                    <path d="M0.6072,131.192 C40.7692,96.438 54.6072,91.94 59.1682,95.596 C64.6442,99.987 52.7092,103.403 61.4642,112.046 C67.1652,117.674 77.4352,114.171 84.4292,112.046 C104.3232,106.002 110.6862,96.035 120.0252,96.745 C130.0542,97.506 119.6712,108.131 132.6562,112.046 C150.8442,117.531 187.6342,85.872 198.1052,91.004 C204.8772,94.321 201.9972,105.329 210.7362,112.046 C225.5732,123.45 268.6362,87.576 278.4822,96.745 C284.6522,102.489 283.7032,107.486 289.9642,112.046 C295.3052,115.935 293.8692,109.589 309.4852,112.046 C318.8202,113.515 325.3352,126.15 329.0052,131.192 L0.6072,131.192 Z" id="Fill-12" fill="#E5EEF6"></path>
                    <path d="M310.2644,459.316 L70.8844,488.334 C70.8844,495.854 79.2644,503.121 86.7854,503.121 L533.7494,601.108 C541.2704,601.108 547.4234,594.955 547.4234,587.434 L835.9234,509.432 L310.2644,459.316 Z" id="Fill-13" fill="#222A33"></path>
                    <polygon id="Fill-14" fill="#656B71" points="547.7273 587.2662 70.8233 488.2722 399.3593 441.4972 836.2943 510.5452"></polygon>
                    <polygon id="Fill-15" fill="#CCE0F2" points="548.5935 578.4801 100.8925 489.3851 397.1315 447.0661 811.4225 510.5451"></polygon>
                    <polygon id="Fill-16" fill="#111820" points="485.3601 479.8571 530.5631 472.4331 420.1481 455.6041 373.0031 462.0391"></polygon>
                    <polygon id="Fill-17" fill="#B4D2EE" points="613.4343 499.5328 658.6363 492.1078 548.2213 475.2788 501.0763 481.7138"></polygon>
                    <polygon id="Fill-18" fill="#369AD5" points="372.5076 462.5338 484.8656 479.8568 522.4836 385.3178 410.7536 373.6668"></polygon>
                    <polygon id="Fill-19" fill="#7FB6E2" points="143.5828 489.0143 335.8798 462.2853 532.3828 494.4583 338.8498 526.8793"></polygon>
                    <polygon id="Fill-20" fill="#222A33" points="352.9558 530.2203 542.7768 497.5523 729.3818 532.0763 572.7238 572.1693"></polygon>
                    <polygon id="Fill-21" fill="#111820" points="542.8074 497.4674 546.7174 566.9704 573.0784 572.1554 729.3814 532.0764"></polygon>
                    <path d="M571.613,571.8297 L571.236,292.3667 C571.236,289.8597 568.129,287.8087 564.331,287.8087 C560.533,287.8087 557.426,289.8597 557.426,292.3667 L557.604,569.2237 L571.613,571.8297 Z" id="Fill-22" fill="#3A4045"></path>
                    <path d="M571.613,571.8297 L571.236,292.3667 C571.236,289.8597 570.279,288.7447 566.482,288.7447 L569.089,289.1787 L569.089,570.6617 L571.613,571.8297 Z" id="Fill-23" fill="#656B71"></path>
                    <path d="M699.9373,384.777 L689.8473,382.428 L436.6993,352.272 C433.1053,352.272 430.1643,349.952 430.1643,347.117 L430.1643,78.347 C430.1643,75.512 433.1053,73.193 436.6993,73.193 L697.8423,49.681 L703.5503,49.996 C707.1453,49.996 710.0853,52.315 710.0853,55.151 L710.0853,378.906 C710.0853,381.741 703.5323,384.777 699.9373,384.777" id="Fill-24" fill="#369AD5"></path>
                    <path d="M429.418457,352.034043 C425.783457,352.034043 422.809457,349.715043 422.809457,346.879043 L422.809457,78.110043 C422.809457,75.274043 425.783457,72.955043 429.418457,72.955043 L699.9939,49.6505 C703.6289,49.6505 706.6019,51.9695 706.6019,54.8045 L706.6019,378.5605 C706.6019,381.3955 703.6289,383.7145 699.9939,383.7145 L429.418457,352.034043 Z" id="Fill-25" fill="#EE443D"></path>
                    <path d="M706.3953,345.9215 L710.0853,344.9425 L710.2013,379.0845 C710.2013,379.0845 709.6243,382.7965 701.2063,384.6525 L706.3953,345.9215 Z" id="Fill-26" fill="#CCE0F2"></path>
                </g>
                <g id="Group-30" transform="translate(420.000000, 322.610000)">
                    <mask id="mask-2" fill="white">
                        <use xlink:href="#path-1"></use>
                    </mask>
                    <g id="Clip-29"></g>
                    <path d="M279.8728,62.8453 L9.3618,31.0563 C5.7188,31.0563 2.7368,28.7373 2.7368,25.9023 L2.7368,-242.8677 C2.7368,-245.7027 5.7188,-248.0227 9.3618,-248.0227 L279.8728,-271.2197 C283.5168,-271.2197 286.4978,-268.9007 286.4978,-266.0647 L286.4978,57.6903 C286.4978,60.5253 283.5168,62.8453 279.8728,62.8453" id="Fill-28" fill="#FEFEFE" mask="url(#mask-2)"></path>
                </g>
                <g id="Group-171" transform="translate(422.000000, 79.610000)">
                    <path d="M159.6326,222.173 L30.4456,519.156" id="Fill-31" fill="#222A33"></path>
                    <path d="M154.7126,219.2975 C140.1046,252.8795 125.4966,286.4615 110.8886,320.0435 C87.7756,373.1755 64.6636,426.3075 41.5516,479.4405 C36.2096,491.7195 30.8666,503.9995 25.5256,516.2795 C22.6296,522.9375 32.4436,528.7455 35.3646,522.0305 C49.9726,488.4485 64.5806,454.8665 79.1896,421.2845 C102.3016,368.1525 125.4136,315.0215 148.5256,261.8885 C153.8676,249.6085 159.2096,237.3285 164.5516,225.0485 C167.4476,218.3915 157.6336,212.5825 154.7126,219.2975" id="Fill-33" fill="#BC3939"></path>
                    <path d="M0.8515625,18.0291602 C5.01683437,18.0291602 115.3034,19.8158 149.8374,105.8248 C184.3704,191.8338 196.5744,212.9938 284.1374,267.0838 L0.8515625,243.951523 L0.8515625,18.0291602 Z" id="Fill-35" fill="#D82D27"></path>
                    <path d="M179.6082,232.7145 L156.6252,232.7145 L154.1412,232.7145 C151.9422,232.7145 151.9382,236.1325 154.1412,236.1325 L171.7042,236.1325 L174.1872,236.1325 C176.3872,236.1325 178.2872,232.7145 176.0842,232.7145 L179.6082,232.7145 Z" id="Fill-37" fill="#97999C"></path>
                    <path d="M164.5789,257.109 C158.7429,256.876 152.9059,256.643 147.0689,256.41 C146.2289,256.376 145.3899,256.342 144.5489,256.309 C142.3499,256.221 142.3529,259.64 144.5489,259.728 C150.3859,259.961 156.2229,260.194 162.0579,260.427 C162.8989,260.461 163.7389,260.494 164.5789,260.527 C166.7789,260.615 166.7749,257.197 164.5789,257.109" id="Fill-39" fill="#97999C"></path>
                    <path d="M154.9021,281.7906 C149.0951,281.1566 143.2891,280.5236 137.4811,279.8916 C136.6451,279.7996 135.8091,279.7086 134.9741,279.6176 C134.0541,279.5176 133.2641,280.4746 133.2641,281.3266 C133.2641,282.3336 134.0521,282.9356 134.9741,283.0356 C140.7811,283.6686 146.5881,284.3026 152.3941,284.9356 C153.2301,285.0266 154.0661,285.1176 154.9021,285.2086 C155.8211,285.3096 156.6111,284.3516 156.6111,283.4996 C156.6111,282.4926 155.8241,281.8916 154.9021,281.7906" id="Fill-41" fill="#97999C"></path>
                    <path d="M148.5574,306.4625 L128.2954,303.4805 C127.3364,303.3395 126.3774,303.1975 125.4184,303.0565 C124.4984,302.9215 123.5934,303.2855 123.3174,304.2505 C123.0854,305.0535 123.5984,306.2185 124.5104,306.3535 C131.2644,307.3475 138.0184,308.3415 144.7714,309.3355 C145.7304,309.4775 146.6894,309.6175 147.6484,309.7595 C148.5684,309.8955 149.4744,309.5295 149.7504,308.5655 C149.9814,307.7625 149.4684,306.5975 148.5574,306.4625" id="Fill-43" fill="#97999C"></path>
                    <path d="M137.8162,330.4645 C131.0632,329.4665 124.3102,328.4685 117.5562,327.4695 C116.5982,327.3275 115.6392,327.1865 114.6802,327.0445 C113.7602,326.9085 112.8542,327.2745 112.5782,328.2375 C112.3472,329.0415 112.8602,330.2055 113.7712,330.3405 C120.5252,331.3395 127.2782,332.3375 134.0312,333.3355 C134.9902,333.4775 135.9492,333.6195 136.9082,333.7615 C137.8282,333.8975 138.7332,333.5305 139.0092,332.5675 C139.2412,331.7645 138.7282,330.5995 137.8162,330.4645" id="Fill-45" fill="#97999C"></path>
                    <path d="M127.7371,354.652 C121.0161,353.544 114.2951,352.435 107.5741,351.327 C106.6031,351.168 105.6331,351.007 104.6621,350.847 C102.5091,350.492 101.5841,353.786 103.7531,354.143 C110.4741,355.252 117.1951,356.36 123.9171,357.468 C124.8871,357.629 125.8581,357.789 126.8291,357.948 C128.9801,358.303 129.9061,355.009 127.7371,354.652" id="Fill-47" fill="#97999C"></path>
                    <path d="M116.5544,378.152 L96.2374,375.58 C95.2754,375.459 94.3144,375.337 93.3524,375.215 C92.4284,375.098 91.6524,376.085 91.6434,376.924 C91.6324,377.944 92.4404,378.518 93.3524,378.633 C100.1244,379.491 106.8974,380.347 113.6694,381.205 C114.6314,381.327 115.5934,381.448 116.5544,381.57 C117.4784,381.687 118.2554,380.701 118.2634,379.861 C118.2744,378.841 117.4664,378.267 116.5544,378.152" id="Fill-49" fill="#97999C"></path>
                    <path d="M107.2156,403.069 C100.5286,401.71 93.8416,400.35 87.1546,398.991 C86.2016,398.797 85.2496,398.603 84.2966,398.41 C82.1496,397.973 81.2306,401.267 83.3886,401.706 L103.4476,405.784 C104.4016,405.978 105.3546,406.172 106.3066,406.365 C108.4536,406.801 109.3726,403.507 107.2156,403.069" id="Fill-51" fill="#97999C"></path>
                    <path d="M96.3669,427.0905 L76.3159,422.9655 C75.3639,422.7695 74.4119,422.5725 73.4599,422.3775 C71.3119,421.9355 70.3939,425.2305 72.5509,425.6735 C79.2339,427.0485 85.9179,428.4245 92.6009,429.7995 C93.5539,429.9955 94.5059,430.1915 95.4579,430.3875 C97.6049,430.8285 98.5229,427.5345 96.3669,427.0905" id="Fill-53" fill="#97999C"></path>
                    <path d="M90.6775,451.9449 C82.4245,450.0679 74.1715,448.1919 65.9195,446.3149 L62.3925,445.5119 C60.2495,445.0249 59.3355,448.3199 61.4835,448.8089 C69.7365,450.6849 77.9895,452.5619 86.2405,454.4389 L89.7685,455.2419 C91.9105,455.7279 92.8245,452.4329 90.6775,451.9449" id="Fill-55" fill="#97999C"></path>
                    <path d="M79.7156,474.9928 C71.7216,473.6718 63.7286,472.3488 55.7356,471.0268 C54.5806,470.8368 53.4266,470.6448 52.2716,470.4548 C50.1196,470.0978 49.1946,473.3918 51.3626,473.7508 C59.3566,475.0728 67.3496,476.3938 75.3426,477.7168 C76.4976,477.9078 77.6526,478.0978 78.8066,478.2898 C80.9586,478.6448 81.8836,475.3518 79.7156,474.9928" id="Fill-57" fill="#97999C"></path>
                    <path d="M66.3064,499.1559 C59.6324,497.7339 52.9584,496.3109 46.2854,494.8889 C45.3334,494.6859 44.3834,494.4839 43.4324,494.2809 C41.2864,493.8239 40.3694,497.1189 42.5244,497.5779 C49.1974,498.9999 55.8704,500.4229 62.5444,501.8439 C63.4954,502.0469 64.4474,502.2499 65.3974,502.4519 C67.5424,502.9099 68.4594,499.6149 66.3064,499.1559" id="Fill-59" fill="#97999C"></path>
                    <polygon id="Fill-61" fill="#010202" points="259.8113 140.3883 196.1293 138.3333 198.2753 71.8473 261.9563 73.9023"></polygon>
                    <path d="M199.2244,135.4318 L256.9094,137.2928 L258.8614,76.8038 L201.1764,74.9428 L199.2244,135.4318 Z M262.7114,143.4838 L193.0354,141.2358 L195.3734,68.7518 L265.0504,70.9998 L262.7114,143.4838 Z" id="Fill-63" fill="#EE443D"></path>
                    <path d="M212.6755,82.7443 C212.0105,103.3693 196.6585,119.6103 178.3865,119.0203 C160.1145,118.4313 145.8425,101.2343 146.5075,80.6093 C147.1725,59.9853 162.5245,43.7443 180.7965,44.3333 C199.0685,44.9233 213.3415,62.1203 212.6755,82.7443" id="Fill-65" fill="#010202"></path>
                    <path d="M179.8308,47.318 C172.1798,47.318 164.8938,50.585 159.2288,56.577 C153.2578,62.896 149.8048,71.465 149.5058,80.706 C149.2078,89.947 152.1018,98.721 157.6538,105.412 C163.1188,111.997 170.5168,115.765 178.4828,116.022 C186.4788,116.272 194.0748,112.995 199.9538,106.776 C205.9258,100.458 209.3788,91.889 209.6778,82.648 C209.9758,73.406 207.0818,64.632 201.5288,57.942 C196.0638,51.357 188.6668,47.589 180.6998,47.332 C180.4098,47.323 180.1188,47.318 179.8308,47.318 M179.3608,122.036 C179.0048,122.036 178.6478,122.03 178.2898,122.019 C168.5828,121.706 159.6138,117.169 153.0368,109.244 C146.5468,101.424 143.1638,91.221 143.5098,80.513 C143.8538,69.805 147.8888,59.84 154.8688,52.456 C161.9428,44.972 171.1638,41.032 180.8928,41.335 C190.6008,41.648 199.5688,46.185 206.1458,54.11 C212.6368,61.929 216.0188,72.133 215.6738,82.841 C215.3288,93.549 211.2948,103.513 204.3138,110.898 C197.5008,118.106 188.6758,122.036 179.3608,122.036" id="Fill-67" fill="#EE443D"></path>
                    <polygon id="Fill-69" fill="#010202" points="177.0037 81.5934 205.7727 7.7574 242.0947 81.9074"></polygon>
                    <path d="M181.3835,78.6144 L237.2735,78.8844 L206.0855,15.2164 L181.3835,78.6144 Z M246.9155,84.9304 L172.6235,84.5724 L205.4585,0.2974 L246.9155,84.9304 Z" id="Fill-71" fill="#EE443D"></path>
                    <path d="M38.5994,139.9161 C38.5994,139.9161 25.6094,141.0891 32.6234,170.9041 C39.6374,200.7181 87.5674,202.3741 87.5674,202.3741 C87.5674,202.3741 141.2074,208.0821 162.3834,222.2501 C183.8374,236.6051 206.0204,232.9751 217.1994,230.2561 C225.7114,228.1861 236.2564,222.9401 240.6954,217.4191 C245.5794,211.3421 242.6584,191.3321 208.7564,171.4561 C174.8564,151.5801 125.4264,110.9241 123.0884,91.0471 C120.7494,71.1711 79.5154,206.1701 38.5994,139.9161" id="Fill-73" fill="#9B2221"></path>
                    <path d="M38.0564,139.8077 C38.0564,139.8077 26.3414,142.4137 33.0524,165.8707 C39.7624,189.3277 85.6184,190.6307 85.6184,190.6307 C85.6184,190.6307 136.9384,195.1217 157.1974,206.2687 C177.7224,217.5627 198.9454,214.7067 209.6404,212.5677 C217.7854,210.9387 227.8734,206.8117 232.1194,202.4687 C236.7934,197.6867 233.9974,181.9437 201.5644,166.3057 C169.1294,150.6677 123.6444,113.7447 121.4084,98.1067 C119.1704,82.4687 77.2024,191.9337 38.0564,139.8077" id="Fill-75" fill="#FEFEFE"></path>
                    <path d="M56.7996,80.2965 C56.7996,80.2965 30.8786,128.5135 37.3596,151.9705 C43.8396,175.4275 88.1196,176.7305 88.1196,176.7305 C88.1196,176.7305 137.6776,181.2215 157.2406,192.3685 C177.0616,203.6625 197.4866,200.2965 208.0116,199.8615 C214.1056,199.6105 225.0976,196.8205 229.1976,192.4775 C233.7106,187.6955 231.4036,168.0435 200.0836,152.4045 C168.7636,136.7665 124.8406,99.8435 122.6806,84.2065 C120.5206,68.5675 94.5996,132.4225 56.7996,80.2965" id="Fill-77" fill="#010202"></path>
                    <path d="M186.7322,221.0592 L60.8852,527.3232" id="Fill-79" fill="#222A33"></path>
                    <path d="M181.238,219.5446 C167.079,254.0026 152.921,288.4606 138.761,322.9176 C116.176,377.8796 93.592,432.8416 71.009,487.8026 C65.802,500.4716 60.597,513.1396 55.391,525.8086 C52.607,532.5856 63.626,535.5376 66.38,528.8376 C80.539,494.3796 94.698,459.9216 108.856,425.4636 C131.441,370.5026 154.025,315.5406 176.609,260.5786 C181.815,247.9106 187.02,235.2426 192.226,222.5736 C195.01,215.7966 183.992,212.8436 181.238,219.5446" id="Fill-81" fill="#EE4742"></path>
                    <g id="Group-86" transform="translate(145.000000, 228.000000)">
                        <path d="M39.4792,0.1124 L0.1282,95.8894" id="Fill-83" fill="#222A33"></path>
                        <path d="M39.4792,0.1124 L0.1282,95.8894" id="Stroke-85" stroke="#BC3939" stroke-width="3"></path>
                    </g>
                    <polygon id="Fill-87" fill="#EE443D" points="72.8738 143.839 60.6748 139.855 64.8338 127.117 77.0338 131.102"></polygon>
                    <path d="M61.6609,139.3541 L72.3729,142.8521 L76.0479,131.6031 L65.3349,128.1041 L61.6609,139.3541 Z M73.3759,144.8261 L59.6869,140.3561 L64.3329,126.1301 L78.0199,130.6011 L73.3759,144.8261 Z" id="Fill-89" fill="#010202"></path>
                    <path d="M67.0056,130.0363 C65.7146,133.9873 61.8306,136.2643 58.3306,135.1203 C54.8296,133.9773 53.0386,129.8473 54.3286,125.8963 C55.6186,121.9453 59.5026,119.6683 63.0036,120.8123 C66.5036,121.9553 68.2956,126.0853 67.0056,130.0363" id="Fill-91" fill="#EE443D"></path>
                    <path d="M61.1492,121.2999 C58.5562,121.2999 56.0282,123.2129 55.0722,126.1389 C53.9182,129.6739 55.4892,133.3689 58.5742,134.3769 C61.6572,135.3859 65.1072,133.3279 66.2622,129.7929 C67.4162,126.2579 65.8442,122.5629 62.7602,121.5559 C62.2302,121.3829 61.6882,121.2999 61.1492,121.2999 M60.1782,136.1969 C59.4802,136.1969 58.7782,136.0899 58.0872,135.8639 C54.1822,134.5889 52.1632,130.0079 53.5852,125.6529 C55.0062,121.2989 59.3352,118.7929 63.2472,120.0679 C67.1512,121.3429 69.1712,125.9239 67.7492,130.2789 C66.5782,133.8639 63.4322,136.1969 60.1782,136.1969" id="Fill-93" fill="#010202"></path>
                    <polygon id="Fill-95" fill="#EE443D" points="60.1716 127.8043 69.8946 115.1453 72.7416 131.5313"></polygon>
                    <path d="M61.4861,127.3781 L71.7551,130.4221 L69.4281,117.0361 L61.4861,127.3781 Z M73.7291,132.6401 L58.8571,128.2311 L70.3591,113.2541 L73.7291,132.6401 Z" id="Fill-97" fill="#010202"></path>
                    <g id="Group-102" transform="translate(63.000000, 426.000000)">
                        <path d="M39.8083,0.3483 L0.4583,96.1253" id="Fill-99" fill="#222A33"></path>
                        <path d="M39.8083,0.3483 L0.4583,96.1253" id="Stroke-101" stroke="#BC3939" stroke-width="3"></path>
                    </g>
                    <path d="M126.5564,276.6158 L126.2314,279.5438 L125.8344,283.1098 C125.8344,283.1098 127.1814,283.7868 127.8684,283.8318 C128.4354,283.8688 130.0984,283.4378 130.0984,283.4378 C130.0984,283.4378 130.9204,280.5288 131.1954,279.5588 L131.8044,277.4028 L126.5564,276.6158 Z" id="Fill-127" fill="#D4992B"></path>
                    <path d="M126.614,224.9908 L150.664,224.1848 C150.664,224.1848 154.148,224.6818 159.685,234.5048 C165.129,244.1588 163.378,245.3638 159.685,253.1828 C158.943,254.7538 149.694,278.3778 149.694,278.3778 L143.396,278.3778 L148.608,252.7488 L140.157,246.7368 C140.157,246.7368 140.87,266.8718 138.019,277.3428 C135.168,287.8118 134.491,303.1368 134.491,303.1368 L127.758,302.9208 C127.758,302.9208 128.753,256.4018 123.5,235.5748 C121.517,227.7148 126.614,224.9908 126.614,224.9908" id="Fill-129" fill="#1E76BC"></path>
                    <path d="M125.1228,187.3243 C123.5118,180.9153 115.6688,174.2813 119.6958,166.9573 C123.7238,159.6333 128.3448,159.9403 128.3448,159.9403 C129.1488,160.8563 134.7878,157.5243 138.8138,159.9403 C142.3548,162.0653 148.6898,161.4643 149.4958,165.1263 C150.3018,168.7883 147.8858,178.8583 148.6898,181.6053 C149.4958,184.3513 149.4958,193.5063 151.9118,197.1683 C154.3278,200.8303 162.7268,261.8703 162.7268,261.8703 L153.8018,262.1303 C153.8018,262.1303 125.0258,214.9873 123.6268,214.9873 C123.6268,214.9873 126.8148,196.8553 125.1228,187.3243" id="Fill-131" fill="#F1F1F1"></path>
                    <path d="M127.5388,140.6105 C127.5388,140.6105 134.7878,134.9725 138.8138,143.0275 C142.8418,151.0805 142.0358,155.1085 140.4258,156.7185 C138.8138,158.3295 133.9818,158.3295 133.9818,158.3295 C133.9818,158.3295 129.9548,157.5245 126.7328,155.1085 C125.2928,154.0275 121.0958,146.2485 127.5388,140.6105" id="Fill-135" fill="#D4992B"></path>
                    <path d="M136.1814,139.8053 L138.2784,144.2203 L140.1154,148.1553 C140.1154,148.1553 141.8194,152.6913 140.2074,155.9133 C139.7234,156.8823 138.3644,156.7583 136.7004,156.1113 C132.8324,154.6063 127.3224,150.2753 127.3224,150.2753 L136.1814,139.8053 Z" id="Fill-137" fill="#C0872B"></path>
                    <g id="arm-brush" transform="translate(132.000000, 76.704761)">
                        <path d="M22.8259,80.3839 C22.8259,80.3839 27.2109,77.2849 27.7549,76.9629 C29.7159,75.8009 31.1539,79.6589 29.1929,82.5519 C27.2329,85.4459 23.2699,84.1669 23.2699,84.1669 L22.8259,80.3839 Z" id="Fill-103" fill="#D4992B"></path>
                        <path d="M29.4685,77.2545 C29.4685,77.2545 29.9325,79.6025 29.5965,80.6155 C29.0405,82.2925 28.3835,83.1945 25.6205,83.8035 C25.0515,83.9285 23.3125,84.1415 23.3125,84.1415 L22.8945,80.3485 C22.8945,80.3485 24.8355,78.9065 26.3375,77.9145 C27.7355,76.9915 28.3915,76.1765 29.4685,77.2545" id="Fill-105" fill="#C0872B"></path>
                        <path d="M25.8738,82.9259 C25.8738,82.9259 24.9118,79.8619 22.3648,80.8849 C22.3648,80.8849 13.0828,87.8999 11.8638,88.8819 C10.6448,89.8639 3.7788,94.1639 2.1188,96.0829 C0.4028,98.0659 1.0288,100.5349 1.5558,101.4419 C1.9778,102.1699 6.3718,102.9839 7.8118,101.7159 C9.2498,100.4479 25.8738,82.9259 25.8738,82.9259" id="Fill-107" fill="#F1F1F1"></path>
                        <path d="M25.8865,82.9293 L13.5665,95.7583 L7.8105,96.1893 L25.4325,82.0033 C25.4325,82.0033 25.6395,82.3533 25.6995,82.4773 C25.7525,82.5853 25.8865,82.9293 25.8865,82.9293" id="Fill-109" fill="#C9C9CB"></path>
                        <path d="M26.7087,94.7672 C27.5007,91.9792 28.2937,89.1912 29.0867,86.4032 C30.9907,79.7082 32.8957,73.0132 34.7997,66.3182 C37.1037,58.2192 39.4067,50.1192 41.7097,42.0202 C43.7007,35.0192 45.6917,28.0192 47.6837,21.0192 C48.6477,17.6262 49.6677,14.2432 50.5797,10.8352 C50.5927,10.7842 50.6077,10.7332 50.6227,10.6832 C51.1467,8.8372 48.3497,7.7512 47.8207,9.6082 C47.0277,12.3962 46.2347,15.1842 45.4417,17.9722 C43.5377,24.6672 41.6337,31.3622 39.7297,38.0582 C37.4267,46.1572 35.1227,54.2562 32.8187,62.3552 C30.8277,69.3552 28.8377,76.3562 26.8467,83.3562 C25.8817,86.7492 24.8607,90.1322 23.9497,93.5402 C23.9367,93.5912 23.9207,93.6422 23.9057,93.6922 C23.3817,95.5382 26.1807,96.6242 26.7087,94.7672" id="Fill-111" fill="#956A28"></path>
                        <path d="M37.2644,6.9708 C46.7534,7.4848 56.2434,7.9998 65.7324,8.5138 C67.0674,8.5858 68.4014,8.6578 69.7354,8.7308 C71.3544,8.8188 72.7354,7.2888 72.7354,5.7308 C72.7354,4.0328 71.3594,2.8188 69.7354,2.7308 C60.2454,2.2168 50.7564,1.7018 41.2674,1.1878 C39.9334,1.1158 38.5994,1.0428 37.2644,0.9708 C35.6454,0.8828 34.2644,2.4118 34.2644,3.9708 C34.2644,5.6678 35.6404,6.8828 37.2644,6.9708" id="Fill-113" fill="#FEFEFE"></path>
                        <path d="M70.3904,4.7867 C69.5584,6.1257 68.7254,7.4657 67.8934,8.8047 C68.1094,8.6807 68.3254,8.5577 68.5404,8.4327 C58.8354,7.8627 49.1314,7.2917 39.4274,6.7207 C38.0544,6.6407 36.6824,6.5587 35.3104,6.4787 C34.3454,6.4217 34.3484,7.9217 35.3104,7.9787 C45.0144,8.5497 54.7184,9.1197 64.4234,9.6907 C65.7954,9.7717 67.1674,9.8527 68.5404,9.9327 C68.8054,9.9487 69.0534,9.7777 69.1884,9.5617 C70.0204,8.2227 70.8534,6.8827 71.6864,5.5437 C72.1974,4.7217 70.9004,3.9677 70.3904,4.7867" id="Fill-115" fill="#D4992B"></path>
                        <path d="M51.0134,10.2745 L47.2644,10.0415 C46.5484,9.9975 45.9994,9.3755 46.0444,8.6605 C46.0884,7.9445 46.7104,7.3965 47.4254,7.4405 L51.1754,7.6735 C51.8904,7.7175 52.4394,8.3395 52.3954,9.0545 C52.3504,9.7705 51.7294,10.3185 51.0134,10.2745" id="Fill-117" fill="#D4992B"></path>
                        <path d="M29.3513,84.7799 C29.3513,84.7799 28.9203,79.4279 28.9203,78.7959 C28.9203,76.5159 32.9723,77.2459 34.4623,80.4069 C35.9533,83.5679 32.8323,86.3259 32.8323,86.3259 L29.3513,84.7799 Z" id="Fill-119" fill="#D4992B"></path>
                        <path d="M30.0447,77.4703 C30.0447,77.4703 32.3017,78.2673 33.0017,79.0733 C34.1607,80.4063 34.6027,81.4303 33.7187,84.1173 C33.5357,84.6723 32.8327,86.2773 32.8327,86.2773 L29.3567,84.7023 C29.3567,84.7023 29.1057,82.2983 29.0177,80.4993 C28.9357,78.8263 28.5687,77.8473 30.0447,77.4703" id="Fill-121" fill="#C0872B"></path>
                        <path d="M29.5017,84.8668 C29.5017,84.8668 32.6007,84.0238 33.1127,86.7198 C33.1127,86.7198 32.2157,98.3198 32.0457,99.8758 C31.8757,101.4318 31.9607,109.5338 31.2407,111.9658 C30.4967,114.4798 28.0807,115.2858 27.0337,115.3318 C26.1907,115.3688 23.1367,112.1078 23.4277,110.2128 C23.7177,108.3168 29.5017,84.8668 29.5017,84.8668" id="Fill-123" fill="#F1F1F1"></path>
                        <path d="M22.7802734,111.630064 L26.6480867,114.641294 L30.5159,84.7395 C30.5159,84.7395 30.1099,84.7555 29.9729,84.7715 C29.8529,84.7845 29.4919,84.8575 29.4919,84.8575 L22.7802734,111.630064 Z" id="Fill-125" fill="#C9C9CB"></path>
                    </g>
                    <g id="upper-arm" transform="translate(141.000000, 159.704761)">
                        <path d="M1.00112553,1.9018466 C1.00112553,1.9018466 -2.71287447,9.5578466 4.16612553,15.7088466 C11.0451255,21.8588466 15.8161255,32.6248466 17.7711255,31.6298466 L19.7261255,30.6348466 C19.8631255,26.0798466 21.8411255,24.4378466 17.8631255,21.0278466 C14.1411255,17.8368466 11.3561255,7.7008466 8.59112553,3.6618466 C7.91312553,2.6718466 7.23612553,2.0478466 6.54712553,1.9828466 C3.04712553,1.6518466 4.22912553,-0.00415340232 1.00112553,1.9018466" id="Fill-133" fill="#F1F1F1"></path>
                        <path d="M3.00439453,15.0192237 C7.6639526,22.3862415 15.8950195,32.3246924 17.9506836,32.3246924 C20.0063477,32.3246924 21.454834,31.2588965 21.9214478,29.7414404 C22.3880615,28.2239844 21.7491255,27.990918 17.7711255,24.580918 C14.0491255,21.389918 10.6985937,11.2942344 7.93359375,7.25523437 C5.16859375,3.21623438 8.62259375,1.9668466 7.93359375,1.9018466 C4.43359375,1.5708466 4.22912553,-0.00415340232 1.00112553,1.9018466 C1.00112553,1.9018466 -1.65516354,7.65220597 3.00439453,15.0192237 Z" id="Fill-133" fill="#C9C9CB"></path>
                    </g>
                    <path d="M147.6731,163.9678 C148.60498,163.9678 146.8081,162.4468 145.2571,160.7458 C143.5211,158.8418 126.2941,159.9818 126.2941,159.9818 C126.2941,159.9818 122.7071,161.5518 119.4851,167.1888 C116.2631,172.8268 122.6211,181.7608 122.6211,181.7608 C122.6211,181.7608 126.7331,187.3408 124.7191,196.1918 C121.1331,205.2788 121.3081,207.3438 121.3081,207.3438 C121.3081,207.3438 116.0171,258.2818 123.7141,259.3318 L146.8041,261.7808 C146.8041,261.7808 156.0401,262.4798 157.6501,262.4798 C159.2611,262.4798 150.8951,205.0428 149.2851,201.0158 C147.6731,196.9888 142.0361,188.9348 142.0361,188.9348 C142.0361,188.9348 141.2301,185.7138 145.2571,188.1298 C149.2851,190.5458 146.8691,184.9078 146.8691,184.9078 L140.4251,176.8538 C140.4251,176.8538 139.8281,173.7188 142.1391,174.4808 C143.9651,175.0828 145.8571,178.2228 146.5711,177.9308 C146.7261,177.8668 148.410855,179.670371 148.401855,178.895371 C149.64428,172.713186 149.401362,167.737329 147.6731,163.9678 Z" id="Fill-139" fill="#C9C9CB"></path>
                    <path d="M115.6492,150.9933 C112.7532,147.3733 114.0942,142.8513 115.3782,140.2423 C117.4982,135.9333 123.5872,135.3123 125.3082,134.9723 C132.0212,133.6473 138.5812,137.5003 138.9432,140.8933 C139.1892,143.1863 136.7462,143.5983 134.0562,143.9893 C123.8152,145.4753 131.4502,150.9933 131.4502,150.9933 C131.4502,150.9933 135.3022,156.1703 125.7492,159.3013 C125.7492,159.3013 123.4682,160.7663 115.6492,150.9933" id="Fill-141" fill="#111820"></path>
                    <path d="M128.0876,144.403 C128.0876,144.403 134.3846,137.056 139.1086,135.744 C143.8306,134.432 145.1426,136.531 145.1426,136.531 C145.1426,136.531 144.5566,139.814 138.8146,143.027 C133.0726,146.24 128.0876,144.403 128.0876,144.403" id="Fill-143" fill="#BC3939"></path>
                    <path d="M116.0818,139.213 C118.4018,134.991 122.6878,133.993 124.1408,133.655 C130.8848,132.086 138.8318,135.847 139.2508,140.14 C139.3548,141.211 138.9778,142.19 137.1198,144.441 C136.6068,145.062 135.9808,145.78 135.2218,146.624 C127.4808,155.217 123.6108,159.514 120.8628,158.685 C116.0398,157.23 112.3118,146.071 116.0818,139.213" id="Fill-145" fill="#D82D27"></path>
                    <path d="M135.2214,146.6237 C134.4214,147.7357 132.4904,149.7817 129.5024,153.0297 C126.7734,155.9967 124.4574,160.0627 120.8634,158.6857 C114.8824,156.3927 112.8394,145.3847 115.9574,139.1837 C118.2074,134.7077 123.8704,133.6447 124.1404,133.6557 C125.7294,133.7177 119.7054,141.1607 121.5894,144.7217 C122.2664,146.0017 123.6044,146.3757 125.3674,146.8397 C130.9914,148.3177 135.8674,145.7257 135.2214,146.6237" id="Fill-147" fill="#993131"></path>
                    <path d="M136.2507,303.9479 C133.0107,303.7629 133.3197,302.7669 133.3197,302.7669 L129.0567,302.4389 C129.0567,302.4389 127.2517,306.4059 127.4167,307.7969 C127.5977,309.3239 129.2097,310.6829 131.3087,309.5029 C131.8987,309.1699 132.1397,308.6719 132.1397,308.6719 C132.1397,308.6719 134.4957,308.5299 135.0917,308.3979 C137.9747,307.7609 139.5297,306.6159 139.6617,305.3909 C139.8127,303.9859 137.7807,304.0359 136.2507,303.9479" id="Fill-149" fill="#D82D27"></path>
                    <path d="M151.2273,279.4235 C147.9963,279.1135 148.1223,278.2425 148.1223,278.2425 L144.0333,277.9145 C144.0333,277.9145 142.2283,281.8805 142.3933,283.2725 C142.5743,284.7985 142.9333,286.4085 146.2853,284.9775 C146.8373,284.7415 146.8753,284.0155 146.8753,284.0155 C146.8753,284.0155 149.4953,283.9995 150.2113,283.8415 C153.0323,283.2205 154.0033,282.0795 154.1573,280.6045 C154.3023,279.1985 152.2543,279.5225 151.2273,279.4235" id="Fill-151" fill="#D82D27"></path>
                    <path d="M142.8533,159.9523 C142.8533,159.9523 141.2913,157.2413 140.4253,156.7193 C138.3563,155.4713 133.1933,155.5623 130.7983,155.8803 C128.5633,156.1763 123.7053,157.1903 122.3283,158.9753 C121.7223,159.7593 121.1673,162.0343 121.6763,162.8843 C122.3123,163.9483 126.0753,165.1653 126.0753,165.1653 L142.8533,159.9523 Z" id="Fill-153" fill="#C9C9CB"></path>
                    <path d="M20.9617,250.2369 C18.9947,250.2099 17.3847,251.3729 17.3427,254.4649 L17.3197,254.4649 C17.3617,251.3729 15.7837,250.1659 13.8177,250.1389 C11.8517,250.1119 10.2237,252.5969 10.1817,255.6899 C10.1597,257.2429 10.5427,258.6529 11.1787,259.6759 L17.0987,270.7479 L17.0977,270.7899 L17.1087,270.7689 L17.1197,270.7899 L17.1207,270.7489 L23.3397,259.8409 C24.0027,258.8359 24.4247,257.4369 24.4447,255.8839 C24.4877,252.7919 22.9277,250.2629 20.9617,250.2369" id="Fill-155" fill="#EE443D"></path>
                    <path d="M50.5457,262.3356 C50.5457,264.5846 50.0037,266.6646 49.0817,268.3676 C48.7207,269.0336 51.1757,272.6536 50.7087,273.1916 C50.2987,273.6646 46.9777,271.0716 46.4997,271.4276 C45.3237,272.3026 43.9627,272.7986 42.5147,272.7886 C38.1217,272.7616 34.5817,268.0946 34.5817,262.3636 C34.5817,256.6336 38.1217,251.9536 42.5147,251.9106 C46.9377,251.8676 50.5457,256.5346 50.5457,262.3356 Z" id="Stroke-157" stroke="#989898"></path>
                    <path d="M40.1238,262.4259 C40.0728,263.2649 39.5938,263.9199 39.0548,263.8869 C38.5168,263.8539 38.1218,263.1479 38.1728,262.3099 C38.2248,261.4709 38.7018,260.8169 39.2408,260.8479 C39.7798,260.8799 40.1758,261.5859 40.1238,262.4259" id="Fill-159" fill="#7D8286"></path>
                    <path d="M43.2673,262.6183 C43.2163,263.4583 42.7373,264.1123 42.1983,264.0793 C41.6603,264.0463 41.2653,263.3403 41.3163,262.5023 C41.3683,261.6633 41.8453,261.0093 42.3843,261.0413 C42.9233,261.0723 43.3193,261.7783 43.2673,262.6183" id="Fill-161" fill="#7D8286"></path>
                    <path d="M46.4109,262.8107 C46.3599,263.6507 45.8809,264.3047 45.3419,264.2717 C44.8039,264.2387 44.4089,263.5327 44.4599,262.6947 C44.5119,261.8557 44.9889,261.2027 45.5279,261.2337 C46.0669,261.2647 46.4629,261.9717 46.4109,262.8107" id="Fill-163" fill="#7D8286"></path>
                    <polygon id="Stroke-165" stroke="#989898" points="62.9255 263.2672 82.2655 256.3872 73.5255 277.4002 69.7265 267.8432"></polygon>
                    <path d="M82.4509,256.3868 L69.7259,267.8438" id="Stroke-167" stroke="#989898"></path>
                    <polygon id="Stroke-169" stroke="#989898" points="253.2986 271.6393 269.9116 272.7773 269.7696 296.1113 261.2316 286.8653 253.1556 293.9723"></polygon>
                </g>
            </g>
        </g>
    </g>
</svg>