<?xml version="1.0" encoding="UTF-8"?>
<svg width="520px" height="368px" viewBox="0 0 520 368" version="1.1" xmlns="http://www.w3.org/2000/svg" xmlns:xlink="http://www.w3.org/1999/xlink">
    <!-- Generator: Sketch 51.3 (57544) - http://www.bohemiancoding.com/sketch -->
    <title>Group</title>
    <desc>Created with Sketch.</desc>
    <defs></defs>
    <g id="Page-1" stroke="none" stroke-width="1" fill="none" fill-rule="evenodd">
        <g id="Desktop-HD-Copy-27" transform="translate(-647.000000, -369.000000)">
            <g id="Group" transform="translate(647.000000, 368.000000)">
                <g id="Group-30" transform="translate(0.000000, 63.510000)">
                    <polygon id="Fill-10" fill="#4EC2DF" points="229.8323 122.918586 229.8323 19.4965271 300.0243 0.744944513 299.1103 95.947132"></polygon>
                    <polygon id="Fill-12" fill="#8FD2E8" points="519.6917 62.7719933 299.0977 1.07098077 228.1757 18.3682937 450.5417 79.3646601"></polygon>
                    <polygon id="Fill-14" fill="#4EC2DF" points="448.4885 197.132315 448.4885 78.7253808 518.6805 61.8317655 517.7665 172.835468"></polygon>
                    <path d="M119.796056,289.932097 C81.547315,287.133959 47.1874531,312.535186 13.1476808,303.447298 C-20.8920915,294.35941 21.9179652,288.820669 21.9179652,268.39035 C21.9179652,247.960031 291.907785,187.822873 300.009525,185.649358 C310.114724,182.93835 331.623891,182.682878 342.873295,184.081962 C363.988363,186.707813 357.420533,196.214374 344.311244,198.427463 C338.221754,199.455361 158.044797,292.730235 119.796056,289.932097 Z" id="Fill-16" fill="#111820"></path>
                    <path d="M291.6233,174.194635 L291.0793,179.083179 L290.4173,185.037189 C290.4173,185.037189 292.6663,186.167621 293.8143,186.242584 C294.7623,186.303553 297.5393,185.584914 297.5393,185.584914 C297.5393,185.584914 298.9133,180.727354 299.3713,179.109166 C299.6253,178.209618 300.3893,175.508974 300.3893,175.508974 L291.6233,174.194635 Z" id="Fill-24" fill="#D4992B"></path>
                    <path d="M325.4446,174.559651 L325.8096,189.308244 L332.5426,190.427682 C332.5426,190.427682 333.3516,185.332241 333.7716,183.467178 C334.1716,181.695068 335.8166,175.873991 335.8166,175.873991 L325.4446,174.559651 Z" id="Fill-26" fill="#D4992B"></path>
                </g>
                <g id="arm" transform="translate(337.000000, 73.510000)">
                    <path d="M31.467,5.42467205 C31.467,5.42467205 39.194,0.873957514 40.144,0.413188921 C43.569,-1.24897631 45.43,5.36770066 41.767,9.91041922 C38.104,14.4531378 31.683,11.7794805 31.683,11.7794805 L31.467,5.42467205 Z" id="Fill-18" fill="#D4992B"></path>
                    <path d="M33.6643,2.78050001 C33.6643,2.78050001 36.7543,10.1058211 33.0763,12.8414472 C33.0763,12.8414472 31.2363,12.6505431 28.7743,13.5301013 C26.3123,14.4106591 14.2013,20.4456282 10.0203,21.1382804 C5.7003,21.8539209 2.7273,18.8124484 1.8933,17.2732215 C1.2243,16.0358429 3.8933,9.07034112 6.9543,8.12481598 C10.0153,7.17829135 33.6643,2.78050001 33.6643,2.78050001" id="Fill-20" fill="#1E76BC"></path>
                    <path d="M34.7932,9.22746221 L7.6552,16.3458872 C7.6552,16.3458872 -1.1098,10.870637 0.6582,16.465827 C2.4282,22.0630159 6.3102,21.9880536 6.3102,21.9880536 L10.0212,21.1384803 L31.6522,13.2064639 C31.6522,13.2064639 34.7202,13.389372 34.7932,9.22746221" id="Fill-22" fill="#114668"></path>
                </g>
                <path d="M289.8137,114.179671 L332.6757,112.835346 C332.6757,112.835346 339.8207,131.659892 339.8207,150.484438 C339.8207,169.309984 341.0107,193.512829 339.8207,209.648725 C338.6297,225.784621 335.0577,243.263843 335.0577,243.263843 L325.5327,241.920517 L320.7697,192.168504 C320.7697,192.168504 316.0077,165.27601 312.4357,150.484438 C308.8637,135.693866 313.6257,184.100556 308.8637,201.580777 C304.1007,219.061997 300.3887,239.237864 300.3887,239.237864 L290.9647,238.142415 C290.9647,238.142415 293.3857,166.620335 284.6117,131.850796 C281.2997,118.727387 289.8137,114.179671 289.8137,114.179671" id="Fill-28" fill="#FEFEFE"></path>
                <path d="M283.605,131.832 C292.38,166.619 289.959,238.178 289.959,238.178 L299.384,239.274 C299.384,239.274 303.097,219.086 307.859,201.597 C312.621,184.108 307.859,135.677 311.43,150.475 C315.002,165.274 319.765,192.18 319.765,192.18 L324.527,241.957 L332.255,243.022 C332.255,243.022 333.159,233.147 332.255,219.55 C332.078,216.902 328.164,200.119 327.872,197.344 C327.598,194.744 329.87,194.869 331.659,194.996 C333.41,195.12 334.698,195.243 332.693,192.815 C329.919,189.455 326.703,184.204 326.703,179.812 C326.703,179.057 327.762,180.216 329.073,181.374 C330.802,182.903 332.968,184.431 333.716,181.564 C335.993,172.839 333.56,139.768 333.132,136.274 C331.337,121.633 328.749,114.361 328.749,114.361 L288.807,114.152 C288.807,114.152 280.295,118.702 283.605,131.832 Z" id="Fill-66" fill="#C2E9F3"></path>
                <g id="Group-112" transform="translate(262.000000, 0.510000)">
                    <path d="M32.6086,42.6616 C32.6086,42.6616 24.8896,42.1486 18.1636,54.3826 C11.4366,66.6156 24.5376,77.6976 27.2276,88.4016 C29.9186,99.1056 21.2066,121.6666 20.8536,123.1956 C20.5016,124.7246 23.1916,124.7246 23.5446,124.7246 C25.8816,124.7246 67.1936,122.8996 67.1936,122.8996 L74.6666,121.6666 C74.6666,121.6666 76.0116,110.9626 71.9756,104.8456 C67.9396,98.7286 67.9396,83.4366 66.5936,78.8496 C65.2496,74.2616 69.2856,57.4396 67.9396,51.3236 C66.5936,45.2066 56.0126,46.2106 50.0976,42.6616 C43.3716,38.6256 33.9546,44.1906 32.6086,42.6616" id="Fill-34" fill="#1E76BC"></path>
                    <path d="M53.3372,43.7934 C53.3372,43.7934 47.1332,56.5814 58.6232,66.8554 C70.1132,77.1284 78.0832,95.1104 81.3492,93.4494 L84.6142,91.7884 C84.8432,84.1794 88.1482,81.4364 81.5032,75.7414 C75.2842,70.4104 70.6342,53.4814 66.0162,46.7334 C64.8832,45.0794 63.7522,44.0364 62.6012,43.9284 C56.7542,43.3774 58.7292,40.6094 53.3372,43.7934" id="Fill-36" fill="#1E76BC"></path>
                    <path d="M33.9563,11.1694 C33.9563,11.1694 47.5383,4.0424 51.7793,18.4734 C56.0203,32.9034 53.5073,39.2864 50.3833,41.4584 C47.2593,43.6314 39.3143,42.2034 39.3143,42.2034 C39.3143,42.2034 32.9323,39.6904 28.3493,34.7664 C26.3003,32.5644 21.6973,18.5344 33.9563,11.1694" id="Fill-38" fill="#D4992B"></path>
                    <path d="M48.759,12.4633 L50.903,20.3403 L52.76,27.3533 C52.76,27.3533 54.221,35.3143 50.621,40.1343 C47.021,44.9553 31.101,27.0593 31.101,27.0593 L48.759,12.4633 Z" id="Fill-40" fill="#C0872B"></path>
                    <path d="M67.6448,77.0258 L75.6588,89.7468 L78.8198,93.9618 C79.4128,94.7518 80.3228,95.2398 81.3098,95.2708 C83.5898,95.3418 87.7668,93.7828 86.4208,91.0918 C86.4208,91.0908 85.2838,89.4988 85.2818,89.4978 C85.2548,89.4588 79.7218,81.7128 79.6948,81.6748 C74.7618,70.9128 69.8298,60.1498 64.8968,49.3878 C64.8968,49.3878 63.4518,46.8468 60.8608,44.0058 C57.9598,40.8258 29.1848,42.7298 29.1848,42.7298 C29.1848,42.7298 23.1918,45.3518 17.8108,54.7688 C12.4288,64.1858 23.0478,79.1078 23.0478,79.1078 C23.0478,79.1078 29.9178,88.4288 26.5548,103.2138 C23.1918,117.9988 20.8568,121.8408 20.8568,121.8408 C20.8568,121.8408 19.1558,126.0708 23.1918,124.7248 L51.5378,123.5938 C51.5378,123.5938 64.8968,122.0348 67.5868,122.0348 C70.2778,122.0348 70.2778,117.9988 67.5868,111.2718 C64.8968,104.5458 55.4798,91.0918 55.4798,91.0918 C55.4798,91.0918 54.1338,85.7118 60.8608,89.7468 C67.5868,93.7828 63.5508,84.3658 63.5508,84.3658 L52.7888,70.9128 C52.7888,70.9128 51.7908,65.6748 55.6528,66.9488 C58.7038,67.9548 61.8618,73.1998 63.0548,72.7118 C63.3138,72.6048 63.5668,72.2068 63.5508,70.9128" id="Fill-42" fill="#114668"></path>
                    <path d="M20.5012,50.7328 C8.5362,32.7858 8.4602,17.7288 14.1652,9.0288 C18.1752,2.9148 26.3942,1.1828 27.5372,0.9568 C38.7502,-1.2582 52.0042,4.7058 52.6102,10.3738 C53.0202,14.2028 47.3232,14.7508 45.9242,19.7918" id="Fill-44" fill="#111820"></path>
                    <path d="M40.4338,250.9174 C35.0218,250.6074 35.5388,248.9444 35.5388,248.9444 L28.4168,248.3964 C28.4168,248.3964 25.4028,255.0214 25.6778,257.3454 C25.9808,259.8964 28.6728,262.1664 32.1798,260.1944 C33.1658,259.6394 33.5678,258.8064 33.5678,258.8064 C33.5678,258.8064 37.5018,258.5704 38.4978,258.3504 C43.3138,257.2844 45.9128,255.3734 46.1318,253.3274 C46.3828,250.9804 42.9908,251.0634 40.4338,250.9174" id="Fill-46" fill="#D82D27"></path>
                    <path d="M75.7893,255.3002 C70.3933,254.7832 70.6023,253.3272 70.6023,253.3272 L63.7723,252.7792 C63.7723,252.7792 60.7583,259.4042 61.0333,261.7292 C61.3363,264.2792 61.9353,266.9682 67.5353,264.5772 C68.4573,264.1842 68.5203,262.9702 68.5203,262.9702 C68.5203,262.9702 72.8963,262.9442 74.0943,262.6802 C78.8053,261.6432 80.4283,259.7372 80.6843,257.2732 C80.9273,254.9252 77.5063,255.4642 75.7893,255.3002" id="Fill-48" fill="#D82D27"></path>
                    <path d="M57.4778,27.9233 C55.5158,27.3583 53.5528,26.7923 51.5898,26.2273 C51.1708,26.1063 50.7478,25.9503 50.3208,25.8603 C49.5408,25.6973 50.5158,25.9533 50.5508,26.0743 C50.4878,25.8563 50.1178,25.5613 49.9698,25.3863 C49.6018,24.9493 49.2328,24.5123 48.8648,24.0753 C48.0268,23.0813 47.1878,22.0873 46.3488,21.0933 C46.0518,20.7403 45.7548,20.3893 45.4578,20.0363 C45.3738,19.9353 45.2878,19.8333 45.2018,19.7323 C44.9578,19.4443 45.4868,20.5103 45.2408,19.5833 C44.7698,17.8093 43.7208,15.9843 42.7688,14.4283 C41.8808,12.9793 40.8448,11.6043 39.6808,10.3653 C35.6648,6.0953 30.0768,3.6963 24.2508,3.3993 C19.9148,3.1783 15.1008,4.0353 11.5398,6.6543 C9.6018,8.0783 8.1158,9.8233 8.1118,12.3513 C8.1068,16.2813 10.5488,20.2783 12.3448,23.6113 C13.2618,25.3113 15.8528,23.7983 14.9358,22.0973 C13.4348,19.3123 11.4038,16.0583 11.1308,12.8173 C10.9928,11.1723 11.6648,10.2883 13.0528,9.2443 C16.1408,6.9243 20.2738,6.2153 24.1368,6.3933 C29.4378,6.6373 34.4178,8.9483 37.9538,12.9173 C39.0058,14.0983 39.8998,15.4073 40.6728,16.7863 C41.0898,17.5293 41.4728,18.2923 41.8168,19.0723 C42.2028,19.9453 42.4258,20.9723 42.9878,21.7423 C44.0758,23.2373 45.4018,24.6063 46.5928,26.0193 C47.1888,26.7253 47.7498,27.5693 48.4298,28.1963 C48.9688,28.6943 49.7238,28.8123 50.4128,29.0103 C52.5018,29.6113 54.5908,30.2143 56.6808,30.8173 C58.5398,31.3523 59.3328,28.4583 57.4778,27.9233" id="Fill-72" fill="#FEFEFE"></path>
                    <path d="M20.0051,50.7319 C1.5061,39.6389 3.8181,12.3719 13.6701,9.0279 C23.6901,5.6269 12.3371,18.5099 17.9841,22.4199 C23.6321,26.3299 42.7441,24.1579 42.7441,24.1579 C40.7511,31.3399 38.2261,29.9629 44.9161,43.7049 C44.9161,43.7049 36.7951,60.7999 20.0051,50.7319" id="Fill-74" fill="#010202"></path>
                    <path d="M23.1975,38.2748 C23.1975,43.4328 19.3075,47.6148 14.5095,47.6148 C9.7115,47.6148 5.8215,43.4328 5.8215,38.2748 C5.8215,33.1168 9.7115,28.9358 14.5095,28.9358 C19.3075,28.9358 23.1975,33.1168 23.1975,38.2748" id="Fill-76" fill="#D82D27"></path>
                    <path d="M20.675,38.4467 C20.675,44.4187 16.171,49.2597 10.615,49.2597 C5.06,49.2597 0.556,44.4187 0.556,38.4467 C0.556,32.4737 5.06,27.6327 10.615,27.6327 C16.171,27.6327 20.675,32.4737 20.675,38.4467" id="Fill-78" fill="#111820"></path>
                    <path d="M12.7092,42.059 C17.8962,43.866 21.5022,37.908 19.6742,43.154 C17.8472,48.401 12.1602,51.189 6.9742,49.382 C1.7872,47.576 -0.9358,41.858 0.8932,36.611 C1.9952,33.445 3.4652,34.347 4.5652,36.738 C6.0742,40.014 10.6522,41.342 12.7092,42.059" id="Fill-80" fill="#010202"></path>
                </g>
            </g>
        </g>
    </g>
</svg>