<?xml version="1.0" encoding="UTF-8"?>
<svg width="1440px" height="870px" viewBox="0 0 1440 870" version="1.1" xmlns="http://www.w3.org/2000/svg" xmlns:xlink="http://www.w3.org/1999/xlink">
    <!-- Generator: Sketch 51.3 (57544) - http://www.bohemiancoding.com/sketch -->
    <title>Group 3</title>
    <desc>Created with Sketch.</desc>
    <defs></defs>
    <g id="Page-1" stroke="none" stroke-width="1" fill="none" fill-rule="evenodd">
        <g id="Desktop-HD-Copy-25">
            <g id="Group-3" transform="translate(-120.000000, -132.000000)">
                <g id="Group-2">
                    <path d="M1612.82615,872.0265 C1473.65642,1024.58112 1062.70896,1000.2765 975.474588,1000.2765 C917.318338,1000.2765 609.826808,982.325979 53,946.424938 L53,353.695 L53,166 L741.071,166 L1490.014,166 C1664.66859,534.981253 1705.60597,770.32342 1612.82615,872.0265 Z" id="Fill-1" fill="#222A33"></path>
                    <polygon id="Fill-3" fill="#1D8FCE" points="1363.078 34 1514.246 273.782 17.117 690.458 13 106.977"></polygon>
                    <path d="M0,693.55888 C51.709,438.00688 103.861,310.66588 156.223,327.35088 C217.372,346.83588 250.36,431.71088 318.827,442.19188 C401.239,454.80788 391.223,337.61888 476.616,310.77888 C569.503,281.58188 614.914,409.69188 707.062,387.80888 C792.048,367.62688 763.313,256.30488 864.669,169.77988 C902.433,137.54188 1108.97862,207.13212 1131.07812,210.640625 C1259.37859,231.009539 1229.706,313.70988 1252.704,363.07288 L0,693.55888 Z" id="Fill-4" fill="#1E76BC"></path>
                    <polygon id="Fill-50" fill="#D82D27" points="848 468.420046 1587.79087 832.600575 1593 114 858.773438 130.4375"></polygon>
                    <path d="M1013,113.323231 C1215.44837,416.780317 1589.00033,775.695251 1596.21933,773.255396 C1604.99374,770.28913 1596.21933,367.414097 1589.21024,345.105175 C1587.2565,338.890752 1841.3028,871.361053 1863.5281,865.011024 C1883.79147,859.220506 1695.19026,385.040848 1718.3781,378.174018 C1736.92427,372.682475 1975.84855,849.590287 1997.183,843.835006 C2021.47979,837.283168 1782.34662,276.739053 1810.87651,268.601576 C1846.52915,258.431065 2167.55034,917.589096 2219.94082,903.829809 C2247.86861,896.494228 2276.21829,623.515575 2232.09126,497.988511 C2152.39966,271.300899 2307.99519,130.772732 2244.24068,0.393719807 L1013,113.323231 Z" id="Fill-10" fill="#EE443D"></path>
                    <g id="Group" transform="translate(878.000000, 209.000000)">
                        <g id="Group-18" transform="translate(323.000000, 173.000000)">
                            <polyline id="Fill-15" fill="#111820" points="0.4799 264.4232 0.4799 0.5772 106.5659 18.1832 107.3389 314.1242"></polyline>
                            <polyline id="Stroke-17" stroke="#D82D27" stroke-width="3" points="0.4799 264.4232 0.4799 0.5772 106.5659 18.1832 107.3389 314.1242"></polyline>
                        </g>
                        <g id="Group-22" transform="translate(335.000000, 192.000000)">
                            <polyline id="Fill-19" fill="#E0F2F7" points="74.6244 246.5726 0.4294 211.5256 0.4294 0.4866 74.6244 14.2156"></polyline>
                            <polyline id="Stroke-21" stroke="#222A33" stroke-width="5" points="74.6244 246.5726 0.4294 211.5256 0.4294 0.4866 74.6244 14.2156"></polyline>
                        </g>
                        <polygon id="Fill-23" fill="#E0F2F7" points="0.8246 0.9218 0.8246 243.6988 274.4886 358.3508 277.0946 44.1638"></polygon>
                        <polygon id="Stroke-25" stroke="#FEFEFE" stroke-width="9" points="0.8246 0.9218 0.8246 243.6988 274.4886 358.3508 277.0946 44.1638"></polygon>
                        <path d="M220.7826,212.5126 C218.6816,217.1126 221.4966,227.5506 218.6676,231.1846 C216.0616,234.5316 217.9306,235.8596 218.2576,239.6276 L218.4626,242.0176 C217.8496,243.8526 222.1706,244.9026 223.2086,244.8536 C223.6576,244.8326 224.0716,244.4996 224.3416,243.9606 L225.7796,241.0866 L225.1616,230.6616 L224.6136,231.7736 C224.7806,231.4426 224.9506,231.1126 225.1236,230.7836 C225.1436,231.8016 225.1146,232.6456 225.0046,233.2116 C224.3916,236.3396 223.2656,239.4626 221.4296,243.6336 C219.5946,247.8046 219.2586,246.7286 219.2586,246.7286 L217.3036,256.5026 C216.4036,261.4406 216.8146,257.4206 216.8146,264.6476 C216.8146,277.4896 224.9596,268.3936 230.0096,270.9996 L242.5526,267.7416 L244.0176,266.7646 C244.3086,265.0386 245.3936,265.9776 245.3506,264.6676 C246.3936,264.6896 245.8146,262.5246 245.8146,262.5246 C245.8146,262.5246 245.6166,235.8476 244.8176,233.3876 C244.8176,233.3876 246.2346,230.3996 247.1446,226.6406 C247.6486,224.7616 247.9616,222.8476 247.8896,220.8936 C247.8786,219.4526 247.6576,217.9276 247.4796,216.5936 C247.3166,215.3706 246.7736,208.3806 243.8016,208.0136 C228.9776,200.3576 241.3996,192.2216 238.8056,186.2946 C236.9806,182.1256 232.3766,182.1046 231.8556,181.9506 C226.7536,180.4406 224.2386,185.5126 223.6016,189.3346 C223.4386,190.3126 224.4106,200.6736 226.4256,203.3986 C228.2346,205.8456 225.5566,207.3626 223.1676,210.4026 L220.7826,212.5126 Z" id="Fill-27" fill="#C4E0E7"></path>
                        <path d="M218.1176,257.6971 L226.5346,316.8281 C226.5346,316.8281 221.4226,323.2121 222.1896,325.5161 C223.0346,328.0501 229.1876,331.0601 231.7466,330.2941 C233.4536,329.7831 235.3866,326.2821 236.0916,324.6471 C243.0136,308.5891 247.1176,255.5741 247.1176,255.5741 L218.1176,257.6971 Z" id="Fill-29" fill="#C4E0E7"></path>
                        <polygon id="Fill-31" fill="#A46C28" points="416.3373 332.4696 424.4093 336.9676 424.2743 364.5516 416.2013 361.0526"></polygon>
                        <polygon id="Fill-33" fill="#B17D2B" points="417.3187 335.5873 424.2737 364.5513 424.4097 333.9673 416.3377 332.4693"></polygon>
                        <path d="M423.7582,348.4183 C423.7582,351.3493 422.2282,353.7263 420.3392,353.7263 C418.4512,353.7263 416.9212,351.3493 416.9212,348.4183 C416.9212,345.4863 418.4512,343.1103 420.3392,343.1103 C422.2282,343.1103 423.7582,345.4863 423.7582,348.4183" id="Fill-35" fill="#7F5121"></path>
                        <path d="M421.9066,347.889 C421.9066,350.821 420.3766,353.197 418.4886,353.197 C416.6006,353.197 415.0696,350.821 415.0696,347.889 C415.0696,344.957 416.6006,342.581 418.4886,342.581 C420.3766,342.581 421.9066,344.957 421.9066,347.889" id="Fill-37" fill="#D4992B"></path>
                        <path d="M418.5433,342.6361 C416.6993,342.1441 415.1243,345.0121 415.1243,347.9441 C415.1243,350.8741 416.6543,353.2511 418.5433,353.2511 C418.5433,353.2511 416.7133,350.7111 416.3323,348.0481 C415.7223,343.7731 419.0613,342.7741 418.5433,342.6361" id="Fill-39" fill="#EDC185"></path>
                        <path d="M163.0229,204.0023 L110.2599,183.5943 L110.2599,160.2123 C111.7159,159.0943 113.5019,157.8123 114.8659,156.3483 C121.2849,149.4673 125.8459,139.5643 127.8299,128.2803 L153.9489,133.4923 L151.6009,122.9183 L163.0229,126.1163 L163.0229,204.0023 Z M106.1419,155.6303 C101.8209,158.2793 97.1869,159.1383 92.6239,158.0573 C86.0159,156.4823 80.3639,150.9833 76.7089,142.5723 C72.9949,134.0273 71.7839,123.5253 73.2979,113.0023 C74.8139,102.4793 78.8669,93.2323 84.7119,86.9643 C90.2569,81.0203 96.7799,78.4543 103.1609,79.6843 C103.4009,79.7313 103.6429,79.7833 103.8829,79.8403 C105.6039,80.2503 107.2559,80.9313 108.8289,81.8553 L92.0459,121.1413 L110.5749,124.8373 L115.5749,125.8353 L122.8129,127.2793 C121.0819,136.6903 117.5179,144.8953 111.9949,150.7083 C111.9949,150.7083 110.0289,153.1063 106.1419,155.6303 Z M123.6829,120.4253 L116.5579,119.0043 L111.5579,118.0063 L100.1679,115.7333 L113.1849,85.2623 L115.7849,79.1753 L129.4519,47.1843 L144.3139,114.1183 L145.9699,121.5763 L146.7369,125.0253 L128.6979,121.4263 L123.6829,120.4253 Z" id="Fill-41" fill="#111820"></path>
                        <polygon id="Fill-43" fill-opacity="0.421223958" fill="#FEFEFE" points="0.8246 0.9218 274.4886 342.3508 89.4396 81.2578 256.2446 288.7938 94.6516 54.4788 191.0866 170.5208 105.0776 32.1638 271.8826 217.3828 211.9366 58.9428 274.4886 139.2778 274.4886 44.1638"></polygon>
                        <path d="M75.4721,235.7323 C75.2371,228.5093 73.9711,221.3203 72.9101,216.4143 L73.4011,216.2753 C73.4011,216.2753 73.7741,208.9613 71.8021,204.8533 C69.8301,200.7443 69.4901,190.3233 68.7761,187.2173 C68.6471,186.6553 68.5911,185.8123 68.5771,184.7943 C68.7611,185.1173 68.9421,185.4423 69.1191,185.7673 L68.5351,184.6743 L68.2591,195.1143 L69.7901,197.9393 C70.0771,198.4683 70.5011,198.7883 70.9511,198.7943 C71.9911,198.8093 76.2751,197.6193 75.6031,195.8053 L75.7301,193.4093 C75.9321,189.6333 77.7561,188.2443 75.0431,184.9853 C72.0971,181.4443 70.0481,169.8693 67.7971,165.3393 C67.2451,164.2293 66.7081,163.5353 66.1821,163.4793 C65.8541,163.4433 65.5791,163.3833 65.3451,163.3093 C63.4931,158.8653 64.6541,159.9713 66.3811,157.4663 C68.3061,154.6773 65.6371,144.9143 65.4431,143.9423 C64.6811,140.1433 60.8911,134.5913 55.8421,136.2673 C55.3261,136.4383 51.6271,137.7403 49.9411,141.9663 C47.5411,147.9753 63.7341,156.2493 49.1681,164.3853 C46.2091,164.8493 45.8931,170.1153 45.7701,171.3423 C45.6351,172.6813 45.4651,174.2133 45.5001,175.6533 C45.4931,177.6083 45.8681,179.5113 46.4331,181.3743 C47.4651,185.1003 48.9791,188.0413 48.9791,188.0413 C48.2601,190.5253 48.9341,217.1943 48.9341,217.1943 C48.9341,217.1943 48.4261,219.3773 49.4671,219.3213 C49.4671,220.6323 49.6041,222.1323 49.9511,223.8473 C49.9511,223.8473 75.8921,248.5673 75.4721,235.7323" id="Fill-47" fill="#C4E0E7"></path>
                        <polygon id="Fill-49" fill="#C4E0E7" points="50.3901 258.8373 49.7381 216.4843 73.1951 219.7423 67.3301 264.7013"></polygon>
                        <polygon id="Fill-51" fill="#111820" points="189.7836 245.6991 55.5126 196.6141 55.5126 183.7381 190.3896 232.6061"></polygon>
                        <polygon id="Fill-53" fill="#111820" points="161.5483 254.9935 79.8833 223.2835 79.8833 211.1185 161.8803 240.6915"></polygon>
                        <polygon id="Fill-63" fill-opacity="0.418789629" fill="#FEFEFE" points="338.7152 199.5433 338.7152 233.7513 386.6062 297.2803 353.3752 230.8193 387.6922 279.0363 349.4662 208.3393 385.9542 242.5473 370.9682 206.3843 409.8462 253.8413 409.4112 223.8693 409.4112 209.0993"></polygon>
                        <path d="M387.2797,314.597 L366.6647,306.623 L366.6647,297.488 C367.2337,297.051 367.9307,296.55 368.4647,295.978 C370.9717,293.289 372.7547,289.42 373.5297,285.012 L383.7347,287.048 L382.8167,282.916 L387.2797,284.166 L387.2797,314.597 Z M365.0547,295.697 C363.3677,296.732 361.5567,297.068 359.7737,296.645 C357.1917,296.031 354.9837,293.882 353.5547,290.596 C352.1047,287.257 351.6317,283.154 352.2227,279.042 C352.8147,274.93 354.3987,271.317 356.6827,268.868 C358.8487,266.546 361.3977,265.543 363.8907,266.024 C363.9847,266.042 364.0797,266.062 364.1737,266.085 C364.8447,266.245 365.4917,266.511 366.1057,266.872 L359.5487,282.222 L366.7877,283.666 L368.7417,284.056 L371.5687,284.62 C370.8927,288.297 369.5007,291.503 367.3427,293.774 C367.3427,293.774 366.5747,294.711 365.0547,295.697 Z M371.9097,281.942 L369.1257,281.387 L367.1717,280.997 L362.7207,280.109 L367.8067,268.203 L368.8237,265.825 L374.1637,253.326 L379.9697,279.478 L380.6177,282.392 L380.9167,283.74 L373.8687,282.333 L371.9097,281.942 Z" id="Fill-45" fill="#111820"></path>
                    </g>
                </g>
                <polygon id="Path-26" fill="#1E76BC" points="113.515625 132.8125 858.390625 167.617188 1587.20312 132.265625 863.703125 78.75"></polygon>
            </g>
        </g>
    </g>
</svg>