<?xml version="1.0" encoding="UTF-8"?>
<svg width="1440px" height="869px" viewBox="0 0 1440 869" version="1.1" xmlns="http://www.w3.org/2000/svg" xmlns:xlink="http://www.w3.org/1999/xlink">
    <title>Group 3</title>
    <g id="Page-1" stroke="none" stroke-width="1" fill="none" fill-rule="evenodd">
        <g id="Desktop-HD-Copy-28">
            <g id="Group-3" transform="translate(-111.000000, -56.000000)">
                <polygon id="Fill-1" fill="#1D8FCE" points="108 812.527 1550.604 812.527 1550.604 42 108 42"></polygon>
                <polygon id="Fill-1" fill="#1D8FCE" points="113 812.527 1555.604 812.527 1555.604 42 113 42"></polygon>
                <path d="M1285.90504,433.255609 C1285.88604,430.962761 1285.53604,428.535979 1285.25304,426.413045 C1284.99404,424.469022 1284.13004,413.347607 1279.39704,412.7649 C1264.97704,396.554041 1275.57504,387.640518 1271.44604,378.211253 C1268.54304,371.579584 1261.21304,370.01537 1260.38404,369.770493 C1252.26304,367.368699 1248.26004,376.968877 1247.24704,383.048824 C1246.98704,384.604043 1248.53404,401.086765 1251.74104,405.422587 C1254.62104,409.314633 1250.35804,411.72842 1246.55504,416.565991 L1242.75904,419.922305 C1242.21604,421.111708 1241.88204,422.548986 1241.67904,424.143185 C1241.09404,422.427047 1240.50904,420.906811 1239.91404,419.710412 C1239.05904,417.992275 1238.22804,416.920813 1237.41504,416.832857 C1236.90704,416.777884 1236.48304,416.684931 1236.12004,416.570988 C1233.25604,409.699439 1235.05004,411.41058 1237.72304,407.538525 C1240.70004,403.225691 1236.57204,388.132271 1236.27104,386.630025 C1235.09204,380.755975 1229.23104,372.172286 1221.42104,374.763985 C1221.36304,374.782975 1221.27504,374.81296 1221.17004,374.850941 C1219.39104,374.185275 1217.41604,374.060338 1215.29604,374.763985 C1214.49904,375.027852 1208.77704,377.040841 1206.16804,383.57456 C1205.66304,384.838925 1205.69304,386.168257 1206.06104,387.552562 C1204.61904,387.034822 1202.88904,386.955862 1200.80604,387.542567 C1200.00804,387.767454 1194.27704,389.478595 1191.63204,394.94385 C1187.95304,402.548031 1202.69104,413.757401 1182.15304,424.184165 C1181.92604,424.016249 1181.69904,423.910302 1181.47404,423.886314 C1180.96704,423.831342 1180.54304,423.738389 1180.17904,423.623446 C1177.31604,416.752897 1179.10904,418.464038 1181.78304,414.590983 C1184.76004,410.279148 1180.63204,395.184729 1180.33104,393.683483 C1179.15204,387.809433 1173.29104,379.225744 1165.48004,381.816443 C1165.22504,381.9014 1164.46604,382.167267 1163.46704,382.699 C1162.83804,377.50161 1161.41204,372.18428 1161.23904,371.324712 C1160.06104,365.451662 1154.20004,356.867972 1146.38904,359.458671 C1145.59204,359.722539 1139.87104,361.736527 1137.26004,368.270246 C1133.80504,376.920901 1155.28304,388.610031 1140.05404,400.335142 C1139.36004,396.25719 1138.40904,392.677988 1138.27004,391.986335 C1137.09304,386.112285 1131.23104,377.529596 1123.42004,380.120295 C1122.62304,380.385162 1116.90204,382.398151 1114.29204,388.931869 C1113.08804,391.946355 1114.91304,395.330656 1117.15804,398.956835 C1102.14204,387.757459 1118.24204,376.238244 1114.47704,367.641562 C1111.57304,361.008893 1104.24304,360.975909 1103.41504,360.730033 C1095.29504,358.328239 1091.29204,366.398186 1090.27804,372.478133 C1090.01804,374.033352 1091.56504,390.516074 1094.77204,394.851896 C1097.52804,398.577025 1093.74204,400.948834 1090.07904,405.385606 C1089.18804,405.684456 1083.63504,407.704441 1081.03504,414.077241 C1073.92904,401.726444 1081.29904,393.986331 1077.74204,385.86341 C1074.83904,379.231741 1067.50904,377.667526 1066.67904,377.422649 C1058.55904,375.020856 1054.55604,384.621034 1053.54304,390.700981 C1053.41304,391.484587 1053.74004,396.048295 1054.50604,400.940838 C1042.63204,390.208228 1057.21104,379.308702 1053.61004,371.084832 C1050.70604,364.452164 1043.37604,364.41918 1042.54704,364.173304 C1034.42604,361.77151 1030.42504,369.841457 1029.41004,375.922403 C1029.15104,377.476622 1030.69804,393.960344 1033.90404,398.295167 C1036.78404,402.188212 1032.52204,404.601 1028.71804,409.43857 L1024.92404,412.794885 C1022.66404,417.739402 1023.97304,426.92079 1023.67404,434.142164 C1022.20904,429.129681 1020.81304,424.323095 1019.36304,421.40656 C1018.50904,419.689422 1017.67804,418.616961 1016.86404,418.530005 C1016.35704,418.475032 1015.93204,418.381079 1015.57004,418.267137 C1012.70604,411.396587 1014.50004,413.106728 1017.17304,409.234673 C1020.15004,404.921839 1016.02104,389.828419 1015.72004,388.326173 C1014.54304,382.453123 1008.68004,373.869434 1000.87004,376.460133 C1000.07304,376.724 994.351039,378.737989 991.742039,385.271708 C989.175039,391.69848 1000.37104,399.803409 1000.05204,408.353116 C999.309039,404.606997 997.864039,400.257181 994.952039,399.898362 C971.357039,387.718479 991.129039,374.77398 987.000039,365.345715 C984.096039,358.713046 976.766039,358.680062 975.937039,358.434186 C967.817039,356.032392 963.814039,364.102339 962.801039,370.183285 C962.542039,371.737505 964.088039,388.220227 967.295039,392.556049 C970.175039,396.448094 965.912039,398.861882 962.109039,403.699453 L958.313039,407.055767 C955.627039,412.934815 957.986039,424.801855 956.685039,432.242118 C955.218039,427.225637 953.822039,422.412055 952.371039,419.493521 C951.516039,417.776383 950.685039,416.703922 949.872039,416.616965 C949.364039,416.561993 948.940039,416.46804 948.577039,416.354097 C945.713039,409.483548 947.507039,411.193689 950.180039,407.321634 C953.157039,403.0088 949.029039,387.91538 948.728039,386.413134 C947.551039,380.540084 941.688039,371.956395 933.878039,374.547094 C933.081039,374.810961 927.359039,376.82495 924.750039,383.358668 C921.039039,392.648003 935.758039,404.971814 923.555039,418.018262 C918.978039,418.734902 918.488039,426.876813 918.298039,428.77286 C918.091039,430.84382 917.827039,433.211631 917.882039,435.439512 C917.870039,438.461994 918.449039,441.401518 919.323039,444.282071 C920.921039,450.043178 923.262039,454.589894 923.262039,454.589894 C923.183039,454.861758 923.116039,455.327524 923.057039,455.947213 C918.674039,450.036181 915.572039,432.831822 912.176039,425.998254 C911.321039,424.281116 910.490039,423.208655 909.676039,423.120699 C909.169039,423.066726 908.745039,422.972773 908.382039,422.85883 C905.517039,415.988281 907.311039,417.698422 909.985039,413.826367 C912.962039,409.513533 908.834039,394.420113 908.532039,392.917867 C907.354039,387.044817 901.493039,378.461128 893.682039,381.051827 C892.884039,381.315694 887.164039,383.328683 884.554039,389.862402 C880.913039,398.979823 904.965039,411.47055 884.560039,423.822347 C879.813039,420.118207 868.367039,412.352107 860.343039,416.450049 C853.705039,419.840346 854.596039,438.058197 852.303039,445.146637 C849.214039,454.699839 836.013039,470.54888 831.632039,479.583342 C825.805039,491.59531 705.721039,485.646297 808.663039,527.79313 C937.043039,580.355732 761.577039,605.848929 709.897039,618.474588 C658.217039,631.101247 461.833039,699.973658 480.209039,728.669246 L1277.22704,725.386895 L1274.38704,508.570784 L1277.41004,507.786178 L1279.74304,506.231959 C1280.20504,503.486338 1281.93304,504.979588 1281.86504,502.894635 C1283.52404,502.929617 1282.60204,499.486347 1282.60204,499.486347 C1282.60204,499.486347 1282.28804,457.045661 1281.01504,453.131627 C1281.01504,453.131627 1283.27104,448.378014 1284.71904,442.399017 C1285.52204,439.407519 1286.01804,436.363048 1285.90504,433.255609" id="Fill-2" fill="#1E76BC"></path>
                <path d="M1658.90591,453.255611 C1658.88591,450.962762 1658.53691,448.535981 1658.25391,446.413047 C1657.99391,444.470023 1657.12991,433.347609 1652.39791,432.764902 C1637.97691,416.554043 1648.57491,407.64052 1644.44691,398.211255 C1641.54291,391.578586 1634.21291,390.015371 1633.38491,389.770494 C1625.26291,387.368701 1621.26091,396.968879 1620.24691,403.048826 C1619.98791,404.604045 1621.53391,421.086767 1624.74091,425.42159 C1627.62091,429.314635 1623.35791,431.728422 1619.55491,436.565993 L1615.75991,439.921308 C1615.21691,441.11171 1614.88191,442.548988 1614.67891,444.143187 C1614.09391,442.42605 1613.50891,440.906813 1612.91391,439.709414 C1612.05991,437.992276 1611.22891,436.920815 1610.41591,436.832859 C1609.90791,436.777886 1609.48291,436.684933 1609.12091,436.57099 C1606.25691,429.699441 1608.05091,431.410582 1610.72291,427.538527 C1613.70091,423.225693 1609.57191,408.131273 1609.27091,406.630027 C1608.09291,400.755977 1602.23191,392.172288 1594.42091,394.763987 C1594.36391,394.781978 1594.27491,394.812962 1594.17091,394.850943 C1592.39191,394.184278 1590.41691,394.05934 1588.29591,394.763987 C1587.49891,395.027854 1581.77791,397.040843 1579.16791,403.574562 C1578.66291,404.838927 1578.69291,406.168259 1579.06091,407.552564 C1577.61891,407.034824 1575.88891,406.954864 1573.80591,407.542569 C1573.00891,407.767456 1567.27691,409.477597 1564.63291,414.943852 C1560.95291,422.548033 1575.69091,433.757403 1555.15291,444.184167 C1554.92591,444.016251 1554.69991,443.910304 1554.47391,443.886316 C1553.96791,443.831344 1553.54291,443.738391 1553.17991,443.623448 C1550.31591,436.752899 1552.10991,438.46304 1554.78291,434.590985 C1557.75991,430.27915 1553.63291,415.184731 1553.33091,413.682485 C1552.15291,407.809435 1546.29191,399.225746 1538.47991,401.816445 C1538.22591,401.901402 1537.46591,402.167269 1536.46791,402.699001 C1535.83891,397.501612 1534.41191,392.184282 1534.23991,391.324714 C1533.06191,385.451663 1527.19991,376.867974 1519.38891,379.458673 C1518.59291,379.722541 1512.87091,381.736529 1510.26091,388.269248 C1506.80591,396.920903 1528.28391,408.610033 1513.05391,420.335144 C1512.35991,416.256193 1511.40991,412.67799 1511.27091,411.986337 C1510.09391,406.112287 1504.23091,397.529598 1496.42091,400.120297 C1495.62391,400.384164 1489.90191,402.398153 1487.29291,408.931871 C1486.08891,411.946357 1487.91391,415.330658 1490.15791,418.955837 C1475.14191,407.757461 1491.24191,396.238246 1487.47691,387.640564 C1484.57391,381.008895 1477.24391,380.974912 1476.41491,380.730035 C1468.29491,378.328241 1464.29291,386.398188 1463.27791,392.478135 C1463.01891,394.033354 1464.56491,410.516076 1467.77191,414.851898 C1470.52791,418.577027 1466.74291,420.948836 1463.07991,425.385608 C1462.18891,425.684458 1456.63591,427.704443 1454.03591,434.077243 C1446.92891,421.726445 1454.29891,413.986333 1450.74291,405.863412 C1447.83891,399.231743 1440.50891,397.667528 1439.67991,397.422651 C1431.55991,395.020858 1427.55691,404.621036 1426.54391,410.700983 C1426.41291,411.484589 1426.73991,416.047298 1427.50591,420.94084 C1415.63191,410.20823 1430.21191,399.308704 1426.60991,391.083835 C1423.70691,384.452165 1416.37691,384.418182 1415.54791,384.173305 C1407.42691,381.771512 1403.42491,389.841459 1402.41091,395.921405 C1402.15091,397.476624 1403.69791,413.959346 1406.90491,418.295169 C1409.78491,422.188214 1405.52191,424.601002 1401.71891,429.438572 L1397.92391,432.793887 C1395.66391,437.739403 1396.97391,446.920792 1396.67391,454.142166 C1395.20991,449.129683 1393.81291,444.322097 1392.36291,441.406562 C1391.50991,439.689424 1390.67791,438.616963 1389.86491,438.530006 C1389.35691,438.475034 1388.93291,438.381081 1388.56991,438.267138 C1385.70591,431.396589 1387.49991,433.10673 1390.17291,429.234675 C1393.14991,424.921841 1389.02191,409.828421 1388.71991,408.326175 C1387.54291,402.452125 1381.68091,393.868436 1373.87091,396.460135 C1373.07291,396.724002 1367.35191,398.737991 1364.74191,405.271709 C1362.17591,411.698482 1373.37091,419.802412 1373.05291,428.353117 C1372.30991,424.606999 1370.86391,420.257183 1367.95191,419.898364 C1344.35691,407.718481 1364.12891,394.773982 1360.00091,385.344717 C1357.09591,378.713048 1349.76591,378.679065 1348.93791,378.434188 C1340.81791,376.032394 1336.81491,384.102341 1335.80091,390.182288 C1335.54191,391.737507 1337.08891,408.220229 1340.29591,412.556051 C1343.17591,416.448096 1338.91291,418.861884 1335.10991,423.699455 L1331.31391,427.055769 C1328.62791,432.934816 1330.98691,444.801857 1329.68491,452.24212 C1328.21891,447.225639 1326.82191,442.412057 1325.37091,439.492523 C1324.51691,437.776385 1323.68591,436.703923 1322.87191,436.616967 C1322.36391,436.561995 1321.93991,436.468042 1321.57791,436.354099 C1318.71391,429.48355 1320.50791,431.193691 1323.17991,427.321635 C1326.15791,423.008801 1322.02991,407.915382 1321.72791,406.413136 C1320.55091,400.539086 1314.68791,391.955397 1306.87791,394.547096 C1306.08091,394.810963 1300.35991,396.824952 1297.74991,403.35867 C1294.03991,412.648005 1308.75791,424.971816 1296.55591,438.018263 C1291.97791,438.734903 1291.48791,446.876814 1291.29891,448.772862 C1291.09091,450.843822 1290.82791,453.211633 1290.88191,455.439514 C1290.87091,458.460997 1291.44891,461.40152 1292.32391,464.282073 C1293.92091,470.04318 1296.26191,474.588897 1296.26191,474.588897 C1296.18391,474.86076 1296.11591,475.327526 1296.05791,475.947215 C1291.67391,470.036183 1288.57291,452.831824 1285.17591,445.997256 C1284.32191,444.281118 1283.48991,443.208657 1282.67691,443.120701 C1282.16891,443.066728 1281.74491,442.972775 1281.38291,442.858832 C1278.51791,435.988283 1280.31191,437.698424 1282.98491,433.826369 C1285.96291,429.513535 1281.83391,414.420115 1281.53291,412.917869 C1280.35491,407.043819 1274.49291,398.46013 1266.68191,401.051829 C1265.88491,401.315696 1260.16391,403.328685 1257.55391,409.862404 C1253.91291,418.979825 1277.96591,431.470552 1257.56091,443.822348 C1252.81391,440.118209 1241.36691,432.352109 1233.34391,436.45105 C1226.70591,439.840348 1227.59591,458.058199 1225.30391,465.146639 C1222.21491,474.699841 1209.01291,490.548881 1204.63191,499.583344 C1198.80591,511.595311 1188.18391,542.955562 1181.66391,547.793132 C1070.26391,630.438626 1134.57691,625.847931 1082.89691,638.47459 C1031.21791,651.101249 834.833912,719.97366 853.208912,748.670248 L1650.22691,745.386897 L1647.38691,528.570786 L1650.40991,527.785181 L1652.74391,526.230961 C1653.20591,523.48634 1654.93291,524.97959 1654.86491,522.894637 C1656.52491,522.929619 1655.60291,519.485349 1655.60291,519.485349 C1655.60291,519.485349 1655.28791,477.045663 1654.01591,473.131629 C1654.01591,473.131629 1656.27091,468.378016 1657.71991,462.398019 C1658.52191,459.407521 1659.01891,456.36305 1658.90591,453.255611" id="Fill-4" fill="#1E76BC"></path>
                <path d="M93.8789063,604.472516 C93.8789063,604.472516 193.037502,495.061465 504.397338,485.29337 C621.676724,481.613219 621.676724,477.80594 759.566594,493.108445 C842.876365,499.652271 1108.1816,574.329434 1555.48231,717.139932 L1555.48231,884.283439 C1329.84635,911.564822 1092.51501,925.127015 843.488281,924.970017 C469.948187,924.731795 281.636719,865.726562 93.8789063,835.914062 C-31.2929688,816.039062 -31.2929687,738.89188 93.8789063,604.472516 Z" id="Fill-8" fill="#222A33"></path>
                <polygon id="Fill-6" fill="#1E76BC" points="96 94.7291842 1559.05844 191.491331 1559.05844 1 96 31.7950785"></polygon>
                <g id="Group-2" transform="translate(900.000000, 416.000000)" fill="#FEFEFE">
                    <g id="flash-2" transform="translate(197.164000, 0.850300)">
                        <path d="M26.39,16.905 C26.39,26.242 20.483,33.811 13.196,33.811 C5.909,33.811 -2.85993451e-13,26.242 -2.85993451e-13,16.905 C-2.85993451e-13,7.569 5.909,1.13686838e-13 13.196,1.13686838e-13 C20.483,1.13686838e-13 26.39,7.569 26.39,16.905" id="Fill-50" opacity="0.347823661"></path>
                        <polygon id="Fill-52" points="13.2874 10.9748 14.1314 14.0138 16.4044 12.6288 15.3234 15.5418 17.6954 16.6228 15.3234 17.7038 16.4044 20.6168 14.1314 19.2318 13.2874 22.2708 12.4434 19.2318 10.1704 20.6168 11.2514 17.7038 8.8794 16.6228 11.2514 15.5418 10.1704 12.6288 12.4434 14.0138"></polygon>
                    </g>
                    <g id="flash-3" transform="translate(396.748500, 90.422300)">
                        <path d="M43.449,27.835 C43.449,43.207 33.722,55.669 21.724,55.669 C9.726,55.669 2.27373675e-13,43.207 2.27373675e-13,27.835 C2.27373675e-13,12.462 9.726,1.70530257e-13 21.724,1.70530257e-13 C33.722,1.70530257e-13 43.449,12.462 43.449,27.835" id="Fill-54" opacity="0.350111607"></path>
                        <polygon id="Fill-56" points="20.3758 19.1172 21.4978 24.2772 24.5238 21.9262 23.0858 26.8732 26.2418 28.7092 23.0858 30.5442 24.5238 35.4912 21.4978 33.1392 20.3758 38.3012 19.2538 33.1392 16.2278 35.4912 17.6658 30.5442 14.5098 28.7092 17.6658 26.8732 16.2278 21.9262 19.2538 24.2772"></polygon>
                    </g>
                    <g id="flash-5" transform="translate(618.425900, 113.330800)">
                        <path d="M23.005,14.738 C23.005,22.877 17.856,29.475 11.502,29.475 C5.15,29.475 -1.36424205e-12,22.877 -1.36424205e-12,14.738 C-1.36424205e-12,6.598 5.15,-5.5067062e-14 11.502,-5.5067062e-14 C17.856,-5.5067062e-14 23.005,6.598 23.005,14.738" id="Fill-58" opacity="0.350111607"></path>
                        <polygon id="Fill-62" points="10.7882 10.1218 11.3832 12.8538 12.9842 11.6088 12.2242 14.2278 13.8942 15.2008 12.2242 16.1728 12.9842 18.7918 11.3832 17.5468 10.7882 20.2788 10.1942 17.5468 8.5922 18.7918 9.3532 16.1728 7.6832 15.2008 9.3532 14.2278 8.5922 11.6088 10.1942 12.8538"></polygon>
                    </g>
                    <g id="flash-1" transform="translate(0.944700, 29.134700)">
                        <path d="M20.329,13.023 C20.329,20.215 15.778,26.045 10.165,26.045 C4.551,26.045 -1.02318154e-12,20.215 -1.02318154e-12,13.023 C-1.02318154e-12,5.831 4.551,1.77635684e-15 10.165,1.77635684e-15 C15.778,1.77635684e-15 20.329,5.831 20.329,13.023" id="Fill-60" opacity="0.350111607"></path>
                        <polygon id="Fill-68" points="9.7235 8.1694 10.3185 10.9014 11.9195 9.6564 11.1595 12.2754 12.8295 13.2474 11.1595 14.2194 11.9195 16.8394 10.3185 15.5944 9.7235 18.3264 9.1295 15.5944 7.5275 16.8394 8.2885 14.2194 6.6185 13.2474 8.2885 12.2754 7.5275 9.6564 9.1295 10.9014"></polygon>
                    </g>
                    <g id="flash-4" transform="translate(485.068800, 14.919200)">
                        <path d="M33.702,21.59 C33.702,33.515 26.158,43.181 16.851,43.181 C7.545,43.181 -1.25055521e-12,33.515 -1.25055521e-12,21.59 C-1.25055521e-12,9.666 7.545,0 16.851,0 C26.158,0 33.702,9.666 33.702,21.59" id="Fill-64" opacity="0.350111607"></path>
                        <polygon id="Fill-66" points="15.8045 14.8283 16.6755 18.8313 19.0225 17.0083 17.9075 20.8453 20.3555 22.2683 17.9075 23.6913 19.0225 27.5293 16.6755 25.7053 15.8045 29.7083 14.9345 25.7053 12.5875 27.5293 13.7025 23.6913 11.2545 22.2683 13.7025 20.8453 12.5875 17.0083 14.9345 18.8313"></polygon>
                    </g>
                </g>
                <polygon id="Fill-6" fill="#1E76BC" points="111 94.5200432 1574.05844 191.28219 1574.05844 0.79085902 111 31.5859375"></polygon>
                <g id="Group" transform="translate(94.000000, 93.000000)">
                    <polygon id="Fill-70" fill="#111820" points="1522.49142 110.6372 -3.63797881e-12 3.9902 0.865901821 0.0192 1523.3588 99.6652"></polygon>
                    <path d="M1355.5266,89.9614 C1356.8536,87.9244 1357.6306,85.4984 1357.6306,82.8864 C1357.6306,75.7134 1351.8166,69.8994 1344.6446,69.8994 C1337.4706,69.8994 1331.6566,75.7134 1331.6566,82.8864 C1331.6566,83.2784 1331.6816,83.6664 1331.7146,84.0494 C1326.4876,85.5614 1322.0846,89.5844 1320.3806,95.1474 L1310.1736,128.5054 C1307.4986,137.2514 1312.4646,146.5974 1321.2116,149.2744 L1329.6686,151.8614 C1338.4146,154.5384 1347.7596,149.5714 1350.4366,140.8244 L1360.6436,107.4674 C1362.6326,100.9664 1360.3946,94.1404 1355.5266,89.9614" id="Fill-82" fill="#111820"></path>
                    <path d="M1321.3918,149.5034 L1329.8488,152.0904 C1338.5958,154.7674 1347.9418,149.8004 1350.6178,141.0544 L1360.8248,107.6964 C1362.8138,101.1954 1360.5758,94.3694 1355.7068,90.1904 C1357.0348,88.1544 1357.8128,85.7274 1357.8128,83.1154 C1357.8128,75.9424 1351.9968,70.1284 1344.8258,70.1284" id="Fill-84" fill="#222A33"></path>
                    <path d="M1344.342,149.2876 C1343.51,152.7496 1335.461,153.7836 1326.363,151.5986 C1317.266,149.4126 1310.566,144.8336 1311.397,141.3716 C1312.229,137.9106 1320.278,136.8756 1329.375,139.0616 C1338.473,141.2466 1345.173,145.8256 1344.342,149.2876" id="Fill-86" fill="#FEFEFE"></path>
                    <path d="M1344.3538,149.0835 C1345.1848,145.6215 1338.4848,141.0435 1329.3868,138.8575 C1320.2898,136.6715 1312.2408,137.7065 1311.4088,141.1685 C1311.4088,141.1685 1320.2248,140.5645 1323.4828,141.2165 C1326.7408,141.8685 1332.2798,142.8455 1337.1668,144.4745 C1339.1448,145.1345 1344.3538,149.0835 1344.3538,149.0835" id="Fill-88" fill="#DFE0DF"></path>
                    <path d="M1331.1506,84.0283 C1334.4236,81.8803 1338.4376,80.8193 1342.6326,81.2943 C1348.5046,81.9583 1353.3606,85.4773 1355.9726,90.3093 C1356.7796,91.8013 1352.3156,87.6843 1343.4816,85.1203 C1335.5816,82.8273 1329.0466,85.4093 1331.1506,84.0283" id="Fill-90" fill="#111820"></path>
                    <path d="M1076.2581,63.499 C1077.3661,61.796 1078.0171,59.768 1078.0171,57.584 C1078.0171,51.588 1073.1561,46.728 1067.1601,46.728 C1061.1641,46.728 1056.3041,51.588 1056.3041,57.584 C1056.3041,57.913 1056.3241,58.236 1056.3531,58.557 C1051.9831,59.82 1048.3011,63.183 1046.8781,67.834 L1038.3451,95.719 C1036.1081,103.031 1040.2601,110.844 1047.5711,113.081 L1054.6411,115.244 C1061.9531,117.481 1069.7661,113.33 1072.0031,106.018 L1080.5351,78.132 C1082.1981,72.698 1080.3271,66.992 1076.2581,63.499" id="Fill-92" fill="#111820"></path>
                    <path d="M1047.7229,113.2725 L1054.7919,115.4365 C1062.1039,117.6725 1069.9159,113.5215 1072.1539,106.2095 L1080.6869,78.3245 C1082.3489,72.8905 1080.4779,67.1835 1076.4089,63.6905 C1077.5179,61.9875 1078.1679,59.9595 1078.1679,57.7755 C1078.1679,51.7795 1073.3079,46.9185 1067.3119,46.9185" id="Fill-94" fill="#222A33"></path>
                    <path d="M1066.9075,113.0923 C1066.2125,115.9863 1059.4835,116.8513 1051.8795,115.0243 C1044.2735,113.1963 1038.6725,109.3693 1039.3675,106.4753 C1040.0625,103.5813 1046.7915,102.7173 1054.3965,104.5443 C1062.0015,106.3713 1067.6025,110.1983 1066.9075,113.0923" id="Fill-96" fill="#FEFEFE"></path>
                    <path d="M1066.9172,112.9219 C1067.6122,110.0279 1062.0112,106.2009 1054.4062,104.3739 C1046.8012,102.5469 1040.0722,103.4109 1039.3772,106.3049 C1039.3772,106.3049 1046.7472,105.8009 1049.4712,106.3449 C1052.1942,106.8899 1056.8242,107.7069 1060.9092,109.0689 C1062.5632,109.6199 1066.9172,112.9219 1066.9172,112.9219" id="Fill-98" fill="#DFE0DF"></path>
                    <path d="M1055.8811,58.5391 C1058.6161,56.7431 1061.9731,55.8561 1065.4791,56.2531 C1070.3881,56.8091 1074.4471,59.7501 1076.6311,63.7891 C1077.3051,65.0371 1073.5731,61.5951 1066.1891,59.4521 C1059.5841,57.5351 1054.1211,59.6941 1055.8811,58.5391" id="Fill-100" fill="#111820"></path>
                    <path d="M825.4514,40.9487 C826.2614,39.7047 826.7364,38.2227 826.7364,36.6267 C826.7364,32.2457 823.1844,28.6937 818.8044,28.6937 C814.4224,28.6937 810.8704,32.2457 810.8704,36.6267 C810.8704,36.8667 810.8864,37.1037 810.9064,37.3377 C807.7134,38.2607 805.0224,40.7187 803.9824,44.1167 L797.7484,64.4927 C796.1134,69.8357 799.1474,75.5437 804.4894,77.1787 L809.6554,78.7597 C814.9984,80.3947 820.7074,77.3607 822.3424,72.0177 L828.5764,51.6417 C829.7924,47.6707 828.4254,43.5017 825.4514,40.9487" id="Fill-102" fill="#111820"></path>
                    <path d="M804.6008,77.3188 L809.7658,78.8998 C815.1088,80.5338 820.8178,77.5008 822.4528,72.1578 L828.6868,51.7818 C829.9028,47.8108 828.5358,43.6408 825.5618,41.0888 C826.3718,39.8448 826.8468,38.3618 826.8468,36.7668 C826.8468,32.3858 823.2948,28.8338 818.9138,28.8338" id="Fill-104" fill="#222A33"></path>
                    <path d="M818.6194,77.187 C818.1104,79.302 813.1944,79.934 807.6374,78.599 C802.0804,77.264 797.9874,74.467 798.4954,72.352 C799.0034,70.238 803.9204,69.605 809.4764,70.941 C815.0344,72.276 819.1274,75.072 818.6194,77.187" id="Fill-106" fill="#FEFEFE"></path>
                    <path d="M818.6262,77.0625 C819.1342,74.9475 815.0412,72.1515 809.4832,70.8165 C803.9272,69.4815 799.0102,70.1135 798.5022,72.2285 C798.5022,72.2285 803.8882,71.8595 805.8772,72.2575 C807.8672,72.6555 811.2502,73.2515 814.2352,74.2475 C815.4442,74.6505 818.6262,77.0625 818.6262,77.0625" id="Fill-108" fill="#DFE0DF"></path>
                    <path d="M810.5618,37.3247 C812.5608,36.0127 815.0128,35.3647 817.5748,35.6547 C821.1628,36.0597 824.1278,38.2097 825.7238,41.1617 C826.2158,42.0737 823.4898,39.5577 818.0938,37.9917 C813.2678,36.5917 809.2758,38.1687 810.5618,37.3247" id="Fill-110" fill="#111820"></path>
                </g>
            </g>
        </g>
    </g>
</svg>