<?xml version="1.0" encoding="UTF-8"?>
<svg width="1402px" height="241px" viewBox="0 0 1402 241" version="1.1" xmlns="http://www.w3.org/2000/svg" xmlns:xlink="http://www.w3.org/1999/xlink">
    <!-- Generator: Sketch 51.3 (57544) - http://www.bohemiancoding.com/sketch -->
    <title>Group</title>
    <desc>Created with Sketch.</desc>
    <defs></defs>
    <g id="Page-1" stroke="none" stroke-width="1" fill="none" fill-rule="evenodd">
        <g id="Desktop-HD-Copy-19" transform="translate(-34.000000, -69.000000)">
            <g id="Group" transform="translate(34.000000, 69.000000)">
                <g id="Group-228" opacity="0.304464286" fill="#FEFEFE">
                    <path d="M395.0204,106.5204 C395.0204,108.4534 393.4534,110.0204 391.5204,110.0204 C389.5874,110.0204 388.0204,108.4534 388.0204,106.5204 C388.0204,104.5874 389.5874,103.0204 391.5204,103.0204 C393.4534,103.0204 395.0204,104.5874 395.0204,106.5204" id="Fill-168"></path>
                    <path d="M223.0204,10.5204 C223.0204,12.4534 221.4534,14.0204 219.5204,14.0204 C217.5874,14.0204 216.0204,12.4534 216.0204,10.5204 C216.0204,8.5874 217.5874,7.0204 219.5204,7.0204 C221.4534,7.0204 223.0204,8.5874 223.0204,10.5204" id="Fill-170"></path>
                    <path d="M542.0204,45.5204 C542.0204,47.4534 540.4534,49.0204 538.5204,49.0204 C536.5874,49.0204 535.0204,47.4534 535.0204,45.5204 C535.0204,43.5874 536.5874,42.0204 538.5204,42.0204 C540.4534,42.0204 542.0204,43.5874 542.0204,45.5204" id="Fill-172"></path>
                    <path d="M573.0204,140.5204 C573.0204,142.4534 571.4534,144.0204 569.5204,144.0204 C567.5874,144.0204 566.0204,142.4534 566.0204,140.5204 C566.0204,138.5874 567.5874,137.0204 569.5204,137.0204 C571.4534,137.0204 573.0204,138.5874 573.0204,140.5204" id="Fill-174"></path>
                    <path d="M463.0204,161.5204 C463.0204,163.4534 461.4534,165.0204 459.5204,165.0204 C457.5874,165.0204 456.0204,163.4534 456.0204,161.5204 C456.0204,159.5874 457.5874,158.0204 459.5204,158.0204 C461.4534,158.0204 463.0204,159.5874 463.0204,161.5204" id="Fill-176"></path>
                    <path d="M599.0204,239.0204 C599.0204,240.1244 598.1244,241.0204 597.0204,241.0204 C595.9164,241.0204 595.0204,240.1244 595.0204,239.0204 C595.0204,237.9164 595.9164,237.0204 597.0204,237.0204 C598.1244,237.0204 599.0204,237.9164 599.0204,239.0204" id="Fill-178"></path>
                    <path d="M304.0204,52.0204 C304.0204,53.1244 303.1244,54.0204 302.0204,54.0204 C300.9164,54.0204 300.0204,53.1244 300.0204,52.0204 C300.0204,50.9164 300.9164,50.0204 302.0204,50.0204 C303.1244,50.0204 304.0204,50.9164 304.0204,52.0204" id="Fill-180"></path>
                    <path d="M325.0204,127.0204 C325.0204,128.1244 324.1244,129.0204 323.0204,129.0204 C321.9164,129.0204 321.0204,128.1244 321.0204,127.0204 C321.0204,125.9164 321.9164,125.0204 323.0204,125.0204 C324.1244,125.0204 325.0204,125.9164 325.0204,127.0204" id="Fill-182"></path>
                    <path d="M423.0204,27.0204 C423.0204,28.1244 422.1244,29.0204 421.0204,29.0204 C419.9164,29.0204 419.0204,28.1244 419.0204,27.0204 C419.0204,25.9164 419.9164,25.0204 421.0204,25.0204 C422.1244,25.0204 423.0204,25.9164 423.0204,27.0204" id="Fill-184"></path>
                    <path d="M316.0204,66.0204 C316.0204,67.1244 315.1244,68.0204 314.0204,68.0204 C312.9164,68.0204 312.0204,67.1244 312.0204,66.0204 C312.0204,64.9164 312.9164,64.0204 314.0204,64.0204 C315.1244,64.0204 316.0204,64.9164 316.0204,66.0204" id="Fill-186"></path>
                    <path d="M458.0204,88.0204 C458.0204,89.1244 457.1244,90.0204 456.0204,90.0204 C454.9164,90.0204 454.0204,89.1244 454.0204,88.0204 C454.0204,86.9164 454.9164,86.0204 456.0204,86.0204 C457.1244,86.0204 458.0204,86.9164 458.0204,88.0204" id="Fill-188"></path>
                    <path d="M258.0204,125.0204 C258.0204,126.1244 257.1244,127.0204 256.0204,127.0204 C254.9164,127.0204 254.0204,126.1244 254.0204,125.0204 C254.0204,123.9164 254.9164,123.0204 256.0204,123.0204 C257.1244,123.0204 258.0204,123.9164 258.0204,125.0204" id="Fill-190"></path>
                    <path d="M218.0204,69.0204 C218.0204,70.1244 217.1244,71.0204 216.0204,71.0204 C214.9164,71.0204 214.0204,70.1244 214.0204,69.0204 C214.0204,67.9164 214.9164,67.0204 216.0204,67.0204 C217.1244,67.0204 218.0204,67.9164 218.0204,69.0204" id="Fill-192"></path>
                    <path d="M4.0204,119.0204 C4.0204,120.1244 3.1244,121.0204 2.0204,121.0204 C0.9164,121.0204 0.0204,120.1244 0.0204,119.0204 C0.0204,117.9164 0.9164,117.0204 2.0204,117.0204 C3.1244,117.0204 4.0204,117.9164 4.0204,119.0204" id="Fill-194"></path>
                    <path d="M580.0204,83.0204 C580.0204,84.1244 579.1244,85.0204 578.0204,85.0204 C576.9164,85.0204 576.0204,84.1244 576.0204,83.0204 C576.0204,81.9164 576.9164,81.0204 578.0204,81.0204 C579.1244,81.0204 580.0204,81.9164 580.0204,83.0204" id="Fill-196"></path>
                    <path d="M486.0204,133.0204 C486.0204,134.1244 485.1244,135.0204 484.0204,135.0204 C482.9164,135.0204 482.0204,134.1244 482.0204,133.0204 C482.0204,131.9164 482.9164,131.0204 484.0204,131.0204 C485.1244,131.0204 486.0204,131.9164 486.0204,133.0204" id="Fill-198"></path>
                    <path d="M501.0204,112.0204 C501.0204,113.1244 500.1244,114.0204 499.0204,114.0204 C497.9164,114.0204 497.0204,113.1244 497.0204,112.0204 C497.0204,110.9164 497.9164,110.0204 499.0204,110.0204 C500.1244,110.0204 501.0204,110.9164 501.0204,112.0204" id="Fill-200"></path>
                    <path d="M654.0204,71.0204 C654.0204,72.1244 653.1244,73.0204 652.0204,73.0204 C650.9164,73.0204 650.0204,72.1244 650.0204,71.0204 C650.0204,69.9164 650.9164,69.0204 652.0204,69.0204 C653.1244,69.0204 654.0204,69.9164 654.0204,71.0204" id="Fill-202"></path>
                    <path d="M1044.0204,66.0204 C1044.0204,67.1244 1043.1244,68.0204 1042.0204,68.0204 C1040.9164,68.0204 1040.0204,67.1244 1040.0204,66.0204 C1040.0204,64.9164 1040.9164,64.0204 1042.0204,64.0204 C1043.1244,64.0204 1044.0204,64.9164 1044.0204,66.0204" id="Fill-204"></path>
                    <path d="M1206.0204,66.0204 C1206.0204,67.1244 1205.1244,68.0204 1204.0204,68.0204 C1202.9164,68.0204 1202.0204,67.1244 1202.0204,66.0204 C1202.0204,64.9164 1202.9164,64.0204 1204.0204,64.0204 C1205.1244,64.0204 1206.0204,64.9164 1206.0204,66.0204" id="Fill-206"></path>
                    <path d="M103.0204,134.5204 C103.0204,136.4534 101.4534,138.0204 99.5204,138.0204 C97.5874,138.0204 96.0204,136.4534 96.0204,134.5204 C96.0204,132.5874 97.5874,131.0204 99.5204,131.0204 C101.4534,131.0204 103.0204,132.5874 103.0204,134.5204" id="Fill-208"></path>
                    <path d="M756.0204,67.5204 C756.0204,69.4534 754.4534,71.0204 752.5204,71.0204 C750.5874,71.0204 749.0204,69.4534 749.0204,67.5204 C749.0204,65.5874 750.5874,64.0204 752.5204,64.0204 C754.4534,64.0204 756.0204,65.5874 756.0204,67.5204" id="Fill-210"></path>
                    <path d="M1164.0204,8.5204 C1164.0204,10.4534 1162.4534,12.0204 1160.5204,12.0204 C1158.5874,12.0204 1157.0204,10.4534 1157.0204,8.5204 C1157.0204,6.5874 1158.5874,5.0204 1160.5204,5.0204 C1162.4534,5.0204 1164.0204,6.5874 1164.0204,8.5204" id="Fill-212"></path>
                    <path d="M934.0204,101.5204 C934.0204,103.4534 932.4534,105.0204 930.5204,105.0204 C928.5874,105.0204 927.0204,103.4534 927.0204,101.5204 C927.0204,99.5874 928.5874,98.0204 930.5204,98.0204 C932.4534,98.0204 934.0204,99.5874 934.0204,101.5204" id="Fill-214"></path>
                    <path d="M824.0204,122.5204 C824.0204,124.4534 822.4534,126.0204 820.5204,126.0204 C818.5874,126.0204 817.0204,124.4534 817.0204,122.5204 C817.0204,120.5874 818.5874,119.0204 820.5204,119.0204 C822.4534,119.0204 824.0204,120.5874 824.0204,122.5204" id="Fill-216"></path>
                    <path d="M1283.0204,76.5204 C1283.0204,78.4534 1281.4534,80.0204 1279.5204,80.0204 C1277.5874,80.0204 1276.0204,78.4534 1276.0204,76.5204 C1276.0204,74.5874 1277.5874,73.0204 1279.5204,73.0204 C1281.4534,73.0204 1283.0204,74.5874 1283.0204,76.5204" id="Fill-218"></path>
                    <path d="M700.0204,14.0204 C700.0204,15.1244 699.1244,16.0204 698.0204,16.0204 C696.9164,16.0204 696.0204,15.1244 696.0204,14.0204 C696.0204,12.9164 696.9164,12.0204 698.0204,12.0204 C699.1244,12.0204 700.0204,12.9164 700.0204,14.0204" id="Fill-220"></path>
                    <path d="M902.0204,2.0204 C902.0204,3.1244 901.1244,4.0204 900.0204,4.0204 C898.9164,4.0204 898.0204,3.1244 898.0204,2.0204 C898.0204,0.9164 898.9164,0.0204 900.0204,0.0204 C901.1244,0.0204 902.0204,0.9164 902.0204,2.0204" id="Fill-222"></path>
                    <path d="M820.0204,24.0204 C820.0204,25.1244 819.1244,26.0204 818.0204,26.0204 C816.9164,26.0204 816.0204,25.1244 816.0204,24.0204 C816.0204,22.9164 816.9164,22.0204 818.0204,22.0204 C819.1244,22.0204 820.0204,22.9164 820.0204,24.0204" id="Fill-224"></path>
                    <path d="M973.0204,34.0204 C973.0204,35.1244 972.1244,36.0204 971.0204,36.0204 C969.9164,36.0204 969.0204,35.1244 969.0204,34.0204 C969.0204,32.9164 969.9164,32.0204 971.0204,32.0204 C972.1244,32.0204 973.0204,32.9164 973.0204,34.0204" id="Fill-226"></path>
                </g>
                <g id="cloud-group-2" transform="translate(710.000000, 51.000000)">
                    <path d="M69.8192,173.0004 C68.3672,165.8444 66.1162,163.7414 64.2352,163.2284 C59.8212,162.0234 56.5842,169.3384 50.2752,168.8124 C44.7842,168.3544 43.2152,162.4764 39.1072,163.2284 C34.8672,164.0054 34.5142,170.6414 30.7322,170.9064 C26.9752,171.1694 25.0972,164.7824 21.6582,165.3224 C18.6582,165.7934 18.7112,170.8684 15.3762,171.6044 C11.8982,172.3724 9.7382,167.3174 6.3022,168.1144 C3.4382,168.7794 3.5782,171.2104 0.0202,173.0004 L69.8192,173.0004 Z" id="Path" fill="#FEFEFE"></path>
                    <path d="M551.0204,178.0004 C557.2124,170.9764 566.5624,162.1944 569.0204,164.0004 C571.3484,165.7104 566.9364,173.6164 569.0204,175.0004 C570.8314,176.2034 574.8044,170.7684 582.0204,167.0004 C591.9544,161.8134 605.1724,161.2784 608.0204,166.0004 C610.0814,169.4174 605.7114,173.9264 608.0204,177.0004 L551.0204,178.0004 Z" id="Path" fill="#FEFEFE"></path>
                    <path d="M223.0204,24.14 C219.7914,9.352 215.0394,1.343 211.1134,0.326 C197.7944,-3.126 184.2074,25.514 169.8114,20.047 C160.3844,16.467 159.0294,8.171 149.7174,6.652 C136.7404,4.534 125.3064,23.088 118.8334,19.675 C115.0404,17.673 115.6794,13.121 112.8804,12.605 C109.8324,12.043 107.8834,18.559 103.9514,17.814 C100.0324,17.072 99.1854,13.065 94.6484,11.489 C91.8214,10.507 87.1544,16.077 79.0204,26 L223.0204,24.14 Z" id="Fill-144" fill="#E5EEF6"></path>
                </g>
                <g id="cloud-group-1" transform="translate(617.000000, 112.000000)" fill="#FEFEFE">
                    <path d="M141.3553,87.2606 L17.2153,87.2606 L0.0203,86.8416 C0.0203,86.8416 7.1503,79.2926 14.2803,77.1956 C18.9573,75.8196 17.6343,87.2606 28.1133,77.9336 C28.1133,77.9336 33.7163,73.5416 37.0443,73.1106 C41.1213,72.5816 38.8913,80.2486 42.8533,80.3886 C47.7253,80.5606 51.7873,72.8286 57.4773,69.2266 C62.6393,65.9586 66.8833,69.4616 67.2323,73.1106 C67.3823,74.6816 68.3443,76.7716 70.1523,77.3176 C72.3883,77.9936 75.5033,74.3266 78.8423,71.3236 C79.5433,70.6946 92.0653,59.6276 99.2053,62.5206 C104.3203,64.5936 103.5053,70.2576 108.1383,74.8906 C109.4493,76.2006 110.1273,76.6316 110.8913,76.9396 C115.3233,78.7226 119.3013,74.5256 123.3213,73.8406 C126.9433,73.2226 132.6343,75.1086 141.3553,87.2606" id="Path"></path>
                    <path d="M785.0204,72.0678 C777.5064,51.3318 782.8794,32.2248 769.1684,31.4058 C749.7184,30.2438 724.0574,50.9268 709.2094,48.6358 C688.2094,45.3948 707.9164,3.9128 688.5344,0.3918 C667.1374,-3.4942 626.6894,51.5748 596.8724,48.6358 C575.7844,46.5568 591.5574,22.0688 572.0604,22.4458 C552.5964,22.8228 525.5564,47.3668 503.8314,48.6358 C484.2734,49.7778 497.4384,35.0798 474.8844,33.4738 C457.3454,32.2238 418.1354,46.8668 405.2764,70.0008 L785.0204,72.0678 Z" id="Fill-332"></path>
                    <path d="M396.4921,70.1459 C386.1591,61.4559 373.1381,56.2409 365.3041,57.1109 C357.4831,57.9799 354.0071,59.7179 334.0201,71.8839 L396.4921,70.1459 Z" id="Fill-146"></path>
                </g>
            </g>
        </g>
    </g>
</svg>