<?xml version="1.0" encoding="UTF-8"?>
<svg width="22px" height="18px" viewBox="0 0 22 18" version="1.1" xmlns="http://www.w3.org/2000/svg" xmlns:xlink="http://www.w3.org/1999/xlink">
    <!-- Generator: Sketch 51.3 (57544) - http://www.bohemiancoding.com/sketch -->
    <title>Shape</title>
    <desc>Created with Sketch.</desc>
    <defs></defs>
    <g id="Page-1" stroke="none" stroke-width="1" fill="none" fill-rule="evenodd">
        <g id="Desktop-HD-Copy" transform="translate(-1304.000000, -1803.000000)" fill="#FFFFFF">
            <g id="Group-6" transform="translate(0.000000, 1750.000000)">
                <g id="Group-5" transform="translate(1255.000000, 53.000000)">
                    <path d="M68.4037118,2.84094244 C69.3808537,2.25028049 70.0417053,1.41589713 70.3860951,0.337792353 C69.4923949,0.872011737 68.538555,1.23759386 67.5242327,1.43453871 C66.6307038,0.478294641 65.5327684,0 64.2297412,0 C62.9827416,0 61.9195879,0.442910158 61.0399374,1.32890308 C60.1604583,2.214896 59.7208044,3.28592388 59.7208044,4.54215932 C59.7208044,4.87960646 59.7579848,5.22654699 59.8325169,5.58280832 C57.9897742,5.48908259 56.2611428,5.02269785 54.6464514,4.1836541 C53.0317599,3.34443773 51.6613967,2.22646069 50.5353619,0.829550358 C50.1258635,1.53257962 49.9211143,2.29671183 49.9211143,3.1217744 C49.9211143,3.89988781 50.1025615,4.62190386 50.4656272,5.28747735 C50.8285216,5.95305083 51.3171782,6.49210322 51.9314258,6.9046345 C51.2054657,6.87649953 50.5261096,6.68421507 49.8933575,6.32795374 L49.8933575,6.3842237 C49.8933575,7.48114266 50.2353486,8.44429102 50.9193308,9.27418659 C51.6033131,10.1040822 52.4665151,10.6265643 53.5087655,10.8421507 C53.117943,10.9451972 52.722323,10.9968068 52.3222483,10.9968068 C52.0616428,10.9968068 51.7777354,10.9733322 51.4706973,10.9267282 C51.7592308,11.8360231 52.289694,12.5835851 53.0620867,13.1695866 C53.8344795,13.7557608 54.7093325,14.0578234 55.6864744,14.0768102 C54.0486523,15.3703288 52.182779,16.0172607 50.0888544,16.0172607 C49.6886083,16.0172607 49.325714,15.9987917 49,15.9611634 C51.0939245,17.3204453 53.4018505,18 55.9239492,18 C57.5245909,18 59.0275699,17.7447139 60.4325434,17.2337965 C61.8380309,16.7228791 63.0384265,16.0384914 64.0342443,15.1804609 C65.0298907,14.3227755 65.8884666,13.33598 66.6096292,12.2202468 C67.3307918,11.1046863 67.8681085,9.93993268 68.2219219,8.72581341 C68.5755641,7.51152153 68.7523851,6.29533097 68.7523851,5.0763787 C68.7523851,4.8138431 68.747759,4.61707086 68.7383354,4.48571675 C69.622612,3.83913006 70.3765002,3.05618365 71,2.13756796 C70.1345706,2.51264348 69.2687985,2.74687149 68.4037118,2.84094244 Z" id="Shape"></path>
                </g>
            </g>
        </g>
    </g>
</svg>